<svg xmlns="http://www.w3.org/2000/svg" xmlns:xlink="http://www.w3.org/1999/xlink" xmlns:inkscape="http://www.inkscape.org/namespaces/inkscape" version="1.1" width="239" height="180" viewBox="0 0 239 180">
<defs>
<path id="font_1_1" d="M.2579956 .68333438C.2579956 .6843262 .2579956 .69433596 .24499512 .69433596 .22200012 .69433596 .14898682 .6863251 .12298584 .6843262 .114990238 .68333438 .10398865 .6823273 .10398865 .6633301 .10398865 .6523285 .11399841 .6523285 .1289978 .6523285 .1769867 .6523285 .17799378 .6433258 .17799378 .6353302L.1749878 .6153259 .04899597 .11526489C.04598999 .104263309 .04399109 .09725952 .04399109 .08125305 .04399109 .024246216 .08799744-.0107421879 .1349945-.0107421879 .16799927-.0107421879 .19299317 .009246826 .20999146 .04525757 .22799683 .08325195 .23999024 .14126587 .23999024 .14326477 .23999024 .15327454 .23098755 .15327454 .22799683 .15327454 .21798706 .15327454 .21699524 .14926148 .21398926 .13526917 .19699097 .070251468 .17799378 .011245728 .13798523 .011245728 .10798645 .011245728 .10798645 .043258668 .10798645 .057250978 .10798645 .08125305 .10899353 .086257938 .11399841 .10525513L.2579956 .68333438Z"/>
<path id="font_1_2" d="M.46199037 .33935548C.46699525 .36135865 .47698976 .3983612 .47698976 .40437318 .47698976 .42237855 .46299745 .43138124 .44799806 .43138124 .43598939 .43138124 .41799928 .42337037 .41099549 .4033661 .4079895 .3963623 .36099244 .205307 .35398866 .17930603 .34700013 .14929199 .34498597 .13128662 .34498597 .11328125 .34498597 .10227966 .34498597 .10028076 .34599305 .09527588 .32299806 .042266847 .29299928 .011245728 .2539978 .011245728 .17399597 .011245728 .17399597 .08526611 .17399597 .10227966 .17399597 .1342926 .1789856 .17329407 .22599793 .29634095 .23699951 .32633973 .24299622 .3403473 .24299622 .36035157 .24299622 .405365 .20999146 .4423828 .16099549 .4423828 .06599426 .4423828 .0289917 .29733277 .0289917 .28833009 .0289917 .27833558 .038986207 .27833558 .040985109 .27833558 .050994874 .27833558 .051986696 .28033448 .056991579 .29634095 .083999637 .38935853 .12298584 .42037965 .1579895 .42037965 .16699219 .42037965 .18299866 .41937257 .18299866 .38735963 .18299866 .36235047 .17199707 .3343506 .16499329 .31733705 .12098694 .1993103 .10899353 .1532898 .10899353 .11528015 .10899353 .024261475 .17599488-.0107421879 .25099183-.0107421879 .2679901-.0107421879 .31498719-.0107421879 .35499574 .059265138 .3809967-.0047454836 .44999696-.0107421879 .47999574-.0107421879 .5549927-.0107421879 .598999 .052261354 .625 .11227417 .6589966 .19030762 .69099429 .32434083 .69099429 .37236024 .69099429 .42736817 .6639862 .4423828 .6469879 .4423828 .621994 .4423828 .5970001 .41636659 .5970001 .3943634 .5970001 .38136292 .6029968 .3753662 .6119995 .36735536 .6230011 .35635377 .647995 .33035279 .647995 .28233338 .647995 .24832154 .61898806 .15029907 .59298709 .09927368 .5669861 .04626465 .5319977 .011245728 .48298646 .011245728 .43598939 .011245728 .40899659 .041259767 .40899659 .09828186 .40899659 .12628174 .41600038 .1572876 .41999818 .17129517L.46199037 .33935548Z"/>
<path id="font_2_82" d="M.4189911 0V.0309906H.3869934C.29699708 .0309906 .2939911 .041992189 .2939911 .07902527V.64012148C.2939911 .6640167 .2939911 .6660156 .2709961 .6660156 .20899964 .60227969 .12098694 .60227969 .08898926 .60227969V.57128909C.10899353 .57128909 .16799927 .57128909 .21998596 .5972748V.07902527C.21998596 .042999269 .21699524 .0309906 .1269989 .0309906H.09498596V0C.12998963 .0029907227 .21699524 .0029907227 .25698854 .0029907227 .29699708 .0029907227 .38398744 .0029907227 .4189911 0Z"/>
<path id="font_2_51" d="M.45700074 .16764832C.45700074 .20367432 .44599916 .24871826 .4079895 .29074098 .3889923 .31176759 .37298585 .32176209 .30899049 .36180116 .3809967 .39881898 .42999269 .4508667 .42999269 .51690676 .42999269 .6089783 .34098817 .6660156 .25 .6660156 .1499939 .6660156 .068984989 .5919647 .068984989 .49890138 .068984989 .48088075 .070999149 .43585206 .11299133 .38882447 .12399292 .3768158 .16099549 .35179139 .18598938 .33477784 .12799073 .30575563 .041992189 .24971009 .041992189 .15063477 .041992189 .044555665 .14399719-.022460938 .24899292-.022460938 .3619995-.022460938 .45700074 .060577394 .45700074 .16764832M.38598634 .51690676C.38598634 .45986939 .34700013 .41183473 .2869873 .3768158L.16299439 .4568634C.116989139 .4868927 .11299133 .5209198 .11299133 .53793337 .11299133 .5989685 .17799378 .64100649 .24899292 .64100649 .32199098 .64100649 .38598634 .588974 .38598634 .51690676M.40699769 .13162232C.40699769 .05757141 .33198548 .0055389406 .25 .0055389406 .1639862 .0055389406 .09199524 .06758118 .09199524 .15063477 .09199524 .2086792 .12399292 .2727356 .20899964 .31976319L.33198548 .24171448C.3600006 .22268677 .40699769 .19267273 .40699769 .13162232Z"/>
<path id="font_2_43" d="M.4149933 .119140628C.4149933 .12911988 .40499879 .12911988 .4019928 .12911988 .3929901 .12911988 .3909912 .12512207 .3889923 .119140628 .3600006 .026229859 .29499818 .014251709 .2579956 .014251709 .20498657 .014251709 .116989139 .0572052 .116989139 .21801758 .116989139 .38093568 .19898987 .42323304 .2519989 .42323304 .26098634 .42323304 .32398988 .42222596 .35899354 .38594056 .31799317 .38293458 .31199647 .3529358 .31199647 .3399353 .31199647 .31393434 .32998658 .2939453 .35798646 .2939453 .38398744 .2939453 .4039917 .3109436 .4039917 .34094239 .4039917 .40911866 .32798768 .4482422 .25099183 .4482422 .12599182 .4482422 .033996583 .3399353 .033996583 .21601868 .033996583 .08816528 .1329956-.0107421879 .24899292-.0107421879 .3829956-.0107421879 .4149933 .10914612 .4149933 .119140628Z"/>
<path id="font_2_75" d="M.8129883 0V.0309906C.7609863 .0309906 .73599246 .0309906 .7350006 .061019899V.25221253C.7350006 .3383026 .7350006 .36932374 .70399478 .405365 .6899872 .42237855 .6569977 .4423828 .598999 .4423828 .5149994 .4423828 .47099305 .38233949 .45399476 .34429933 .43998719 .43138124 .3659973 .4423828 .32099916 .4423828 .24798584 .4423828 .20098877 .39935304 .17298889 .33729554V.4423828L.03199768 .43066407V.3996582C.101989749 .3996582 .10998535 .39266969 .10998535 .34370423V.07595825C.10998535 .0309906 .09899902 .0309906 .03199768 .0309906V0L.14498902 .0029907227 .25698854 0V.0309906C.18998719 .0309906 .1789856 .0309906 .1789856 .07595825V.25978089C.1789856 .36431886 .25 .42037965 .31399537 .42037965 .3769989 .42037965 .3880005 .36631776 .3880005 .30926515V.076034549C.3880005 .0309906 .3769989 .0309906 .30999757 .0309906V0L.4229889 .0029907227 .5349884 0V.0309906C.46798707 .0309906 .45700074 .0309906 .45700074 .076034549V.2602234C.45700074 .36431886 .5279999 .42037965 .59199526 .42037965 .6549988 .42037965 .66600039 .36631776 .66600039 .30926515V.076034549C.66600039 .0309906 .6549988 .0309906 .58799746 .0309906V0L.70098879 .0029907227 .8129883 0Z"/>
<path id="font_2_107" d="M.44898988 .17396546H.42399598C.4189911 .14398194 .4119873 .099990848 .4019928 .084991458 .394989 .07699585 .32899476 .07699585 .30699159 .07699585H.1269989L.23298645 .17996216C.3889923 .31803895 .44898988 .37210084 .44898988 .47216798 .44898988 .5860901 .35899354 .6660156 .23699951 .6660156 .12399292 .6660156 .049987794 .57411196 .049987794 .48516847 .049987794 .4291687 .099990848 .4291687 .102996829 .4291687 .11999512 .4291687 .15499878 .44117738 .15499878 .48217774 .15499878 .5081787 .13699341 .5341797 .101989749 .5341797 .09399414 .5341797 .09199524 .5341797 .08898926 .5331726 .11199951 .59806826 .1659851 .63500979 .22399903 .63500979 .31498719 .63500979 .35798646 .5541382 .35798646 .47216798 .35798646 .39196778 .30799867 .31297303 .25299073 .25097657L.06098938 .036987306C.049987794 .025985718 .049987794 .023986817 .049987794 0H.42099L.44898988 .17396546Z"/>
<path id="font_2_57" d="M.47099305 .16503906V.19602967H.37098695V.6507721C.37098695 .6707611 .37098695 .6767578 .35499574 .6767578 .34599305 .6767578 .34298707 .6767578 .33499146 .6647644L.027999878 .19602967V.16503906H.2939911V.07800293C.2939911 .041992189 .2919922 .0309906 .21798706 .0309906H.19699097V0C.23799134 .0029907227 .2899933 .0029907227 .33198548 .0029907227 .37399293 .0029907227 .4269867 .0029907227 .46798707 0V.0309906H.44699098C.37298585 .0309906 .37098695 .041992189 .37098695 .07800293V.16503906H.47099305M.2999878 .19602967H.055999757L.2999878 .56881716V.19602967Z"/>
<path id="font_1_3" d="M.33399964 .30233766C.33999635 .32835389 .36299134 .42037965 .43299867 .42037965 .43798829 .42037965 .46199037 .42037965 .48298646 .40734864 .45498658 .402359 .43499757 .37734986 .43499757 .35334779 .43499757 .33735658 .44599916 .31835938 .47299195 .31835938 .49499513 .31835938 .5269928 .3363495 .5269928 .37635804 .5269928 .42837525 .46798707 .4423828 .43399049 .4423828 .37599183 .4423828 .34098817 .38935853 .32899476 .36634828 .3039856 .43237306 .25 .4423828 .22099304 .4423828 .116989139 .4423828 .05999756 .3133545 .05999756 .28834535 .05999756 .27833558 .069992069 .27833558 .07199097 .27833558 .07998657 .27833558 .08299255 .28033448 .084991458 .28933717 .11898804 .39535523 .18499756 .42037965 .21899414 .42037965 .23799134 .42037965 .272995 .4113617 .272995 .35334779 .272995 .32235719 .2559967 .25532533 .21899414 .11528015 .20298767 .053268434 .16799927 .011245728 .12399292 .011245728 .117996219 .011245728 .09498596 .011245728 .07398987 .024276734 .09899902 .029266358 .12098694 .05027771 .12098694 .07827759 .12098694 .105270389 .09899902 .11328125 .083999637 .11328125 .053985597 .11328125 .0289917 .08728027 .0289917 .055267335 .0289917 .009246826 .07899475-.0107421879 .12298584-.0107421879 .18899536-.0107421879 .22499085 .059280397 .22799683 .0652771 .23999024 .028274537 .27598573-.0107421879 .33599855-.0107421879 .43899537-.0107421879 .49598695 .118270877 .49598695 .14328003 .49598695 .1532898 .4869995 .1532898 .48399354 .1532898 .47499085 .1532898 .47299195 .14929199 .47099305 .14228821 .43798829 .03527832 .36999513 .011245728 .33799745 .011245728 .29899598 .011245728 .2829895 .043273927 .2829895 .07727051 .2829895 .09927368 .2889862 .121276859 .2999878 .16529846L.33399964 .30233766Z"/>
</defs>
<path transform="matrix(1.00005,0,0,-1.00005,51.20186,146.21071)" d="M0 0V127.56062H170.08086V0ZM170.08086 127.56062" fill="#e5e6e5"/>
<path transform="matrix(1.00005,0,0,-1.00005,51.20186,146.21071)" d="M0 0V28.3468H28.3468V0ZM28.3468 28.3468" fill="#ffffff"/>
<path transform="matrix(1.00005,0,0,-1.00005,51.20186,146.21071)" d="M0 99.21382V127.56062H28.3468V99.21382ZM28.3468 127.56062" fill="#ffffff"/>
<path transform="matrix(1.00005,0,0,-1.00005,51.20186,146.21071)" d="M141.73404 0V28.3468H170.08086V0ZM170.08086 28.3468" fill="#ffffff"/>
<path transform="matrix(1.00005,0,0,-1.00005,51.20186,146.21071)" d="M141.73404 99.21382V127.56062H170.08086V99.21382ZM170.08086 127.56062" fill="#ffffff"/>
<path transform="matrix(1.00005,0,0,-1.00005,51.20186,146.21071)" stroke-width=".79701" stroke-linecap="butt" stroke-miterlimit="10" stroke-linejoin="miter" fill="none" stroke="#000000" d="M0 0V127.56062H170.08086V0ZM170.08086 127.56062"/>
<path transform="matrix(1.00005,0,0,-1.00005,51.20186,146.21071)" stroke-width=".79701" stroke-linecap="butt" stroke-miterlimit="10" stroke-linejoin="miter" fill="none" stroke="#0000ff" d="M0 28.3468H28.3468V0"/>
<path transform="matrix(1.00005,0,0,-1.00005,51.20186,146.21071)" stroke-width=".79701" stroke-linecap="butt" stroke-miterlimit="10" stroke-linejoin="miter" fill="none" stroke="#0000ff" d="M0 99.21382H28.3468V127.56062"/>
<path transform="matrix(1.00005,0,0,-1.00005,51.20186,146.21071)" stroke-width=".79701" stroke-linecap="butt" stroke-miterlimit="10" stroke-linejoin="miter" fill="none" stroke="#0000ff" d="M141.73404 0V28.3468H170.08086"/>
<path transform="matrix(1.00005,0,0,-1.00005,51.20186,146.21071)" stroke-width=".79701" stroke-linecap="butt" stroke-miterlimit="10" stroke-linejoin="miter" fill="none" stroke="#0000ff" d="M141.73404 127.56062V99.21382H170.08086"/>
<path transform="matrix(1.00005,0,0,-1.00005,51.20186,146.21071)" stroke-width=".79701" stroke-linecap="butt" stroke-dasharray="2.98883,2.98883" stroke-miterlimit="10" stroke-linejoin="miter" fill="none" stroke="#ff0000" d="M28.3468 28.3468V99.21382H141.73404V28.3468ZM141.73404 99.21382"/>
<path transform="matrix(1.00005,0,0,-1.00005,51.20186,146.21071)" stroke-width=".79701" stroke-linecap="butt" stroke-miterlimit="10" stroke-linejoin="miter" fill="none" stroke="#ff0000" d="M29.14381 134.64734H140.93703"/>
<path transform="matrix(-1.00005,-0,0,1.00005,79.94859,11.556641)" stroke-width=".79701" stroke-linecap="round" stroke-linejoin="round" fill="none" stroke="#ff0000" d="M-2.55046 3.11095C-2.0845 1.24435-1.04614 .36295 0 0-1.04614-.36295-2.0845-1.24435-2.55046-3.11095"/>
<path transform="matrix(1.00005,0,0,-1.00005,192.54447,11.556641)" stroke-width=".79701" stroke-linecap="round" stroke-linejoin="round" fill="none" stroke="#ff0000" d="M-2.55046 3.11095C-2.0845 1.24435-1.04614 .36295 0 0-1.04614-.36295-2.0845-1.24435-2.55046-3.11095"/>
<use data-text="l" xlink:href="#font_1_1" transform="matrix(9.963098,0,0,-9.963098,134.66202,7.837799)" fill="#ff0000"/>
<path transform="matrix(1.00005,0,0,-1.00005,51.20186,146.21071)" stroke-width=".79701" stroke-linecap="butt" stroke-miterlimit="10" stroke-linejoin="miter" fill="none" stroke="#ff0000" d="M-7.08669 29.14381V98.41681"/>
<path transform="matrix(0,1.00005,1.00005,0,44.114816,117.463977)" stroke-width=".79701" stroke-linecap="round" stroke-linejoin="round" fill="none" stroke="#ff0000" d="M-2.55046 3.11095C-2.0845 1.24435-1.04614 .36295 0 0-1.04614-.36295-2.0845-1.24435-2.55046-3.11095"/>
<path transform="matrix(0,-1.00005,-1.00005,-0,44.114816,47.390474)" stroke-width=".79701" stroke-linecap="round" stroke-linejoin="round" fill="none" stroke="#ff0000" d="M-2.55046 3.11095C-2.0845 1.24435-1.04614 .36295 0 0-1.04614-.36295-2.0845-1.24435-2.55046-3.11095"/>
<use data-text="w" xlink:href="#font_1_2" transform="matrix(9.963098,0,0,-9.963098,32.99495,84.571628)" fill="#ff0000"/>
<path transform="matrix(1.00005,0,0,-1.00005,51.20186,146.21071)" stroke-width=".79701" stroke-linecap="butt" stroke-miterlimit="10" stroke-linejoin="miter" fill="none" stroke="#000000" d="M-21.2601 .797V126.76363"/>
<path transform="matrix(0,1.00005,1.00005,0,29.940697,145.8122)" stroke-width=".79701" stroke-linecap="round" stroke-linejoin="round" fill="none" stroke="#000000" d="M-2.55046 3.11095C-2.0845 1.24435-1.04614 .36295 0 0-1.04614-.36295-2.0845-1.24435-2.55046-3.11095"/>
<path transform="matrix(0,-1.00005,-1.00005,-0,29.940697,19.042237)" stroke-width=".79701" stroke-linecap="round" stroke-linejoin="round" fill="none" stroke="#000000" d="M-2.55046 3.11095C-2.0845 1.24435-1.04614 .36295 0 0-1.04614-.36295-2.0845-1.24435-2.55046-3.11095"/>
<use data-text="1" xlink:href="#font_2_82" transform="matrix(9.963098,0,0,-9.963098,.21731568,85.63568)"/>
<use data-text="8" xlink:href="#font_2_51" transform="matrix(9.963098,0,0,-9.963098,5.1988527,85.63568)"/>
<use data-text="c" xlink:href="#font_2_43" transform="matrix(9.963098,0,0,-9.963098,13.488159,85.63568)"/>
<use data-text="m" xlink:href="#font_2_75" transform="matrix(9.963098,0,0,-9.963098,17.911774,85.63568)"/>
<path transform="matrix(1.00005,0,0,-1.00005,51.20186,146.21071)" stroke-width=".79701" stroke-linecap="butt" stroke-miterlimit="10" stroke-linejoin="miter" fill="none" stroke="#000000" d="M.797-21.2601H169.28385"/>
<path transform="matrix(-1.00005,-0,0,1.00005,51.60038,167.47187)" stroke-width=".79701" stroke-linecap="round" stroke-linejoin="round" fill="none" stroke="#000000" d="M-2.55046 3.11095C-2.0845 1.24435-1.04614 .36295 0 0-1.04614-.36295-2.0845-1.24435-2.55046-3.11095"/>
<path transform="matrix(1.00005,0,0,-1.00005,220.89267,167.47187)" stroke-width=".79701" stroke-linecap="round" stroke-linejoin="round" fill="none" stroke="#000000" d="M-2.55046 3.11095C-2.0845 1.24435-1.04614 .36295 0 0-1.04614-.36295-2.0845-1.24435-2.55046-3.11095"/>
<use data-text="2" xlink:href="#font_2_107" transform="matrix(9.963098,0,0,-9.963098,123.24446,177.9363)"/>
<use data-text="4" xlink:href="#font_2_57" transform="matrix(9.963098,0,0,-9.963098,128.226,177.9363)"/>
<use data-text="c" xlink:href="#font_2_43" transform="matrix(9.963098,0,0,-9.963098,136.5153,177.9363)"/>
<use data-text="m" xlink:href="#font_2_75" transform="matrix(9.963098,0,0,-9.963098,140.93892,177.9363)"/>
<path transform="matrix(1.00005,0,0,-1.00005,51.20186,146.21071)" stroke-width=".3985" stroke-linecap="butt" stroke-miterlimit="10" stroke-linejoin="miter" fill="none" stroke="#000000" d="M.3985 134.64734H27.9483"/>
<path transform="matrix(-1.00005,-0,0,1.00005,51.40112,11.556641)" stroke-width=".3985" stroke-linecap="round" stroke-linejoin="round" fill="none" stroke="#000000" d="M-2.07224 2.39104C-1.69365 .95639-.84999 .27895 0 0-.84999-.27895-1.69365-.95639-2.07224-2.39104"/>
<path transform="matrix(1.00005,0,0,-1.00005,79.350818,11.556641)" stroke-width=".3985" stroke-linecap="round" stroke-linejoin="round" fill="none" stroke="#000000" d="M-2.07224 2.39104C-1.69365 .95639-.84999 .27895 0 0-.84999-.27895-1.69365-.95639-2.07224-2.39104"/>
<use data-text="x" xlink:href="#font_1_3" transform="matrix(9.963098,0,0,-9.963098,62.528429,8.036804)"/>
<path transform="matrix(1.00005,0,0,-1.00005,51.20186,146.21071)" stroke-width=".3985" stroke-linecap="butt" stroke-miterlimit="10" stroke-linejoin="miter" fill="none" stroke="#000000" d="M142.13256 134.64734H169.68235"/>
<path transform="matrix(-1.00005,-0,0,1.00005,193.14225,11.556641)" stroke-width=".3985" stroke-linecap="round" stroke-linejoin="round" fill="none" stroke="#000000" d="M-2.07224 2.39104C-1.69365 .95639-.84999 .27895 0 0-.84999-.27895-1.69365-.95639-2.07224-2.39104"/>
<path transform="matrix(1.00005,0,0,-1.00005,221.09194,11.556641)" stroke-width=".3985" stroke-linecap="round" stroke-linejoin="round" fill="none" stroke="#000000" d="M-2.07224 2.39104C-1.69365 .95639-.84999 .27895 0 0-.84999-.27895-1.69365-.95639-2.07224-2.39104"/>
<use data-text="x" xlink:href="#font_1_3" transform="matrix(9.963098,0,0,-9.963098,204.2695,8.036804)"/>
<path transform="matrix(1.00005,0,0,-1.00005,51.20186,146.21071)" stroke-width=".3985" stroke-linecap="butt" stroke-miterlimit="10" stroke-linejoin="miter" fill="none" stroke="#000000" d="M.3985-7.08669H27.9483"/>
<path transform="matrix(-1.00005,-0,0,1.00005,51.40112,153.29776)" stroke-width=".3985" stroke-linecap="round" stroke-linejoin="round" fill="none" stroke="#000000" d="M-2.07224 2.39104C-1.69365 .95639-.84999 .27895 0 0-.84999-.27895-1.69365-.95639-2.07224-2.39104"/>
<path transform="matrix(1.00005,0,0,-1.00005,79.350818,153.29776)" stroke-width=".3985" stroke-linecap="round" stroke-linejoin="round" fill="none" stroke="#000000" d="M-2.07224 2.39104C-1.69365 .95639-.84999 .27895 0 0-.84999-.27895-1.69365-.95639-2.07224-2.39104"/>
<use data-text="x" xlink:href="#font_1_3" transform="matrix(9.963098,0,0,-9.963098,62.528429,161.10746)"/>
<path transform="matrix(1.00005,0,0,-1.00005,51.20186,146.21071)" stroke-width=".3985" stroke-linecap="butt" stroke-miterlimit="10" stroke-linejoin="miter" fill="none" stroke="#000000" d="M142.13256-7.08669H169.68235"/>
<path transform="matrix(-1.00005,-0,0,1.00005,193.14225,153.29776)" stroke-width=".3985" stroke-linecap="round" stroke-linejoin="round" fill="none" stroke="#000000" d="M-2.07224 2.39104C-1.69365 .95639-.84999 .27895 0 0-.84999-.27895-1.69365-.95639-2.07224-2.39104"/>
<path transform="matrix(1.00005,0,0,-1.00005,221.09194,153.29776)" stroke-width=".3985" stroke-linecap="round" stroke-linejoin="round" fill="none" stroke="#000000" d="M-2.07224 2.39104C-1.69365 .95639-.84999 .27895 0 0-.84999-.27895-1.69365-.95639-2.07224-2.39104"/>
<use data-text="x" xlink:href="#font_1_3" transform="matrix(9.963098,0,0,-9.963098,204.2695,161.10746)"/>
<path transform="matrix(1.00005,0,0,-1.00005,51.20186,146.21071)" stroke-width=".3985" stroke-linecap="butt" stroke-miterlimit="10" stroke-linejoin="miter" fill="none" stroke="#000000" d="M177.16754 .3985V27.9483"/>
<path transform="matrix(0,1.00005,1.00005,0,228.37825,146.01145)" stroke-width=".3985" stroke-linecap="round" stroke-linejoin="round" fill="none" stroke="#000000" d="M-2.07224 2.39104C-1.69365 .95639-.84999 .27895 0 0-.84999-.27895-1.69365-.95639-2.07224-2.39104"/>
<path transform="matrix(0,-1.00005,-1.00005,-0,228.37825,118.06175)" stroke-width=".3985" stroke-linecap="round" stroke-linejoin="round" fill="none" stroke="#000000" d="M-2.07224 2.39104C-1.69365 .95639-.84999 .27895 0 0-.84999-.27895-1.69365-.95639-2.07224-2.39104"/>
<use data-text="x" xlink:href="#font_1_3" transform="matrix(9.963098,0,0,-9.963098,231.89788,134.1811)"/>
<path transform="matrix(1.00005,0,0,-1.00005,51.20186,146.21071)" stroke-width=".3985" stroke-linecap="butt" stroke-miterlimit="10" stroke-linejoin="miter" fill="none" stroke="#000000" d="M177.16754 99.61232V127.16212"/>
<path transform="matrix(0,1.00005,1.00005,0,228.37825,46.79267)" stroke-width=".3985" stroke-linecap="round" stroke-linejoin="round" fill="none" stroke="#000000" d="M-2.07224 2.39104C-1.69365 .95639-.84999 .27895 0 0-.84999-.27895-1.69365-.95639-2.07224-2.39104"/>
<path transform="matrix(0,-1.00005,-1.00005,-0,228.37825,18.84298)" stroke-width=".3985" stroke-linecap="round" stroke-linejoin="round" fill="none" stroke="#000000" d="M-2.07224 2.39104C-1.69365 .95639-.84999 .27895 0 0-.84999-.27895-1.69365-.95639-2.07224-2.39104"/>
<use data-text="x" xlink:href="#font_1_3" transform="matrix(9.963098,0,0,-9.963098,231.89788,34.963159)"/>
<path transform="matrix(1.00005,0,0,-1.00005,51.20186,146.21071)" stroke-width=".3985" stroke-linecap="butt" stroke-miterlimit="10" stroke-linejoin="miter" fill="none" stroke="#000000" d="M-7.08669 .3985V27.9483"/>
<path transform="matrix(0,1.00005,1.00005,0,44.114816,146.01145)" stroke-width=".3985" stroke-linecap="round" stroke-linejoin="round" fill="none" stroke="#000000" d="M-2.07224 2.39104C-1.69365 .95639-.84999 .27895 0 0-.84999-.27895-1.69365-.95639-2.07224-2.39104"/>
<path transform="matrix(0,-1.00005,-1.00005,-0,44.114816,118.06175)" stroke-width=".3985" stroke-linecap="round" stroke-linejoin="round" fill="none" stroke="#000000" d="M-2.07224 2.39104C-1.69365 .95639-.84999 .27895 0 0-.84999-.27895-1.69365-.95639-2.07224-2.39104"/>
<use data-text="x" xlink:href="#font_1_3" transform="matrix(9.963098,0,0,-9.963098,34.901048,134.1811)"/>
<path transform="matrix(1.00005,0,0,-1.00005,51.20186,146.21071)" stroke-width=".3985" stroke-linecap="butt" stroke-miterlimit="10" stroke-linejoin="miter" fill="none" stroke="#000000" d="M-7.08669 99.61232V127.16212"/>
<path transform="matrix(0,1.00005,1.00005,0,44.114816,46.79267)" stroke-width=".3985" stroke-linecap="round" stroke-linejoin="round" fill="none" stroke="#000000" d="M-2.07224 2.39104C-1.69365 .95639-.84999 .27895 0 0-.84999-.27895-1.69365-.95639-2.07224-2.39104"/>
<path transform="matrix(0,-1.00005,-1.00005,-0,44.114816,18.84298)" stroke-width=".3985" stroke-linecap="round" stroke-linejoin="round" fill="none" stroke="#000000" d="M-2.07224 2.39104C-1.69365 .95639-.84999 .27895 0 0-.84999-.27895-1.69365-.95639-2.07224-2.39104"/>
<use data-text="x" xlink:href="#font_1_3" transform="matrix(9.963098,0,0,-9.963098,34.901048,34.963159)"/>
</svg>
