<svg xmlns="http://www.w3.org/2000/svg" xmlns:xlink="http://www.w3.org/1999/xlink" xmlns:inkscape="http://www.inkscape.org/namespaces/inkscape" version="1.1" width="229" height="64" viewBox="0 0 229 64">
<defs>
<path id="font_1_1" d="M.6749878 .22944641C.69299319 .22944641 .71199038 .22944641 .71199038 .25144959 .71199038 .27246095 .69200137 .27246095 .6749878 .27246095H.12298584C.10598755 .27246095 .085998538 .27246095 .085998538 .25144959 .085998538 .22944641 .10499573 .22944641 .12298584 .22944641H.6749878Z"/>
<path id="font_2_2" d="M.30499269 .35195924C.397995 .38697816 .44198609 .46006776 .44198609 .5290985 .44198609 .60606387 .35699464 .6660156 .25299073 .6660156 .14898682 .6660156 .070999149 .60705569 .070999149 .5310974 .070999149 .49809266 .09298706 .47909547 .12199402 .47909547 .15098572 .47909547 .17199707 .50009158 .17199707 .5290985 .17199707 .5640869 .147995 .57910159 .11399841 .57910159 .13999939 .6210327 .20098877 .64100649 .25 .64100649 .33299256 .64100649 .34899903 .5750885 .34899903 .52809146 .34899903 .49809266 .34298707 .45005799 .31799317 .41201783 .2869873 .36695863 .2519989 .36495973 .22299195 .36296083 .19799805 .36094667 .19599915 .36094667 .18798828 .36094667 .1789856 .35995484 .17098999 .35894776 .17098999 .34794618 .17098999 .33496095 .1789856 .33496095 .19599915 .33496095H.24299622C.32998658 .33496095 .36799623 .2646637 .36799623 .16937256 .36799623 .04145813 .2999878 .0055389406 .24899292 .0055389406 .22999573 .0055389406 .1329956 .010528564 .08799744 .0843811 .12399292 .07939148 .1519928 .10437012 .1519928 .13838196 .1519928 .17137146 .1269989 .19238281 .09799194 .19238281 .07299805 .19238281 .042999269 .17736817 .042999269 .13537598 .042999269 .046447755 .13598633-.022460938 .2519989-.022460938 .3769989-.022460938 .46998597 .06741333 .46998597 .16937256 .46998597 .25663758 .40098573 .33093263 .30499269 .35195924Z"/>
<path id="font_2_1" d="M.70599368 .22944641C.7200012 .22944641 .7409973 .22944641 .7409973 .25045777 .7409973 .27246095 .7220001 .27246095 .70599368 .27246095H.42099V.5578003C.42099 .573761 .42099 .59277346 .39898683 .59277346 .37799073 .59277346 .37799073 .57177737 .37799073 .5578003V.27246095H.09199524C.07798767 .27246095 .056991579 .27246095 .056991579 .25144959 .056991579 .22944641 .07598877 .22944641 .09199524 .22944641H.37799073V-.056793214C.37799073-.07279968 .37799073-.091796878 .3999939-.091796878 .42099-.091796878 .42099-.07080078 .42099-.056793214V.22944641H.70599368Z"/>
</defs>
<path transform="matrix(1,0,0,-1,114.681,32.612)" stroke-width=".79701" stroke-linecap="butt" stroke-miterlimit="10" stroke-linejoin="miter" fill="none" stroke="#000000" d="M-112.59065 0H112.59065"/>
<path transform="matrix(-1,-0,0,1,1.6918488,32.612)" stroke-width=".79701" stroke-linecap="round" stroke-linejoin="round" fill="none" stroke="#000000" d="M-2.55046 3.11095C-2.0845 1.24435-1.04614 .36295 0 0-1.04614-.36295-2.0845-1.24435-2.55046-3.11095"/>
<path transform="matrix(1,0,0,-1,227.67015,32.612)" stroke-width=".79701" stroke-linecap="round" stroke-linejoin="round" fill="none" stroke="#000000" d="M-2.55046 3.11095C-2.0845 1.24435-1.04614 .36295 0 0-1.04614-.36295-2.0845-1.24435-2.55046-3.11095"/>
<path transform="matrix(1,0,0,-1,114.681,32.612)" stroke-width=".3985" stroke-linecap="butt" stroke-miterlimit="10" stroke-linejoin="miter" fill="none" stroke="#000000" d="M-68.0326 3.40146V-3.40146"/>
<path transform="matrix(1,0,0,-1,114.681,32.612)" stroke-width=".3985" stroke-linecap="butt" stroke-miterlimit="10" stroke-linejoin="miter" fill="none" stroke="#000000" d="M68.0326 3.40146V-3.40146"/>
<use data-text="&#x2212;" xlink:href="#font_1_1" transform="matrix(8.9664,0,0,-8.9664,40.761,45.312)"/>
<use data-text="3" xlink:href="#font_2_2" transform="matrix(8.9664,0,0,-8.9664,47.929,45.312)"/>
<use data-text="3" xlink:href="#font_2_2" transform="matrix(8.9664,0,0,-8.9664,180.41,45.312)"/>
<use data-text="&#x2212;" xlink:href="#font_1_1" transform="matrix(8.9664,0,0,-8.9664,20.386994,28.262)"/>
<use data-text="+" xlink:href="#font_2_1" transform="matrix(8.9664,0,0,-8.9664,111.097,28.262)"/>
<use data-text="&#x2212;" xlink:href="#font_1_1" transform="matrix(8.9664,0,0,-8.9664,201.807,28.262)"/>
<path transform="matrix(1,0,0,-1,114.681,32.612)" stroke-width=".79701" stroke-linecap="butt" stroke-miterlimit="10" stroke-linejoin="miter" fill="none" stroke="#0000ff" d="M-95.24556-29.38603C-95.24556-29.38603-93.8555-27.64778-93.32161-26.98907-92.78773-26.33037-91.93156-25.28397-91.39767-24.63847-90.8638-23.99297-90.00763-22.9686-89.47374-22.33669-88.93987-21.70476-88.0837-20.70233-87.54982-20.08401-87.01593-19.46567-86.15976-18.48488-85.62587-17.88013-85.09198-17.27539-84.23581-16.31653-83.70193-15.72539-83.16806-15.13423-82.31187-14.197-81.778-13.61945-81.24413-13.04187-80.38795-12.12662-79.85406-11.56264-79.32019-10.99864-78.464-10.10501-77.93011-9.5546-77.39624-9.00421-76.54007-8.13254-76.0062-7.59572-75.4723-7.05893-74.61613-6.20885-74.08226-5.68564-73.54839-5.16241-72.6922-4.3343-72.15833-3.82468-71.62444-3.31505-70.76826-2.50854-70.23438-2.01251-69.7005-1.51645-68.84433-.73158-68.31044-.24947-67.77657 .23264-66.9204 .99377-66.38652 1.46231-65.85262 1.93086-64.99646 2.67212-64.46259 3.12741-63.9287 3.58269-63.07251 4.30203-62.53864 4.74373-62.00475 5.18542-61.14857 5.8828-60.6147 6.31091-60.08081 6.73903-59.22466 7.41476-58.69077 7.82928-58.15688 8.2438-57.30072 8.89766-56.76685 9.29854-56.23294 9.69943-55.37677 10.33131-54.8429 10.71866-54.309 11.10602-53.45284 11.71655-52.91896 12.09032-52.38507 12.46408-51.5289 13.05238-50.99501 13.41252-50.46114 13.77263-49.60498 14.33931-49.07108 14.68591-48.5372 15.0325-47.68103 15.57751-47.14716 15.91052-46.61325 16.24352-45.7571 16.76657-45.2232 17.086-44.68933 17.40541-43.83316 17.90685-43.29927 18.21266-42.7654 18.5185-41.90921 18.99802-41.37532 19.2902-40.84145 19.58241-39.98529 20.04001-39.45139 20.3186-38.91751 20.59721-38.06136 21.03342-37.52747 21.29823-36.99358 21.56305-36.13742 21.97607-35.60353 22.22733-35.06966 22.47855-34.21347 22.87112-33.67958 23.10901-33.1457 23.34691-32.28954 23.71762-31.75565 23.94193-31.22177 24.16621-30.36562 24.51495-29.83171 24.72568-29.29784 24.93639-28.44167 25.26352-27.90779 25.46065-27.3739 25.65778-26.51773 25.96298-25.98384 26.14648-25.44997 26.32997-24.59378 26.61327-24.0599 26.78317-23.52603 26.95308-22.66985 27.21472-22.13597 27.3711-21.6021 27.52747-20.74593 27.76743-20.21204 27.9102-19.67816 28.05298-18.82198 28.271-18.2881 28.40019-17.75421 28.52937-16.89804 28.72577-16.36417 28.84137-15.83028 28.95699-14.9741 29.13145-14.44023 29.23343-13.90636 29.3354-13.05017 29.48798-12.5163 29.57635-11.98242 29.66472-11.12624 29.79564-10.59235 29.87048-10.05847 29.94533-9.2023 30.05461-8.66841 30.11581-8.13454 30.17703-7.27837 30.26404-6.74449 30.31168-6.21059 30.35928-5.35443 30.425-4.82056 30.45908-4.28667 30.49315-3.43048 30.53691-2.8966 30.55734-2.36272 30.57779-1.50655 30.59962-.97267 30.60649-.4388 30.61334 .41734 30.6135 .95123 30.60684 1.48509 30.60016 2.34126 30.57863 2.87515 30.55838 3.40904 30.53813 4.26521 30.4947 4.7991 30.4608 5.33298 30.42691 6.18915 30.36157 6.72304 30.31409 7.25691 30.2666 8.11308 30.17964 8.64697 30.11858 9.18085 30.05751 10.037 29.94858 10.5709 29.87393 11.10478 29.79929 11.96095 29.66873 12.49484 29.5805 13.02873 29.49226 13.88489 29.33975 14.41878 29.23793 14.95265 29.13611 15.80882 28.96198 16.34271 28.84657 16.87659 28.73116 17.73277 28.53517 18.26665 28.40608 18.80052 28.27698 19.6567 28.05873 20.1906 27.9161 20.72447 27.77345 21.58064 27.5342 22.11452 27.378 22.6484 27.22185 23.50458 26.96022 24.03845 26.79045 24.57233 26.62068 25.42851 26.33774 25.96239 26.15445 26.49626 25.97115 27.35246 25.66623 27.88634 25.4693 28.42021 25.27235 29.27638 24.94554 29.81027 24.73503 30.34415 24.5245 31.20032 24.17606 31.73419 23.95195 32.26808 23.72783 33.12425 23.35744 33.65813 23.11974 34.192 22.88203 35.0482 22.49002 35.58208 22.23874 36.11595 21.98746 36.97214 21.57347 37.50601 21.30861 38.03989 21.04375 38.89606 20.60814 39.42995 20.3297 39.96384 20.05124 40.81999 19.59369 41.35387 19.30164 41.88777 19.00958 42.74394 18.53041 43.27782 18.22478 43.81169 17.91914 44.66788 17.41801 45.20175 17.09879 45.73564 16.77957 46.59181 16.2568 47.12569 15.92401 47.65958 15.5912 48.51573 15.0465 49.04962 14.70009 49.58351 14.3537 50.43968 13.78738 50.97356 13.4274 51.50746 13.06741 52.36362 12.47911 52.89749 12.10556 53.4314 11.73198 54.28755 11.12209 54.82143 10.73491 55.35532 10.34776 56.21149 9.71588 56.74538 9.31514 57.27925 8.91441 58.13542 8.26093 58.66931 7.8466 59.2032 7.43225 60.05936 6.75682 60.59325 6.32889 61.12714 5.90097 61.98329 5.20392 62.51718 4.76242 63.05107 4.3209 63.90723 3.60193 64.44112 3.14679 64.97499 2.69165 65.83118 1.95071 66.36507 1.48204 66.89894 1.01337 67.7551 .25107 68.289-.23112 68.82288-.71335 69.67903-1.49762 70.21294-1.99347 70.74681-2.48933 71.60297-3.2955 72.13686-3.80495 72.67075-4.31439 73.52692-5.14218 74.0608-5.6652 74.59468-6.18823 75.45085-7.038 75.98474-7.5746 76.51862-8.11124 77.37479-8.9826 77.90868-9.5328 78.44255-10.08301 79.29872-10.97629 79.83263-11.54013 80.3665-12.10397 81.22266-13.01923 81.75655-13.5966 82.29044-14.17397 83.1466-15.11055 83.68048-15.7015 84.21436-16.29248 85.07054-17.2513 85.60442-17.8559 86.13829-18.46051 86.99449-19.44095 87.52837-20.0591 88.06224-20.67723 88.91841-21.67934 89.4523-22.31107 89.98618-22.9428 90.84235-23.96683 91.37622-24.61218 91.91011-25.25754 92.76628-26.30347 93.30016-26.96242 93.83403-27.62138 95.2241-29.36147 95.2241-29.36147"/>
</svg>
