<svg xmlns="http://www.w3.org/2000/svg" xmlns:xlink="http://www.w3.org/1999/xlink" xmlns:inkscape="http://www.inkscape.org/namespaces/inkscape" version="1.1" width="229" height="45" viewBox="0 0 229 45">
<defs>
<path id="font_1_1" d="M.6749878 .22944641C.69299319 .22944641 .71199038 .22944641 .71199038 .25144959 .71199038 .27246095 .69200137 .27246095 .6749878 .27246095H.12298584C.10598755 .27246095 .085998538 .27246095 .085998538 .25144959 .085998538 .22944641 .10499573 .22944641 .12298584 .22944641H.6749878Z"/>
<path id="font_2_2" d="M.46199037 .17704773H.43399049C.43199159 .16404724 .42399598 .10501099 .41099549 .08900452 .40499879 .07998657 .33599855 .07998657 .31599427 .07998657H.13798523L.23699951 .17404175C.40098573 .3161316 .46199037 .36915589 .46199037 .4711914 .46199037 .5860901 .36698915 .6660156 .24398804 .6660156 .1289978 .6660156 .050994874 .575119 .050994874 .4841919 .050994874 .43418885 .09399414 .42919923 .102996829 .42919923 .125 .42919923 .15499878 .44519044 .15499878 .48120118 .15499878 .51119998 .13398743 .5332031 .102996829 .5332031 .09799194 .5332031 .09498596 .5332031 .09098816 .53219607 .114990238 .6030731 .1789856 .63500979 .23298645 .63500979 .33499146 .63500979 .36999513 .5401764 .36999513 .4711914 .36999513 .36915589 .29299928 .28611756 .24499512 .23408509L.06199646 .035995485C.050994874 .024993897 .050994874 .022994996 .050994874 0H.43399049L.46199037 .17704773Z"/>
<path id="font_2_1" d="M.70599368 .22944641C.7200012 .22944641 .7409973 .22944641 .7409973 .25045777 .7409973 .27246095 .7220001 .27246095 .70599368 .27246095H.42099V.5578003C.42099 .573761 .42099 .59277346 .39898683 .59277346 .37799073 .59277346 .37799073 .57177737 .37799073 .5578003V.27246095H.09199524C.07798767 .27246095 .056991579 .27246095 .056991579 .25144959 .056991579 .22944641 .07598877 .22944641 .09199524 .22944641H.37799073V-.056793214C.37799073-.07279968 .37799073-.091796878 .3999939-.091796878 .42099-.091796878 .42099-.07080078 .42099-.056793214V.22944641H.70599368Z"/>
</defs>
<path transform="matrix(1,0,0,-1.00008,114.681,30.062125)" stroke-width=".79701" stroke-linecap="butt" stroke-miterlimit="10" stroke-linejoin="miter" fill="none" stroke="#000000" d="M-112.59065 0H112.59065"/>
<path transform="matrix(-1,-0,0,1.00008,1.6918488,30.062125)" stroke-width=".79701" stroke-linecap="round" stroke-linejoin="round" fill="none" stroke="#000000" d="M-2.55046 3.11095C-2.0845 1.24435-1.04614 .36295 0 0-1.04614-.36295-2.0845-1.24435-2.55046-3.11095"/>
<path transform="matrix(1,0,0,-1.00008,227.67015,30.062125)" stroke-width=".79701" stroke-linecap="round" stroke-linejoin="round" fill="none" stroke="#000000" d="M-2.55046 3.11095C-2.0845 1.24435-1.04614 .36295 0 0-1.04614-.36295-2.0845-1.24435-2.55046-3.11095"/>
<path transform="matrix(1,0,0,-1.00008,114.681,30.062125)" stroke-width=".3985" stroke-linecap="butt" stroke-miterlimit="10" stroke-linejoin="miter" fill="none" stroke="#000000" d="M-45.35506 3.40146V-3.40146"/>
<path transform="matrix(1,0,0,-1.00008,114.681,30.062125)" stroke-width=".3985" stroke-linecap="butt" stroke-miterlimit="10" stroke-linejoin="miter" fill="none" stroke="#000000" d="M45.35506 3.40146V-3.40146"/>
<use data-text="&#x2212;" xlink:href="#font_1_1" transform="matrix(8.9664,0,0,-8.967117,63.438005,42.76314)"/>
<use data-text="2" xlink:href="#font_2_2" transform="matrix(8.9664,0,0,-8.967117,70.606,42.76314)"/>
<use data-text="2" xlink:href="#font_2_2" transform="matrix(8.9664,0,0,-8.967117,157.732,42.76314)"/>
<use data-text="+" xlink:href="#font_2_1" transform="matrix(8.9664,0,0,-8.967117,31.725998,25.711777)"/>
<use data-text="&#x2212;" xlink:href="#font_1_1" transform="matrix(8.9664,0,0,-8.967117,111.097,25.711777)"/>
<use data-text="+" xlink:href="#font_2_1" transform="matrix(8.9664,0,0,-8.967117,190.469,25.711777)"/>
<path transform="matrix(1,0,0,-1.00008,114.681,30.062125)" stroke-width=".79701" stroke-linecap="butt" stroke-miterlimit="10" stroke-linejoin="miter" fill="none" stroke="#0000ff" d="M-79.37135 28.06212C-79.37135 28.06212-78.21304 26.85332-77.76817 26.39563-77.32332 25.93793-76.60988 25.21162-76.16502 24.7634-75.72017 24.31516-75.0067 23.60388-74.56184 23.16507-74.11699 22.72626-73.40355 22.03008-72.9587 21.60066-72.51382 21.17126-71.80038 20.49016-71.35553 20.07016-70.91066 19.65016-70.19722 18.98412-69.75237 18.57358-69.3075 18.16304-68.59406 17.51233-68.1492 17.11125-67.70433 16.71017-66.9909 16.07445-66.54604 15.68283-66.10118 15.29121-65.38774 14.67088-64.94286 14.28867-64.49799 13.90646-63.78456 13.30087-63.33969 12.92805-62.89484 12.55527-62.18141 11.96507-61.73653 11.60173-61.29167 11.23839-60.57823 10.663-60.13336 10.30931-59.6885 9.9556-58.97507 9.39674-58.53021 9.0525-58.08536 8.70828-57.37189 8.16327-56.92703 7.82825-56.48218 7.49324-55.76874 6.9635-55.32388 6.63791-54.87901 6.3123-54.16559 5.7976-53.72072 5.48146-53.27585 5.16531-52.5624 4.66603-52.11754 4.35928-51.67267 4.05255-50.95924 3.56801-50.51439 3.27066-50.06952 2.97334-49.35608 2.50417-48.91122 2.21631-48.46635 1.92844-47.75291 1.47427-47.30804 1.19586-46.86319 .91745-46.14975 .47838-45.70488 .20967-45.26003-.059-44.54659-.48149-44.10172-.74083-43.65686-1.00018-42.9434-1.40941-42.49855-1.65955-42.0537-1.90968-41.34026-2.30298-40.8954-2.54367-40.45055-2.78435-39.73709-3.16309-39.29222-3.3942-38.84735-3.62532-38.13391-3.9878-37.68906-4.20946-37.2442-4.4311-36.53076-4.77948-36.0859-4.99184-35.64104-5.2042-34.92758-5.537-34.48273-5.73996-34.03786-5.9429-33.32443-6.26099-32.87958-6.45451-32.43471-6.64804-31.72127-6.95074-31.27641-7.13481-30.83153-7.31888-30.1181-7.60654-29.67323-7.78119-29.22838-7.95584-28.51494-8.22842-28.07007-8.39368-27.6252-8.55891-26.91176-8.81645-26.46689-8.97224-26.02203-9.12804-25.3086-9.37022-24.86374-9.51654-24.41888-9.66287-23.70543-9.89006-23.26057-10.02695-22.81572-10.16382-22.10226-10.37561-21.65741-10.50308-21.21255-10.63055-20.4991-10.8276-20.05424-10.94566-19.60939-11.0637-18.89595-11.24553-18.4511-11.35397-18.00623-11.46242-17.29277-11.6283-16.84792-11.72733-16.40305-11.82637-15.68962-11.9781-15.24477-12.06784-14.7999-12.15756-14.08647-12.29376-13.6416-12.37408-13.1967-12.45439-12.48328-12.5759-12.03842-12.64674-11.59355-12.71759-10.88013-12.82341-10.43526-12.88483-9.9904-12.94623-9.27695-13.03728-8.83208-13.08932-8.38722-13.14136-7.67378-13.21733-7.22893-13.25992-6.78407-13.3025-6.07062-13.36314-5.62576-13.39626-5.18091-13.42935-4.46745-13.475-4.0226-13.49869-3.57774-13.52234-2.86429-13.55263-2.41943-13.56685-1.97458-13.58104-1.26114-13.59631-.81628-13.60109-.37141-13.6059 .342-13.60603 .78685-13.60144 1.23172-13.59683 1.94516-13.582 2.39001-13.5679 2.83488-13.55379 3.54831-13.52327 3.9932-13.49971 4.43805-13.47614 5.15149-13.43091 5.59636-13.39798 6.04121-13.36504 6.75465-13.30467 7.19951-13.26233 7.64436-13.22 8.35783-13.14453 8.80269-13.09279 9.24754-13.04105 9.96098-12.95053 10.40584-12.88933 10.8507-12.82811 11.56413-12.72227 12.009-12.6516 12.45387-12.58092 13.16733-12.46002 13.61218-12.37996 14.05704-12.29988 14.77048-12.16394 15.21533-12.07442 15.6602-11.98488 16.37364-11.83354 16.8185-11.73462 17.26337-11.63567 17.9768-11.46959 18.42168-11.36124 18.86653-11.25288 19.57997-11.07147 20.02484-10.95361 20.4697-10.83575 21.18312-10.63905 21.628-10.51173 22.07286-10.38441 22.7863-10.17267 23.23117-10.03593 23.67603-9.8992 24.38947-9.67238 24.83432-9.52623 25.27917-9.3801 25.99263-9.13815 26.4375-8.98262 26.88237-8.82707 27.59581-8.57011 28.04066-8.40509 28.48552-8.24008 29.19896-7.96777 29.64381-7.7933 30.08867-7.61884 30.80214-7.33148 31.247-7.1476 31.69185-6.96373 32.40529-6.66129 32.85014-6.468 33.29501-6.27472 34.00845-5.95724 34.45331-5.75449 34.8982-5.55174 35.61162-5.21892 36.05649-5.0067 36.50134-4.7945 37.21478-4.44662 37.65965-4.22502 38.1045-4.00342 38.81795-3.64044 39.26282-3.40942 39.70767-3.1784 40.42111-2.80042 40.86598-2.55994 41.31085-2.31943 42.02428-1.92612 42.46915-1.67616 42.914-1.42621 43.62746-1.01778 44.07231-.75848 44.51717-.49918 45.23062-.07596 45.67548 .19272 46.12033 .46143 46.83377 .9 47.27863 1.17822 47.72348 1.45644 48.43695 1.9103 48.8818 2.19797 49.32666 2.48566 50.0401 2.95456 50.48495 3.25163 50.92982 3.54872 51.64325 4.03267 52.08812 4.33922 52.533 4.64577 53.24644 5.1451 53.6913 5.46106 54.13617 5.77702 54.8496 6.29109 55.29446 6.61644 55.73932 6.9418 56.45277 7.47124 56.89764 7.8061 57.3425 8.14099 58.05592 8.68573 58.5008 9.03001 58.94565 9.37431 59.65909 9.93382 60.10396 10.2875 60.54881 10.6412 61.26227 11.21611 61.70712 11.57925 62.15198 11.9424 62.86543 12.53236 63.31029 12.90489 63.75514 13.2774 64.46858 13.88213 64.91344 14.26408 65.3583 14.64607 66.07175 15.26643 66.51662 15.65791 66.96149 16.0494 67.67493 16.68475 68.11978 17.08563 68.56465 17.48653 69.27808 18.137 69.72295 18.54729 70.16782 18.95758 70.88126 19.62308 71.32611 20.04283 71.77098 20.46259 72.4844 21.14346 72.92928 21.57263 73.37413 22.0018 74.08759 22.69743 74.53246 23.136 74.97731 23.57457 75.69073 24.28555 76.1356 24.73364 76.58046 25.18172 77.2939 25.90802 77.73877 26.36552 78.18364 26.82301 79.34195 28.03096 79.34195 28.03096"/>
</svg>
