<svg xmlns="http://www.w3.org/2000/svg" xmlns:xlink="http://www.w3.org/1999/xlink" xmlns:inkscape="http://www.inkscape.org/namespaces/inkscape" version="1.1" width="262" height="114" viewBox="0 0 262 114">
<defs>
<path id="font_1_1" d="M.33399964 .30233766C.33999635 .32835389 .36299134 .42037965 .43299867 .42037965 .43798829 .42037965 .46199037 .42037965 .48298646 .40734864 .45498658 .402359 .43499757 .37734986 .43499757 .35334779 .43499757 .33735658 .44599916 .31835938 .47299195 .31835938 .49499513 .31835938 .5269928 .3363495 .5269928 .37635804 .5269928 .42837525 .46798707 .4423828 .43399049 .4423828 .37599183 .4423828 .34098817 .38935853 .32899476 .36634828 .3039856 .43237306 .25 .4423828 .22099304 .4423828 .116989139 .4423828 .05999756 .3133545 .05999756 .28834535 .05999756 .27833558 .069992069 .27833558 .07199097 .27833558 .07998657 .27833558 .08299255 .28033448 .084991458 .28933717 .11898804 .39535523 .18499756 .42037965 .21899414 .42037965 .23799134 .42037965 .272995 .4113617 .272995 .35334779 .272995 .32235719 .2559967 .25532533 .21899414 .11528015 .20298767 .053268434 .16799927 .011245728 .12399292 .011245728 .117996219 .011245728 .09498596 .011245728 .07398987 .024276734 .09899902 .029266358 .12098694 .05027771 .12098694 .07827759 .12098694 .105270389 .09899902 .11328125 .083999637 .11328125 .053985597 .11328125 .0289917 .08728027 .0289917 .055267335 .0289917 .009246826 .07899475-.0107421879 .12298584-.0107421879 .18899536-.0107421879 .22499085 .059280397 .22799683 .0652771 .23999024 .028274537 .27598573-.0107421879 .33599855-.0107421879 .43899537-.0107421879 .49598695 .118270877 .49598695 .14328003 .49598695 .1532898 .4869995 .1532898 .48399354 .1532898 .47499085 .1532898 .47299195 .14929199 .47099305 .14228821 .43798829 .03527832 .36999513 .011245728 .33799745 .011245728 .29899598 .011245728 .2829895 .043273927 .2829895 .07727051 .2829895 .09927368 .2889862 .121276859 .2999878 .16529846L.33399964 .30233766Z"/>
<path id="font_2_82" d="M.4189911 0V.0309906H.3869934C.29699708 .0309906 .2939911 .041992189 .2939911 .07902527V.64012148C.2939911 .6640167 .2939911 .6660156 .2709961 .6660156 .20899964 .60227969 .12098694 .60227969 .08898926 .60227969V.57128909C.10899353 .57128909 .16799927 .57128909 .21998596 .5972748V.07902527C.21998596 .042999269 .21699524 .0309906 .1269989 .0309906H.09498596V0C.12998963 .0029907227 .21699524 .0029907227 .25698854 .0029907227 .29699708 .0029907227 .38398744 .0029907227 .4189911 0Z"/>
<path id="font_2_107" d="M.44898988 .17396546H.42399598C.4189911 .14398194 .4119873 .099990848 .4019928 .084991458 .394989 .07699585 .32899476 .07699585 .30699159 .07699585H.1269989L.23298645 .17996216C.3889923 .31803895 .44898988 .37210084 .44898988 .47216798 .44898988 .5860901 .35899354 .6660156 .23699951 .6660156 .12399292 .6660156 .049987794 .57411196 .049987794 .48516847 .049987794 .4291687 .099990848 .4291687 .102996829 .4291687 .11999512 .4291687 .15499878 .44117738 .15499878 .48217774 .15499878 .5081787 .13699341 .5341797 .101989749 .5341797 .09399414 .5341797 .09199524 .5341797 .08898926 .5331726 .11199951 .59806826 .1659851 .63500979 .22399903 .63500979 .31498719 .63500979 .35798646 .5541382 .35798646 .47216798 .35798646 .39196778 .30799867 .31297303 .25299073 .25097657L.06098938 .036987306C.049987794 .025985718 .049987794 .023986817 .049987794 0H.42099L.44898988 .17396546Z"/>
<path id="font_2_106" d="M.45700074 .17037964C.45700074 .252594 .3939972 .33088685 .2899933 .35191346 .37199403 .37893678 .42999269 .4490509 .42999269 .52809146 .42999269 .6100464 .34199525 .6660156 .24598694 .6660156 .14498902 .6660156 .068984989 .60606387 .068984989 .53009036 .068984989 .49710084 .09098816 .47808839 .11999512 .47808839 .15098572 .47808839 .17098999 .50009158 .17098999 .5290985 .17098999 .57910159 .12399292 .57910159 .10899353 .57910159 .13999939 .62802127 .20599365 .64100649 .24198914 .64100649 .2829895 .64100649 .33799745 .6190338 .33799745 .5290985 .33799745 .51708987 .33599855 .45906068 .30999757 .4149933 .27999879 .36691285 .24598694 .36390687 .22099304 .36291505 .21299744 .36190797 .18899536 .35990907 .18199158 .35990907 .17399597 .35890199 .16699219 .35791017 .16699219 .3479004 .16699219 .33691407 .17399597 .33691407 .19099427 .33691407H.23498535C.31698609 .33691407 .35398866 .2686615 .35398866 .17037964 .35398866 .034469606 .2849884 .0055389406 .24099732 .0055389406 .19799805 .0055389406 .12298584 .022491456 .08799744 .08137512 .12298584 .07637024 .1539917 .09837341 .1539917 .1363678 .1539917 .17237854 .1269989 .19238281 .09799194 .19238281 .07398987 .19238281 .041992189 .17837525 .041992189 .1343689 .041992189 .043441774 .1349945-.022460938 .24398804-.022460938 .3659973-.022460938 .45700074 .06838989 .45700074 .17037964Z"/>
<path id="font_2_57" d="M.47099305 .16503906V.19602967H.37098695V.6507721C.37098695 .6707611 .37098695 .6767578 .35499574 .6767578 .34599305 .6767578 .34298707 .6767578 .33499146 .6647644L.027999878 .19602967V.16503906H.2939911V.07800293C.2939911 .041992189 .2919922 .0309906 .21798706 .0309906H.19699097V0C.23799134 .0029907227 .2899933 .0029907227 .33198548 .0029907227 .37399293 .0029907227 .4269867 .0029907227 .46798707 0V.0309906H.44699098C.37298585 .0309906 .37098695 .041992189 .37098695 .07800293V.16503906H.47099305M.2999878 .19602967H.055999757L.2999878 .56881716V.19602967Z"/>
<path id="font_2_56" d="M.44898988 .20091248C.44898988 .31991578 .36698915 .41992188 .25898744 .41992188 .21099854 .41992188 .16799927 .4039154 .13198853 .36891175V.5641022C.1519928 .55778506 .18499756 .55078127 .21699524 .55078127 .33999635 .55078127 .4099884 .6418457 .4099884 .65493777 .4099884 .6609802 .40699769 .6660156 .3999939 .6660156 .3999939 .66607668 .39698792 .66607668 .3919983 .66308596 .37199403 .65408328 .32299806 .63378909 .2559967 .63378909 .21598816 .63409426 .16999817 .641098 .12298584 .6621094 .114990238 .6651001 .11099243 .6651001 .11099243 .6651001 .100997928 .66508486 .100997928 .657074 .100997928 .64108279V.3447113C.100997928 .3266449 .100997928 .31861878 .114990238 .31861878 .12199402 .31861878 .12399292 .32164 .12799073 .32765199 .13899231 .34371949 .17599488 .3979187 .25698854 .3979187 .30899049 .3979187 .33399964 .3517456 .34199525 .3336792 .35798646 .2965393 .3600006 .2574005 .3600006 .20721436 .3600006 .17218018 .3600006 .112197879 .33599855 .07032776 .31199647 .031448366 .2749939 .0055389406 .22898865 .0055389406 .1559906 .0055389406 .09899902 .05836487 .08198547 .1171875 .084991458 .11685181 .08799744 .115859989 .09899902 .115859989 .13198853 .115859989 .14898682 .14085388 .14898682 .16485596 .14898682 .18885803 .13198853 .21386719 .09899902 .21386719 .084991458 .21386719 .049987794 .2068634 .049987794 .16085816 .049987794 .07432556 .11898804-.022460938 .23098755-.022460938 .34700013-.022460938 .44898988 .07331848 .44898988 .20019531V.20091248Z"/>
<path id="font_2_101" d="M.45700074 .2036438C.45700074 .33070375 .36799623 .4267578 .25698854 .4267578 .18899536 .4267578 .1519928 .37573243 .13198853 .327713V.35173036C.13198853 .6047821 .2559967 .64100649 .30699159 .64100649 .33099366 .64100649 .37298585 .634964 .394989 .6007538 .37998963 .6007538 .33999635 .6007538 .33999635 .5557556 .33999635 .524765 .3639984 .5097656 .38598634 .5097656 .4019928 .5097656 .43199159 .51875308 .43199159 .5577545 .43199159 .6178589 .3880005 .6660156 .30499269 .6660156 .1769867 .6660156 .041992189 .5367584 .041992189 .31570436 .041992189 .048553468 .1579895-.022460938 .25099183-.022460938 .3619995-.022460938 .45700074 .07156372 .45700074 .2036438M.36698915 .20463562C.36698915 .15661621 .36698915 .10658264 .34999085 .0705719 .31999208 .010528564 .27398683 .0055389406 .25099183 .0055389406 .18798828 .0055389406 .1579895 .06556702 .1519928 .080566409 .13398743 .127594 .13398743 .2076416 .13398743 .22564698 .13398743 .30369569 .1659851 .40374757 .2559967 .40374757 .27198792 .40374757 .31799317 .40374757 .34899903 .34172059 .36698915 .30470277 .36698915 .2536621 .36698915 .20463562Z"/>
</defs>
<path transform="matrix(1.00006,0,0,-1.00005,2.2949982,75.70198)" d="M0 0H36.85048V36.85048H0Z" fill="#ebebff"/>
<path transform="matrix(1.00006,0,0,-1.00005,2.2949982,75.70198)" stroke-width=".79701" stroke-linecap="butt" stroke-miterlimit="10" stroke-linejoin="miter" fill="none" stroke="#000000" d="M0 0H36.85048V36.85048H0Z"/>
<path transform="matrix(1.00006,0,0,-1.00005,2.2949982,75.70198)" d="M36.85048 0 51.59074 14.74023V51.59074L36.85048 36.85048Z" fill="#d9d9ff"/>
<path transform="matrix(1.00006,0,0,-1.00005,2.2949982,75.70198)" stroke-width=".79701" stroke-linecap="butt" stroke-miterlimit="10" stroke-linejoin="miter" fill="none" stroke="#000000" d="M36.85048 0 51.59074 14.74023V51.59074L36.85048 36.85048Z"/>
<path transform="matrix(1.00006,0,0,-1.00005,2.2949982,75.70198)" d="M0 36.85048 14.74023 51.59074H51.59074L36.85048 36.85048Z" fill="#f2f2ff"/>
<path transform="matrix(1.00006,0,0,-1.00005,2.2949982,75.70198)" stroke-width=".79701" stroke-linecap="butt" stroke-miterlimit="10" stroke-linejoin="miter" fill="none" stroke="#000000" d="M0 36.85048 14.74023 51.59074H51.59074L36.85048 36.85048Z"/>
<path transform="matrix(1.00006,0,0,-1.00005,2.2949982,75.70198)" stroke-width=".3985" stroke-linecap="butt" stroke-dasharray="2.98883,2.98883" stroke-miterlimit="10" stroke-linejoin="miter" fill="none" stroke="#000000" d="M0 0 14.74023 14.74023H51.59074"/>
<path transform="matrix(1.00006,0,0,-1.00005,2.2949982,75.70198)" stroke-width=".3985" stroke-linecap="butt" stroke-dasharray="2.98883,2.98883" stroke-miterlimit="10" stroke-linejoin="miter" fill="none" stroke="#000000" d="M14.74023 14.74023V51.59074"/>
<path transform="matrix(1.00006,0,0,-1.00005,2.2949982,75.70198)" stroke-width=".3985" stroke-linecap="butt" stroke-miterlimit="10" stroke-linejoin="miter" fill="none" stroke="#000000" d="M.3985-7.36998H36.45198"/>
<path transform="matrix(-1.00006,-0,0,1.00005,2.49426,83.07233)" stroke-width=".3985" stroke-linecap="round" stroke-linejoin="round" fill="none" stroke="#000000" d="M-2.07224 2.39104C-1.69365 .95639-.84999 .27895 0 0-.84999-.27895-1.69365-.95639-2.07224-2.39104"/>
<path transform="matrix(1.00006,0,0,-1.00005,38.948427,83.07233)" stroke-width=".3985" stroke-linecap="round" stroke-linejoin="round" fill="none" stroke="#000000" d="M-2.07224 2.39104C-1.69365 .95639-.84999 .27895 0 0-.84999-.27895-1.69365-.95639-2.07224-2.39104"/>
<use data-text="x" xlink:href="#font_1_1" transform="matrix(9.963197,0,0,-9.963098,17.873932,90.88174)"/>
<path transform="matrix(1.00006,0,0,-1.00005,2.2949982,75.70198)" stroke-width="1.19553" stroke-linecap="butt" stroke-miterlimit="10" stroke-linejoin="miter" fill="none" stroke="#000000" d="M73.70099 25.79523H100.14336"/>
<path transform="matrix(1.00006,0,0,-1.00005,103.04216,49.90546)" stroke-width="1.19553" stroke-linecap="round" stroke-linejoin="round" fill="none" stroke="#000000" d="M-3.02867 3.83081C-2.47534 1.53229-1.24231 .44691 0 0-1.24231-.44691-2.47534-1.53229-3.02867-3.83081"/>
<path transform="matrix(1.00006,0,0,-1.00005,2.2949982,75.70198)" d="M110.5515 0V36.85048H147.40201V0ZM147.40201 36.85048" fill="#ebebff"/>
<path transform="matrix(1.00006,0,0,-1.00005,2.2949982,75.70198)" stroke-width=".79701" stroke-linecap="butt" stroke-miterlimit="10" stroke-linejoin="miter" fill="none" stroke="#000000" d="M110.5515 0V36.85048H147.40201V0ZM147.40201 36.85048"/>
<path transform="matrix(1.00006,0,0,-1.00005,2.2949982,75.70198)" d="M147.40201 0V36.85048H184.25252V0ZM184.25252 36.85048" fill="#ebebff"/>
<path transform="matrix(1.00006,0,0,-1.00005,2.2949982,75.70198)" stroke-width=".79701" stroke-linecap="butt" stroke-miterlimit="10" stroke-linejoin="miter" fill="none" stroke="#000000" d="M147.40201 0V36.85048H184.25252V0ZM184.25252 36.85048"/>
<path transform="matrix(1.00006,0,0,-1.00005,2.2949982,75.70198)" d="M184.25252 0V36.85048H221.10303V0ZM221.10303 36.85048" fill="#ebebff"/>
<path transform="matrix(1.00006,0,0,-1.00005,2.2949982,75.70198)" stroke-width=".79701" stroke-linecap="butt" stroke-miterlimit="10" stroke-linejoin="miter" fill="none" stroke="#000000" d="M184.25252 0V36.85048H221.10303V0ZM221.10303 36.85048"/>
<path transform="matrix(1.00006,0,0,-1.00005,2.2949982,75.70198)" d="M221.10303 0V36.85048H257.95356V0ZM257.95356 36.85048" fill="#ebebff"/>
<path transform="matrix(1.00006,0,0,-1.00005,2.2949982,75.70198)" stroke-width=".79701" stroke-linecap="butt" stroke-miterlimit="10" stroke-linejoin="miter" fill="none" stroke="#000000" d="M221.10303 0V36.85048H257.95356V0ZM257.95356 36.85048"/>
<path transform="matrix(1.00006,0,0,-1.00005,2.2949982,75.70198)" d="M147.40201 36.85048V73.70099H184.25252V36.85048ZM184.25252 73.70099" fill="#ebebff"/>
<path transform="matrix(1.00006,0,0,-1.00005,2.2949982,75.70198)" stroke-width=".79701" stroke-linecap="butt" stroke-miterlimit="10" stroke-linejoin="miter" fill="none" stroke="#000000" d="M147.40201 36.85048V73.70099H184.25252V36.85048ZM184.25252 73.70099"/>
<path transform="matrix(1.00006,0,0,-1.00005,2.2949982,75.70198)" d="M147.40201-36.85048V0H184.25252V-36.85048ZM184.25252 0" fill="#ebebff"/>
<path transform="matrix(1.00006,0,0,-1.00005,2.2949982,75.70198)" stroke-width=".79701" stroke-linecap="butt" stroke-miterlimit="10" stroke-linejoin="miter" fill="none" stroke="#000000" d="M147.40201-36.85048V0H184.25252V-36.85048ZM184.25252 0"/>
<use data-text="1" xlink:href="#font_2_82" transform="matrix(9.963197,0,0,-9.963098,128.78858,60.593229)"/>
<use data-text="2" xlink:href="#font_2_107" transform="matrix(9.963197,0,0,-9.963098,165.6418,60.593229)"/>
<use data-text="3" xlink:href="#font_2_106" transform="matrix(9.963197,0,0,-9.963098,202.494,60.484224)"/>
<use data-text="4" xlink:href="#font_2_57" transform="matrix(9.963197,0,0,-9.963098,239.3472,60.648229)"/>
<use data-text="5" xlink:href="#font_2_56" transform="matrix(9.963197,0,0,-9.963098,165.6418,23.631379)"/>
<use data-text="6" xlink:href="#font_2_101" transform="matrix(9.963197,0,0,-9.963098,165.6418,97.33606)"/>
</svg>
