<svg xmlns="http://www.w3.org/2000/svg" xmlns:xlink="http://www.w3.org/1999/xlink" xmlns:inkscape="http://www.inkscape.org/namespaces/inkscape" version="1.1" width="138" height="100" viewBox="0 0 138 100">
<defs>
<path id="font_1_1" d="M.1789856 .114868167C.13899231 .047973634 .099990848 .033981325 .055999757 .0309906 .04399109 .02999878 .034988405 .02999878 .034988405 .010986328 .034988405 .004989624 .039993287 0 .04798889 0 .07499695 0 .10598755 .0029907227 .13398743 .0029907227 .16699219 .0029907227 .20199585 0 .23399353 0 .23999024 0 .25299073 0 .25299073 .018997193 .25299073 .02999878 .24398804 .0309906 .23699951 .0309906 .21398926 .032989503 .18998719 .04096985 .18998719 .06593323 .18998719 .077926639 .19599915 .088897708 .20399475 .102890018L.27999879 .23068238H.5309906C.5329895 .2097168 .5469971 .07392883 .5469971 .063949588 .5469971 .033981325 .49499513 .0309906 .47499085 .0309906 .46099855 .0309906 .45098878 .0309906 .45098878 .010986328 .45098878 0 .46299745 0 .46499635 0 .5059967 0 .548996 .0029907227 .58999636 .0029907227 .61499026 .0029907227 .6779938 0 .7029877 0 .70899966 0 .72099307 0 .72099307 .019989014 .72099307 .0309906 .71099856 .0309906 .69799807 .0309906 .6359863 .0309906 .6359863 .037979127 .6329956 .06694031L.57199099 .691803C.56999209 .71180728 .56999209 .7158203 .5529938 .7158203 .5369873 .7158203 .5329895 .7088165 .5269928 .69880679L.1789856 .114868167M.29899598 .26168824 .49598695 .5917816 .5279999 .26168824H.29899598Z"/>
<path id="font_1_2" d="M.1599884 .07795715C.1499939 .038986207 .147995 .0309906 .068984989 .0309906 .051986696 .0309906 .041992189 .0309906 .041992189 .010986328 .041992189 0 .050994874 0 .068984989 0H.42599488C.58399966 0 .70199587 .11791992 .70199587 .21585083 .70199587 .28778077 .6439972 .3457489 .5469971 .35673524 .651001 .37573243 .7559967 .44970704 .7559967 .5446625 .7559967 .6186218 .6899872 .6826172 .56999209 .6826172H.23399353C.21499634 .6826172 .20498657 .6826172 .20498657 .6626129 .20498657 .6516113 .21398926 .6516113 .23298645 .6516113 .23498535 .6516113 .2539978 .6516113 .2709961 .6496124 .2889862 .6476135 .2979889 .64660647 .2979889 .6336212 .2979889 .6296234 .29699708 .62661746 .2939911 .614624L.1599884 .07795715M.31098939 .36573792 .37298585 .6136322C.38198854 .64860537 .38398744 .6516113 .4269867 .6516113H.55599978C.6439972 .6516113 .6649933 .5926361 .6649933 .5486603 .6649933 .46069337 .57899478 .36573792 .45700074 .36573792H.31098939M.2659912 .0309906C.2519989 .0309906 .25 .0309906 .24398804 .03199768 .23399353 .032989503 .23098755 .033996583 .23098755 .04197693 .23098755 .04498291 .23098755 .04698181 .23599243 .064971927L.30499269 .34375H.49398805C.58999636 .34375 .60899356 .2698059 .60899356 .22683716 .60899356 .12791443 .519989 .0309906 .4019928 .0309906H.2659912Z"/>
<path id="font_1_3" d="M.7599945 .69506838C.7599945 .69807437 .7579956 .7050781 .7489929 .7050781 .74598696 .7050781 .7449951 .70407107 .73399356 .69306948L.6639862 .61602786C.6549988 .6300354 .60899356 .7050781 .49798585 .7050781 .2749939 .7050781 .049987794 .48391725 .049987794 .25172425 .049987794 .08659363 .16799927-.022460938 .32099916-.022460938 .4079895-.022460938 .48399354 .017532349 .5369873 .063583377 .6299896 .14564514 .6469879 .2367096 .6469879 .23971558 .6469879 .24972534 .6369934 .24972534 .6349945 .24972534 .6289978 .24972534 .6239929 .24772644 .621994 .23971558 .61299136 .21069336 .58999636 .13963318 .5209961 .081588748 .45199586 .025543213 .3889923 .008529663 .33699037 .008529663 .24699402 .008529663 .14099121 .060577394 .14099121 .21670532 .14099121 .27374269 .1619873 .43588258 .2619934 .55296328 .32299806 .62402346 .4169922 .67407229 .5059967 .67407229 .60798647 .67407229 .6669922 .5970001 .6669922 .48091126 .6669922 .44088746 .6639862 .43988038 .6639862 .4298706 .6639862 .41986085 .6749878 .41986085 .67900088 .41986085 .69200137 .41986085 .69200137 .42185975 .69699099 .43988038L.7599945 .69506838Z"/>
<path id="font_2_1" d="M.2899933 .35191346C.37199403 .37893678 .42999269 .4490509 .42999269 .52809146 .42999269 .6100464 .34199525 .6660156 .24598694 .6660156 .14498902 .6660156 .068984989 .60606387 .068984989 .53009036 .068984989 .49710084 .09098816 .47808839 .11999512 .47808839 .15098572 .47808839 .17098999 .50009158 .17098999 .5290985 .17098999 .57910159 .12399292 .57910159 .10899353 .57910159 .13999939 .62802127 .20599365 .64100649 .24198914 .64100649 .2829895 .64100649 .33799745 .6190338 .33799745 .5290985 .33799745 .51708987 .33599855 .45906068 .30999757 .4149933 .27999879 .36691285 .24598694 .36390687 .22099304 .36291505 .21299744 .36190797 .18899536 .35990907 .18199158 .35990907 .17399597 .35890199 .16699219 .35791017 .16699219 .3479004 .16699219 .33691407 .17399597 .33691407 .19099427 .33691407H.23498535C.31698609 .33691407 .35398866 .2686615 .35398866 .17037964 .35398866 .034469606 .2849884 .0055389406 .24099732 .0055389406 .19799805 .0055389406 .12298584 .022491456 .08799744 .08137512 .12298584 .07637024 .1539917 .09837341 .1539917 .1363678 .1539917 .17237854 .1269989 .19238281 .09799194 .19238281 .07398987 .19238281 .041992189 .17837525 .041992189 .1343689 .041992189 .043441774 .1349945-.022460938 .24398804-.022460938 .3659973-.022460938 .45700074 .06838989 .45700074 .17037964 .45700074 .252594 .3939972 .33088685 .2899933 .35191346Z"/>
<path id="font_2_2" d="M.44898988 .20022583C.44898988 .3193512 .36698915 .41944886 .25898744 .41944886 .21099854 .41944886 .16799927 .40345765 .13198853 .36842347V.5637665C.1519928 .5577698 .18499756 .55078127 .21699524 .55078127 .33999635 .55078127 .4099884 .6417694 .4099884 .6547699 .4099884 .6607666 .40699769 .6657715 .3999939 .6657715 .39898683 .6657715 .39698792 .6657715 .3919983 .66278079 .37199403 .6537781 .32299806 .6337738 .2559967 .6337738 .21598816 .6337738 .16999817 .6407776 .12298584 .6617737 .114990238 .66477969 .11299133 .66477969 .11099243 .66477969 .100997928 .66477969 .100997928 .6567688 .100997928 .6407776V.34439088C.100997928 .32637025 .100997928 .31835938 .114990238 .31835938 .12199402 .31835938 .12399292 .32136537 .12799073 .32736207 .13899231 .3433838 .17599488 .39746095 .25698854 .39746095 .30899049 .39746095 .33399964 .35139466 .34199525 .33337403 .35798646 .29632569 .3600006 .25727845 .3600006 .20722962 .3600006 .17222595 .3600006 .11222839 .33599855 .07035828 .31199647 .031463624 .2749939 .0055389406 .22898865 .0055389406 .1559906 .0055389406 .09899902 .058380128 .08198547 .11723328 .084991458 .1162262 .08799744 .115234378 .09899902 .115234378 .13198853 .115234378 .14898682 .14022827 .14898682 .16423035 .14898682 .18823242 .13198853 .21322632 .09899902 .21322632 .084991458 .21322632 .049987794 .20622254 .049987794 .16023255 .049987794 .07434082 .11898804-.022460938 .23098755-.022460938 .34700013-.022460938 .44898988 .073349 .44898988 .20022583Z"/>
<path id="font_3_1" d="M.5069885 .24998474C.5069885 .3710022 .4099884 .4650116 .2919922 .4650116 .17199707 .4650116 .07699585 .36799623 .07699585 .25097657 .07699585 .1299591 .17399597 .035949708 .2919922 .035949708 .4119873 .035949708 .5069885 .13296509 .5069885 .24998474M.2919922 .08496094C.19799805 .08496094 .12599182 .16096497 .12599182 .24998474 .12599182 .34300233 .19999695 .41601563 .2919922 .41601563 .38598634 .41601563 .45799256 .33999635 .45799256 .25097657 .45799256 .15795899 .38398744 .08496094 .2919922 .08496094Z"/>
<path id="font_2_3" d="M.16299439 .4569702C.116989139 .486969 .11299133 .52098086 .11299133 .5379791 .11299133 .598999 .17799378 .64100649 .24899292 .64100649 .32199098 .64100649 .38598634 .58898928 .38598634 .51698306 .38598634 .45996095 .34700013 .4119568 .2869873 .37695313L.16299439 .4569702M.30899049 .36193849C.3809967 .3989563 .42999269 .45095826 .42999269 .51698306 .42999269 .6090088 .34098817 .6660156 .25 .6660156 .1499939 .6660156 .068984989 .59199526 .068984989 .49897767 .068984989 .4809723 .070999149 .43595887 .11299133 .38894654 .12399292 .37695313 .16099549 .35194398 .18598938 .33494569 .12799073 .30592347 .041992189 .24984741 .041992189 .15072632 .041992189 .04458618 .14399719-.022460938 .24899292-.022460938 .3619995-.022460938 .45700074 .06060791 .45700074 .16773987 .45700074 .20379639 .44599916 .24885559 .4079895 .2909088 .3889923 .31193543 .37298585 .3219452 .30899049 .36193849M.20899964 .3199463 .33198548 .24183655C.3600006 .2228241 .40699769 .19277954 .40699769 .13169861 .40699769 .05760193 .33198548 .0055389406 .25 .0055389406 .1639862 .0055389406 .09199524 .067611698 .09199524 .15072632 .09199524 .20880127 .12399292 .27288819 .20899964 .3199463Z"/>
<path id="font_4_57" d="M.47099305 .16503906V.19602967H.37098695V.6507721C.37098695 .6707611 .37098695 .6767578 .35499574 .6767578 .34599305 .6767578 .34298707 .6767578 .33499146 .6647644L.027999878 .19602967V.16503906H.2939911V.07800293C.2939911 .041992189 .2919922 .0309906 .21798706 .0309906H.19699097V0C.23799134 .0029907227 .2899933 .0029907227 .33198548 .0029907227 .37399293 .0029907227 .4269867 .0029907227 .46798707 0V.0309906H.44699098C.37298585 .0309906 .37098695 .041992189 .37098695 .07800293V.16503906H.47099305M.2999878 .19602967H.055999757L.2999878 .56881716V.19602967Z"/>
<path id="font_4_75" d="M.8129883 0V.0309906C.7609863 .0309906 .73599246 .0309906 .7350006 .061019899V.25221253C.7350006 .3383026 .7350006 .36932374 .70399478 .405365 .6899872 .42237855 .6569977 .4423828 .598999 .4423828 .5149994 .4423828 .47099305 .38233949 .45399476 .34429933 .43998719 .43138124 .3659973 .4423828 .32099916 .4423828 .24798584 .4423828 .20098877 .39935304 .17298889 .33729554V.4423828L.03199768 .43066407V.3996582C.101989749 .3996582 .10998535 .39266969 .10998535 .34370423V.07595825C.10998535 .0309906 .09899902 .0309906 .03199768 .0309906V0L.14498902 .0029907227 .25698854 0V.0309906C.18998719 .0309906 .1789856 .0309906 .1789856 .07595825V.25978089C.1789856 .36431886 .25 .42037965 .31399537 .42037965 .3769989 .42037965 .3880005 .36631776 .3880005 .30926515V.076034549C.3880005 .0309906 .3769989 .0309906 .30999757 .0309906V0L.4229889 .0029907227 .5349884 0V.0309906C.46798707 .0309906 .45700074 .0309906 .45700074 .076034549V.2602234C.45700074 .36431886 .5279999 .42037965 .59199526 .42037965 .6549988 .42037965 .66600039 .36631776 .66600039 .30926515V.076034549C.66600039 .0309906 .6549988 .0309906 .58799746 .0309906V0L.70098879 .0029907227 .8129883 0Z"/>
</defs>
<path transform="matrix(1.00003,0,0,-1,12.209923,88.747)" stroke-width=".19925" stroke-linecap="round" stroke-linejoin="round" fill="none" stroke="#000000" d="M0 0V0H113.38724L110.68083 77.49998Z"/>
<use data-text="A" xlink:href="#font_1_1" transform="matrix(9.962899,0,0,-9.9626,1.2175903,99.075)"/>
<use data-text="B" xlink:href="#font_1_2" transform="matrix(9.962899,0,0,-9.9626,129.12042,99.075)"/>
<use data-text="C" xlink:href="#font_1_3" transform="matrix(9.962899,0,0,-9.9626,118.97713,7.727005)"/>
<path transform="matrix(1.00003,0,0,-1,12.209923,88.747)" stroke-width=".3985" stroke-linecap="butt" stroke-miterlimit="10" stroke-linejoin="miter" fill="none" stroke="#000000" d="M19.84267 0C19.84267 4.0714 18.58885 8.04625 16.25386 11.381"/>
<use data-text="3" xlink:href="#font_2_1" transform="matrix(9.962899,0,0,-9.9626,34.676599,82.802)"/>
<use data-text="5" xlink:href="#font_2_2" transform="matrix(9.962899,0,0,-9.9626,39.658044,82.802)"/>
<use data-text="&#x25e6;" xlink:href="#font_3_1" transform="matrix(6.9740097,0,0,-6.9738,44.639894,79.187007)"/>
<path transform="matrix(1.00003,0,0,-1,12.209923,88.747)" stroke-width=".3985" stroke-linecap="butt" stroke-miterlimit="10" stroke-linejoin="miter" fill="none" stroke="#000000" d="M112.89285 14.16429C105.26332 13.89809 99.21384 7.63428 99.21384-.0002"/>
<use data-text="8" xlink:href="#font_2_3" transform="matrix(9.962899,0,0,-9.9626,99.97656,74.456)"/>
<use data-text="8" xlink:href="#font_2_3" transform="matrix(9.962899,0,0,-9.9626,104.95801,74.456)"/>
<use data-text="&#x25e6;" xlink:href="#font_3_1" transform="matrix(6.9740097,0,0,-6.9738,109.93986,70.841)"/>
<use data-text="4" xlink:href="#font_4_57" transform="matrix(9.962899,0,0,-9.9626,34.15258,53.369005)"/>
<use data-text="4" xlink:href="#font_4_57" transform="matrix(9.962899,0,0,-9.9626,39.134027,53.369005)"/>
<use data-text="m" xlink:href="#font_4_75" transform="matrix(9.962899,0,0,-9.9626,47.423166,53.369005)"/>
<use data-text="m" xlink:href="#font_4_75" transform="matrix(9.962899,0,0,-9.9626,55.72226,53.369005)"/>
</svg>
