<svg xmlns="http://www.w3.org/2000/svg" xmlns:xlink="http://www.w3.org/1999/xlink" xmlns:inkscape="http://www.inkscape.org/namespaces/inkscape" version="1.1" width="267" height="66" viewBox="0 0 267 66">
<defs>
<path id="font_1_2" d="M.2579956 .68333438C.2579956 .6843262 .2579956 .69433596 .24499512 .69433596 .22200012 .69433596 .14898682 .6863251 .12298584 .6843262 .114990238 .68333438 .10398865 .6823273 .10398865 .6633301 .10398865 .6523285 .11399841 .6523285 .1289978 .6523285 .1769867 .6523285 .17799378 .6433258 .17799378 .6353302L.1749878 .6153259 .04899597 .11526489C.04598999 .104263309 .04399109 .09725952 .04399109 .08125305 .04399109 .024246216 .08799744-.0107421879 .1349945-.0107421879 .16799927-.0107421879 .19299317 .009246826 .20999146 .04525757 .22799683 .08325195 .23999024 .14126587 .23999024 .14326477 .23999024 .15327454 .23098755 .15327454 .22799683 .15327454 .21798706 .15327454 .21699524 .14926148 .21398926 .13526917 .19699097 .070251468 .17799378 .011245728 .13798523 .011245728 .10798645 .011245728 .10798645 .043258668 .10798645 .057250978 .10798645 .08125305 .10899353 .086257938 .11399841 .10525513L.2579956 .68333438Z"/>
<path id="font_1_1" d="M.2869873 .68333438C.2869873 .6843262 .2869873 .69433596 .27398683 .69433596 .25099183 .69433596 .17799378 .6863251 .1519928 .6843262 .14399719 .68333438 .1329956 .6823273 .1329956 .6643219 .1329956 .6523285 .14199829 .6523285 .15699768 .6523285 .20498657 .6523285 .20698548 .6453247 .20698548 .6353302L.20399475 .6153412 .05899048 .039260866C.054992677 .025253296 .054992677 .023254395 .054992677 .01725769 .054992677-.0057525637 .07499695-.0107421879 .083999637-.0107421879 .099990848-.0107421879 .115997318 .0012512207 .12098694 .015258789L.13999939 .091278079 .1619873 .18130493C.16799927 .2033081 .17399597 .22531128 .1789856 .24832154 .18099976 .25431825 .18899536 .28733827 .18998719 .29333497 .19299317 .30233766 .22399903 .35835267 .2579956 .38536073 .27999879 .4013672 .31098939 .42037965 .35398866 .42037965 .39698792 .42037965 .4079895 .3863678 .4079895 .35035707 .4079895 .29634095 .36999513 .18730164 .34599305 .12628174 .33799745 .103271488 .33299256 .091278079 .33299256 .0712738 .33299256 .024261475 .36799623-.0107421879 .4149933-.0107421879 .5089874-.0107421879 .54599 .13528443 .54599 .14329529 .54599 .1532898 .5369873 .1532898 .5339966 .1532898 .5239868 .1532898 .5239868 .15029907 .5189972 .13528443 .5039978 .08227539 .47200013 .011245728 .4169922 .011245728 .3999939 .011245728 .3929901 .021255494 .3929901 .044265748 .3929901 .0692749 .4019928 .09327698 .41099549 .11528015 .4269867 .15829468 .47200013 .2773285 .47200013 .3353424 .47200013 .4003601 .43199159 .4423828 .35699464 .4423828 .2939911 .4423828 .24598694 .41137696 .20899964 .36535646L.2869873 .68333438Z"/>
<path id="font_1_3" d="M.46199037 .33935548C.46699525 .36135865 .47698976 .3983612 .47698976 .40437318 .47698976 .42237855 .46299745 .43138124 .44799806 .43138124 .43598939 .43138124 .41799928 .42337037 .41099549 .4033661 .4079895 .3963623 .36099244 .205307 .35398866 .17930603 .34700013 .14929199 .34498597 .13128662 .34498597 .11328125 .34498597 .10227966 .34498597 .10028076 .34599305 .09527588 .32299806 .042266847 .29299928 .011245728 .2539978 .011245728 .17399597 .011245728 .17399597 .08526611 .17399597 .10227966 .17399597 .1342926 .1789856 .17329407 .22599793 .29634095 .23699951 .32633973 .24299622 .3403473 .24299622 .36035157 .24299622 .405365 .20999146 .4423828 .16099549 .4423828 .06599426 .4423828 .0289917 .29733277 .0289917 .28833009 .0289917 .27833558 .038986207 .27833558 .040985109 .27833558 .050994874 .27833558 .051986696 .28033448 .056991579 .29634095 .083999637 .38935853 .12298584 .42037965 .1579895 .42037965 .16699219 .42037965 .18299866 .41937257 .18299866 .38735963 .18299866 .36235047 .17199707 .3343506 .16499329 .31733705 .12098694 .1993103 .10899353 .1532898 .10899353 .11528015 .10899353 .024261475 .17599488-.0107421879 .25099183-.0107421879 .2679901-.0107421879 .31498719-.0107421879 .35499574 .059265138 .3809967-.0047454836 .44999696-.0107421879 .47999574-.0107421879 .5549927-.0107421879 .598999 .052261354 .625 .11227417 .6589966 .19030762 .69099429 .32434083 .69099429 .37236024 .69099429 .42736817 .6639862 .4423828 .6469879 .4423828 .621994 .4423828 .5970001 .41636659 .5970001 .3943634 .5970001 .38136292 .6029968 .3753662 .6119995 .36735536 .6230011 .35635377 .647995 .33035279 .647995 .28233338 .647995 .24832154 .61898806 .15029907 .59298709 .09927368 .5669861 .04626465 .5319977 .011245728 .48298646 .011245728 .43598939 .011245728 .40899659 .041259767 .40899659 .09828186 .40899659 .12628174 .41600038 .1572876 .41999818 .17129517L.46199037 .33935548Z"/>
<path id="font_2_3" d="M.47698976 .3423462C.48199464 .36236573 .4909973 .39837647 .4909973 .40237428 .4909973 .41537477 .48199464 .43138124 .45999146 .43138124 .44699098 .43138124 .42900086 .42337037 .42099 .40437318 .4189911 .39837647 .37098695 .205307 .36499024 .17930603 .35899354 .1552887 .35598756 .13928223 .35499574 .11528015 .35899354 .090270999 .34399415 .06826782 .32899476 .04826355 .30699159 .021255494 .2849884 .014251709 .2639923 .014251709 .22799683 .014251709 .18199158 .029251099 .18199158 .104278568 .18199158 .15629578 .20799256 .22731018 .23899842 .30934144 .24398804 .32234193 .25099183 .33935548 .25099183 .35835267 .25099183 .40737916 .21398926 .4423828 .16499329 .4423828 .068984989 .4423828 .0289917 .30033876 .0289917 .28833009 .0289917 .2793274 .035995485 .27633668 .042999269 .27633668 .053985597 .27633668 .054992677 .28233338 .05899048 .29533387 .07998657 .36836244 .11999512 .41737367 .1619873 .41737367 .18199158 .41737367 .18598938 .40437318 .18598938 .3843689 .18598938 .36735536 .18199158 .34934999 .17298889 .3253479 .12399292 .1973114 .11399841 .16029358 .11399841 .11828613 .11399841 .004257202 .21099854-.0107421879 .26098634-.0107421879 .2999878-.0107421879 .33699037 .0052490236 .3659973 .057266237 .3959961-.0017547608 .45899964-.0107421879 .49598695-.0107421879 .5669861-.0107421879 .6100006 .041259767 .6419983 .107284549 .66999819 .16630554 .70899966 .3083496 .70899966 .3693695 .70899966 .43937684 .6719971 .44337464 .6629944 .44337464 .6380005 .44337464 .6119995 .41638185 .6119995 .39337159 .6119995 .3783722 .62098696 .37036134 .6279907 .36436463 .6549988 .33935548 .6639862 .30734254 .6639862 .28134156 .6639862 .2513275 .6389923 .15930176 .60899356 .10127258 .58699038 .058258058 .5529938 .014251709 .49899293 .014251709 .42399598 .014251709 .42399598 .08427429 .42399598 .10227966 .42399598 .12928772 .42900086 .15029907 .43798829 .18530274L.47698976 .3423462Z"/>
<path id="font_2_1" d="M.2869873 .6603241C.29100038 .67433169 .29100038 .67633059 .29100038 .68032839 .29100038 .68933108 .2849884 .69433596 .27598573 .69433596 .2619934 .69433596 .17399597 .6863251 .1539917 .6843262 .14399719 .68333438 .1329956 .6823273 .1329956 .665329 .1329956 .6523285 .14399719 .6523285 .1599884 .6523285 .20698548 .6523285 .20698548 .6453247 .20698548 .6363373 .20698548 .6323395 .20698548 .6303406 .20199585 .6123352L.05899048 .037261964C.054992677 .023254395 .054992677 .021255494 .054992677 .018249512 .054992677 .002243042 .067993167-.0107421879 .085998538-.0107421879 .102996829-.0107421879 .116989139-.00074768069 .12399292 .013244629 .12599182 .018249512 .1349945 .054260255 .13999939 .07527161L.16299439 .16429138C.1659851 .17930603 .17599488 .21731568 .1789856 .23231507L.19099427 .27633668C.19599915 .29934693 .25299073 .41737367 .36099244 .41737367 .4149933 .41737367 .4149933 .36436463 .4149933 .34735108 .4149933 .28633119 .36799623 .16429138 .35699464 .13328552 .34498597 .10227966 .34098817 .0922699 .34098817 .073272708 .34098817 .019256592 .38198854-.0107421879 .4269867-.0107421879 .522995-.0107421879 .56199648 .1322937 .56199648 .14329529 .56199648 .14828491 .5589905 .1552887 .548996 .1552887 .5379944 .1552887 .5369873 .15029907 .5329895 .13728333 .5079956 .052261354 .46598817 .014251709 .42999269 .014251709 .4229889 .014251709 .40499879 .014251709 .40499879 .04626465 .40499879 .0712738 .4149933 .09727478 .4229889 .119277957 .44299317 .17030335 .48298646 .27633668 .48298646 .33235169 .48298646 .42137147 .4169922 .4423828 .3639984 .4423828 .3039856 .4423828 .25299073 .41438294 .21299744 .36535646L.2869873 .6603241Z"/>
<path id="font_2_2" d="M.2579956 .6603241C.2619934 .67433169 .2619934 .67633059 .2619934 .68032839 .2619934 .68933108 .2559967 .69433596 .24699402 .69433596 .22999573 .69433596 .14698792 .6863251 .125 .6843262 .116989139 .68333438 .10499573 .6823273 .10499573 .665329 .10499573 .6523285 .115997318 .6523285 .1309967 .6523285 .17799378 .6523285 .17799378 .6443329 .17799378 .636322 .17799378 .6323242 .17799378 .6303253 .17298889 .61231997L.049987794 .120269779C.04499817 .1002655 .04499817 .086257938 .04499817 .08226013 .04499817 .019256592 .09599304-.0107421879 .13999939-.0107421879 .18499756-.0107421879 .20599365 .025253296 .21699524 .04725647 .23498535 .08325195 .24699402 .14025879 .24699402 .14326477 .24699402 .14826966 .24398804 .15527344 .23399353 .15527344 .22200012 .15527344 .22099304 .15026856 .21699524 .13127136 .19999695 .06326294 .17999268 .014251709 .14299011 .014251709 .12298584 .014251709 .11199951 .028259278 .11199951 .060256959 .11199951 .08125305 .11399841 .088256839 .117996219 .104263309L.2579956 .6603241Z"/>
</defs>
<path transform="matrix(1.00009,0,0,-1.00005,16.148102,47.35457)" d="M0 0H42.5202V28.3468H0Z" fill="#ebebff"/>
<path transform="matrix(1.00009,0,0,-1.00005,16.148102,47.35457)" stroke-width=".79701" stroke-linecap="butt" stroke-miterlimit="10" stroke-linejoin="miter" fill="none" stroke="#000000" d="M0 0H42.5202V28.3468H0Z"/>
<path transform="matrix(1.00009,0,0,-1.00005,16.148102,47.35457)" d="M42.5202 0 56.69362 9.92133V38.26813L42.5202 28.3468Z" fill="#d9d9ff"/>
<path transform="matrix(1.00009,0,0,-1.00005,16.148102,47.35457)" stroke-width=".79701" stroke-linecap="butt" stroke-miterlimit="10" stroke-linejoin="miter" fill="none" stroke="#000000" d="M42.5202 0 56.69362 9.92133V38.26813L42.5202 28.3468Z"/>
<path transform="matrix(1.00009,0,0,-1.00005,16.148102,47.35457)" d="M0 28.3468 14.17339 38.26813H56.69362L42.5202 28.3468Z" fill="#f2f2ff"/>
<path transform="matrix(1.00009,0,0,-1.00005,16.148102,47.35457)" stroke-width=".79701" stroke-linecap="butt" stroke-miterlimit="10" stroke-linejoin="miter" fill="none" stroke="#000000" d="M0 28.3468 14.17339 38.26813H56.69362L42.5202 28.3468Z"/>
<path transform="matrix(1.00009,0,0,-1.00005,16.148102,47.35457)" stroke-width=".3985" stroke-linecap="butt" stroke-dasharray="2.98883,2.98883" stroke-miterlimit="10" stroke-linejoin="miter" fill="none" stroke="#000000" d="M0 0 14.17339 9.92133H56.69362"/>
<path transform="matrix(1.00009,0,0,-1.00005,16.148102,47.35457)" stroke-width=".3985" stroke-linecap="butt" stroke-dasharray="2.98883,2.98883" stroke-miterlimit="10" stroke-linejoin="miter" fill="none" stroke="#000000" d="M14.17339 9.92133V38.26813"/>
<path transform="matrix(1.00009,0,0,-1.00005,16.148102,47.35457)" stroke-width=".3985" stroke-linecap="butt" stroke-miterlimit="10" stroke-linejoin="miter" fill="none" stroke="#000000" d="M.3985-5.66927H42.12169"/>
<path transform="matrix(-1.00009,-0,0,1.00005,16.34737,53.02412)" stroke-width=".3985" stroke-linecap="round" stroke-linejoin="round" fill="none" stroke="#000000" d="M-2.07224 2.39104C-1.69365 .95639-.84999 .27895 0 0-.84999-.27895-1.69365-.95639-2.07224-2.39104"/>
<path transform="matrix(1.00009,0,0,-1.00005,58.472864,53.02412)" stroke-width=".3985" stroke-linecap="round" stroke-linejoin="round" fill="none" stroke="#000000" d="M-2.07224 2.39104C-1.69365 .95639-.84999 .27895 0 0-.84999-.27895-1.69365-.95639-2.07224-2.39104"/>
<use data-text="l" xlink:href="#font_1_2" transform="matrix(9.963496,0,0,-9.963098,35.825876,63.46337)"/>
<path transform="matrix(1.00009,0,0,-1.00005,16.148102,47.35457)" stroke-width=".3985" stroke-linecap="butt" stroke-miterlimit="10" stroke-linejoin="miter" fill="none" stroke="#000000" d="M-5.66927 .3985V27.9483"/>
<path transform="matrix(0,1.00005,1.00009,0,10.478321,47.155309)" stroke-width=".3985" stroke-linecap="round" stroke-linejoin="round" fill="none" stroke="#000000" d="M-2.07224 2.39104C-1.69365 .95639-.84999 .27895 0 0-.84999-.27895-1.69365-.95639-2.07224-2.39104"/>
<path transform="matrix(0,-1.00005,-1.00009,-0,10.478321,19.205613)" stroke-width=".3985" stroke-linecap="round" stroke-linejoin="round" fill="none" stroke="#000000" d="M-2.07224 2.39104C-1.69365 .95639-.84999 .27895 0 0-.84999-.27895-1.69365-.95639-2.07224-2.39104"/>
<use data-text="h" xlink:href="#font_1_1" transform="matrix(9.963496,0,0,-9.963098,1.2177582,36.640035)"/>
<path transform="matrix(1.00009,0,0,-1.00005,16.148102,47.35457)" stroke-width=".3985" stroke-linecap="butt" stroke-miterlimit="10" stroke-linejoin="miter" fill="none" stroke="#000000" d="M44.26408-1.8974 57.78458 7.56688"/>
<path transform="matrix(-.8192837,.57348868,.5735116,.8192509,60.252954,49.36633)" stroke-width=".3985" stroke-linecap="round" stroke-linejoin="round" fill="none" stroke="#000000" d="M-2.07224 2.39104C-1.69365 .95639-.84999 .27895 0 0-.84999-.27895-1.69365-.95639-2.07224-2.39104"/>
<path transform="matrix(.8192837,-.57348868,-.5735116,-.8192509,74.1011,39.673048)" stroke-width=".3985" stroke-linecap="round" stroke-linejoin="round" fill="none" stroke="#000000" d="M-2.07224 2.39104C-1.69365 .95639-.84999 .27895 0 0-.84999-.27895-1.69365-.95639-2.07224-2.39104"/>
<use data-text="w" xlink:href="#font_1_3" transform="matrix(9.963496,0,0,-9.963098,70.69701,52.32982)"/>
<path transform="matrix(1.00009,0,0,-1.00005,16.148102,47.35457)" stroke-width="1.19553" stroke-linecap="butt" stroke-miterlimit="10" stroke-linejoin="miter" fill="none" stroke="#000000" d="M77.95372 19.84267H98.01831"/>
<path transform="matrix(1.00009,0,0,-1.00005,114.77303,27.510907)" stroke-width="1.19553" stroke-linecap="round" stroke-linejoin="round" fill="none" stroke="#000000" d="M-3.02867 3.83081C-2.47534 1.53229-1.24231 .44691 0 0-1.24231-.44691-2.47534-1.53229-3.02867-3.83081"/>
<path transform="matrix(1.00009,0,0,-1.00005,16.148102,47.35457)" d="M113.38724 0V28.3468H130.39527V0ZM130.39527 28.3468" fill="#ffe6e6"/>
<path transform="matrix(1.00009,0,0,-1.00005,16.148102,47.35457)" stroke-width=".79701" stroke-linecap="butt" stroke-miterlimit="10" stroke-linejoin="miter" fill="none" stroke="#000000" d="M113.38724 0V28.3468H130.39527V0ZM130.39527 28.3468"/>
<use data-text="w" xlink:href="#font_2_3" transform="matrix(8.967207,0,0,-8.966848,131.97153,36.294015)"/>
<use data-text="h" xlink:href="#font_2_1" transform="matrix(8.967207,0,0,-8.966848,138.80454,36.294015)"/>
<path transform="matrix(1.00009,0,0,-1.00005,16.148102,47.35457)" d="M130.39527 0V28.3468H181.41962V0ZM181.41962 28.3468" fill="#e6e6ff"/>
<path transform="matrix(1.00009,0,0,-1.00005,16.148102,47.35457)" stroke-width=".79701" stroke-linecap="butt" stroke-miterlimit="10" stroke-linejoin="miter" fill="none" stroke="#000000" d="M130.39527 0V28.3468H181.41962V0ZM181.41962 28.3468"/>
<use data-text="l" xlink:href="#font_2_2" transform="matrix(8.967207,0,0,-8.966848,167.96475,36.294015)"/>
<use data-text="h" xlink:href="#font_2_1" transform="matrix(8.967207,0,0,-8.966848,170.8522,36.294015)"/>
<path transform="matrix(1.00009,0,0,-1.00005,16.148102,47.35457)" d="M181.41962 0V28.3468H198.42766V0ZM198.42766 28.3468" fill="#ffe6e6"/>
<path transform="matrix(1.00009,0,0,-1.00005,16.148102,47.35457)" stroke-width=".79701" stroke-linecap="butt" stroke-miterlimit="10" stroke-linejoin="miter" fill="none" stroke="#000000" d="M181.41962 0V28.3468H198.42766V0ZM198.42766 28.3468"/>
<use data-text="w" xlink:href="#font_2_3" transform="matrix(8.967207,0,0,-8.966848,200.01064,36.294015)"/>
<use data-text="h" xlink:href="#font_2_1" transform="matrix(8.967207,0,0,-8.966848,206.84366,36.294015)"/>
<path transform="matrix(1.00009,0,0,-1.00005,16.148102,47.35457)" d="M198.42766 0V28.3468H249.452V0ZM249.452 28.3468" fill="#e6e6ff"/>
<path transform="matrix(1.00009,0,0,-1.00005,16.148102,47.35457)" stroke-width=".79701" stroke-linecap="butt" stroke-miterlimit="10" stroke-linejoin="miter" fill="none" stroke="#000000" d="M198.42766 0V28.3468H249.452V0ZM249.452 28.3468"/>
<use data-text="l" xlink:href="#font_2_2" transform="matrix(8.967207,0,0,-8.966848,236.0029,36.294015)"/>
<use data-text="h" xlink:href="#font_2_1" transform="matrix(8.967207,0,0,-8.966848,238.89035,36.294015)"/>
<path transform="matrix(1.00009,0,0,-1.00005,16.148102,47.35457)" d="M130.39527 28.3468V45.35484H181.41962V28.3468ZM181.41962 45.35484" fill="#e6ffe6"/>
<path transform="matrix(1.00009,0,0,-1.00005,16.148102,47.35457)" stroke-width=".79701" stroke-linecap="butt" stroke-miterlimit="10" stroke-linejoin="miter" fill="none" stroke="#000000" d="M130.39527 28.3468V45.35484H181.41962V28.3468ZM181.41962 45.35484"/>
<use data-text="l" xlink:href="#font_2_2" transform="matrix(8.967207,0,0,-8.966848,167.1967,13.614883)"/>
<use data-text="w" xlink:href="#font_2_3" transform="matrix(8.967207,0,0,-8.966848,170.08414,13.614883)"/>
<path transform="matrix(1.00009,0,0,-1.00005,16.148102,47.35457)" d="M130.39527-17.00803V0H181.41962V-17.00803ZM181.41962 0" fill="#e6ffe6"/>
<path transform="matrix(1.00009,0,0,-1.00005,16.148102,47.35457)" stroke-width=".79701" stroke-linecap="butt" stroke-miterlimit="10" stroke-linejoin="miter" fill="none" stroke="#000000" d="M130.39527-17.00803V0H181.41962V-17.00803ZM181.41962 0"/>
<use data-text="l" xlink:href="#font_2_2" transform="matrix(8.967207,0,0,-8.966848,167.1967,58.97215)"/>
<use data-text="w" xlink:href="#font_2_3" transform="matrix(8.967207,0,0,-8.966848,170.08414,58.97215)"/>
</svg>
