<svg xmlns="http://www.w3.org/2000/svg" xmlns:xlink="http://www.w3.org/1999/xlink" xmlns:inkscape="http://www.inkscape.org/namespaces/inkscape" version="1.1" width="138" height="132" viewBox="0 0 138 132">
<defs>
<path id="font_1_1" d="M.1789856 .114868167C.13899231 .047973634 .099990848 .033981325 .055999757 .0309906 .04399109 .02999878 .034988405 .02999878 .034988405 .010986328 .034988405 .004989624 .039993287 0 .04798889 0 .07499695 0 .10598755 .0029907227 .13398743 .0029907227 .16699219 .0029907227 .20199585 0 .23399353 0 .23999024 0 .25299073 0 .25299073 .018997193 .25299073 .02999878 .24398804 .0309906 .23699951 .0309906 .21398926 .032989503 .18998719 .04096985 .18998719 .06593323 .18998719 .077926639 .19599915 .088897708 .20399475 .102890018L.27999879 .23068238H.5309906C.5329895 .2097168 .5469971 .07392883 .5469971 .063949588 .5469971 .033981325 .49499513 .0309906 .47499085 .0309906 .46099855 .0309906 .45098878 .0309906 .45098878 .010986328 .45098878 0 .46299745 0 .46499635 0 .5059967 0 .548996 .0029907227 .58999636 .0029907227 .61499026 .0029907227 .6779938 0 .7029877 0 .70899966 0 .72099307 0 .72099307 .019989014 .72099307 .0309906 .71099856 .0309906 .69799807 .0309906 .6359863 .0309906 .6359863 .037979127 .6329956 .06694031L.57199099 .691803C.56999209 .71180728 .56999209 .7158203 .5529938 .7158203 .5369873 .7158203 .5329895 .7088165 .5269928 .69880679L.1789856 .114868167M.29899598 .26168824 .49598695 .5917816 .5279999 .26168824H.29899598Z"/>
<path id="font_1_2" d="M.1599884 .07795715C.1499939 .038986207 .147995 .0309906 .068984989 .0309906 .051986696 .0309906 .041992189 .0309906 .041992189 .010986328 .041992189 0 .050994874 0 .068984989 0H.42599488C.58399966 0 .70199587 .11791992 .70199587 .21585083 .70199587 .28778077 .6439972 .3457489 .5469971 .35673524 .651001 .37573243 .7559967 .44970704 .7559967 .5446625 .7559967 .6186218 .6899872 .6826172 .56999209 .6826172H.23399353C.21499634 .6826172 .20498657 .6826172 .20498657 .6626129 .20498657 .6516113 .21398926 .6516113 .23298645 .6516113 .23498535 .6516113 .2539978 .6516113 .2709961 .6496124 .2889862 .6476135 .2979889 .64660647 .2979889 .6336212 .2979889 .6296234 .29699708 .62661746 .2939911 .614624L.1599884 .07795715M.31098939 .36573792 .37298585 .6136322C.38198854 .64860537 .38398744 .6516113 .4269867 .6516113H.55599978C.6439972 .6516113 .6649933 .5926361 .6649933 .5486603 .6649933 .46069337 .57899478 .36573792 .45700074 .36573792H.31098939M.2659912 .0309906C.2519989 .0309906 .25 .0309906 .24398804 .03199768 .23399353 .032989503 .23098755 .033996583 .23098755 .04197693 .23098755 .04498291 .23098755 .04698181 .23599243 .064971927L.30499269 .34375H.49398805C.58999636 .34375 .60899356 .2698059 .60899356 .22683716 .60899356 .12791443 .519989 .0309906 .4019928 .0309906H.2659912Z"/>
<path id="font_1_3" d="M.7599945 .69506838C.7599945 .69807437 .7579956 .7050781 .7489929 .7050781 .74598696 .7050781 .7449951 .70407107 .73399356 .69306948L.6639862 .61602786C.6549988 .6300354 .60899356 .7050781 .49798585 .7050781 .2749939 .7050781 .049987794 .48391725 .049987794 .25172425 .049987794 .08659363 .16799927-.022460938 .32099916-.022460938 .4079895-.022460938 .48399354 .017532349 .5369873 .063583377 .6299896 .14564514 .6469879 .2367096 .6469879 .23971558 .6469879 .24972534 .6369934 .24972534 .6349945 .24972534 .6289978 .24972534 .6239929 .24772644 .621994 .23971558 .61299136 .21069336 .58999636 .13963318 .5209961 .081588748 .45199586 .025543213 .3889923 .008529663 .33699037 .008529663 .24699402 .008529663 .14099121 .060577394 .14099121 .21670532 .14099121 .27374269 .1619873 .43588258 .2619934 .55296328 .32299806 .62402346 .4169922 .67407229 .5059967 .67407229 .60798647 .67407229 .6669922 .5970001 .6669922 .48091126 .6669922 .44088746 .6639862 .43988038 .6639862 .4298706 .6639862 .41986085 .6749878 .41986085 .67900088 .41986085 .69200137 .41986085 .69200137 .42185975 .69699099 .43988038L.7599945 .69506838Z"/>
<path id="font_2_1" d="M.13198853 .327713V.35173036C.13198853 .6047821 .2559967 .64100649 .30699159 .64100649 .33099366 .64100649 .37298585 .634964 .394989 .6007538 .37998963 .6007538 .33999635 .6007538 .33999635 .5557556 .33999635 .524765 .3639984 .5097656 .38598634 .5097656 .4019928 .5097656 .43199159 .51875308 .43199159 .5577545 .43199159 .6178589 .3880005 .6660156 .30499269 .6660156 .1769867 .6660156 .041992189 .5367584 .041992189 .31570436 .041992189 .048553468 .1579895-.022460938 .25099183-.022460938 .3619995-.022460938 .45700074 .07156372 .45700074 .2036438 .45700074 .33070375 .36799623 .4267578 .25698854 .4267578 .18899536 .4267578 .1519928 .37573243 .13198853 .327713M.25099183 .0055389406C.18798828 .0055389406 .1579895 .06556702 .1519928 .080566409 .13398743 .127594 .13398743 .2076416 .13398743 .22564698 .13398743 .30369569 .1659851 .40374757 .2559967 .40374757 .27198792 .40374757 .31799317 .40374757 .34899903 .34172059 .36698915 .30470277 .36698915 .2536621 .36698915 .20463562 .36698915 .15661621 .36698915 .10658264 .34999085 .0705719 .31999208 .010528564 .27398683 .0055389406 .25099183 .0055389406Z"/>
<path id="font_2_2" d="M.47599793 .609375C.4850006 .6213684 .4850006 .62338259 .4850006 .64437869H.24198914C.11999512 .64437869 .117996219 .65737918 .11399841 .67637637H.08898926L.055999757 .4702301H.08099365C.083999637 .48625184 .09298706 .5493469 .10598755 .56137087 .11299133 .5673828 .19099427 .5673828 .20399475 .5673828H.41099549C.3999939 .5513611 .32099916 .4421997 .29899598 .40914918 .20899964 .27394105 .17599488 .1347351 .17599488 .032577516 .17599488 .022567749 .17599488-.022460938 .22200012-.022460938 .2679901-.022460938 .2679901 .022567749 .2679901 .032577516V.08366394C.2679901 .13873291 .2709961 .19381714 .2789917 .24790955 .2829895 .27093507 .29699708 .35707093 .34098817 .41915895L.47599793 .609375Z"/>
<path id="font_3_1" d="M.5069885 .24998474C.5069885 .3710022 .4099884 .4650116 .2919922 .4650116 .17199707 .4650116 .07699585 .36799623 .07699585 .25097657 .07699585 .1299591 .17399597 .035949708 .2919922 .035949708 .4119873 .035949708 .5069885 .13296509 .5069885 .24998474M.2919922 .08496094C.19799805 .08496094 .12599182 .16096497 .12599182 .24998474 .12599182 .34300233 .19999695 .41601563 .2919922 .41601563 .38598634 .41601563 .45799256 .33999635 .45799256 .25097657 .45799256 .15795899 .38398744 .08496094 .2919922 .08496094Z"/>
<path id="font_4_82" d="M.4189911 0V.0309906H.3869934C.29699708 .0309906 .2939911 .041992189 .2939911 .07902527V.64012148C.2939911 .6640167 .2939911 .6660156 .2709961 .6660156 .20899964 .60227969 .12098694 .60227969 .08898926 .60227969V.57128909C.10899353 .57128909 .16799927 .57128909 .21998596 .5972748V.07902527C.21998596 .042999269 .21699524 .0309906 .1269989 .0309906H.09498596V0C.12998963 .0029907227 .21699524 .0029907227 .25698854 .0029907227 .29699708 .0029907227 .38398744 .0029907227 .4189911 0Z"/>
<path id="font_4_106" d="M.45700074 .17037964C.45700074 .252594 .3939972 .33088685 .2899933 .35191346 .37199403 .37893678 .42999269 .4490509 .42999269 .52809146 .42999269 .6100464 .34199525 .6660156 .24598694 .6660156 .14498902 .6660156 .068984989 .60606387 .068984989 .53009036 .068984989 .49710084 .09098816 .47808839 .11999512 .47808839 .15098572 .47808839 .17098999 .50009158 .17098999 .5290985 .17098999 .57910159 .12399292 .57910159 .10899353 .57910159 .13999939 .62802127 .20599365 .64100649 .24198914 .64100649 .2829895 .64100649 .33799745 .6190338 .33799745 .5290985 .33799745 .51708987 .33599855 .45906068 .30999757 .4149933 .27999879 .36691285 .24598694 .36390687 .22099304 .36291505 .21299744 .36190797 .18899536 .35990907 .18199158 .35990907 .17399597 .35890199 .16699219 .35791017 .16699219 .3479004 .16699219 .33691407 .17399597 .33691407 .19099427 .33691407H.23498535C.31698609 .33691407 .35398866 .2686615 .35398866 .17037964 .35398866 .034469606 .2849884 .0055389406 .24099732 .0055389406 .19799805 .0055389406 .12298584 .022491456 .08799744 .08137512 .12298584 .07637024 .1539917 .09837341 .1539917 .1363678 .1539917 .17237854 .1269989 .19238281 .09799194 .19238281 .07398987 .19238281 .041992189 .17837525 .041992189 .1343689 .041992189 .043441774 .1349945-.022460938 .24398804-.022460938 .3659973-.022460938 .45700074 .06838989 .45700074 .17037964Z"/>
<path id="font_4_75" d="M.8129883 0V.0309906C.7609863 .0309906 .73599246 .0309906 .7350006 .061019899V.25221253C.7350006 .3383026 .7350006 .36932374 .70399478 .405365 .6899872 .42237855 .6569977 .4423828 .598999 .4423828 .5149994 .4423828 .47099305 .38233949 .45399476 .34429933 .43998719 .43138124 .3659973 .4423828 .32099916 .4423828 .24798584 .4423828 .20098877 .39935304 .17298889 .33729554V.4423828L.03199768 .43066407V.3996582C.101989749 .3996582 .10998535 .39266969 .10998535 .34370423V.07595825C.10998535 .0309906 .09899902 .0309906 .03199768 .0309906V0L.14498902 .0029907227 .25698854 0V.0309906C.18998719 .0309906 .1789856 .0309906 .1789856 .07595825V.25978089C.1789856 .36431886 .25 .42037965 .31399537 .42037965 .3769989 .42037965 .3880005 .36631776 .3880005 .30926515V.076034549C.3880005 .0309906 .3769989 .0309906 .30999757 .0309906V0L.4229889 .0029907227 .5349884 0V.0309906C.46798707 .0309906 .45700074 .0309906 .45700074 .076034549V.2602234C.45700074 .36431886 .5279999 .42037965 .59199526 .42037965 .6549988 .42037965 .66600039 .36631776 .66600039 .30926515V.076034549C.66600039 .0309906 .6549988 .0309906 .58799746 .0309906V0L.70098879 .0029907227 .8129883 0Z"/>
<path id="font_4_107" d="M.44898988 .17396546H.42399598C.4189911 .14398194 .4119873 .099990848 .4019928 .084991458 .394989 .07699585 .32899476 .07699585 .30699159 .07699585H.1269989L.23298645 .17996216C.3889923 .31803895 .44898988 .37210084 .44898988 .47216798 .44898988 .5860901 .35899354 .6660156 .23699951 .6660156 .12399292 .6660156 .049987794 .57411196 .049987794 .48516847 .049987794 .4291687 .099990848 .4291687 .102996829 .4291687 .11999512 .4291687 .15499878 .44117738 .15499878 .48217774 .15499878 .5081787 .13699341 .5341797 .101989749 .5341797 .09399414 .5341797 .09199524 .5341797 .08898926 .5331726 .11199951 .59806826 .1659851 .63500979 .22399903 .63500979 .31498719 .63500979 .35798646 .5541382 .35798646 .47216798 .35798646 .39196778 .30799867 .31297303 .25299073 .25097657L.06098938 .036987306C.049987794 .025985718 .049987794 .023986817 .049987794 0H.42099L.44898988 .17396546Z"/>
</defs>
<path transform="matrix(1.00003,0,0,-1.00006,12.209923,120.56651)" stroke-width=".19925" stroke-linecap="round" stroke-linejoin="round" fill="none" stroke="#000000" d="M0 0V0H113.38724L66.98671 109.31229Z"/>
<use data-text="A" xlink:href="#font_1_1" transform="matrix(9.962899,0,0,-9.963197,1.2175903,130.89513)"/>
<use data-text="B" xlink:href="#font_1_2" transform="matrix(9.962899,0,0,-9.963197,129.12042,130.89513)"/>
<use data-text="C" xlink:href="#font_1_3" transform="matrix(9.962899,0,0,-9.963197,75.281818,7.727745)"/>
<path transform="matrix(1.00003,0,0,-1.00006,12.209923,120.56651)" stroke-width=".3985" stroke-linecap="butt" stroke-miterlimit="10" stroke-linejoin="miter" fill="none" stroke="#000000" d="M107.84988 13.04619C102.61554 10.82446 99.21405 5.68636 99.21405-.0002"/>
<use data-text="6" xlink:href="#font_2_1" transform="matrix(9.962899,0,0,-9.963197,97.05547,109.91588)"/>
<use data-text="7" xlink:href="#font_2_2" transform="matrix(9.962899,0,0,-9.963197,102.03692,109.91588)"/>
<use data-text="&#x25e6;" xlink:href="#font_3_1" transform="matrix(6.9740097,0,0,-6.9742186,107.01877,106.30066)"/>
<use data-text="1" xlink:href="#font_4_82" transform="matrix(9.962899,0,0,-9.963197,20.604172,69.115428)"/>
<use data-text="3" xlink:href="#font_4_106" transform="matrix(9.962899,0,0,-9.963197,25.585618,69.115428)"/>
<use data-text="m" xlink:href="#font_4_75" transform="matrix(9.962899,0,0,-9.963197,33.874757,69.115428)"/>
<use data-text="1" xlink:href="#font_4_82" transform="matrix(9.962899,0,0,-9.963197,105.91974,69.224437)"/>
<use data-text="2" xlink:href="#font_4_107" transform="matrix(9.962899,0,0,-9.963197,110.901187,69.224437)"/>
<use data-text="m" xlink:href="#font_4_75" transform="matrix(9.962899,0,0,-9.963197,119.19032,69.224437)"/>
</svg>
