<svg xmlns="http://www.w3.org/2000/svg" xmlns:xlink="http://www.w3.org/1999/xlink" xmlns:inkscape="http://www.inkscape.org/namespaces/inkscape" version="1.1" width="255" height="130" viewBox="0 0 255 130">
<defs>
<path id="font_1_10" d="M.17298889 .3996582H.31599427V.43066407H.17298889V.6147156H.147995C.14698792 .5326996 .116989139 .42565919 .018997193 .42166139V.3996582H.10398865V.12416077C.10398865 .0012512207 .19699097-.0107421879 .23298645-.0107421879 .3039856-.0107421879 .33198548 .06021118 .33198548 .12416077V.18112183H.30699159V.12615967C.30699159 .052215578 .2769928 .014251709 .23999024 .014251709 .17298889 .014251709 .17298889 .10517883 .17298889 .122161868V.3996582Z"/>
<path id="font_1_3" d="M.33299256 .076156619C.33699037 .036132814 .3639984-.005859375 .41099549-.005859375 .43199159-.005859375 .49299623 .008132935 .49299623 .089157108V.14518738H.46798707V.089157108C.46798707 .031143189 .44299317 .025131226 .43199159 .025131226 .39898683 .025131226 .394989 .07015991 .394989 .075149539V.27514649C.394989 .31707765 .394989 .3560791 .35899354 .39312745 .31999208 .43223573 .269989 .4482422 .22200012 .4482422 .13999939 .4482422 .070999149 .40115357 .070999149 .335083 .070999149 .30508424 .09098816 .28808595 .116989139 .28808595 .14498902 .28808595 .16299439 .30807496 .16299439 .33407594 .16299439 .3460846 .1579895 .3790741 .11199951 .38008119 .13899231 .41519166 .18798828 .426239 .21998596 .426239 .2689972 .426239 .32598878 .38710023 .32598878 .29808045V.26123048C.2749939 .2582245 .20498657 .25523377 .14199829 .22523499 .066986087 .1912384 .041992189 .13923645 .041992189 .09524536 .041992189 .014251709 .13899231-.0107421879 .20199585-.0107421879 .2679901-.010864258 .31399537 .029129029 .33299256 .076156619M.32598878 .24023438V.1401825C.32598878 .045135499 .2539978 .011138916 .20899964 .011138916 .1599884 .011138916 .11898804 .046142579 .11898804 .09616089 .11898804 .15118408 .16099549 .23422241 .32598878 .24023438Z"/>
<path id="font_1_7" d="M.10998535 .34429933V.076034549C.10998535 .0309906 .09899902 .0309906 .03199768 .0309906V0C.066986087 .0009918213 .117996219 .0029907227 .14498902 .0029907227 .17098999 .0029907227 .22299195 .0009918213 .25698854 0V.0309906C.18998719 .0309906 .1789856 .0309906 .1789856 .076034549V.2602234C.1789856 .36431886 .25 .42037965 .31399537 .42037965 .3769989 .42037965 .3880005 .36631776 .3880005 .30926515V.076034549C.3880005 .0309906 .3769989 .0309906 .30999757 .0309906V0C.34498597 .0009918213 .3959961 .0029907227 .4229889 .0029907227 .44898988 .0029907227 .5009918 .0009918213 .5349884 0V.0309906C.48298646 .0309906 .45799256 .0309906 .45700074 .061019899V.25221253C.45700074 .3383026 .45700074 .36932374 .42599488 .405365 .4119873 .42237855 .3789978 .4423828 .32099916 .4423828 .24798584 .4423828 .20098877 .39935304 .17298889 .33729554V.4423828L.03199768 .43138124V.40037538C.101989749 .4003601 .10998535 .39335633 .10998535 .34429933Z"/>
<path id="font_2_1" d="M.33399964 .30233766C.33999635 .32835389 .36299134 .42037965 .43299867 .42037965 .43798829 .42037965 .46199037 .42037965 .48298646 .40734864 .45498658 .402359 .43499757 .37734986 .43499757 .35334779 .43499757 .33735658 .44599916 .31835938 .47299195 .31835938 .49499513 .31835938 .5269928 .3363495 .5269928 .37635804 .5269928 .42837525 .46798707 .4423828 .43399049 .4423828 .37599183 .4423828 .34098817 .38935853 .32899476 .36634828 .3039856 .43237306 .25 .4423828 .22099304 .4423828 .116989139 .4423828 .05999756 .3133545 .05999756 .28834535 .05999756 .27833558 .069992069 .27833558 .07199097 .27833558 .07998657 .27833558 .08299255 .28033448 .084991458 .28933717 .11898804 .39535523 .18499756 .42037965 .21899414 .42037965 .23799134 .42037965 .272995 .4113617 .272995 .35334779 .272995 .32235719 .2559967 .25532533 .21899414 .11528015 .20298767 .053268434 .16799927 .011245728 .12399292 .011245728 .117996219 .011245728 .09498596 .011245728 .07398987 .024276734 .09899902 .029266358 .12098694 .05027771 .12098694 .07827759 .12098694 .105270389 .09899902 .11328125 .083999637 .11328125 .053985597 .11328125 .0289917 .08728027 .0289917 .055267335 .0289917 .009246826 .07899475-.0107421879 .12298584-.0107421879 .18899536-.0107421879 .22499085 .059280397 .22799683 .0652771 .23999024 .028274537 .27598573-.0107421879 .33599855-.0107421879 .43899537-.0107421879 .49598695 .118270877 .49598695 .14328003 .49598695 .1532898 .4869995 .1532898 .48399354 .1532898 .47499085 .1532898 .47299195 .14929199 .47099305 .14228821 .43798829 .03527832 .36999513 .011245728 .33799745 .011245728 .29899598 .011245728 .2829895 .043273927 .2829895 .07727051 .2829895 .09927368 .2889862 .121276859 .2999878 .16529846L.33399964 .30233766Z"/>
<path id="font_1_2" d="M.68699648 .32714845C.70199587 .32714845 .72099307 .32714845 .72099307 .34713746 .72099307 .36714173 .70199587 .36714173 .6879883 .36714173H.08898926C.07499695 .36714173 .055999757 .36714173 .055999757 .34713746 .055999757 .32714845 .07499695 .32714845 .08999634 .32714845H.68699648M.6879883 .13284302C.70199587 .13284302 .72099307 .13284302 .72099307 .15284729 .72099307 .17285156 .70199587 .17285156 .68699648 .17285156H.08999634C.07499695 .17285156 .055999757 .17285156 .055999757 .15284729 .055999757 .13284302 .07499695 .13284302 .08898926 .13284302H.6879883Z"/>
<path id="font_1_9" d="M.20799256 .19424439C.22999573 .19024658 .31199647 .17424011 .31199647 .102249149 .31199647 .051254274 .2769928 .011245728 .19898987 .011245728 .114990238 .011245728 .07899475 .06825256 .05999756 .15324402 .056991579 .1662445 .055999757 .17024231 .04598999 .17024231 .032989503 .17024231 .032989503 .16323853 .032989503 .14524842V.013244629C.032989503-.003753662 .032989503-.0107421879 .04399109-.0107421879 .04899597-.0107421879 .049987794-.009750366 .068984989 .009246826 .070999149 .011245728 .070999149 .013244629 .08898926 .03224182 .1329956-.009750366 .17799378-.0107421879 .19898987-.0107421879 .31399537-.0107421879 .3600006 .056243898 .3600006 .12825012 .3600006 .1812439 .32998658 .21124268 .31799317 .22323609 .2849884 .25523377 .24598694 .26324464 .20399475 .27124024 .147995 .28224183 .08099365 .2952423 .08099365 .35324098 .08099365 .38822938 .10699463 .42922975 .19299317 .42922975 .30299378 .42922975 .30799867 .3392334 .30999757 .3082428 .31098939 .2992401 .31999208 .2992401 .32199098 .2992401 .33499146 .2992401 .33499146 .304245 .33499146 .3232422V.4242401C.33499146 .4412384 .33499146 .4482422 .32398988 .4482422 .31900025 .4482422 .31698609 .4482422 .3039856 .43623353 .30099488 .43223573 .29100038 .42323304 .2869873 .42022706 .24899292 .4482422 .20799256 .4482422 .19299317 .4482422 .070999149 .4482422 .032989503 .38124085 .032989503 .3252411 .032989503 .29023744 .04899597 .26223756 .07598877 .24023438 .10798645 .21424866 .13598633 .2082367 .20799256 .19424439Z"/>
<path id="font_1_6" d="M.1769867 .4423828 .036987306 .43138124V.40037538C.101989749 .40037538 .11099243 .3943634 .11099243 .34532167V.076034549C.11099243 .0309906 .099990848 .0309906 .032989503 .0309906V0C.06498718 .0009918213 .11898804 .0029907227 .14299011 .0029907227 .17799378 .0029907227 .21299744 .0009918213 .24699402 0V.0309906C.18099976 .0309906 .1769867 .035995485 .1769867 .075042728V.4423828M.18099976 .6159363C.18099976 .64793398 .1559906 .6689453 .12799073 .6689453 .09700012 .6689453 .07499695 .64193728 .07499695 .6159363 .07499695 .5889435 .09700012 .5629425 .12799073 .5629425 .1559906 .5629425 .18099976 .5839386 .18099976 .6159363Z"/>
<path id="font_1_4" d="M.116989139 .21801758C.116989139 .38093568 .19898987 .42323304 .2519989 .42323304 .26098634 .42323304 .32398988 .42222596 .35899354 .38594056 .31799317 .38293458 .31199647 .3529358 .31199647 .3399353 .31199647 .31393434 .32998658 .2939453 .35798646 .2939453 .38398744 .2939453 .4039917 .3109436 .4039917 .34094239 .4039917 .40911866 .32798768 .4482422 .25099183 .4482422 .12599182 .4482422 .033996583 .3399353 .033996583 .21601868 .033996583 .08816528 .1329956-.0107421879 .24899292-.0107421879 .3829956-.0107421879 .4149933 .10914612 .4149933 .119140628 .4149933 .12911988 .40499879 .12911988 .4019928 .12911988 .3929901 .12911988 .3909912 .12512207 .3889923 .119140628 .3600006 .026229859 .29499818 .014251709 .2579956 .014251709 .20498657 .014251709 .116989139 .0572052 .116989139 .21801758Z"/>
<path id="font_1_8" d="M.47099305 .21424866C.47099305 .34223939 .37098695 .4482422 .25 .4482422 .125 .4482422 .027999878 .3392334 .027999878 .21424866 .027999878 .085250858 .13198853-.0107421879 .24899292-.0107421879 .36999513-.0107421879 .47099305 .087249759 .47099305 .21424866M.25 .014251709C.20698548 .014251709 .16299439 .035247804 .13598633 .08125305 .11099243 .12524414 .11099243 .18624878 .11099243 .22224427 .11099243 .26124574 .11099243 .31523133 .1349945 .35923768 .1619873 .40522767 .20899964 .426239 .24899292 .426239 .29299928 .426239 .33599855 .40423585 .3619995 .36123658 .3880005 .3182373 .3880005 .26023866 .3880005 .22224427 .3880005 .18624878 .3880005 .13224793 .3659973 .08824158 .34399415 .04324341 .2999878 .014251709 .25 .014251709Z"/>
<path id="font_1_1" d="M.2939911 .64004519C.2939911 .66400149 .2939911 .6660156 .2709961 .6660156 .20899964 .60227969 .12098694 .60227969 .08898926 .60227969V.57128909C.10899353 .57128909 .16799927 .57128909 .21998596 .5972748V.07902527C.21998596 .042999269 .21699524 .0309906 .1269989 .0309906H.09498596V0C.12998963 .0029907227 .21699524 .0029907227 .25698854 .0029907227 .29699708 .0029907227 .38398744 .0029907227 .4189911 0V.0309906H.3869934C.29699708 .0309906 .2939911 .041992189 .2939911 .07902527V.64004519Z"/>
<path id="font_1_5" d="M.11199951 .2524414C.117996219 .40126039 .20199585 .426239 .23599243 .426239 .33898927 .426239 .34899903 .2913971 .34899903 .2524414H.11199951M.11099243 .23144531H.3899994C.4119873 .23144531 .4149933 .23144531 .4149933 .2524414 .4149933 .35131837 .36099244 .4482422 .23599243 .4482422 .11999512 .4482422 .027999878 .34532167 .027999878 .22042847 .027999878 .08631897 .1329956-.0107421879 .24798584-.0107421879 .36999513-.0107421879 .4149933 .10032654 .4149933 .11933899 .4149933 .12934876 .40699769 .13134766 .4019928 .13134766 .3929901 .13134766 .3909912 .12535095 .3889923 .11734009 .35398866 .014251709 .2639923 .014251709 .2539978 .014251709 .20399475 .014251709 .1639862 .044281007 .14099121 .08131409 .11099243 .12934876 .11099243 .19540406 .11099243 .23144531Z"/>
</defs>
<use data-text="t" xlink:href="#font_1_10" transform="matrix(9.962799,0,0,-9.963496,98.48679,64.75338)"/>
<use data-text="a" xlink:href="#font_1_3" transform="matrix(9.962799,0,0,-9.963496,102.35236,64.75338)"/>
<use data-text="n" xlink:href="#font_1_7" transform="matrix(9.962799,0,0,-9.963496,107.33375,64.75338)"/>
<use data-text="x" xlink:href="#font_2_1" transform="matrix(9.962799,0,0,-9.963496,114.53811,64.75338)"/>
<use data-text="=" xlink:href="#font_1_2" transform="matrix(9.962799,0,0,-9.963496,122.999279,64.75338)"/>
<use data-text="s" xlink:href="#font_1_9" transform="matrix(9.962799,0,0,-9.963496,135.26554,58.01277)"/>
<use data-text="i" xlink:href="#font_1_6" transform="matrix(9.962799,0,0,-9.963496,139.19086,58.01277)"/>
<use data-text="n" xlink:href="#font_1_7" transform="matrix(9.962799,0,0,-9.963496,141.95056,58.01277)"/>
<use data-text="x" xlink:href="#font_2_1" transform="matrix(9.962799,0,0,-9.963496,149.1578,58.01277)"/>
<path transform="matrix(1.00002,0,0,-1.00009,-119.05958,8.269294)" stroke-width=".3985" stroke-linecap="butt" stroke-miterlimit="10" stroke-linejoin="miter" fill="none" stroke="#000000" d="M253.766-53.988H274.459"/>
<use data-text="c" xlink:href="#font_1_4" transform="matrix(9.962799,0,0,-9.963496,134.71152,71.58799)"/>
<use data-text="o" xlink:href="#font_1_8" transform="matrix(9.962799,0,0,-9.963496,139.13498,71.58799)"/>
<use data-text="s" xlink:href="#font_1_9" transform="matrix(9.962799,0,0,-9.963496,144.1164,71.58799)"/>
<use data-text="x" xlink:href="#font_2_1" transform="matrix(9.962799,0,0,-9.963496,149.71082,71.58799)"/>
<use data-text="c" xlink:href="#font_1_4" transform="matrix(9.962799,0,0,-9.963496,80.33043,121.335468)"/>
<use data-text="o" xlink:href="#font_1_8" transform="matrix(9.962799,0,0,-9.963496,84.75391,121.335468)"/>
<use data-text="t" xlink:href="#font_1_10" transform="matrix(9.962799,0,0,-9.963496,89.735309,121.335468)"/>
<use data-text="x" xlink:href="#font_2_1" transform="matrix(9.962799,0,0,-9.963496,95.27472,121.335468)"/>
<use data-text="=" xlink:href="#font_1_2" transform="matrix(9.962799,0,0,-9.963496,103.735889,121.335468)"/>
<use data-text="c" xlink:href="#font_1_4" transform="matrix(9.962799,0,0,-9.963496,115.448139,114.59486)"/>
<use data-text="o" xlink:href="#font_1_8" transform="matrix(9.962799,0,0,-9.963496,119.87161,114.59486)"/>
<use data-text="s" xlink:href="#font_1_9" transform="matrix(9.962799,0,0,-9.963496,124.853,114.59486)"/>
<use data-text="x" xlink:href="#font_2_1" transform="matrix(9.962799,0,0,-9.963496,130.44745,114.59486)"/>
<path transform="matrix(1.00002,0,0,-1.00009,-137.21595,64.85138)" stroke-width=".3985" stroke-linecap="butt" stroke-miterlimit="10" stroke-linejoin="miter" fill="none" stroke="#000000" d="M252.659-53.988H273.352"/>
<use data-text="s" xlink:href="#font_1_9" transform="matrix(9.962799,0,0,-9.963496,116.00212,128.17008)"/>
<use data-text="i" xlink:href="#font_1_6" transform="matrix(9.962799,0,0,-9.963496,119.92749,128.17008)"/>
<use data-text="n" xlink:href="#font_1_7" transform="matrix(9.962799,0,0,-9.963496,122.687198,128.17008)"/>
<use data-text="x" xlink:href="#font_2_1" transform="matrix(9.962799,0,0,-9.963496,129.89441,128.17008)"/>
<use data-text="=" xlink:href="#font_1_2" transform="matrix(9.962799,0,0,-9.963496,140.10462,121.335468)"/>
<use data-text="1" xlink:href="#font_1_1" transform="matrix(9.962799,0,0,-9.963496,160.198,114.59486)"/>
<path transform="matrix(1.00002,0,0,-1.00009,-137.21595,64.85138)" stroke-width=".3985" stroke-linecap="butt" stroke-miterlimit="10" stroke-linejoin="miter" fill="none" stroke="#000000" d="M289.027-53.988H310.772"/>
<use data-text="t" xlink:href="#font_1_10" transform="matrix(9.962799,0,0,-9.963496,151.81687,128.17008)"/>
<use data-text="a" xlink:href="#font_1_3" transform="matrix(9.962799,0,0,-9.963496,155.6824,128.17008)"/>
<use data-text="n" xlink:href="#font_1_7" transform="matrix(9.962799,0,0,-9.963496,160.66379,128.17008)"/>
<use data-text="x" xlink:href="#font_2_1" transform="matrix(9.962799,0,0,-9.963496,167.86817,128.17008)"/>
<use data-text="s" xlink:href="#font_1_9" transform="matrix(9.962799,0,0,-9.963496,198.5058,64.63637)"/>
<use data-text="e" xlink:href="#font_1_5" transform="matrix(9.962799,0,0,-9.963496,202.43112,64.63637)"/>
<use data-text="c" xlink:href="#font_1_4" transform="matrix(9.962799,0,0,-9.963496,206.85462,64.63637)"/>
<use data-text="x" xlink:href="#font_2_1" transform="matrix(9.962799,0,0,-9.963496,212.95206,64.63637)"/>
<use data-text="=" xlink:href="#font_1_2" transform="matrix(9.962799,0,0,-9.963496,221.41324,64.63637)"/>
<use data-text="1" xlink:href="#font_1_1" transform="matrix(9.962799,0,0,-9.963496,240.98163,57.89576)"/>
<path transform="matrix(1.00002,0,0,-1.00009,-19.04058,8.152283)" stroke-width=".3985" stroke-linecap="butt" stroke-miterlimit="10" stroke-linejoin="miter" fill="none" stroke="#000000" d="M252.161-53.988H272.854"/>
<use data-text="c" xlink:href="#font_1_4" transform="matrix(9.962799,0,0,-9.963496,233.12546,71.47098)"/>
<use data-text="o" xlink:href="#font_1_8" transform="matrix(9.962799,0,0,-9.963496,237.54892,71.47098)"/>
<use data-text="s" xlink:href="#font_1_9" transform="matrix(9.962799,0,0,-9.963496,242.53034,71.47098)"/>
<use data-text="x" xlink:href="#font_2_1" transform="matrix(9.962799,0,0,-9.963496,248.12476,71.47098)"/>
<use data-text="c" xlink:href="#font_1_4" transform="matrix(9.962799,0,0,-9.963496,.6278229,64.63637)"/>
<use data-text="s" xlink:href="#font_1_9" transform="matrix(9.962799,0,0,-9.963496,5.0513,64.63637)"/>
<use data-text="c" xlink:href="#font_1_4" transform="matrix(9.962799,0,0,-9.963496,8.976639,64.63637)"/>
<use data-text="x" xlink:href="#font_2_1" transform="matrix(9.962799,0,0,-9.963496,15.074097,64.63637)"/>
<use data-text="=" xlink:href="#font_1_2" transform="matrix(9.962799,0,0,-9.963496,23.535279,64.63637)"/>
<use data-text="1" xlink:href="#font_1_1" transform="matrix(9.962799,0,0,-9.963496,42.549654,57.89576)"/>
<path transform="matrix(1.00002,0,0,-1.00009,-216.91855,8.152283)" stroke-width=".3985" stroke-linecap="butt" stroke-miterlimit="10" stroke-linejoin="miter" fill="none" stroke="#000000" d="M252.161-53.988H271.747"/>
<use data-text="s" xlink:href="#font_1_9" transform="matrix(9.962799,0,0,-9.963496,35.247499,71.47098)"/>
<use data-text="i" xlink:href="#font_1_6" transform="matrix(9.962799,0,0,-9.963496,39.17285,71.47098)"/>
<use data-text="n" xlink:href="#font_1_7" transform="matrix(9.962799,0,0,-9.963496,41.932558,71.47098)"/>
<use data-text="x" xlink:href="#font_2_1" transform="matrix(9.962799,0,0,-9.963496,49.1398,71.47098)"/>
<use data-text="s" xlink:href="#font_1_9" transform="matrix(9.962799,0,0,-9.963496,18.535187,8.10128)"/>
<use data-text="i" xlink:href="#font_1_6" transform="matrix(9.962799,0,0,-9.963496,22.460526,8.10128)"/>
<use data-text="n" xlink:href="#font_1_7" transform="matrix(9.962799,0,0,-9.963496,25.220215,8.10128)"/>
<use data-text="x" xlink:href="#font_2_1" transform="matrix(9.962799,0,0,-9.963496,32.428468,8.10128)"/>
<use data-text="c" xlink:href="#font_1_4" transform="matrix(9.962799,0,0,-9.963496,216.41315,6.919174)"/>
<use data-text="o" xlink:href="#font_1_8" transform="matrix(9.962799,0,0,-9.963496,220.83663,6.919174)"/>
<use data-text="s" xlink:href="#font_1_9" transform="matrix(9.962799,0,0,-9.963496,225.81803,6.919174)"/>
<use data-text="x" xlink:href="#font_2_1" transform="matrix(9.962799,0,0,-9.963496,231.41344,6.919174)"/>
<path transform="matrix(1.00002,0,0,-1.00009,127.54437,61.473085)" stroke-width=".79701" stroke-linecap="butt" stroke-miterlimit="10" stroke-linejoin="miter" fill="none" stroke="#000000" d="M-99.21382 14.37263V38.2106"/>
<path transform="matrix(0,-1.00009,-1.00002,-0,28.328568,25.724339)" d="M5.44046 0 1.28699 1.5706 2.66432 0 1.28699-1.5706Z"/>
<path transform="matrix(0,-1.00009,-1.00002,-0,28.328568,25.724339)" stroke-width=".79701" stroke-linecap="butt" stroke-miterlimit="10" stroke-linejoin="miter" fill="none" stroke="#000000" d="M5.44046 0 1.28699 1.5706 2.66432 0 1.28699-1.5706Z"/>
<path transform="matrix(1.00002,0,0,-1.00009,127.54437,61.473085)" stroke-width=".79701" stroke-linecap="butt" stroke-miterlimit="10" stroke-linejoin="miter" fill="none" stroke="#000000" d="M-25.14423 14.37263-70.50737 40.28241"/>
<path transform="matrix(-.8683174,-.49600465,-.49596993,.86837819,59.176065,22.409726)" d="M5.44046 0 1.28699 1.5706 2.66432 0 1.28699-1.5706Z"/>
<path transform="matrix(-.8683174,-.49600465,-.49596993,.86837819,59.176065,22.409726)" stroke-width=".79701" stroke-linecap="butt" stroke-miterlimit="10" stroke-linejoin="miter" fill="none" stroke="#000000" d="M5.44046 0 1.28699 1.5706 2.66432 0 1.28699-1.5706Z"/>
<path transform="matrix(1.00002,0,0,-1.00009,127.54437,61.473085)" stroke-width=".79701" stroke-linecap="butt" stroke-miterlimit="10" stroke-linejoin="miter" fill="none" stroke="#000000" d="M-12.57057-42.32097-83.94894 39.22816"/>
<path transform="matrix(-.6585932,-.7525077,-.75245508,.65863928,45.217226,24.096379)" d="M5.44046 0 1.28699 1.5706 2.66432 0 1.28699-1.5706Z"/>
<path transform="matrix(-.6585932,-.7525077,-.75245508,.65863928,45.217226,24.096379)" stroke-width=".79701" stroke-linecap="butt" stroke-miterlimit="10" stroke-linejoin="miter" fill="none" stroke="#000000" d="M5.44046 0 1.28699 1.5706 2.66432 0 1.28699-1.5706Z"/>
<path transform="matrix(1.00002,0,0,-1.00009,127.54437,61.473085)" stroke-width=".79701" stroke-linecap="butt" stroke-miterlimit="10" stroke-linejoin="miter" fill="none" stroke="#000000" d="M25.14423 14.37263 70.50737 40.28241"/>
<path transform="matrix(.8683174,-.49600465,-.49596993,-.86837819,195.91269,22.409726)" d="M5.44046 0 1.28699 1.5706 2.66432 0 1.28699-1.5706Z"/>
<path transform="matrix(.8683174,-.49600465,-.49596993,-.86837819,195.91269,22.409726)" stroke-width=".79701" stroke-linecap="butt" stroke-miterlimit="10" stroke-linejoin="miter" fill="none" stroke="#000000" d="M5.44046 0 1.28699 1.5706 2.66432 0 1.28699-1.5706Z"/>
<path transform="matrix(1.00002,0,0,-1.00009,127.54437,61.473085)" stroke-width=".79701" stroke-linecap="butt" stroke-miterlimit="10" stroke-linejoin="miter" fill="none" stroke="#000000" d="M99.21382 14.37263V38.2106"/>
<path transform="matrix(0,-1.00009,-1.00002,-0,226.76018,25.724339)" d="M5.44046 0 1.28699 1.5706 2.66432 0 1.28699-1.5706Z"/>
<path transform="matrix(0,-1.00009,-1.00002,-0,226.76018,25.724339)" stroke-width=".79701" stroke-linecap="butt" stroke-miterlimit="10" stroke-linejoin="miter" fill="none" stroke="#000000" d="M5.44046 0 1.28699 1.5706 2.66432 0 1.28699-1.5706Z"/>
<path transform="matrix(1.00002,0,0,-1.00009,127.54437,61.473085)" stroke-width=".79701" stroke-linecap="butt" stroke-miterlimit="10" stroke-linejoin="miter" fill="none" stroke="#000000" d="M12.57057-42.32097 83.94894 39.22816"/>
<path transform="matrix(.6585932,-.7525077,-.75245508,-.65863928,209.87152,24.096379)" d="M5.44046 0 1.28699 1.5706 2.66432 0 1.28699-1.5706Z"/>
<path transform="matrix(.6585932,-.7525077,-.75245508,-.65863928,209.87152,24.096379)" stroke-width=".79701" stroke-linecap="butt" stroke-miterlimit="10" stroke-linejoin="miter" fill="none" stroke="#000000" d="M5.44046 0 1.28699 1.5706 2.66432 0 1.28699-1.5706Z"/>
<path transform="matrix(1.00002,0,0,-1.00009,127.54437,61.473085)" stroke-width=".79701" stroke-linecap="butt" stroke-miterlimit="10" stroke-linejoin="miter" fill="none" stroke="#000000" d="M0-42.32097V-18.483"/>
<path transform="matrix(0,-1.00009,-1.00002,-0,127.54437,82.423038)" d="M5.44046 0 1.28699 1.5706 2.66432 0 1.28699-1.5706Z"/>
<path transform="matrix(0,-1.00009,-1.00002,-0,127.54437,82.423038)" stroke-width=".79701" stroke-linecap="butt" stroke-miterlimit="10" stroke-linejoin="miter" fill="none" stroke="#000000" d="M5.44046 0 1.28699 1.5706 2.66432 0 1.28699-1.5706Z"/>
</svg>
