<svg xmlns="http://www.w3.org/2000/svg" xmlns:xlink="http://www.w3.org/1999/xlink" xmlns:inkscape="http://www.inkscape.org/namespaces/inkscape" version="1.1" width="231" height="119" viewBox="0 0 231 119">
<defs>
<path id="font_1_2" d="M.2939911 .16503906V.07800293C.2939911 .041992189 .2919922 .0309906 .21798706 .0309906H.19699097V0C.23799134 .0029907227 .2899933 .0029907227 .33198548 .0029907227 .37399293 .0029907227 .4269867 .0029907227 .46798707 0V.0309906H.44699098C.37298585 .0309906 .37098695 .041992189 .37098695 .07800293V.16503906H.47099305V.19602967H.37098695V.65075686C.37098695 .67074587 .37098695 .6767578 .35499574 .6767578 .34599305 .6767578 .34298707 .6767578 .33499146 .66474917L.027999878 .19602967V.16503906H.2939911M.2999878 .19602967H.055999757L.2999878 .5688019V.19602967Z"/>
<path id="font_1_4" d="M.16299439 .4569702C.116989139 .486969 .11299133 .52098086 .11299133 .5379791 .11299133 .598999 .17799378 .64100649 .24899292 .64100649 .32199098 .64100649 .38598634 .58898928 .38598634 .51698306 .38598634 .45996095 .34700013 .4119568 .2869873 .37695313L.16299439 .4569702M.30899049 .36193849C.3809967 .3989563 .42999269 .45095826 .42999269 .51698306 .42999269 .6090088 .34098817 .6660156 .25 .6660156 .1499939 .6660156 .068984989 .59199526 .068984989 .49897767 .068984989 .4809723 .070999149 .43595887 .11299133 .38894654 .12399292 .37695313 .16099549 .35194398 .18598938 .33494569 .12799073 .30592347 .041992189 .24984741 .041992189 .15072632 .041992189 .04458618 .14399719-.022460938 .24899292-.022460938 .3619995-.022460938 .45700074 .06060791 .45700074 .16773987 .45700074 .20379639 .44599916 .24885559 .4079895 .2909088 .3889923 .31193543 .37298585 .3219452 .30899049 .36193849M.20899964 .3199463 .33198548 .24183655C.3600006 .2228241 .40699769 .19277954 .40699769 .13169861 .40699769 .05760193 .33198548 .0055389406 .25 .0055389406 .1639862 .0055389406 .09199524 .067611698 .09199524 .15072632 .09199524 .20880127 .12399292 .27288819 .20899964 .3199463Z"/>
<path id="font_2_1" d="M.45498658 .5001831C.45498658 .56614688 .43699647 .7050781 .33499146 .7050781 .19599915 .7050781 .041992189 .42323304 .041992189 .19425965 .041992189 .100250247 .070999149-.0107421879 .1619873-.0107421879 .30299378-.0107421879 .45498658 .27627564 .45498658 .5001831M.147995 .36328126C.16499329 .42723084 .18499756 .5071869 .22499085 .57814028 .2519989 .6271057 .2889862 .68307498 .33399964 .68307498 .3829956 .68307498 .3889923 .6191101 .3889923 .56214907 .3889923 .5131836 .3809967 .46220399 .35699464 .36328126H.147995M.34799195 .3312683C.33699037 .28527833 .31599427 .2002716 .27799989 .12826538 .24299622 .060256959 .20498657 .011245728 .1619873 .011245728 .1289978 .011245728 .10798645 .040252687 .10798645 .133255 .10798645 .17526245 .11399841 .23326111 .13999939 .3312683H.34799195Z"/>
<path id="font_1_1" d="M.2939911 .64004519C.2939911 .66400149 .2939911 .6660156 .2709961 .6660156 .20899964 .60227969 .12098694 .60227969 .08898926 .60227969V.57128909C.10899353 .57128909 .16799927 .57128909 .21998596 .5972748V.07902527C.21998596 .042999269 .21699524 .0309906 .1269989 .0309906H.09498596V0C.12998963 .0029907227 .21699524 .0029907227 .25698854 .0029907227 .29699708 .0029907227 .38398744 .0029907227 .4189911 0V.0309906H.3869934C.29699708 .0309906 .2939911 .041992189 .2939911 .07902527V.64004519Z"/>
<path id="font_1_3" d="M.13198853 .327713V.35173036C.13198853 .6047821 .2559967 .64100649 .30699159 .64100649 .33099366 .64100649 .37298585 .634964 .394989 .6007538 .37998963 .6007538 .33999635 .6007538 .33999635 .5557556 .33999635 .524765 .3639984 .5097656 .38598634 .5097656 .4019928 .5097656 .43199159 .51875308 .43199159 .5577545 .43199159 .6178589 .3880005 .6660156 .30499269 .6660156 .1769867 .6660156 .041992189 .5367584 .041992189 .31570436 .041992189 .048553468 .1579895-.022460938 .25099183-.022460938 .3619995-.022460938 .45700074 .07156372 .45700074 .2036438 .45700074 .33070375 .36799623 .4267578 .25698854 .4267578 .18899536 .4267578 .1519928 .37573243 .13198853 .327713M.25099183 .0055389406C.18798828 .0055389406 .1579895 .06556702 .1519928 .080566409 .13398743 .127594 .13398743 .2076416 .13398743 .22564698 .13398743 .30369569 .1659851 .40374757 .2559967 .40374757 .27198792 .40374757 .31799317 .40374757 .34899903 .34172059 .36698915 .30470277 .36698915 .2536621 .36698915 .20463562 .36698915 .15661621 .36698915 .10658264 .34999085 .0705719 .31999208 .010528564 .27398683 .0055389406 .25099183 .0055389406Z"/>
</defs>
<path transform="matrix(1.00005,0,0,-1.00005,101.51311,60.166357)" stroke-width=".79701" stroke-linecap="butt" stroke-miterlimit="10" stroke-linejoin="miter" fill="none" stroke="#000000" d="M-42.5202 0C-42.5202 15.6557-55.2113 28.3468-70.867 28.3468-86.52272 28.3468-99.21382 15.6557-99.21382 0-99.21382-15.6557-86.52272-28.3468-70.867-28.3468-55.2113-28.3468-42.5202-15.6557-42.5202 0ZM-70.867 0"/>
<path transform="matrix(1.00005,0,0,-1.00005,101.51311,60.166357)" d="M-69.37259 0C-69.37259 .82533-70.04166 1.49442-70.867 1.49442-71.69235 1.49442-72.36142 .82533-72.36142 0-72.36142-.82533-71.69235-1.49442-70.867-1.49442-70.04166-1.49442-69.37259-.82533-69.37259 0ZM-70.867 0"/>
<path transform="matrix(1.00005,0,0,-1.00005,101.51311,60.166357)" stroke-width=".79701" stroke-linecap="butt" stroke-miterlimit="10" stroke-linejoin="miter" fill="none" stroke="#000000" d="M-70.867 0H-42.5202"/>
<use data-text="4" xlink:href="#font_1_2" transform="matrix(9.963098,0,0,-9.963098,42.326158,70.30586)"/>
<path transform="matrix(1.00005,0,0,-1.00005,101.51311,60.166357)" stroke-width=".79701" stroke-linecap="butt" stroke-miterlimit="10" stroke-linejoin="miter" fill="none" stroke="#000000" d="M-70.867 0-82.66663 25.77234"/>
<path transform="matrix(1.00005,0,0,-1.00005,101.51311,60.166357)" stroke-width="1.59404" stroke-linecap="butt" stroke-miterlimit="10" stroke-linejoin="miter" fill="none" stroke="#000000" d="M-42.5202 0C-42.5202 10.12613-47.92435 19.48625-56.69362 24.5491-64.64105 29.13745-74.32298 29.59207-81.57059 26.27408"/>
<path transform="matrix(-.90925547,.4162308,.4162308,.90925547,19.938446,33.890947)" stroke-width="1.27522" stroke-linecap="round" stroke-linejoin="round" fill="none" stroke="#000000" d="M-2.27148 3.02866C-2.0822 1.8929 0 .18927 .56786 0 0-.18927-2.0822-1.8929-2.27148-3.02866"/>
<use data-text="8" xlink:href="#font_1_4" transform="matrix(9.963098,0,0,-9.963098,50.07454,32.19496)"/>
<path transform="matrix(1.00005,0,0,-1.00005,101.51311,60.166357)" stroke-width=".3985" stroke-linecap="butt" stroke-miterlimit="10" stroke-linejoin="miter" fill="none" stroke="#000000" d="M-62.36288 0C-62.36288 3.03786-63.98416 5.84593-66.61496 7.36479-68.9992 8.7413-71.90381 8.87769-74.40692 7.73177"/>
<use data-text="&#x03b8;" xlink:href="#font_2_1" transform="matrix(9.963098,0,0,-9.963098,35.88582,51.738935)"/>
<path transform="matrix(1.00005,0,0,-1.00005,101.51311,60.166357)" stroke-width=".79701" stroke-linecap="butt" stroke-miterlimit="10" stroke-linejoin="miter" fill="none" stroke="#000000" d="M127.56062 0C127.56062 31.31142 102.17844 56.69362 70.867 56.69362 39.55559 56.69362 14.17339 31.31142 14.17339 0 14.17339-31.31142 39.55559-56.69362 70.867-56.69362 102.17844-56.69362 127.56062-31.31142 127.56062 0ZM70.867 0"/>
<path transform="matrix(1.00005,0,0,-1.00005,101.51311,60.166357)" d="M72.36142 0C72.36142 .82533 71.69235 1.49442 70.867 1.49442 70.04166 1.49442 69.37259 .82533 69.37259 0 69.37259-.82533 70.04166-1.49442 70.867-1.49442 71.69235-1.49442 72.36142-.82533 72.36142 0ZM70.867 0"/>
<path transform="matrix(1.00005,0,0,-1.00005,101.51311,60.166357)" stroke-width=".79701" stroke-linecap="butt" stroke-miterlimit="10" stroke-linejoin="miter" fill="none" stroke="#000000" d="M70.867 0H127.56062"/>
<use data-text="8" xlink:href="#font_1_4" transform="matrix(9.963098,0,0,-9.963098,198.24094,70.30586)"/>
<path transform="matrix(1.00005,0,0,-1.00005,101.51311,60.166357)" stroke-width=".79701" stroke-linecap="butt" stroke-miterlimit="10" stroke-linejoin="miter" fill="none" stroke="#000000" d="M70.867 0 47.26775 51.54468"/>
<path transform="matrix(1.00005,0,0,-1.00005,101.51311,60.166357)" stroke-width="1.59404" stroke-linecap="butt" stroke-miterlimit="10" stroke-linejoin="miter" fill="none" stroke="#000000" d="M127.56062 0C127.56062 20.25227 116.75235 38.97253 99.21382 49.09824 83.31892 58.27495 63.95505 59.18416 48.36378 52.04643"/>
<path transform="matrix(-.90924546,.4162508,.4162508,.90924546,149.8793,8.117306)" stroke-width="1.27522" stroke-linecap="round" stroke-linejoin="round" fill="none" stroke="#000000" d="M-2.27148 3.02866C-2.0822 1.8929 0 .18927 .56786 0 0-.18927-2.0822-1.8929-2.27148-3.02866"/>
<use data-text="1" xlink:href="#font_1_1" transform="matrix(9.963098,0,0,-9.963098,207.12938,8.340763)"/>
<use data-text="6" xlink:href="#font_1_3" transform="matrix(9.963098,0,0,-9.963098,212.11093,8.340763)"/>
<path transform="matrix(1.00005,0,0,-1.00005,101.51311,60.166357)" stroke-width=".3985" stroke-linecap="butt" stroke-miterlimit="10" stroke-linejoin="miter" fill="none" stroke="#000000" d="M85.0404 0C85.0404 5.06305 82.33833 9.74312 77.9537 12.27454 73.97998 14.56871 69.13902 14.79602 64.9672 12.88615"/>
<use data-text="&#x03b8;" xlink:href="#font_2_1" transform="matrix(9.963098,0,0,-9.963098,182.25815,44.60658)"/>
</svg>
