<svg xmlns="http://www.w3.org/2000/svg" xmlns:xlink="http://www.w3.org/1999/xlink" xmlns:inkscape="http://www.inkscape.org/namespaces/inkscape" version="1.1" width="158" height="132" viewBox="0 0 158 132">
<defs>
<path id="font_1_1" d="M.2939911 .64004519C.2939911 .66400149 .2939911 .6660156 .2709961 .6660156 .20899964 .60227969 .12098694 .60227969 .08898926 .60227969V.57128909C.10899353 .57128909 .16799927 .57128909 .21998596 .5972748V.07902527C.21998596 .042999269 .21699524 .0309906 .1269989 .0309906H.09498596V0C.12998963 .0029907227 .21699524 .0029907227 .25698854 .0029907227 .29699708 .0029907227 .38398744 .0029907227 .4189911 0V.0309906H.3869934C.29699708 .0309906 .2939911 .041992189 .2939911 .07902527V.64004519Z"/>
<path id="font_1_2" d="M.2899933 .35191346C.37199403 .37893678 .42999269 .4490509 .42999269 .52809146 .42999269 .6100464 .34199525 .6660156 .24598694 .6660156 .14498902 .6660156 .068984989 .60606387 .068984989 .53009036 .068984989 .49710084 .09098816 .47808839 .11999512 .47808839 .15098572 .47808839 .17098999 .50009158 .17098999 .5290985 .17098999 .57910159 .12399292 .57910159 .10899353 .57910159 .13999939 .62802127 .20599365 .64100649 .24198914 .64100649 .2829895 .64100649 .33799745 .6190338 .33799745 .5290985 .33799745 .51708987 .33599855 .45906068 .30999757 .4149933 .27999879 .36691285 .24598694 .36390687 .22099304 .36291505 .21299744 .36190797 .18899536 .35990907 .18199158 .35990907 .17399597 .35890199 .16699219 .35791017 .16699219 .3479004 .16699219 .33691407 .17399597 .33691407 .19099427 .33691407H.23498535C.31698609 .33691407 .35398866 .2686615 .35398866 .17037964 .35398866 .034469606 .2849884 .0055389406 .24099732 .0055389406 .19799805 .0055389406 .12298584 .022491456 .08799744 .08137512 .12298584 .07637024 .1539917 .09837341 .1539917 .1363678 .1539917 .17237854 .1269989 .19238281 .09799194 .19238281 .07398987 .19238281 .041992189 .17837525 .041992189 .1343689 .041992189 .043441774 .1349945-.022460938 .24398804-.022460938 .3659973-.022460938 .45700074 .06838989 .45700074 .17037964 .45700074 .252594 .3939972 .33088685 .2899933 .35191346Z"/>
<clipPath id="clip_2">
<path transform="matrix(.80003997,0,0,-.80008,-2.1808129,120.12742)" d="M4.04666-13.45044H198.33724V147.94692H4.04666Z"/>
</clipPath>
<path id="font_3_1" d="M.33399964 .30233766C.33999635 .32835389 .36299134 .42037965 .43299867 .42037965 .43798829 .42037965 .46199037 .42037965 .48298646 .40734864 .45498658 .402359 .43499757 .37734986 .43499757 .35334779 .43499757 .33735658 .44599916 .31835938 .47299195 .31835938 .49499513 .31835938 .5269928 .3363495 .5269928 .37635804 .5269928 .42837525 .46798707 .4423828 .43399049 .4423828 .37599183 .4423828 .34098817 .38935853 .32899476 .36634828 .3039856 .43237306 .25 .4423828 .22099304 .4423828 .116989139 .4423828 .05999756 .3133545 .05999756 .28834535 .05999756 .27833558 .069992069 .27833558 .07199097 .27833558 .07998657 .27833558 .08299255 .28033448 .084991458 .28933717 .11898804 .39535523 .18499756 .42037965 .21899414 .42037965 .23799134 .42037965 .272995 .4113617 .272995 .35334779 .272995 .32235719 .2559967 .25532533 .21899414 .11528015 .20298767 .053268434 .16799927 .011245728 .12399292 .011245728 .117996219 .011245728 .09498596 .011245728 .07398987 .024276734 .09899902 .029266358 .12098694 .05027771 .12098694 .07827759 .12098694 .105270389 .09899902 .11328125 .083999637 .11328125 .053985597 .11328125 .0289917 .08728027 .0289917 .055267335 .0289917 .009246826 .07899475-.0107421879 .12298584-.0107421879 .18899536-.0107421879 .22499085 .059280397 .22799683 .0652771 .23999024 .028274537 .27598573-.0107421879 .33599855-.0107421879 .43899537-.0107421879 .49598695 .118270877 .49598695 .14328003 .49598695 .1532898 .4869995 .1532898 .48399354 .1532898 .47499085 .1532898 .47299195 .14929199 .47099305 .14228821 .43798829 .03527832 .36999513 .011245728 .33799745 .011245728 .29899598 .011245728 .2829895 .043273927 .2829895 .07727051 .2829895 .09927368 .2889862 .121276859 .2999878 .16529846L.33399964 .30233766Z"/>
<path id="font_3_2" d="M.48599244 .38136292C.48999024 .39537049 .48999024 .39736939 .48999024 .40437318 .48999024 .42237855 .47599793 .43138124 .46099855 .43138124 .45098878 .43138124 .43499757 .42536927 .42599488 .41036988 .42399598 .405365 .41600038 .37435914 .4119873 .35635377 .40499879 .33035279 .397995 .30334474 .3919983 .27633668L.34700013 .09628296C.34298707 .08126831 .2999878 .011245728 .23399353 .011245728 .18299866 .011245728 .17199707 .055267335 .17199707 .0922699 .17199707 .1382904 .18899536 .20030213 .22299195 .28833009 .23899842 .3293457 .24299622 .3403473 .24299622 .36035157 .24299622 .405365 .21099854 .4423828 .16099549 .4423828 .06599426 .4423828 .0289917 .29733277 .0289917 .28833009 .0289917 .27833558 .038986207 .27833558 .040985109 .27833558 .050994874 .27833558 .051986696 .28033448 .056991579 .29634095 .083999637 .3903656 .12399292 .42037965 .1579895 .42037965 .1659851 .42037965 .18299866 .42037965 .18299866 .3883667 .18299866 .36335755 .17298889 .3373413 .1659851 .31834413 .12599182 .21231079 .10798645 .1552887 .10798645 .10827637 .10798645 .019256592 .17098999-.0107421879 .22999573-.0107421879 .2689972-.0107421879 .30299378 .0062561037 .33099366 .03425598 .31799317-.017745972 .30599977-.06674194 .2659912-.11973572 .23999024-.15385437 .20199585-.18309021 .1559906-.18309021 .14199829-.18309021 .09700012-.18005371 .07998657-.14074707 .09599304-.14074707 .10899353-.14074707 .12298584-.1287384 .1329956-.11973572 .14299011-.10673523 .14299011-.08773804 .14299011-.056747438 .115997318-.052734376 .10598755-.052734376 .08299255-.052734376 .049987794-.068740848 .049987794-.11773682 .049987794-.16796875 .09399414-.20507813 .1559906-.20507813 .25898744-.20507813 .3619995-.11373901 .3899994-.00074768069L.48599244 .38136292Z"/>
</defs>
<path transform="matrix(.80003997,0,0,-.80008,-2.1808129,120.12742)" stroke-width=".3985" stroke-linecap="butt" stroke-miterlimit="10" stroke-linejoin="miter" fill="none" stroke="#bfbfbf" d="M80.95357-13.45044V147.94692M121.43036-13.45044V147.94692"/>
<path transform="matrix(.80003997,0,0,-.80008,-2.1808129,120.12742)" stroke-width=".3985" stroke-linecap="butt" stroke-miterlimit="10" stroke-linejoin="miter" fill="none" stroke="#bfbfbf" d=""/>
<path transform="matrix(.80003997,0,0,-.80008,-2.1808129,120.12742)" stroke-width=".19925" stroke-linecap="butt" stroke-miterlimit="10" stroke-linejoin="miter" fill="none" stroke="#7f807f" d="M80.95357 36.30127V40.55382M121.43036 36.30127V40.55382"/>
<path transform="matrix(.80003997,0,0,-.80008,-2.1808129,120.12742)" stroke-width=".19925" stroke-linecap="butt" stroke-miterlimit="10" stroke-linejoin="miter" fill="none" stroke="#7f807f" d=""/>
<path transform="matrix(.80003997,0,0,-.80008,-2.1808129,120.12742)" stroke-width=".3985" stroke-linecap="butt" stroke-miterlimit="10" stroke-linejoin="miter" fill="none" stroke="#000000" d="M4.04666 38.42755H196.34471"/>
<path transform="matrix(.80003997,0,0,-.80008,154.9028,89.3823)" d="M1.99252 0-1.19551 1.59401 0 0-1.19551-1.59401"/>
<path transform="matrix(.80003997,0,0,-.80008,-2.1808129,120.12742)" stroke-width=".3985" stroke-linecap="butt" stroke-miterlimit="10" stroke-linejoin="miter" fill="none" stroke="#000000" d="M60.71518-13.45044V145.95439"/>
<path transform="matrix(0,-.80008,-.80003997,-0,46.393758,3.3522263)" d="M1.99252 0-1.19551 1.59401 0 0-1.19551-1.59401"/>
<use data-text="1" xlink:href="#font_1_1" transform="matrix(7.9704778,0,0,-7.9708769,60.59272,99.036518)"/>
<use data-text="3" xlink:href="#font_1_2" transform="matrix(7.9704778,0,0,-7.9708769,92.97594,99.036518)"/>
<g clip-path="url(#clip_2)">
<path transform="matrix(.80003997,0,0,-.80008,-2.1808129,120.12742)" stroke-width=".79701" stroke-linecap="butt" stroke-miterlimit="10" stroke-linejoin="miter" fill="none" stroke="#0000ff" d="M20.23839 326.63426 21.87378 314.33876 23.50919 302.29447 25.14458 290.50083 26.77998 278.95835 28.41539 267.66658 30.0508 256.62574 31.68619 245.83596 33.3216 235.29697 34.95699 225.00908 36.5924 214.97191 38.2278 205.18569 39.8632 195.65055 41.4986 186.36621 43.13399 177.33281 44.76941 168.55034 46.4048 160.0188 48.0402 151.73816 49.6756 143.70847 51.31102 135.92969 52.94641 128.40181 54.58182 121.12488 56.21721 114.09886 57.85262 107.32378 59.48802 100.79959 61.12343 94.52635 62.75882 88.50404 64.39423 82.73264 66.02962 77.21216 67.66504 71.9426 69.30043 66.92397 70.93582 62.15627 72.57123 57.63948 74.20663 53.37361 75.84204 49.35867 77.47743 45.59464 79.11284 42.08154 80.74825 38.81938 82.38365 35.80812 84.01904 33.04778 85.65445 30.53839 87.28984 28.27988 88.92526 26.27234 90.56065 24.5157 92.19606 23.00996 93.83145 21.75519 95.46686 20.75131 97.10226 19.99838 98.73766 19.49634 100.37306 19.24522 102.00845 19.24504 103.64386 19.49577 105.27927 19.99744 106.91467 20.75003 108.55006 21.75356 110.18547 23.00795 111.82086 24.51334 113.45628 26.26956 115.09167 28.27678 116.72708 30.53493 118.36247 33.04393 119.99788 35.80392 121.63329 38.81477 123.26869 42.0766 124.90408 45.58939 126.53947 49.35297 128.17488 53.3677 129.81029 57.63295 131.4457 62.1496 133.08109 66.91693 134.71649 71.93504 136.3519 77.20428 137.9873 82.7243 139.6227 88.49548 141.2581 94.51732 142.8935 100.79025 144.52892 107.314 146.1643 114.08885 147.79972 121.11452 149.4351 128.39118 151.07051 135.9186 152.70592 143.69687 154.34131 151.72623 155.97672 160.00643 157.6121 168.53789 159.24752 177.31983 160.88292 186.35289 162.51833 195.63677 164.15372 205.17177 165.78913 214.95745 167.42452 224.99419 169.05994 235.28179 170.69533 245.82016 172.33074 256.60997 173.96613 267.65046 175.60153 278.9414 177.23694 290.48384 178.87235 302.277 180.50774 314.32106 182.14313 326.6163"/>
<path transform="matrix(.80003997,0,0,-.80008,-2.1808129,120.12742)" stroke-width="1.59404" stroke-linecap="butt" stroke-miterlimit="10" stroke-linejoin="miter" fill="none" stroke="#ff0000" d="M0 38.42755H80.95357"/>
<path transform="matrix(.80003997,0,0,-.80008,-2.1808129,120.12742)" stroke-width="1.59404" stroke-linecap="butt" stroke-miterlimit="10" stroke-linejoin="miter" fill="none" stroke="#ff0000" d="M121.43036 38.42755H202.38393"/>
</g>
<path transform="matrix(.80003997,0,0,-.80008,-2.1808129,120.12742)" d="M82.94612 38.42755C82.94612 39.52803 82.05403 40.4201 80.95357 40.4201 79.8531 40.4201 78.96101 39.52803 78.96101 38.42755 78.96101 37.32709 79.8531 36.435 80.95357 36.435 82.05403 36.435 82.94612 37.32709 82.94612 38.42755ZM80.95357 38.42755" fill="#ff0000"/>
<path transform="matrix(.80003997,0,0,-.80008,-2.1808129,120.12742)" stroke-width=".3985" stroke-linecap="butt" stroke-miterlimit="10" stroke-linejoin="miter" fill="none" stroke="#ff0000" d="M82.94612 38.42755C82.94612 39.52803 82.05403 40.4201 80.95357 40.4201 79.8531 40.4201 78.96101 39.52803 78.96101 38.42755 78.96101 37.32709 79.8531 36.435 80.95357 36.435 82.05403 36.435 82.94612 37.32709 82.94612 38.42755ZM80.95357 38.42755"/>
<path transform="matrix(.80003997,0,0,-.80008,-2.1808129,120.12742)" d="M123.42291 38.42755C123.42291 39.52803 122.53082 40.4201 121.43036 40.4201 120.32988 40.4201 119.4378 39.52803 119.4378 38.42755 119.4378 37.32709 120.32988 36.435 121.43036 36.435 122.53082 36.435 123.42291 37.32709 123.42291 38.42755ZM121.43036 38.42755" fill="#ff0000"/>
<path transform="matrix(.80003997,0,0,-.80008,-2.1808129,120.12742)" stroke-width=".3985" stroke-linecap="butt" stroke-miterlimit="10" stroke-linejoin="miter" fill="none" stroke="#ff0000" d="M123.42291 38.42755C123.42291 39.52803 122.53082 40.4201 121.43036 40.4201 120.32988 40.4201 119.4378 39.52803 119.4378 38.42755 119.4378 37.32709 120.32988 36.435 121.43036 36.435 122.53082 36.435 123.42291 37.32709 123.42291 38.42755ZM121.43036 38.42755"/>
<path transform="matrix(.80003997,0,0,-.80008,-2.1808129,120.12742)" stroke-width=".3985" stroke-linecap="butt" stroke-miterlimit="10" stroke-linejoin="miter" fill="none" stroke="#ff0000" d=""/>
<use data-text="x" xlink:href="#font_3_1" transform="matrix(7.9704778,0,0,-7.9708769,127.60486,101.77438)"/>
<use data-text="y" xlink:href="#font_3_2" transform="matrix(7.9704778,0,0,-7.9708769,29.668782,21.045517)"/>
</svg>
