<svg xmlns="http://www.w3.org/2000/svg" xmlns:xlink="http://www.w3.org/1999/xlink" xmlns:inkscape="http://www.inkscape.org/namespaces/inkscape" version="1.1" width="158" height="132" viewBox="0 0 158 132">
<defs>
<path id="font_1_1" d="M.2939911 .64004519C.2939911 .66400149 .2939911 .6660156 .2709961 .6660156 .20899964 .60227969 .12098694 .60227969 .08898926 .60227969V.57128909C.10899353 .57128909 .16799927 .57128909 .21998596 .5972748V.07902527C.21998596 .042999269 .21699524 .0309906 .1269989 .0309906H.09498596V0C.12998963 .0029907227 .21699524 .0029907227 .25698854 .0029907227 .29699708 .0029907227 .38398744 .0029907227 .4189911 0V.0309906H.3869934C.29699708 .0309906 .2939911 .041992189 .2939911 .07902527V.64004519Z"/>
<path id="font_1_2" d="M.2899933 .35191346C.37199403 .37893678 .42999269 .4490509 .42999269 .52809146 .42999269 .6100464 .34199525 .6660156 .24598694 .6660156 .14498902 .6660156 .068984989 .60606387 .068984989 .53009036 .068984989 .49710084 .09098816 .47808839 .11999512 .47808839 .15098572 .47808839 .17098999 .50009158 .17098999 .5290985 .17098999 .57910159 .12399292 .57910159 .10899353 .57910159 .13999939 .62802127 .20599365 .64100649 .24198914 .64100649 .2829895 .64100649 .33799745 .6190338 .33799745 .5290985 .33799745 .51708987 .33599855 .45906068 .30999757 .4149933 .27999879 .36691285 .24598694 .36390687 .22099304 .36291505 .21299744 .36190797 .18899536 .35990907 .18199158 .35990907 .17399597 .35890199 .16699219 .35791017 .16699219 .3479004 .16699219 .33691407 .17399597 .33691407 .19099427 .33691407H.23498535C.31698609 .33691407 .35398866 .2686615 .35398866 .17037964 .35398866 .034469606 .2849884 .0055389406 .24099732 .0055389406 .19799805 .0055389406 .12298584 .022491456 .08799744 .08137512 .12298584 .07637024 .1539917 .09837341 .1539917 .1363678 .1539917 .17237854 .1269989 .19238281 .09799194 .19238281 .07398987 .19238281 .041992189 .17837525 .041992189 .1343689 .041992189 .043441774 .1349945-.022460938 .24398804-.022460938 .3659973-.022460938 .45700074 .06838989 .45700074 .17037964 .45700074 .252594 .3939972 .33088685 .2899933 .35191346Z"/>
<clipPath id="clip_2">
<path transform="matrix(.80003997,0,0,-.80008,14.008797,120.12742)" d="M-16.19016-13.45044H178.0821V147.94692H-16.19016Z"/>
</clipPath>
<path id="font_3_1" d="M.33399964 .30233766C.33999635 .32835389 .36299134 .42037965 .43299867 .42037965 .43798829 .42037965 .46199037 .42037965 .48298646 .40734864 .45498658 .402359 .43499757 .37734986 .43499757 .35334779 .43499757 .33735658 .44599916 .31835938 .47299195 .31835938 .49499513 .31835938 .5269928 .3363495 .5269928 .37635804 .5269928 .42837525 .46798707 .4423828 .43399049 .4423828 .37599183 .4423828 .34098817 .38935853 .32899476 .36634828 .3039856 .43237306 .25 .4423828 .22099304 .4423828 .116989139 .4423828 .05999756 .3133545 .05999756 .28834535 .05999756 .27833558 .069992069 .27833558 .07199097 .27833558 .07998657 .27833558 .08299255 .28033448 .084991458 .28933717 .11898804 .39535523 .18499756 .42037965 .21899414 .42037965 .23799134 .42037965 .272995 .4113617 .272995 .35334779 .272995 .32235719 .2559967 .25532533 .21899414 .11528015 .20298767 .053268434 .16799927 .011245728 .12399292 .011245728 .117996219 .011245728 .09498596 .011245728 .07398987 .024276734 .09899902 .029266358 .12098694 .05027771 .12098694 .07827759 .12098694 .105270389 .09899902 .11328125 .083999637 .11328125 .053985597 .11328125 .0289917 .08728027 .0289917 .055267335 .0289917 .009246826 .07899475-.0107421879 .12298584-.0107421879 .18899536-.0107421879 .22499085 .059280397 .22799683 .0652771 .23999024 .028274537 .27598573-.0107421879 .33599855-.0107421879 .43899537-.0107421879 .49598695 .118270877 .49598695 .14328003 .49598695 .1532898 .4869995 .1532898 .48399354 .1532898 .47499085 .1532898 .47299195 .14929199 .47099305 .14228821 .43798829 .03527832 .36999513 .011245728 .33799745 .011245728 .29899598 .011245728 .2829895 .043273927 .2829895 .07727051 .2829895 .09927368 .2889862 .121276859 .2999878 .16529846L.33399964 .30233766Z"/>
<path id="font_3_2" d="M.48599244 .38136292C.48999024 .39537049 .48999024 .39736939 .48999024 .40437318 .48999024 .42237855 .47599793 .43138124 .46099855 .43138124 .45098878 .43138124 .43499757 .42536927 .42599488 .41036988 .42399598 .405365 .41600038 .37435914 .4119873 .35635377 .40499879 .33035279 .397995 .30334474 .3919983 .27633668L.34700013 .09628296C.34298707 .08126831 .2999878 .011245728 .23399353 .011245728 .18299866 .011245728 .17199707 .055267335 .17199707 .0922699 .17199707 .1382904 .18899536 .20030213 .22299195 .28833009 .23899842 .3293457 .24299622 .3403473 .24299622 .36035157 .24299622 .405365 .21099854 .4423828 .16099549 .4423828 .06599426 .4423828 .0289917 .29733277 .0289917 .28833009 .0289917 .27833558 .038986207 .27833558 .040985109 .27833558 .050994874 .27833558 .051986696 .28033448 .056991579 .29634095 .083999637 .3903656 .12399292 .42037965 .1579895 .42037965 .1659851 .42037965 .18299866 .42037965 .18299866 .3883667 .18299866 .36335755 .17298889 .3373413 .1659851 .31834413 .12599182 .21231079 .10798645 .1552887 .10798645 .10827637 .10798645 .019256592 .17098999-.0107421879 .22999573-.0107421879 .2689972-.0107421879 .30299378 .0062561037 .33099366 .03425598 .31799317-.017745972 .30599977-.06674194 .2659912-.11973572 .23999024-.15385437 .20199585-.18309021 .1559906-.18309021 .14199829-.18309021 .09700012-.18005371 .07998657-.14074707 .09599304-.14074707 .10899353-.14074707 .12298584-.1287384 .1329956-.11973572 .14299011-.10673523 .14299011-.08773804 .14299011-.056747438 .115997318-.052734376 .10598755-.052734376 .08299255-.052734376 .049987794-.068740848 .049987794-.11773682 .049987794-.16796875 .09399414-.20507813 .1559906-.20507813 .25898744-.20507813 .3619995-.11373901 .3899994-.00074768069L.48599244 .38136292Z"/>
</defs>
<path transform="matrix(.80003997,0,0,-.80008,14.008797,120.12742)" stroke-width=".3985" stroke-linecap="butt" stroke-miterlimit="10" stroke-linejoin="miter" fill="none" stroke="#bfbfbf" d="M53.96397-13.45044V147.94692M107.92796-13.45044V147.94692"/>
<path transform="matrix(.80003997,0,0,-.80008,14.008797,120.12742)" stroke-width=".3985" stroke-linecap="butt" stroke-miterlimit="10" stroke-linejoin="miter" fill="none" stroke="#bfbfbf" d=""/>
<path transform="matrix(.80003997,0,0,-.80008,14.008797,120.12742)" stroke-width=".19925" stroke-linecap="butt" stroke-miterlimit="10" stroke-linejoin="miter" fill="none" stroke="#7f807f" d="M53.96397 36.30167V40.55342M107.92796 36.30167V40.55342"/>
<path transform="matrix(.80003997,0,0,-.80008,14.008797,120.12742)" stroke-width=".19925" stroke-linecap="butt" stroke-miterlimit="10" stroke-linejoin="miter" fill="none" stroke="#7f807f" d=""/>
<path transform="matrix(.80003997,0,0,-.80008,14.008797,120.12742)" stroke-width=".3985" stroke-linecap="butt" stroke-miterlimit="10" stroke-linejoin="miter" fill="none" stroke="#000000" d="M-16.19016 38.42755H176.08959"/>
<path transform="matrix(.80003997,0,0,-.80008,154.88751,89.3823)" d="M1.99252 0-1.19551 1.59401 0 0-1.19551-1.59401"/>
<path transform="matrix(.80003997,0,0,-.80008,14.008797,120.12742)" stroke-width=".3985" stroke-linecap="butt" stroke-miterlimit="10" stroke-linejoin="miter" fill="none" stroke="#000000" d="M26.98198-13.45044V145.95439"/>
<path transform="matrix(0,-.80008,-.80003997,-0,35.59546,3.3522263)" d="M1.99252 0-1.19551 1.59401 0 0-1.19551-1.59401"/>
<use data-text="1" xlink:href="#font_1_1" transform="matrix(7.9704778,0,0,-7.9708769,55.18925,99.036518)"/>
<use data-text="3" xlink:href="#font_1_2" transform="matrix(7.9704778,0,0,-7.9708769,98.3626,99.036518)"/>
<g clip-path="url(#clip_2)">
<path transform="matrix(.80003997,0,0,-.80008,14.008797,120.12742)" stroke-width=".79701" stroke-linecap="butt" stroke-miterlimit="10" stroke-linejoin="miter" fill="none" stroke="#0000ff" d="M0 192.1378 1.63522 185.22168 3.27048 178.44669 4.90572 171.81284 6.54097 165.32013 8.1762 158.96855 9.81145 152.75814 11.44669 146.68886 13.08194 140.76073 14.71718 134.97373 16.35242 129.3279 17.98766 123.8232 19.62291 118.45963 21.25815 113.2372 22.8934 108.15593 24.52863 103.2158 26.16388 98.41681 27.79912 93.75897 29.43437 89.24226 31.06961 84.8667 32.70486 80.6323 34.34009 76.53902 35.97534 72.58688 37.61058 68.7759 39.24583 65.10605 40.88107 61.57735 42.51631 58.18979 44.15155 54.94337 45.7868 51.8381 47.42204 48.87398 49.0573 46.051 50.69252 43.36916 52.32777 40.82846 53.96301 38.42891 55.59827 36.17049 57.23349 34.05322 58.86874 32.07707 60.50397 30.24211 62.13922 28.5483 63.77446 26.99559 65.4097 25.58403 67.04494 24.31361 68.68018 23.18434 70.31541 22.19621 71.95065 21.34926 73.58589 20.6434 75.22115 20.0787 76.85637 19.65515 78.49162 19.37273 80.12685 19.23146 81.7621 19.23137 83.39734 19.37234 85.03258 19.65451 86.66782 20.07782 88.30305 20.64226 89.93831 21.34784 91.57353 22.19458 93.20879 23.18245 94.84401 24.31145 96.47926 25.58162 98.11449 26.99289 99.74974 28.54532 101.38498 30.2389 103.02022 32.07364 104.65546 34.04948 106.2907 36.16653 107.92593 38.42467 109.56117 40.82396 111.19641 43.3644 112.83165 46.0461 114.46689 48.86876 116.10214 51.83246 117.73737 54.93745 119.37262 58.18378 121.00784 61.5711 122.6431 65.09944 124.27832 68.7691 125.91357 72.57979 127.54881 76.5315 129.18405 80.62451 130.81929 84.85884 132.45453 89.23418 134.08977 93.75055 135.725 98.40793 137.36025 103.20662 138.99549 108.14662 140.63072 113.22766 142.26598 118.44972 143.9012 123.81306 145.53646 129.31743 147.17168 134.96312 148.80693 140.74983 150.44216 146.67755 152.07741 152.7466 153.71265 158.95667 155.34789 165.30806 156.98313 171.80043 158.61837 178.43415 160.2536 185.20886 161.88884 192.12459"/>
</g>
<path transform="matrix(.80003997,0,0,-.80008,14.008797,120.12742)" d="M55.95653 38.42755C55.95653 39.52803 55.06445 40.4201 53.96397 40.4201 52.86351 40.4201 51.97142 39.52803 51.97142 38.42755 51.97142 37.32709 52.86351 36.435 53.96397 36.435 55.06445 36.435 55.95653 37.32709 55.95653 38.42755ZM53.96397 38.42755" fill="#ff0000"/>
<path transform="matrix(.80003997,0,0,-.80008,14.008797,120.12742)" stroke-width=".3985" stroke-linecap="butt" stroke-miterlimit="10" stroke-linejoin="miter" fill="none" stroke="#ff0000" d="M55.95653 38.42755C55.95653 39.52803 55.06445 40.4201 53.96397 40.4201 52.86351 40.4201 51.97142 39.52803 51.97142 38.42755 51.97142 37.32709 52.86351 36.435 53.96397 36.435 55.06445 36.435 55.95653 37.32709 55.95653 38.42755ZM53.96397 38.42755"/>
<path transform="matrix(.80003997,0,0,-.80008,14.008797,120.12742)" d="M109.92052 38.42755C109.92052 39.52803 109.02843 40.4201 107.92796 40.4201 106.82748 40.4201 105.93541 39.52803 105.93541 38.42755 105.93541 37.32709 106.82748 36.435 107.92796 36.435 109.02843 36.435 109.92052 37.32709 109.92052 38.42755ZM107.92796 38.42755" fill="#ff0000"/>
<path transform="matrix(.80003997,0,0,-.80008,14.008797,120.12742)" stroke-width=".3985" stroke-linecap="butt" stroke-miterlimit="10" stroke-linejoin="miter" fill="none" stroke="#ff0000" d="M109.92052 38.42755C109.92052 39.52803 109.02843 40.4201 107.92796 40.4201 106.82748 40.4201 105.93541 39.52803 105.93541 38.42755 105.93541 37.32709 106.82748 36.435 107.92796 36.435 109.02843 36.435 109.92052 37.32709 109.92052 38.42755ZM107.92796 38.42755"/>
<path transform="matrix(.80003997,0,0,-.80008,14.008797,120.12742)" stroke-width=".3985" stroke-linecap="butt" stroke-miterlimit="10" stroke-linejoin="miter" fill="none" stroke="#ff0000" d=""/>
<use data-text="x" xlink:href="#font_3_1" transform="matrix(7.9704778,0,0,-7.9708769,130.82102,101.775188)"/>
<use data-text="y" xlink:href="#font_3_2" transform="matrix(7.9704778,0,0,-7.9708769,24.268509,21.050309)"/>
</svg>
