<svg xmlns="http://www.w3.org/2000/svg" xmlns:xlink="http://www.w3.org/1999/xlink" xmlns:inkscape="http://www.inkscape.org/namespaces/inkscape" version="1.1" width="229" height="59" viewBox="0 0 229 59">
<defs>
<path id="font_1_1" d="M.6749878 .22944641C.69299319 .22944641 .71199038 .22944641 .71199038 .25144959 .71199038 .27246095 .69200137 .27246095 .6749878 .27246095H.12298584C.10598755 .27246095 .085998538 .27246095 .085998538 .25144959 .085998538 .22944641 .10499573 .22944641 .12298584 .22944641H.6749878Z"/>
<path id="font_2_2" d="M.46199037 .17704773H.43399049C.43199159 .16404724 .42399598 .10501099 .41099549 .08900452 .40499879 .07998657 .33599855 .07998657 .31599427 .07998657H.13798523L.23699951 .17404175C.40098573 .3161316 .46199037 .36915589 .46199037 .4711914 .46199037 .5860901 .36698915 .6660156 .24398804 .6660156 .1289978 .6660156 .050994874 .575119 .050994874 .4841919 .050994874 .43418885 .09399414 .42919923 .102996829 .42919923 .125 .42919923 .15499878 .44519044 .15499878 .48120118 .15499878 .51119998 .13398743 .5332031 .102996829 .5332031 .09799194 .5332031 .09498596 .5332031 .09098816 .53219607 .114990238 .6030731 .1789856 .63500979 .23298645 .63500979 .33499146 .63500979 .36999513 .5401764 .36999513 .4711914 .36999513 .36915589 .29299928 .28611756 .24499512 .23408509L.06199646 .035995485C.050994874 .024993897 .050994874 .022994996 .050994874 0H.43399049L.46199037 .17704773Z"/>
<path id="font_2_3" d="M.30499269 .35195924C.397995 .38697816 .44198609 .46006776 .44198609 .5290985 .44198609 .60606387 .35699464 .6660156 .25299073 .6660156 .14898682 .6660156 .070999149 .60705569 .070999149 .5310974 .070999149 .49809266 .09298706 .47909547 .12199402 .47909547 .15098572 .47909547 .17199707 .50009158 .17199707 .5290985 .17199707 .5640869 .147995 .57910159 .11399841 .57910159 .13999939 .6210327 .20098877 .64100649 .25 .64100649 .33299256 .64100649 .34899903 .5750885 .34899903 .52809146 .34899903 .49809266 .34298707 .45005799 .31799317 .41201783 .2869873 .36695863 .2519989 .36495973 .22299195 .36296083 .19799805 .36094667 .19599915 .36094667 .18798828 .36094667 .1789856 .35995484 .17098999 .35894776 .17098999 .34794618 .17098999 .33496095 .1789856 .33496095 .19599915 .33496095H.24299622C.32998658 .33496095 .36799623 .2646637 .36799623 .16937256 .36799623 .04145813 .2999878 .0055389406 .24899292 .0055389406 .22999573 .0055389406 .1329956 .010528564 .08799744 .0843811 .12399292 .07939148 .1519928 .10437012 .1519928 .13838196 .1519928 .17137146 .1269989 .19238281 .09799194 .19238281 .07299805 .19238281 .042999269 .17736817 .042999269 .13537598 .042999269 .046447755 .13598633-.022460938 .2519989-.022460938 .3769989-.022460938 .46998597 .06741333 .46998597 .16937256 .46998597 .25663758 .40098573 .33093263 .30499269 .35195924Z"/>
<path id="font_2_1" d="M.70599368 .22944641C.7200012 .22944641 .7409973 .22944641 .7409973 .25045777 .7409973 .27246095 .7220001 .27246095 .70599368 .27246095H.42099V.5578003C.42099 .573761 .42099 .59277346 .39898683 .59277346 .37799073 .59277346 .37799073 .57177737 .37799073 .5578003V.27246095H.09199524C.07798767 .27246095 .056991579 .27246095 .056991579 .25144959 .056991579 .22944641 .07598877 .22944641 .09199524 .22944641H.37799073V-.056793214C.37799073-.07279968 .37799073-.091796878 .3999939-.091796878 .42099-.091796878 .42099-.07080078 .42099-.056793214V.22944641H.70599368Z"/>
</defs>
<path transform="matrix(1,0,0,-1,114.681,29.211)" stroke-width=".79701" stroke-linecap="butt" stroke-miterlimit="10" stroke-linejoin="miter" fill="none" stroke="#000000" d="M-112.59065 0H112.59065"/>
<path transform="matrix(-1,-0,0,1,1.6918488,29.211)" stroke-width=".79701" stroke-linecap="round" stroke-linejoin="round" fill="none" stroke="#000000" d="M-2.55046 3.11095C-2.0845 1.24435-1.04614 .36295 0 0-1.04614-.36295-2.0845-1.24435-2.55046-3.11095"/>
<path transform="matrix(1,0,0,-1,227.67015,29.211)" stroke-width=".79701" stroke-linecap="round" stroke-linejoin="round" fill="none" stroke="#000000" d="M-2.55046 3.11095C-2.0845 1.24435-1.04614 .36295 0 0-1.04614-.36295-2.0845-1.24435-2.55046-3.11095"/>
<path transform="matrix(1,0,0,-1,114.681,29.211)" stroke-width=".3985" stroke-linecap="butt" stroke-miterlimit="10" stroke-linejoin="miter" fill="none" stroke="#000000" d="M-45.35506 3.40146V-3.40146"/>
<path transform="matrix(1,0,0,-1,114.681,29.211)" stroke-width=".3985" stroke-linecap="butt" stroke-miterlimit="10" stroke-linejoin="miter" fill="none" stroke="#000000" d="M68.0326 3.40146V-3.40146"/>
<use data-text="&#x2212;" xlink:href="#font_1_1" transform="matrix(8.9664,0,0,-8.9664,63.438005,41.911005)"/>
<use data-text="2" xlink:href="#font_2_2" transform="matrix(8.9664,0,0,-8.9664,70.606,41.911005)"/>
<use data-text="3" xlink:href="#font_2_3" transform="matrix(8.9664,0,0,-8.9664,180.41,41.911005)"/>
<use data-text="+" xlink:href="#font_2_1" transform="matrix(8.9664,0,0,-8.9664,43.065004,24.861)"/>
<use data-text="&#x2212;" xlink:href="#font_1_1" transform="matrix(8.9664,0,0,-8.9664,111.097,24.861)"/>
<use data-text="+" xlink:href="#font_2_1" transform="matrix(8.9664,0,0,-8.9664,201.807,24.861)"/>
<path transform="matrix(1,0,0,-1,114.681,29.211)" stroke-width=".79701" stroke-linecap="butt" stroke-miterlimit="10" stroke-linejoin="miter" fill="none" stroke="#0000ff" d="M-68.0326 27.2126C-68.0326 27.2126-66.87428 25.6002-66.42941 24.9897-65.98454 24.3792-65.2711 23.41005-64.82625 22.81245-64.3814 22.21487-63.66794 21.26765-63.22308 20.68263-62.77823 20.09763-62.06477 19.1685-61.61992 18.59607-61.17506 18.02362-60.46162 17.11674-60.01677 16.5569-59.5719 15.99706-58.85844 15.1085-58.41359 14.56099-57.96872 14.01347-57.2553 13.14545-56.81044 12.61075-56.36557 12.07607-55.65215 11.22935-55.20728 10.70724-54.76239 10.18513-54.04895 9.35721-53.6041 8.84767-53.15923 8.33812-52.4458 7.53181-52.00093 7.0348-51.55608 6.5378-50.84264 5.75015-50.39775 5.26555-49.9529 4.78093-49.23946 4.01375-48.7946 3.54196-48.34975 3.07018-47.63629 2.32431-47.19144 1.8651-46.74658 1.40587-46.03313 .67851-45.58827 .23216-45.14342-.21416-44.42996-.91815-43.9851-1.35191-43.54025-1.78569-42.82681-2.4727-42.38196-2.8942-41.93709-3.31566-41.22365-3.98083-40.77878-4.38972-40.33391-4.79865-39.62047-5.44476-39.17561-5.84134-38.73074-6.2379-38.01732-6.86417-37.57246-7.24796-37.1276-7.63176-36.41414-8.23633-35.96928-8.6075-35.52441-8.9787-34.81099-9.56454-34.36612-9.92313-33.92126-10.28171-33.20782-10.84601-32.76294-11.19202-32.31808-11.53804-31.60464-12.08336-31.15979-12.41698-30.71494-12.75061-30.0015-13.27576-29.55663-13.5966-29.11176-13.91745-28.3983-14.42123-27.95345-14.7295-27.50859-15.03778-26.79515-15.52278-26.3503-15.81847-25.90544-16.11417-25.19199-16.57756-24.74713-16.86072-24.30228-17.14389-23.58882-17.58878-23.14397-17.85938-22.6991-18.12994-21.98566-18.55301-21.5408-18.81096-21.09593-19.06891-20.3825-19.47302-19.93765-19.7186-19.49277-19.96416-18.77933-20.3481-18.33447-20.5809-17.8896-20.8137-17.17618-21.17627-16.73131-21.3965-16.28645-21.61671-15.573-21.96051-15.12813-22.16815-14.68326-22.3758-13.96983-22.69803-13.52496-22.8931-13.08011-23.08815-12.36667-23.39142-11.92181-23.57408-11.47696-23.75676-10.76349-24.03983-10.31863-24.20973-9.87378-24.37965-9.16034-24.64137-8.71548-24.79869-8.27063-24.95601-7.55717-25.19894-7.11232-25.34369-6.66747-25.48843-5.95401-25.70981-5.50916-25.84196-5.06429-25.97415-4.35085-26.17659-3.90599-26.29631-3.46112-26.41605-2.7477-26.59796-2.30283-26.70497-1.85796-26.81198-1.14452-26.97318-.69965-27.06761-.25479-27.16205 .4586-27.30377 .90347-27.38562 1.34833-27.46747 2.06178-27.58833 2.50664-27.6576 2.95149-27.72687 3.66495-27.82825 4.1098-27.88495 4.55466-27.94164 5.2681-28.02216 5.71295-28.06627 6.1578-28.11038 6.87128-28.17126 7.31613-28.20294 7.76099-28.23463 8.47443-28.27568 8.91928-28.29465 9.36415-28.3136 10.07758-28.33324 10.52245-28.33963 10.96732-28.34601 11.68077-28.3468 12.12563-28.34067 12.5705-28.33452 13.28392-28.3141 13.72879-28.29535 14.17365-28.27657 14.88708-28.23662 15.33197-28.20537 15.77682-28.1741 16.49025-28.114 16.93512-28.07007 17.37997-28.02615 18.09341-27.94525 18.53828-27.88875 18.98314-27.83224 19.6966-27.73187 20.14145-27.6628 20.5863-27.5937 21.29976-27.47247 21.74461-27.39081 22.18947-27.30914 22.90291-27.16844 23.34776-27.07419 23.79262-26.97995 24.50607-26.81836 24.95094-26.71156 25.39581-26.60475 26.10925-26.42358 26.55411-26.30428 26.99896-26.18497 27.7124-25.98364 28.15726-25.85167 28.60213-25.71968 29.31558-25.49759 29.76044-25.35303 30.2053-25.20848 30.91873-24.9669 31.3636-24.80975 31.80846-24.65262 32.5219-24.39018 32.96678-24.22047 33.41164-24.05075 34.12506-23.76878 34.56993-23.58655 35.01479-23.40431 35.72823-23.10182 36.1731-22.90694 36.61797-22.71205 37.3314-22.38945 37.77628-22.18199 38.22113-21.97455 38.93457-21.63176 39.37943-21.41173 39.82428-21.1917 40.53773-20.82874 40.98259-20.59613 41.42744-20.36353 42.1409-19.98035 42.58575-19.7352 43.03061-19.49007 43.74406-19.08707 44.18892-18.8293 44.63379-18.57153 45.34721-18.1477 45.79207-17.87737 46.23695-17.60701 46.9504-17.16371 47.39525-16.88078 47.84012-16.59785 48.55354-16.1337 48.99841-15.8382 49.44327-15.5427 50.15671-15.05904 50.6016-14.75098 51.04646-14.44289 51.75989-13.93839 52.20476-13.6177 52.64961-13.29704 53.36304-12.77301 53.8079-12.43982 54.25276-12.10663 54.96622-11.56207 55.41109-11.21626 55.85594-10.87044 56.56938-10.30576 57.01424-9.94736 57.45909-9.58896 58.17255-9.00415 58.6174-8.63312 59.06226-8.2621 59.77571-7.65677 60.22057-7.27322 60.66544-6.88966 61.37888-6.26477 61.82373-5.86867 62.2686-5.47258 62.98203-4.82718 63.4269-4.41846 63.87177-4.00974 64.58519-3.3442 65.03006-2.92291 65.47495-2.50162 66.18837-1.8159 66.63322-1.38203 67.0781-.94817 67.79153-.24228 68.2364 .20415 68.68126 .65059 69.3947 1.37663 69.83957 1.83568 70.28442 2.2947 70.99786 3.04092 71.44272 3.51254 71.88757 3.98416 72.60104 4.75056 73.0459 5.23474 73.49075 5.71895 74.2042 6.50551 74.64905 7.00227 75.0939 7.49904 75.80734 8.30579 76.25221 8.81514 76.69708 9.32448 77.41054 10.15138 77.8554 10.67331 78.30025 11.19525 79.01369 12.04234 79.45854 12.57684 79.90341 13.11134 80.61685 13.97858 81.06172 14.5257 81.50659 15.07283 82.22002 15.96056 82.66487 16.52022 83.10974 17.07988 83.82318 17.98714 84.26804 18.55939 84.7129 19.13162 85.42635 20.05977 85.87122 20.64458 86.31607 21.2294 87.02951 22.177 87.47438 22.7744 87.91924 23.37178 88.63268 24.34016 89.07753 24.95026 89.52238 25.56032 90.68071 27.17143 90.68071 27.17143"/>
</svg>
