<svg xmlns="http://www.w3.org/2000/svg" xmlns:xlink="http://www.w3.org/1999/xlink" xmlns:inkscape="http://www.inkscape.org/namespaces/inkscape" version="1.1" width="119" height="117" viewBox="0 0 119 117">
<defs>
<path id="font_1_1" d="M.08799744 .059265138C.084991458 .044265748 .07899475 .021255494 .07899475 .01625061 .07899475-.0017547608 .09298706-.0107421879 .10798645-.0107421879 .11999512-.0107421879 .13798523-.002746582 .14498902 .01725769 .14698792 .021255494 .18099976 .15730286 .18499756 .17530823 .19299317 .20831299 .21099854 .27833558 .21699524 .30534364 .22099304 .31835938 .24899292 .36535646 .272995 .38734437 .2809906 .39434815 .30999757 .42037965 .35299684 .42037965 .3789978 .42037965 .3939972 .4083557 .394989 .4083557 .36499024 .40335084 .34298707 .37934876 .34298707 .35334779 .34298707 .33735658 .35398866 .31835938 .3809967 .31835938 .4079895 .31835938 .43598939 .34135438 .43598939 .37734986 .43598939 .41235353 .4039917 .4423828 .35299684 .4423828 .28799439 .4423828 .24398804 .39335633 .22499085 .36535646 .21699524 .4103546 .18099976 .4423828 .13398743 .4423828 .08799744 .4423828 .068984989 .40335084 .05999756 .38534547 .041992189 .35134889 .0289917 .29133607 .0289917 .28834535 .0289917 .27833558 .038986207 .27833558 .040985109 .27833558 .050994874 .27833558 .051986696 .27934266 .057998659 .30134584 .07499695 .37234498 .09498596 .42037965 .1309967 .42037965 .147995 .42037965 .1619873 .41235353 .1619873 .37435914 .1619873 .35334779 .15899658 .3423462 .1459961 .29034425L.08799744 .059265138Z"/>
<path id="font_2_82" d="M.4189911 0V.0309906H.3869934C.29699708 .0309906 .2939911 .041992189 .2939911 .07902527V.64012148C.2939911 .6640167 .2939911 .6660156 .2709961 .6660156 .20899964 .60227969 .12098694 .60227969 .08898926 .60227969V.57128909C.10899353 .57128909 .16799927 .57128909 .21998596 .5972748V.07902527C.21998596 .042999269 .21699524 .0309906 .1269989 .0309906H.09498596V0C.12998963 .0029907227 .21699524 .0029907227 .25698854 .0029907227 .29699708 .0029907227 .38398744 .0029907227 .4189911 0Z"/>
<path id="font_2_96" d="M.3639984 .38137818C.3639984 .41337586 .33299256 .4423828 .2899933 .4423828 .21699524 .4423828 .18099976 .37538148 .16699219 .3323822V.4423828L.027999878 .43066407V.3996582C.09799194 .3996582 .10598755 .39266969 .10598755 .34370423V.07595825C.10598755 .0309906 .09498596 .0309906 .027999878 .0309906V0L.14199829 .0029907227C.18199158 .0029907227 .22898865 .0029907227 .2689972 0V.0309906H.24798584C.17399597 .0309906 .17199707 .04197693 .17199707 .07795715V.23181153C.17199707 .33137513 .21398926 .42037965 .2899933 .42037965 .29699708 .42037965 .29899598 .42037965 .30099488 .41937257 .2979889 .41838075 .27799989 .40637208 .27799989 .3803711 .27799989 .35237123 .29899598 .33737184 .32099916 .33737184 .33898927 .33737184 .3639984 .3493805 .3639984 .38137818Z"/>
<path id="font_2_28" d="M.48298646 .08912659V.14511109H.45799256V.08912659C.45799256 .03112793 .43299867 .025131226 .42199708 .025131226 .3889923 .025131226 .3849945 .070129398 .3849945 .07511902V.27508546C.3849945 .31707765 .3849945 .3560791 .34899903 .39312745 .30999757 .43223573 .2599945 .4482422 .21199036 .4482422 .12998963 .4482422 .06098938 .40115357 .06098938 .335083 .06098938 .30508424 .08099365 .28808595 .10699463 .28808595 .1349945 .28808595 .15299988 .30807496 .15299988 .33407594 .15299988 .3460846 .147995 .37908937 .101989749 .38008119 .1289978 .41519166 .17799378 .426239 .20999146 .426239 .25898744 .426239 .31599427 .38710023 .31599427 .29808045V.26107789C.2649994 .25808717 .19499207 .25508119 .13198853 .22509766 .056991579 .19110108 .03199768 .13911438 .03199768 .09512329 .03199768 .014251709 .1289978-.0107421879 .19198609-.0107421879 .2579956-.0107421879 .3039856 .029251099 .32299806 .07624817 .32699586 .036132814 .35398866-.005859375 .40098573-.005859375 .42199708-.005859375 .48298646 .008132935 .48298646 .08912659M.31599427 .14013672C.31599427 .04525757 .24398804 .011245728 .19898987 .011245728 .1499939 .011245728 .10899353 .04624939 .10899353 .09625244 .10899353 .15124512 .15098572 .23425293 .31599427 .24024964V.14013672Z"/>
<path id="font_2_47" d="M.5269928 0V.0309906C.45700074 .0309906 .44898988 .038009645 .44898988 .0871582V.69433596L.30499269 .6826172V.6516113C.375 .6516113 .3829956 .64463809 .3829956 .59580996V.38035584C.35398866 .41636659 .31098939 .4423828 .25698854 .4423828 .13899231 .4423828 .033996583 .3443451 .033996583 .21531677 .033996583 .088272098 .13198853-.0107421879 .24598694-.0107421879 .30999757-.0107421879 .35499574 .023254395 .37998963 .055267335V-.0107421879L.5269928 0M.37998963 .117996219C.37998963 .099990848 .37998963 .09799194 .36898805 .08099365 .33898927 .033218385 .2939911 .011245728 .25099183 .011245728 .20599365 .011245728 .16999817 .037216188 .1459961 .075164798 .11999512 .1161499 .116989139 .17320252 .116989139 .21421814 .116989139 .25125123 .11898804 .31129457 .147995 .35632325 .16899109 .38734437 .20698548 .42037965 .26098634 .42037965 .29599 .42037965 .33799745 .405365 .36898805 .3603363 .37998963 .34332276 .37998963 .34132386 .37998963 .32330323V.117996219Z"/>
</defs>
<path transform="matrix(1,0,0,-1,58.988008,58.691)" stroke-width=".79701" stroke-linecap="butt" stroke-miterlimit="10" stroke-linejoin="miter" fill="none" stroke="#000000" d="M56.69363 0C56.69363 31.31142 31.31142 56.69363 0 56.69363-31.31142 56.69363-56.69363 31.31142-56.69363 0-56.69363-31.31142-31.31142-56.69363 0-56.69363 31.31142-56.69363 56.69363-31.31142 56.69363 0ZM0 0"/>
<path transform="matrix(1,0,0,-1,58.988008,58.691)" stroke-width=".79701" stroke-linecap="butt" stroke-miterlimit="10" stroke-linejoin="miter" fill="none" stroke="#000000" d="M0 0H56.69363"/>
<use data-text="r" xlink:href="#font_1_1" transform="matrix(9.9626,0,0,-9.9626,84.949008,66.7)"/>
<path transform="matrix(1,0,0,-1,58.988008,58.691)" d="M58.18805 0C58.18805 .82533 57.51897 1.49442 56.69363 1.49442 55.86829 1.49442 55.19922 .82533 55.19922 0 55.19922-.82533 55.86829-1.49442 56.69363-1.49442 57.51897-1.49442 58.18805-.82533 58.18805 0ZM56.69363 0"/>
<path transform="matrix(1,0,0,-1,58.988008,58.691)" stroke-width=".79701" stroke-linecap="butt" stroke-miterlimit="10" stroke-linejoin="miter" fill="none" stroke="#000000" d="M0 0 30.63062 47.70375"/>
<use data-text="r" xlink:href="#font_1_1" transform="matrix(9.9626,0,0,-9.9626,65.813,31.120003)"/>
<path transform="matrix(1,0,0,-1,58.988008,58.691)" d="M32.12503 47.70375C32.12503 48.5291 31.45596 49.19817 30.63062 49.19817 29.80527 49.19817 29.1362 48.5291 29.1362 47.70375 29.1362 46.8784 29.80527 46.20934 30.63062 46.20934 31.45596 46.20934 32.12503 46.8784 32.12503 47.70375ZM30.63062 47.70375"/>
<path transform="matrix(1,0,0,-1,58.988008,58.691)" stroke-width="1.19553" stroke-linecap="butt" stroke-miterlimit="10" stroke-linejoin="miter" fill="none" stroke="#ff0000" d="M56.69363 0C56.69363 19.29724 46.8679 37.27779 30.63062 47.70375"/>
<use data-text="r" xlink:href="#font_1_1" transform="matrix(9.9626,0,0,-9.9626,112.657009,27.594002)" fill="#ff0000"/>
<path transform="matrix(1,0,0,-1,58.988008,58.691)" stroke-width=".79701" stroke-linecap="butt" stroke-miterlimit="10" stroke-linejoin="miter" fill="none" stroke="#000000" d="M14.17339 0C14.17339 4.8243 11.71695 9.31943 7.65764 11.92592"/>
<use data-text="1" xlink:href="#font_2_82" transform="matrix(9.9626,0,0,-9.9626,73.32901,48.504)"/>
<use data-text="r" xlink:href="#font_2_96" transform="matrix(9.9626,0,0,-9.9626,79.964099,48.504)"/>
<use data-text="a" xlink:href="#font_2_28" transform="matrix(9.9626,0,0,-9.9626,83.86943,48.504)"/>
<use data-text="d" xlink:href="#font_2_47" transform="matrix(9.9626,0,0,-9.9626,88.85072,48.504)"/>
<path transform="matrix(1,0,0,-1,58.988008,58.691)" d="M1.49442 0C1.49442 .82533 .82533 1.49442 0 1.49442-.82533 1.49442-1.49442 .82533-1.49442 0-1.49442-.82533-.82533-1.49442 0-1.49442 .82533-1.49442 1.49442-.82533 1.49442 0ZM0 0"/>
</svg>
