<svg xmlns="http://www.w3.org/2000/svg" xmlns:xlink="http://www.w3.org/1999/xlink" xmlns:inkscape="http://www.inkscape.org/namespaces/inkscape" version="1.1" width="275" height="21" viewBox="0 0 275 21">
<defs>
<path id="font_1_1" d="M.45999146 .31976319C.45999146 .39982606 .45498658 .47988893 .41999818 .5539398 .37399293 .65000918 .2919922 .6660156 .25 .6660156 .18998719 .6660156 .116989139 .64001467 .07598877 .54693606 .04399109 .47789 .038986207 .39982606 .038986207 .31976319 .038986207 .24472046 .042999269 .15464783 .083999637 .07859802 .1269989-.0024719239 .19999695-.022460938 .24899292-.022460938 .30299378-.022460938 .3789978-.0014648438 .4229889 .09359741 .45498658 .16265869 .45999146 .2407074 .45999146 .31976319M.24899292-.00047302247C.20999146-.00047302247 .15098572 .024551392 .1329956 .12062073 .12199402 .18066406 .12199402 .2727356 .12199402 .3317871 .12199402 .39582826 .12199402 .46188355 .12998963 .5159149 .14898682 .63500979 .22399903 .64401248 .24899292 .64401248 .28199769 .64401248 .34799195 .6259918 .36698915 .52693179 .3769989 .47088624 .3769989 .39482118 .3769989 .3317871 .3769989 .25672914 .3769989 .18867493 .3659973 .12461853 .35099793 .029556275 .2939911-.00047302247 .24899292-.00047302247Z"/>
<path id="font_1_2" d="M.2899933 .35191346C.37199403 .37893678 .42999269 .4490509 .42999269 .52809146 .42999269 .6100464 .34199525 .6660156 .24598694 .6660156 .14498902 .6660156 .068984989 .60606387 .068984989 .53009036 .068984989 .49710084 .09098816 .47808839 .11999512 .47808839 .15098572 .47808839 .17098999 .50009158 .17098999 .5290985 .17098999 .57910159 .12399292 .57910159 .10899353 .57910159 .13999939 .62802127 .20599365 .64100649 .24198914 .64100649 .2829895 .64100649 .33799745 .6190338 .33799745 .5290985 .33799745 .51708987 .33599855 .45906068 .30999757 .4149933 .27999879 .36691285 .24598694 .36390687 .22099304 .36291505 .21299744 .36190797 .18899536 .35990907 .18199158 .35990907 .17399597 .35890199 .16699219 .35791017 .16699219 .3479004 .16699219 .33691407 .17399597 .33691407 .19099427 .33691407H.23498535C.31698609 .33691407 .35398866 .2686615 .35398866 .17037964 .35398866 .034469606 .2849884 .0055389406 .24099732 .0055389406 .19799805 .0055389406 .12298584 .022491456 .08799744 .08137512 .12298584 .07637024 .1539917 .09837341 .1539917 .1363678 .1539917 .17237854 .1269989 .19238281 .09799194 .19238281 .07398987 .19238281 .041992189 .17837525 .041992189 .1343689 .041992189 .043441774 .1349945-.022460938 .24398804-.022460938 .3659973-.022460938 .45700074 .06838989 .45700074 .17037964 .45700074 .252594 .3939972 .33088685 .2899933 .35191346Z"/>
<path id="font_1_3" d="M.47599793 .609375C.4850006 .6213684 .4850006 .62338259 .4850006 .64437869H.24198914C.11999512 .64437869 .117996219 .65737918 .11399841 .67637637H.08898926L.055999757 .4702301H.08099365C.083999637 .48625184 .09298706 .5493469 .10598755 .56137087 .11299133 .5673828 .19099427 .5673828 .20399475 .5673828H.41099549C.3999939 .5513611 .32099916 .4421997 .29899598 .40914918 .20899964 .27394105 .17599488 .1347351 .17599488 .032577516 .17599488 .022567749 .17599488-.022460938 .22200012-.022460938 .2679901-.022460938 .2679901 .022567749 .2679901 .032577516V.08366394C.2679901 .13873291 .2709961 .19381714 .2789917 .24790955 .2829895 .27093507 .29699708 .35707093 .34098817 .41915895L.47599793 .609375Z"/>
</defs>
<path transform="matrix(1.00005,0,0,-1.00006,137.26696,6.5824358)" stroke-width=".59776" stroke-linecap="butt" stroke-miterlimit="10" stroke-linejoin="miter" fill="none" stroke="#000000" d="M-135.46833 0H135.46833"/>
<path transform="matrix(-1.00005,-0,0,1.00006,1.4929657,6.5824358)" stroke-width=".59776" stroke-linecap="round" stroke-linejoin="round" fill="none" stroke="#000000" d="M-2.31136 2.751C-1.88908 1.10037-.94807 .32094 0 0-.94807-.32094-1.88908-1.10037-2.31136-2.751"/>
<path transform="matrix(1.00005,0,0,-1.00006,273.04096,6.5824358)" stroke-width=".59776" stroke-linecap="round" stroke-linejoin="round" fill="none" stroke="#000000" d="M-2.31136 2.751C-1.88908 1.10037-.94807 .32094 0 0-.94807-.32094-1.88908-1.10037-2.31136-2.751"/>
<path transform="matrix(1.00005,0,0,-1.00006,137.26696,6.5824358)" stroke-width=".3985" stroke-linecap="butt" stroke-miterlimit="10" stroke-linejoin="miter" fill="none" stroke="#000000" d="M0 2.83484V-2.83484"/>
<use data-text="0" xlink:href="#font_1_1" transform="matrix(9.963098,0,0,-9.963197,134.77582,19.3582)"/>
<path transform="matrix(1.00005,0,0,-1.00006,137.26696,6.5824358)" stroke-width=".3985" stroke-linecap="butt" stroke-miterlimit="10" stroke-linejoin="miter" fill="none" stroke="#000000" d="M51.02478 2.83484V-2.83484"/>
<use data-text="3" xlink:href="#font_1_2" transform="matrix(9.963098,0,0,-9.963197,185.80338,19.3582)"/>
<path transform="matrix(1.00005,0,0,-1.00006,137.26696,6.5824358)" stroke-width=".3985" stroke-linecap="butt" stroke-miterlimit="10" stroke-linejoin="miter" fill="none" stroke="#000000" d="M119.05783 2.83484V-2.83484"/>
<use data-text="7" xlink:href="#font_1_3" transform="matrix(9.963098,0,0,-9.963197,253.83979,19.3582)"/>
<path transform="matrix(1.00005,0,0,-1.00006,137.26696,6.5824358)" stroke-width="1.99255" stroke-linecap="butt" stroke-miterlimit="10" stroke-linejoin="miter" fill="none" stroke="#ff0000" d="M51.02478 0H119.05783"/>
<path transform="matrix(1.00005,0,0,-1.00006,137.26696,6.5824358)" d="M55.00989 0C55.00989 2.20093 53.22572 3.9851 51.02478 3.9851 48.82384 3.9851 47.03967 2.20093 47.03967 0 47.03967-2.20093 48.82384-3.9851 51.02478-3.9851 53.22572-3.9851 55.00989-2.20093 55.00989 0ZM51.02478 0" fill="#ffffff"/>
<path transform="matrix(1.00005,0,0,-1.00006,137.26696,6.5824358)" stroke-width="1.99255" stroke-linecap="butt" stroke-miterlimit="10" stroke-linejoin="miter" fill="none" stroke="#ff0000" d="M55.00989 0C55.00989 2.20093 53.22572 3.9851 51.02478 3.9851 48.82384 3.9851 47.03967 2.20093 47.03967 0 47.03967-2.20093 48.82384-3.9851 51.02478-3.9851 53.22572-3.9851 55.00989-2.20093 55.00989 0ZM51.02478 0"/>
<path transform="matrix(1.00005,0,0,-1.00006,137.26696,6.5824358)" d="M123.04294 0C123.04294 2.20093 121.25877 3.9851 119.05783 3.9851 116.85689 3.9851 115.07272 2.20093 115.07272 0 115.07272-2.20093 116.85689-3.9851 119.05783-3.9851 121.25877-3.9851 123.04294-2.20093 123.04294 0ZM119.05783 0" fill="#ffffff"/>
<path transform="matrix(1.00005,0,0,-1.00006,137.26696,6.5824358)" stroke-width="1.99255" stroke-linecap="butt" stroke-miterlimit="10" stroke-linejoin="miter" fill="none" stroke="#ff0000" d="M123.04294 0C123.04294 2.20093 121.25877 3.9851 119.05783 3.9851 116.85689 3.9851 115.07272 2.20093 115.07272 0 115.07272-2.20093 116.85689-3.9851 119.05783-3.9851 121.25877-3.9851 123.04294-2.20093 123.04294 0ZM119.05783 0"/>
</svg>
