<svg xmlns="http://www.w3.org/2000/svg" xmlns:xlink="http://www.w3.org/1999/xlink" xmlns:inkscape="http://www.inkscape.org/namespaces/inkscape" version="1.1" width="87" height="42" viewBox="0 0 87 42">
<path transform="matrix(1.00002,0,0,-1.00005,43.616518,38.537126)" stroke-width=".3985" stroke-linecap="butt" stroke-miterlimit="10" stroke-linejoin="miter" fill="none" stroke="#000000" d="M-42.5202 0H42.12169"/>
<path transform="matrix(1.00002,0,0,-1.00005,85.93831,38.537126)" stroke-width=".3985" stroke-linecap="round" stroke-linejoin="round" fill="none" stroke="#000000" d="M-2.07224 2.39104C-1.69365 .95639-.84999 .27895 0 0-.84999-.27895-1.69365-.95639-2.07224-2.39104"/>
<path transform="matrix(1.00002,0,0,-1.00005,43.616518,38.537126)" stroke-width=".3985" stroke-linecap="butt" stroke-miterlimit="10" stroke-linejoin="miter" fill="none" stroke="#000000" d="M-34.01608 36.73672-31.18166 30.86935-28.34723 25.51237-25.5128 20.66534-22.67838 16.32872-19.84395 12.50208-17.00955 9.18579-14.17513 6.37949-11.3407 4.08313-8.50627 2.29677-5.67184 1.02077-2.83743 .25519-.00302 0 2.83138 .25432 5.6658 1.01904 8.50023 2.29373 11.33466 4.07883 14.16905 6.37386 17.00348 9.17886 19.8379 12.49428 22.67233 16.31966 25.50676 20.65541 28.34117 25.50156 31.17558 30.85724 34.01001 36.72333"/>
<path transform="matrix(1.00002,0,0,-1.00005,43.616518,38.537126)" d="M1.99255 0C1.99255 1.10046 1.10046 1.99255 0 1.99255-1.10046 1.99255-1.99255 1.10046-1.99255 0-1.99255-1.10046-1.10046-1.99255 0-1.99255 1.10046-1.99255 1.99255-1.10046 1.99255 0ZM0 0"/>
</svg>
