<svg xmlns="http://www.w3.org/2000/svg" xmlns:xlink="http://www.w3.org/1999/xlink" xmlns:inkscape="http://www.inkscape.org/namespaces/inkscape" version="1.1" width="87" height="49" viewBox="0 0 87 49">
<path transform="matrix(1.00002,0,0,-1.00002,43.616518,24.46717)" stroke-width=".3985" stroke-linecap="butt" stroke-miterlimit="10" stroke-linejoin="miter" fill="none" stroke="#000000" d="M-42.5202 0H42.12169"/>
<path transform="matrix(1.00002,0,0,-1.00002,85.93831,24.46717)" stroke-width=".3985" stroke-linecap="round" stroke-linejoin="round" fill="none" stroke="#000000" d="M-2.07224 2.39104C-1.69365 .95639-.84999 .27895 0 0-.84999-.27895-1.69365-.95639-2.07224-2.39104"/>
<path transform="matrix(1.00002,0,0,-1.00002,43.616518,24.46717)" stroke-width=".3985" stroke-linecap="butt" stroke-miterlimit="10" stroke-linejoin="miter" fill="none" stroke="#000000" d="M-28.3468-22.67752-25.98471-17.46759-23.62262-13.12361-21.26053-9.56729-18.89844-6.71947-16.53635-4.50185-14.17426-2.83484-11.81216-1.64017-9.45007-.83954-7.088-.35423-4.72589-.10466-2.36382-.01253-.00171 0 2.36034 .01295 4.72244 .10466 7.08452 .3538 9.44661 .83911 11.8087 1.6393 14.17079 2.83269 16.53288 4.49881 18.89497 6.71558 21.25706 9.56255 23.61916 13.11757 25.98123 17.45981 28.34334 22.66844"/>
<path transform="matrix(1.00002,0,0,-1.00002,43.616518,24.46717)" d="M1.99255 0C1.99255 1.10046 1.10046 1.99255 0 1.99255-1.10046 1.99255-1.99255 1.10046-1.99255 0-1.99255-1.10046-1.10046-1.99255 0-1.99255 1.10046-1.99255 1.99255-1.10046 1.99255 0ZM0 0"/>
</svg>
