<svg xmlns="http://www.w3.org/2000/svg" xmlns:xlink="http://www.w3.org/1999/xlink" xmlns:inkscape="http://www.inkscape.org/namespaces/inkscape" version="1.1" width="275" height="21" viewBox="0 0 275 21">
<defs>
<path id="font_1_1" d="M.45999146 .31976319C.45999146 .39982606 .45498658 .47988893 .41999818 .5539398 .37399293 .65000918 .2919922 .6660156 .25 .6660156 .18998719 .6660156 .116989139 .64001467 .07598877 .54693606 .04399109 .47789 .038986207 .39982606 .038986207 .31976319 .038986207 .24472046 .042999269 .15464783 .083999637 .07859802 .1269989-.0024719239 .19999695-.022460938 .24899292-.022460938 .30299378-.022460938 .3789978-.0014648438 .4229889 .09359741 .45498658 .16265869 .45999146 .2407074 .45999146 .31976319M.24899292-.00047302247C.20999146-.00047302247 .15098572 .024551392 .1329956 .12062073 .12199402 .18066406 .12199402 .2727356 .12199402 .3317871 .12199402 .39582826 .12199402 .46188355 .12998963 .5159149 .14898682 .63500979 .22399903 .64401248 .24899292 .64401248 .28199769 .64401248 .34799195 .6259918 .36698915 .52693179 .3769989 .47088624 .3769989 .39482118 .3769989 .3317871 .3769989 .25672914 .3769989 .18867493 .3659973 .12461853 .35099793 .029556275 .2939911-.00047302247 .24899292-.00047302247Z"/>
<path id="font_1_2" d="M.2939911 .16503906V.07800293C.2939911 .041992189 .2919922 .0309906 .21798706 .0309906H.19699097V0C.23799134 .0029907227 .2899933 .0029907227 .33198548 .0029907227 .37399293 .0029907227 .4269867 .0029907227 .46798707 0V.0309906H.44699098C.37298585 .0309906 .37098695 .041992189 .37098695 .07800293V.16503906H.47099305V.19602967H.37098695V.65075686C.37098695 .67074587 .37098695 .6767578 .35499574 .6767578 .34599305 .6767578 .34298707 .6767578 .33499146 .66474917L.027999878 .19602967V.16503906H.2939911M.2999878 .19602967H.055999757L.2999878 .5688019V.19602967Z"/>
</defs>
<path transform="matrix(1.00009,0,0,-1.00006,137.27272,6.5824358)" stroke-width=".59776" stroke-linecap="butt" stroke-miterlimit="10" stroke-linejoin="miter" fill="none" stroke="#000000" d="M-135.46833 0H135.46833"/>
<path transform="matrix(-1.00009,-0,0,1.00006,1.4932861,6.5824358)" stroke-width=".59776" stroke-linecap="round" stroke-linejoin="round" fill="none" stroke="#000000" d="M-2.31136 2.751C-1.88908 1.10037-.94807 .32094 0 0-.94807-.32094-1.88908-1.10037-2.31136-2.751"/>
<path transform="matrix(1.00009,0,0,-1.00006,273.05216,6.5824358)" stroke-width=".59776" stroke-linecap="round" stroke-linejoin="round" fill="none" stroke="#000000" d="M-2.31136 2.751C-1.88908 1.10037-.94807 .32094 0 0-.94807-.32094-1.88908-1.10037-2.31136-2.751"/>
<path transform="matrix(1.00009,0,0,-1.00006,137.27272,6.5824358)" stroke-width=".3985" stroke-linecap="butt" stroke-miterlimit="10" stroke-linejoin="miter" fill="none" stroke="#000000" d="M0 2.83484V-2.83484"/>
<use data-text="0" xlink:href="#font_1_1" transform="matrix(9.963496,0,0,-9.963197,134.7815,19.3582)"/>
<path transform="matrix(1.00009,0,0,-1.00006,137.27272,6.5824358)" stroke-width=".3985" stroke-linecap="butt" stroke-miterlimit="10" stroke-linejoin="miter" fill="none" stroke="#000000" d="M68.03304 2.83484V-2.83484"/>
<use data-text="4" xlink:href="#font_1_2" transform="matrix(9.963496,0,0,-9.963197,202.82062,19.3582)"/>
<path transform="matrix(1.00009,0,0,-1.00006,137.27272,6.5824358)" stroke-width="1.99255" stroke-linecap="butt" stroke-miterlimit="10" stroke-linejoin="miter" fill="none" stroke="#ff0000" d="M68.03304 0H131.68245"/>
<path transform="matrix(1.00009,0,0,-1.00006,268.96705,6.5824358)" d="M4.38364 0-2.63017 3.50691 0 0-2.63017-3.50691" fill="#ff0000"/>
<path transform="matrix(1.00009,0,0,-1.00006,137.27272,6.5824358)" d="M72.01814 0C72.01814 2.20093 70.23398 3.9851 68.03304 3.9851 65.83209 3.9851 64.04793 2.20093 64.04793 0 64.04793-2.20093 65.83209-3.9851 68.03304-3.9851 70.23398-3.9851 72.01814-2.20093 72.01814 0ZM68.03304 0" fill="#ffffff"/>
<path transform="matrix(1.00009,0,0,-1.00006,137.27272,6.5824358)" stroke-width="1.99255" stroke-linecap="butt" stroke-miterlimit="10" stroke-linejoin="miter" fill="none" stroke="#ff0000" d="M72.01814 0C72.01814 2.20093 70.23398 3.9851 68.03304 3.9851 65.83209 3.9851 64.04793 2.20093 64.04793 0 64.04793-2.20093 65.83209-3.9851 68.03304-3.9851 70.23398-3.9851 72.01814-2.20093 72.01814 0ZM68.03304 0"/>
</svg>
