<svg xmlns="http://www.w3.org/2000/svg" xmlns:xlink="http://www.w3.org/1999/xlink" xmlns:inkscape="http://www.inkscape.org/namespaces/inkscape" version="1.1" width="87" height="49" viewBox="0 0 87 49">
<path transform="matrix(1.00002,0,0,-1.00006,43.616518,24.466507)" stroke-width=".3985" stroke-linecap="butt" stroke-miterlimit="10" stroke-linejoin="miter" fill="none" stroke="#000000" d="M-42.5202 0H42.12169"/>
<path transform="matrix(1.00002,0,0,-1.00006,85.93831,24.466507)" stroke-width=".3985" stroke-linecap="round" stroke-linejoin="round" fill="none" stroke="#000000" d="M-2.07224 2.39104C-1.69365 .95639-.84999 .27895 0 0-.84999-.27895-1.69365-.95639-2.07224-2.39104"/>
<path transform="matrix(1.00002,0,0,-1.00006,43.616518,24.466507)" stroke-width=".3985" stroke-linecap="butt" stroke-miterlimit="10" stroke-linejoin="miter" fill="none" stroke="#000000" d="M-11.33855-22.6771-10.39388-20.78775-9.4492-18.89844-8.50455-17.00911-7.55989-15.11978-6.61522-13.23045-5.67056-11.34113-4.72589-9.45181-3.78122-7.56247-2.83658-5.67316-1.8919-3.78383-.94725-1.89452-.00258-.00517 .94206 1.88412 1.8867 3.77344 2.83138 5.66278 3.77605 7.5521 4.7207 9.44142 5.66537 11.33075 6.61003 13.22008 7.55469 15.1094 8.49936 16.99872 9.44403 18.88806 10.38867 20.77737 11.33334 22.6667"/>
<path transform="matrix(1.00002,0,0,-1.00006,43.616518,24.466507)" d="M1.99255 0C1.99255 1.10046 1.10046 1.99255 0 1.99255-1.10046 1.99255-1.99255 1.10046-1.99255 0-1.99255-1.10046-1.10046-1.99255 0-1.99255 1.10046-1.99255 1.99255-1.10046 1.99255 0ZM0 0"/>
</svg>
