<svg xmlns="http://www.w3.org/2000/svg" xmlns:xlink="http://www.w3.org/1999/xlink" xmlns:inkscape="http://www.inkscape.org/namespaces/inkscape" version="1.1" width="252" height="126" viewBox="0 0 252 126">
<defs>
<path id="font_1_9" d="M.17298889 .3996582H.31599427V.43066407H.17298889V.6147156H.147995C.14698792 .5326996 .116989139 .42565919 .018997193 .42166139V.3996582H.10398865V.12416077C.10398865 .0012512207 .19699097-.0107421879 .23298645-.0107421879 .3039856-.0107421879 .33198548 .06021118 .33198548 .12416077V.18112183H.30699159V.12615967C.30699159 .052215578 .2769928 .014251709 .23999024 .014251709 .17298889 .014251709 .17298889 .10517883 .17298889 .122161868V.3996582Z"/>
<path id="font_1_2" d="M.33299256 .076156619C.33699037 .036132814 .3639984-.005859375 .41099549-.005859375 .43199159-.005859375 .49299623 .008132935 .49299623 .089157108V.14518738H.46798707V.089157108C.46798707 .031143189 .44299317 .025131226 .43199159 .025131226 .39898683 .025131226 .394989 .07015991 .394989 .075149539V.27514649C.394989 .31707765 .394989 .3560791 .35899354 .39312745 .31999208 .43223573 .269989 .4482422 .22200012 .4482422 .13999939 .4482422 .070999149 .40115357 .070999149 .335083 .070999149 .30508424 .09098816 .28808595 .116989139 .28808595 .14498902 .28808595 .16299439 .30807496 .16299439 .33407594 .16299439 .3460846 .1579895 .3790741 .11199951 .38008119 .13899231 .41519166 .18798828 .426239 .21998596 .426239 .2689972 .426239 .32598878 .38710023 .32598878 .29808045V.26123048C.2749939 .2582245 .20498657 .25523377 .14199829 .22523499 .066986087 .1912384 .041992189 .13923645 .041992189 .09524536 .041992189 .014251709 .13899231-.0107421879 .20199585-.0107421879 .2679901-.010864258 .31399537 .029129029 .33299256 .076156619M.32598878 .24023438V.1401825C.32598878 .045135499 .2539978 .011138916 .20899964 .011138916 .1599884 .011138916 .11898804 .046142579 .11898804 .09616089 .11898804 .15118408 .16099549 .23422241 .32598878 .24023438Z"/>
<path id="font_1_6" d="M.10998535 .34429933V.076034549C.10998535 .0309906 .09899902 .0309906 .03199768 .0309906V0C.066986087 .0009918213 .117996219 .0029907227 .14498902 .0029907227 .17098999 .0029907227 .22299195 .0009918213 .25698854 0V.0309906C.18998719 .0309906 .1789856 .0309906 .1789856 .076034549V.2602234C.1789856 .36431886 .25 .42037965 .31399537 .42037965 .3769989 .42037965 .3880005 .36631776 .3880005 .30926515V.076034549C.3880005 .0309906 .3769989 .0309906 .30999757 .0309906V0C.34498597 .0009918213 .3959961 .0029907227 .4229889 .0029907227 .44898988 .0029907227 .5009918 .0009918213 .5349884 0V.0309906C.48298646 .0309906 .45799256 .0309906 .45700074 .061019899V.25221253C.45700074 .3383026 .45700074 .36932374 .42599488 .405365 .4119873 .42237855 .3789978 .4423828 .32099916 .4423828 .24798584 .4423828 .20098877 .39935304 .17298889 .33729554V.4423828L.03199768 .43138124V.40037538C.101989749 .4003601 .10998535 .39335633 .10998535 .34429933Z"/>
<path id="font_2_1" d="M.33399964 .30233766C.33999635 .32835389 .36299134 .42037965 .43299867 .42037965 .43798829 .42037965 .46199037 .42037965 .48298646 .40734864 .45498658 .402359 .43499757 .37734986 .43499757 .35334779 .43499757 .33735658 .44599916 .31835938 .47299195 .31835938 .49499513 .31835938 .5269928 .3363495 .5269928 .37635804 .5269928 .42837525 .46798707 .4423828 .43399049 .4423828 .37599183 .4423828 .34098817 .38935853 .32899476 .36634828 .3039856 .43237306 .25 .4423828 .22099304 .4423828 .116989139 .4423828 .05999756 .3133545 .05999756 .28834535 .05999756 .27833558 .069992069 .27833558 .07199097 .27833558 .07998657 .27833558 .08299255 .28033448 .084991458 .28933717 .11898804 .39535523 .18499756 .42037965 .21899414 .42037965 .23799134 .42037965 .272995 .4113617 .272995 .35334779 .272995 .32235719 .2559967 .25532533 .21899414 .11528015 .20298767 .053268434 .16799927 .011245728 .12399292 .011245728 .117996219 .011245728 .09498596 .011245728 .07398987 .024276734 .09899902 .029266358 .12098694 .05027771 .12098694 .07827759 .12098694 .105270389 .09899902 .11328125 .083999637 .11328125 .053985597 .11328125 .0289917 .08728027 .0289917 .055267335 .0289917 .009246826 .07899475-.0107421879 .12298584-.0107421879 .18899536-.0107421879 .22499085 .059280397 .22799683 .0652771 .23999024 .028274537 .27598573-.0107421879 .33599855-.0107421879 .43899537-.0107421879 .49598695 .118270877 .49598695 .14328003 .49598695 .1532898 .4869995 .1532898 .48399354 .1532898 .47499085 .1532898 .47299195 .14929199 .47099305 .14228821 .43798829 .03527832 .36999513 .011245728 .33799745 .011245728 .29899598 .011245728 .2829895 .043273927 .2829895 .07727051 .2829895 .09927368 .2889862 .121276859 .2999878 .16529846L.33399964 .30233766Z"/>
<path id="font_1_1" d="M.68699648 .32714845C.70199587 .32714845 .72099307 .32714845 .72099307 .34713746 .72099307 .36714173 .70199587 .36714173 .6879883 .36714173H.08898926C.07499695 .36714173 .055999757 .36714173 .055999757 .34713746 .055999757 .32714845 .07499695 .32714845 .08999634 .32714845H.68699648M.6879883 .13284302C.70199587 .13284302 .72099307 .13284302 .72099307 .15284729 .72099307 .17285156 .70199587 .17285156 .68699648 .17285156H.08999634C.07499695 .17285156 .055999757 .17285156 .055999757 .15284729 .055999757 .13284302 .07499695 .13284302 .08898926 .13284302H.6879883Z"/>
<path id="font_3_7" d="M.3789978 .4202881C.3789978 .43728639 .3789978 .44628907 .36499024 .44628907 .3600006 .44628907 .35798646 .44628907 .34498597 .4342804 .34298707 .43328858 .33299256 .4242859 .32699586 .419281 .29699708 .4402771 .25898744 .44628907 .22200012 .44628907 .07899475 .44628907 .04499817 .37127687 .04499817 .3212738 .04499817 .28926087 .05899048 .2632599 .08299255 .24325562 .12098694 .21025086 .15899658 .20324707 .22099304 .19325257 .2709961 .18424988 .35198976 .17024231 .35198976 .10324097 .35198976 .0642395 .32499696 .018234253 .22898865 .018234253 .1329956 .018234253 .09799194 .08123779 .07998657 .14924622 .07699585 .1622467 .07598877 .1662445 .06199646 .1662445 .04499817 .1662445 .04499817 .15924073 .04499817 .13923645V.016220093C.04499817-.00077819827 .04499817-.009765625 .05899048-.009765625 .067993167-.009765625 .08699036 .011230469 .10699463 .033233644 .15098572-.0077667238 .20498657-.009765625 .22898865-.009765625 .35899354-.009765625 .40699769 .06022644 .40699769 .13124085 .40699769 .16925049 .3899994 .19924927 .3639984 .22325135 .32598878 .258255 .27999879 .26626588 .24499512 .27226258 .16499329 .28627015 .099990848 .29826356 .099990848 .35127259 .099990848 .38327027 .1269989 .422287 .22200012 .422287 .33799745 .422287 .34298707 .34127809 .34498597 .31227113 .34599305 .30126954 .35798646 .30126954 .3619995 .30126954 .3789978 .30126954 .3789978 .30827333 .3789978 .3272705V.4202881Z"/>
<path id="font_3_4" d="M.21099854 .6168213C.21099854 .645813 .18699646 .6738281 .15299988 .6738281 .12298584 .6738281 .09599304 .64982607 .09599304 .6168213 .09599304 .5808258 .125 .55882266 .15299988 .55882266 .18499756 .55882266 .21099854 .5838165 .21099854 .6168213M.05899048 .43040467V.39439393C.12199402 .39439393 .1309967 .38839723 .1309967 .3393402V.07904053C.1309967 .035995485 .12098694 .035995485 .055999757 .035995485V0C.057998659 0 .12799073 .0039978029 .16799927 .0039978029 .20298767 .0039978029 .23899842 .0029907227 .27398683 0V.035995485C.21598816 .035995485 .20599365 .035995485 .20599365 .07803345V.44140626L.05899048 .43040467Z"/>
<path id="font_3_5" d="M.5149994 .3032837C.5149994 .3903656 .47200013 .44140626 .36499024 .44140626 .2829895 .44140626 .22999573 .39637757 .20199585 .34432984H.20098877V.44140626L.053985597 .43040467V.39437867C.12098694 .39437867 .1289978 .38737489 .1289978 .33831788V.07904053C.1289978 .035995485 .11898804 .035995485 .053985597 .035995485V0C.055999757 0 .12599182 .0039978029 .16799927 .0039978029 .20498657 .0039978029 .27398683 .0009918213 .2829895 0V.035995485C.21798706 .035995485 .20799256 .035995485 .20799256 .07904053V.25923158C.20799256 .36434938 .29100038 .4133911 .35699464 .4133911 .4269867 .4133911 .43598939 .3583374 .43598939 .3072815V.07904053C.43598939 .035995485 .42599488 .035995485 .36099244 .035995485V0C.36299134 0 .43299867 .0039978029 .47499085 .0039978029 .5119934 .0039978029 .58099368 .0009918213 .58999636 0V.035995485C.5249939 .035995485 .5149994 .035995485 .5149994 .07904053V.3032837Z"/>
<path id="font_4_1" d="M.24899292 .10601807C.23899842 .072021488 .20599365 .018234253 .15499878 .018234253 .1519928 .018234253 .12199402 .018234253 .100997928 .03215027 .14199829 .04508972 .14498902 .08100891 .14498902 .087020877 .14498902 .10900879 .12799073 .12402344 .10499573 .12402344 .07699585 .12402344 .04798889 .10002136 .04798889 .0630188 .04798889 .01322937 .10398865-.009765625 .15299988-.009765625 .19898987-.009765625 .23999024 .019226075 .2649994 .061019899 .2889862 .008224487 .34399415-.009765625 .38398744-.009765625 .49899293-.009765625 .55999758 .11502075 .55999758 .14305115 .55999758 .15608216 .5469971 .15608216 .5439911 .15608216 .5299988 .15608216 .5289917 .15107727 .5249939 .13905335 .5039978 .07002258 .44400025 .018234253 .3880005 .018234253 .34799195 .018234253 .32699586 .04508972 .32699586 .08302307 .32699586 .10900879 .35099793 .20018006 .3789978 .31140138 .39898683 .38841249 .44400025 .4133911 .47698976 .4133911 .47898866 .4133911 .5099945 .4133911 .5309906 .39941407 .49899293 .39041139 .4869995 .3624115 .4869995 .34440614 .4869995 .32240296 .5039978 .30740357 .5269928 .30740357 .5499878 .30740357 .58299258 .32640077 .58299258 .3684082 .58299258 .4243927 .5189972 .44140626 .47898866 .44140626 .42900086 .44140626 .3889923 .4084015 .36698915 .3704071 .34899903 .4113922 .30299378 .44140626 .24699402 .44140626 .1349945 .44140626 .070999149 .31840516 .070999149 .2883606 .070999149 .27534486 .084991458 .27534486 .08799744 .27534486 .100997928 .27534486 .101989749 .27934266 .10699463 .29237367 .13198853 .3704071 .19499207 .4133911 .24398804 .4133911 .2769928 .4133911 .3039856 .395401 .3039856 .3474121 .3039856 .32740785 .2919922 .27734376 .2829895 .24327088L.24899292 .10601807Z"/>
<path id="font_3_3" d="M.3889923 .39941407C.37098695 .3914032 .36099244 .375412 .36099244 .3554077 .36099244 .32839967 .37998963 .30841065 .4079895 .30841065 .43499757 .30841065 .45599366 .32540895 .45599366 .35740663 .45599366 .44628907 .31698609 .44628907 .2889862 .44628907 .13899231 .44628907 .04598999 .33140565 .04598999 .21635437 .04598999 .090270999 .15299988-.009765625 .28399659-.009765625 .43299867-.009765625 .46798707 .10827637 .46798707 .120285037 .46798707 .1322937 .45498658 .1322937 .45098878 .1322937 .43798829 .1322937 .43699647 .12928772 .43199159 .11528015 .4099884 .053253175 .35699464 .022232056 .29599 .022232056 .22698975 .022232056 .13699341 .07325745 .13699341 .21734619 .13699341 .34440614 .19898987 .41427613 .2919922 .41427613 .30499269 .41427613 .35299684 .41427613 .3889923 .39941407Z"/>
<path id="font_3_6" d="M.5289917 .21325684C.5289917 .3382721 .42199708 .44628907 .28399659 .44628907 .1459961 .44628907 .038986207 .3382721 .038986207 .21325684 .038986207 .0892334 .14898682-.009765625 .28399659-.009765625 .4189911-.009765625 .5289917 .0892334 .5289917 .21325684M.28399659 .022232056C.24699402 .022232056 .19299317 .034225465 .1599884 .083236698 .1329956 .12423706 .12998963 .17625427 .12998963 .22225952 .12998963 .2652588 .1309967 .32426454 .1659851 .36727906 .19099427 .39627076 .23298645 .41827394 .28399659 .41827394 .34298707 .41827394 .3849945 .39027406 .40699769 .3592682 .43499757 .32026673 .43798829 .27026368 .43798829 .22225952 .43798829 .17424011 .43499757 .12124634 .4059906 .08023071 .3789978 .042236329 .33299256 .022232056 .28399659 .022232056Z"/>
<path id="font_1_3" d="M.116989139 .21801758C.116989139 .38093568 .19898987 .42323304 .2519989 .42323304 .26098634 .42323304 .32398988 .42222596 .35899354 .38594056 .31799317 .38293458 .31199647 .3529358 .31199647 .3399353 .31199647 .31393434 .32998658 .2939453 .35798646 .2939453 .38398744 .2939453 .4039917 .3109436 .4039917 .34094239 .4039917 .40911866 .32798768 .4482422 .25099183 .4482422 .12599182 .4482422 .033996583 .3399353 .033996583 .21601868 .033996583 .08816528 .1329956-.0107421879 .24899292-.0107421879 .3829956-.0107421879 .4149933 .10914612 .4149933 .119140628 .4149933 .12911988 .40499879 .12911988 .4019928 .12911988 .3929901 .12911988 .3909912 .12512207 .3889923 .119140628 .3600006 .026229859 .29499818 .014251709 .2579956 .014251709 .20498657 .014251709 .116989139 .0572052 .116989139 .21801758Z"/>
<path id="font_1_7" d="M.47099305 .21424866C.47099305 .34223939 .37098695 .4482422 .25 .4482422 .125 .4482422 .027999878 .3392334 .027999878 .21424866 .027999878 .085250858 .13198853-.0107421879 .24899292-.0107421879 .36999513-.0107421879 .47099305 .087249759 .47099305 .21424866M.25 .014251709C.20698548 .014251709 .16299439 .035247804 .13598633 .08125305 .11099243 .12524414 .11099243 .18624878 .11099243 .22224427 .11099243 .26124574 .11099243 .31523133 .1349945 .35923768 .1619873 .40522767 .20899964 .426239 .24899292 .426239 .29299928 .426239 .33599855 .40423585 .3619995 .36123658 .3880005 .3182373 .3880005 .26023866 .3880005 .22224427 .3880005 .18624878 .3880005 .13224793 .3659973 .08824158 .34399415 .04324341 .2999878 .014251709 .25 .014251709Z"/>
<path id="font_3_1" d="M.33499146 .63612368C.33499146 .6630554 .33299256 .6640625 .30499269 .6640625 .24099732 .6014404 .1499939 .6004486 .10899353 .6004486V.5644531C.1329956 .5644531 .19898987 .5644531 .2539978 .592453V.08203125C.2539978 .04899597 .2539978 .035995485 .1539917 .035995485H.115997318V0C.13398743 .0009918213 .25698854 .0039978029 .2939911 .0039978029 .32499696 .0039978029 .45098878 .0009918213 .47299195 0V.035995485H.43499757C.33499146 .035995485 .33499146 .04899597 .33499146 .08203125V.63612368Z"/>
<path id="font_3_8" d="M.20098877 .39465333H.35699464V.43066407H.20098877V.6147156H.16699219C.1659851 .5246887 .125 .42565919 .0289917 .4226532V.39465333H.12199402V.1250763C.12199402 .01322937 .20599365-.009765625 .2619934-.009765625 .32899476-.009765625 .375 .047195436 .375 .12606812V.1809845H.34098817V.12705994C.34098817 .059173585 .30899049 .022232056 .269989 .022232056 .20098877 .022232056 .20098877 .10609436 .20098877 .124069217V.39465333Z"/>
<path id="font_3_2" d="M.44599916 .26823426C.44599916 .32154847 .44599916 .35954286 .3999939 .3965149 .35899354 .4302826 .31098939 .44628907 .2519989 .44628907 .15699768 .44628907 .08999634 .41036988 .08999634 .34954835 .08999634 .31755067 .11199951 .30055238 .13798523 .30055238 .16499329 .30055238 .18499756 .32054139 .18499756 .34754945 .18499756 .36454774 .1769867 .38554383 .1499939 .3935547 .18598938 .41827394 .24398804 .41827394 .25 .41827394 .30599977 .41827394 .36698915 .38154603 .36698915 .29751588V.2662201C.31199647 .2642212 .24598694 .26123048 .17298889 .23422241 .08299255 .20123291 .054992677 .14622498 .054992677 .10122681 .054992677 .0152282719 .15899658-.009765625 .22999573-.009765625 .30999757-.009765625 .35699464 .035232545 .37799073 .07423401 .38198854 .033233644 .40899659-.004776001 .45498658-.004776001 .45700074-.004776001 .55400088-.004776001 .55400088 .09022522V.14523316H.519989V.0912323C.519989 .081222537 .519989 .033233644 .48298646 .033233644 .44599916 .033233644 .44599916 .08023071 .44599916 .0932312V.26823426M.36698915 .1412201C.36698915 .04522705 .2829895 .018234253 .23799134 .018234253 .18699646 .018234253 .13899231 .052230836 .13899231 .10122681 .13899231 .15621948 .18699646 .23323059 .36698915 .24023438V.1412201Z"/>
<path id="font_1_8" d="M.20799256 .19424439C.22999573 .19024658 .31199647 .17424011 .31199647 .102249149 .31199647 .051254274 .2769928 .011245728 .19898987 .011245728 .114990238 .011245728 .07899475 .06825256 .05999756 .15324402 .056991579 .1662445 .055999757 .17024231 .04598999 .17024231 .032989503 .17024231 .032989503 .16323853 .032989503 .14524842V.013244629C.032989503-.003753662 .032989503-.0107421879 .04399109-.0107421879 .04899597-.0107421879 .049987794-.009750366 .068984989 .009246826 .070999149 .011245728 .070999149 .013244629 .08898926 .03224182 .1329956-.009750366 .17799378-.0107421879 .19898987-.0107421879 .31399537-.0107421879 .3600006 .056243898 .3600006 .12825012 .3600006 .1812439 .32998658 .21124268 .31799317 .22323609 .2849884 .25523377 .24598694 .26324464 .20399475 .27124024 .147995 .28224183 .08099365 .2952423 .08099365 .35324098 .08099365 .38822938 .10699463 .42922975 .19299317 .42922975 .30299378 .42922975 .30799867 .3392334 .30999757 .3082428 .31098939 .2992401 .31999208 .2992401 .32199098 .2992401 .33499146 .2992401 .33499146 .304245 .33499146 .3232422V.4242401C.33499146 .4412384 .33499146 .4482422 .32398988 .4482422 .31900025 .4482422 .31698609 .4482422 .3039856 .43623353 .30099488 .43223573 .29100038 .42323304 .2869873 .42022706 .24899292 .4482422 .20799256 .4482422 .19299317 .4482422 .070999149 .4482422 .032989503 .38124085 .032989503 .3252411 .032989503 .29023744 .04899597 .26223756 .07598877 .24023438 .10798645 .21424866 .13598633 .2082367 .20799256 .19424439Z"/>
<path id="font_1_4" d="M.11199951 .2524414C.117996219 .40126039 .20199585 .426239 .23599243 .426239 .33898927 .426239 .34899903 .2913971 .34899903 .2524414H.11199951M.11099243 .23144531H.3899994C.4119873 .23144531 .4149933 .23144531 .4149933 .2524414 .4149933 .35131837 .36099244 .4482422 .23599243 .4482422 .11999512 .4482422 .027999878 .34532167 .027999878 .22042847 .027999878 .08631897 .1329956-.0107421879 .24798584-.0107421879 .36999513-.0107421879 .4149933 .10032654 .4149933 .11933899 .4149933 .12934876 .40699769 .13134766 .4019928 .13134766 .3929901 .13134766 .3909912 .12535095 .3889923 .11734009 .35398866 .014251709 .2639923 .014251709 .2539978 .014251709 .20399475 .014251709 .1639862 .044281007 .14099121 .08131409 .11099243 .12934876 .11099243 .19540406 .11099243 .23144531Z"/>
<path id="font_1_5" d="M.1769867 .4423828 .036987306 .43138124V.40037538C.101989749 .40037538 .11099243 .3943634 .11099243 .34532167V.076034549C.11099243 .0309906 .099990848 .0309906 .032989503 .0309906V0C.06498718 .0009918213 .11898804 .0029907227 .14299011 .0029907227 .17799378 .0029907227 .21299744 .0009918213 .24699402 0V.0309906C.18099976 .0309906 .1769867 .035995485 .1769867 .075042728V.4423828M.18099976 .6159363C.18099976 .64793398 .1559906 .6689453 .12799073 .6689453 .09700012 .6689453 .07499695 .64193728 .07499695 .6159363 .07499695 .5889435 .09700012 .5629425 .12799073 .5629425 .1559906 .5629425 .18099976 .5839386 .18099976 .6159363Z"/>
</defs>
<use data-text="t" xlink:href="#font_1_9" transform="matrix(9.962799,0,0,-9.963496,99.55983,64.06232)"/>
<use data-text="a" xlink:href="#font_1_2" transform="matrix(9.962799,0,0,-9.963496,103.4254,64.06232)"/>
<use data-text="n" xlink:href="#font_1_6" transform="matrix(9.962799,0,0,-9.963496,108.406787,64.06232)"/>
<use data-text="x" xlink:href="#font_2_1" transform="matrix(9.962799,0,0,-9.963496,115.611148,64.06232)"/>
<use data-text="=" xlink:href="#font_1_1" transform="matrix(9.962799,0,0,-9.963496,124.07231,64.06232)"/>
<use data-text="s" xlink:href="#font_3_7" transform="matrix(6.97394,0,0,-6.9744279,136.21356,60.13896)"/>
<use data-text="i" xlink:href="#font_3_4" transform="matrix(6.97394,0,0,-6.9744279,139.36579,60.13896)"/>
<use data-text="n" xlink:href="#font_3_5" transform="matrix(6.97394,0,0,-6.9744279,141.61835,60.13896)"/>
<use data-text="x" xlink:href="#font_4_1" transform="matrix(6.97394,0,0,-6.9744279,147.38578,60.13896)"/>
<path transform="matrix(1.00002,0,0,-1.00009,-117.98654,7.5782315)" stroke-width=".3985" stroke-linecap="butt" stroke-miterlimit="10" stroke-linejoin="miter" fill="none" stroke="#000000" d="M253.766-53.988H270.314"/>
<use data-text="c" xlink:href="#font_3_3" transform="matrix(6.97394,0,0,-6.9744279,135.78455,67.49863)"/>
<use data-text="o" xlink:href="#font_3_6" transform="matrix(6.97394,0,0,-6.9744279,139.32035,67.49863)"/>
<use data-text="s" xlink:href="#font_3_7" transform="matrix(6.97394,0,0,-6.9744279,143.28849,67.49863)"/>
<use data-text="x" xlink:href="#font_4_1" transform="matrix(6.97394,0,0,-6.9744279,147.81479,67.49863)"/>
<use data-text="c" xlink:href="#font_1_3" transform="matrix(9.962799,0,0,-9.963496,83.59352,120.66241)"/>
<use data-text="o" xlink:href="#font_1_7" transform="matrix(9.962799,0,0,-9.963496,88.017,120.66241)"/>
<use data-text="t" xlink:href="#font_1_9" transform="matrix(9.962799,0,0,-9.963496,92.9984,120.66241)"/>
<use data-text="x" xlink:href="#font_2_1" transform="matrix(9.962799,0,0,-9.963496,98.53781,120.66241)"/>
<use data-text="=" xlink:href="#font_1_1" transform="matrix(9.962799,0,0,-9.963496,106.99898,120.66241)"/>
<use data-text="c" xlink:href="#font_3_3" transform="matrix(6.97394,0,0,-6.9744279,118.71123,116.73905)"/>
<use data-text="o" xlink:href="#font_3_6" transform="matrix(6.97394,0,0,-6.9744279,122.24701,116.73905)"/>
<use data-text="s" xlink:href="#font_3_7" transform="matrix(6.97394,0,0,-6.9744279,126.21518,116.73905)"/>
<use data-text="x" xlink:href="#font_4_1" transform="matrix(6.97394,0,0,-6.9744279,130.74149,116.73905)"/>
<path transform="matrix(1.00002,0,0,-1.00009,-133.95285,64.17832)" stroke-width=".3985" stroke-linecap="butt" stroke-miterlimit="10" stroke-linejoin="miter" fill="none" stroke="#000000" d="M252.659-53.988H269.207"/>
<use data-text="s" xlink:href="#font_3_7" transform="matrix(6.97394,0,0,-6.9744279,119.14021,124.09872)"/>
<use data-text="i" xlink:href="#font_3_4" transform="matrix(6.97394,0,0,-6.9744279,122.29242,124.09872)"/>
<use data-text="n" xlink:href="#font_3_5" transform="matrix(6.97394,0,0,-6.9744279,124.54501,124.09872)"/>
<use data-text="x" xlink:href="#font_4_1" transform="matrix(6.97394,0,0,-6.9744279,130.31342,124.09872)"/>
<use data-text="=" xlink:href="#font_1_1" transform="matrix(9.962799,0,0,-9.963496,139.2226,120.66241)"/>
<use data-text="1" xlink:href="#font_3_1" transform="matrix(6.97394,0,0,-6.9744279,157.63095,116.73905)"/>
<path transform="matrix(1.00002,0,0,-1.00009,-133.95285,64.17832)" stroke-width=".3985" stroke-linecap="butt" stroke-miterlimit="10" stroke-linejoin="miter" fill="none" stroke="#000000" d="M284.882-53.988H302.245"/>
<use data-text="t" xlink:href="#font_3_8" transform="matrix(6.97394,0,0,-6.9744279,150.93485,124.09872)"/>
<use data-text="a" xlink:href="#font_3_2" transform="matrix(6.97394,0,0,-6.9744279,154.04523,124.09872)"/>
<use data-text="n" xlink:href="#font_3_5" transform="matrix(6.97394,0,0,-6.9744279,158.0134,124.09872)"/>
<use data-text="x" xlink:href="#font_4_1" transform="matrix(6.97394,0,0,-6.9744279,163.78009,124.09872)"/>
<use data-text="s" xlink:href="#font_1_8" transform="matrix(9.962799,0,0,-9.963496,199.57784,63.96431)"/>
<use data-text="e" xlink:href="#font_1_4" transform="matrix(9.962799,0,0,-9.963496,203.50318,63.96431)"/>
<use data-text="c" xlink:href="#font_1_3" transform="matrix(9.962799,0,0,-9.963496,207.92665,63.96431)"/>
<use data-text="x" xlink:href="#font_2_1" transform="matrix(9.962799,0,0,-9.963496,214.02411,63.96431)"/>
<use data-text="=" xlink:href="#font_1_1" transform="matrix(9.962799,0,0,-9.963496,222.48529,63.96431)"/>
<use data-text="1" xlink:href="#font_3_1" transform="matrix(6.97394,0,0,-6.9744279,240.48566,60.040956)"/>
<path transform="matrix(1.00002,0,0,-1.00009,-17.968537,7.4802229)" stroke-width=".3985" stroke-linecap="butt" stroke-miterlimit="10" stroke-linejoin="miter" fill="none" stroke="#000000" d="M252.161-53.988H268.709"/>
<use data-text="c" xlink:href="#font_3_3" transform="matrix(6.97394,0,0,-6.9744279,234.19751,67.40062)"/>
<use data-text="o" xlink:href="#font_3_6" transform="matrix(6.97394,0,0,-6.9744279,237.7333,67.40062)"/>
<use data-text="s" xlink:href="#font_3_7" transform="matrix(6.97394,0,0,-6.9744279,241.70145,67.40062)"/>
<use data-text="x" xlink:href="#font_4_1" transform="matrix(6.97394,0,0,-6.9744279,246.22776,67.40062)"/>
<use data-text="c" xlink:href="#font_1_3" transform="matrix(9.962799,0,0,-9.963496,1.5758667,63.96431)"/>
<use data-text="s" xlink:href="#font_1_8" transform="matrix(9.962799,0,0,-9.963496,5.999344,63.96431)"/>
<use data-text="c" xlink:href="#font_1_3" transform="matrix(9.962799,0,0,-9.963496,9.924683,63.96431)"/>
<use data-text="x" xlink:href="#font_2_1" transform="matrix(9.962799,0,0,-9.963496,16.02214,63.96431)"/>
<use data-text="=" xlink:href="#font_1_1" transform="matrix(9.962799,0,0,-9.963496,24.483323,63.96431)"/>
<use data-text="1" xlink:href="#font_3_1" transform="matrix(6.97394,0,0,-6.9744279,42.054674,60.040956)"/>
<path transform="matrix(1.00002,0,0,-1.00009,-215.9705,7.4802229)" stroke-width=".3985" stroke-linecap="butt" stroke-miterlimit="10" stroke-linejoin="miter" fill="none" stroke="#000000" d="M252.161-53.988H267.851"/>
<use data-text="s" xlink:href="#font_3_7" transform="matrix(6.97394,0,0,-6.9744279,36.19554,67.40062)"/>
<use data-text="i" xlink:href="#font_3_4" transform="matrix(6.97394,0,0,-6.9744279,39.347764,67.40062)"/>
<use data-text="n" xlink:href="#font_3_5" transform="matrix(6.97394,0,0,-6.9744279,41.600358,67.40062)"/>
<use data-text="x" xlink:href="#font_4_1" transform="matrix(6.97394,0,0,-6.9744279,47.367784,67.40062)"/>
<use data-text="s" xlink:href="#font_1_8" transform="matrix(9.962799,0,0,-9.963496,17.535187,8.10128)"/>
<use data-text="i" xlink:href="#font_1_5" transform="matrix(9.962799,0,0,-9.963496,21.460526,8.10128)"/>
<use data-text="n" xlink:href="#font_1_6" transform="matrix(9.962799,0,0,-9.963496,24.220215,8.10128)"/>
<use data-text="x" xlink:href="#font_2_1" transform="matrix(9.962799,0,0,-9.963496,31.428467,8.10128)"/>
<use data-text="c" xlink:href="#font_1_3" transform="matrix(9.962799,0,0,-9.963496,215.41315,6.919174)"/>
<use data-text="o" xlink:href="#font_1_7" transform="matrix(9.962799,0,0,-9.963496,219.83663,6.919174)"/>
<use data-text="s" xlink:href="#font_1_8" transform="matrix(9.962799,0,0,-9.963496,224.81803,6.919174)"/>
<use data-text="x" xlink:href="#font_2_1" transform="matrix(9.962799,0,0,-9.963496,230.41344,6.919174)"/>
<path transform="matrix(1.00002,0,0,-1.00009,126.54437,61.473085)" stroke-width=".79701" stroke-linecap="butt" stroke-miterlimit="10" stroke-linejoin="miter" fill="none" stroke="#000000" d="M-99.21382 14.37263V38.2106"/>
<path transform="matrix(0,-1.00009,-1.00002,-0,27.328568,25.724339)" d="M5.44046 0 1.28693 1.57065 2.66432 0 1.28693-1.57065Z"/>
<path transform="matrix(0,-1.00009,-1.00002,-0,27.328568,25.724339)" stroke-width=".79701" stroke-linecap="butt" stroke-miterlimit="10" stroke-linejoin="miter" fill="none" stroke="#000000" d="M5.44046 0 1.28693 1.57065 2.66432 0 1.28693-1.57065Z"/>
<path transform="matrix(1.00002,0,0,-1.00009,126.54437,61.473085)" stroke-width=".79701" stroke-linecap="butt" stroke-miterlimit="10" stroke-linejoin="miter" fill="none" stroke="#000000" d="M-25.14423 14.37263-70.50737 40.28241"/>
<path transform="matrix(-.8683174,-.49600465,-.49596993,.86837819,58.176065,22.409726)" d="M5.44046 0 1.28693 1.57065 2.66432 0 1.28693-1.57065Z"/>
<path transform="matrix(-.8683174,-.49600465,-.49596993,.86837819,58.176065,22.409726)" stroke-width=".79701" stroke-linecap="butt" stroke-miterlimit="10" stroke-linejoin="miter" fill="none" stroke="#000000" d="M5.44046 0 1.28693 1.57065 2.66432 0 1.28693-1.57065Z"/>
<path transform="matrix(1.00002,0,0,-1.00009,126.54437,61.473085)" stroke-width=".79701" stroke-linecap="butt" stroke-miterlimit="10" stroke-linejoin="miter" fill="none" stroke="#000000" d="M-12.57057-42.32097-83.94894 39.22816"/>
<path transform="matrix(-.6585932,-.7525077,-.75245508,.65863928,44.217226,24.096379)" d="M5.44046 0 1.28693 1.57065 2.66432 0 1.28693-1.57065Z"/>
<path transform="matrix(-.6585932,-.7525077,-.75245508,.65863928,44.217226,24.096379)" stroke-width=".79701" stroke-linecap="butt" stroke-miterlimit="10" stroke-linejoin="miter" fill="none" stroke="#000000" d="M5.44046 0 1.28693 1.57065 2.66432 0 1.28693-1.57065Z"/>
<path transform="matrix(1.00002,0,0,-1.00009,126.54437,61.473085)" stroke-width=".79701" stroke-linecap="butt" stroke-miterlimit="10" stroke-linejoin="miter" fill="none" stroke="#000000" d="M25.14423 14.37263 70.50737 40.28241"/>
<path transform="matrix(.8683174,-.49600465,-.49596993,-.86837819,194.91269,22.409726)" d="M5.44046 0 1.28693 1.57065 2.66432 0 1.28693-1.57065Z"/>
<path transform="matrix(.8683174,-.49600465,-.49596993,-.86837819,194.91269,22.409726)" stroke-width=".79701" stroke-linecap="butt" stroke-miterlimit="10" stroke-linejoin="miter" fill="none" stroke="#000000" d="M5.44046 0 1.28693 1.57065 2.66432 0 1.28693-1.57065Z"/>
<path transform="matrix(1.00002,0,0,-1.00009,126.54437,61.473085)" stroke-width=".79701" stroke-linecap="butt" stroke-miterlimit="10" stroke-linejoin="miter" fill="none" stroke="#000000" d="M99.21382 14.37263V38.2106"/>
<path transform="matrix(0,-1.00009,-1.00002,-0,225.76018,25.724339)" d="M5.44046 0 1.28693 1.57065 2.66432 0 1.28693-1.57065Z"/>
<path transform="matrix(0,-1.00009,-1.00002,-0,225.76018,25.724339)" stroke-width=".79701" stroke-linecap="butt" stroke-miterlimit="10" stroke-linejoin="miter" fill="none" stroke="#000000" d="M5.44046 0 1.28693 1.57065 2.66432 0 1.28693-1.57065Z"/>
<path transform="matrix(1.00002,0,0,-1.00009,126.54437,61.473085)" stroke-width=".79701" stroke-linecap="butt" stroke-miterlimit="10" stroke-linejoin="miter" fill="none" stroke="#000000" d="M12.57057-42.32097 83.94894 39.22816"/>
<path transform="matrix(.6585932,-.7525077,-.75245508,-.65863928,208.87152,24.096379)" d="M5.44046 0 1.28693 1.57065 2.66432 0 1.28693-1.57065Z"/>
<path transform="matrix(.6585932,-.7525077,-.75245508,-.65863928,208.87152,24.096379)" stroke-width=".79701" stroke-linecap="butt" stroke-miterlimit="10" stroke-linejoin="miter" fill="none" stroke="#000000" d="M5.44046 0 1.28693 1.57065 2.66432 0 1.28693-1.57065Z"/>
<path transform="matrix(1.00002,0,0,-1.00009,126.54437,61.473085)" stroke-width=".79701" stroke-linecap="butt" stroke-miterlimit="10" stroke-linejoin="miter" fill="none" stroke="#000000" d="M0-42.32097V-18.483"/>
<path transform="matrix(0,-1.00009,-1.00002,-0,126.54437,82.423038)" d="M5.44046 0 1.28693 1.57065 2.66432 0 1.28693-1.57065Z"/>
<path transform="matrix(0,-1.00009,-1.00002,-0,126.54437,82.423038)" stroke-width=".79701" stroke-linecap="butt" stroke-miterlimit="10" stroke-linejoin="miter" fill="none" stroke="#000000" d="M5.44046 0 1.28693 1.57065 2.66432 0 1.28693-1.57065Z"/>
</svg>
