<svg xmlns="http://www.w3.org/2000/svg" xmlns:xlink="http://www.w3.org/1999/xlink" xmlns:inkscape="http://www.inkscape.org/namespaces/inkscape" version="1.1" width="229" height="71" viewBox="0 0 229 71">
<defs>
<path id="font_1_57" d="M.48399354 .16503906V.19602967H.38198854V.649765C.38198854 .669754 .38198854 .6767578 .36299134 .6767578 .35099793 .6767578 .34999085 .67575076 .34098817 .6617584L.0289917 .19602967V.16503906H.3019867V.07901001C.3019867 .041992189 .29899598 .0309906 .22399903 .0309906H.20199585V0C.2649994 .0029907227 .33499146 .0029907227 .34199525 .0029907227 .34700013 .0029907227 .4189911 .0029907227 .48199464 0V.0309906H.45999146C.3849945 .0309906 .38198854 .041992189 .38198854 .07901001V.16503906H.48399354M.30799867 .19602967H.06098938L.30799867 .56581118V.19602967Z"/>
<path id="font_1_98" d="M.36999513 .12831116C.36999513 .17330933 .34999085 .20030213 .32798768 .22329712 .2939911 .25628663 .2579956 .26327516 .18399048 .2772827 .1579895 .28227235 .084991458 .29527284 .084991458 .35224916 .084991458 .38424684 .10798645 .426239 .19898987 .426239 .30699159 .426239 .31399537 .34326173 .31599427 .31826783 .31698609 .3062744 .31698609 .3002777 .32998658 .3002777 .34399415 .3002777 .34399415 .30726625 .34399415 .32626344V.4222412C.34399415 .4392395 .34399415 .4482422 .33198548 .4482422 .32699586 .4482422 .32499696 .4482422 .31199647 .43623353 .30999757 .43423463 .30099488 .42523194 .29499818 .4202423 .2639923 .44223023 .23298645 .4482422 .19898987 .4482422 .066986087 .4482422 .033996583 .37524415 .033996583 .32426454 .033996583 .29226686 .04798889 .26628114 .070999149 .24429322 .10499573 .21330261 .14299011 .20629883 .19400025 .19729615 .24499512 .18730164 .2619934 .18431092 .28399659 .16731262 .2939911 .15931702 .31900025 .14031983 .31900025 .10229492 .31900025 .014251709 .21798706 .014251709 .20399475 .014251709 .101989749 .014251709 .07598877 .0993042 .06399536 .15332031 .06098938 .16331482 .05999756 .16931153 .04798889 .16931153 .033996583 .16931153 .033996583 .16131592 .033996583 .14331055V.01524353C.033996583-.0017547608 .033996583-.0107421879 .04598999-.0107421879 .051986696-.0107421879 .052993776-.009750366 .070999149 .009246826 .07499695 .01524353 .085998538 .028259278 .09098816 .03326416 .1329956-.007751465 .1789856-.0107421879 .20399475-.0107421879 .32699586-.0107421879 .36999513 .061279298 .36999513 .12831116Z"/>
<path id="font_1_66" d="M.25299073 0V.0309906C.18798828 .0309906 .18399048 .035995485 .18399048 .075042728V.4423828L.039993287 .43066407V.3996582C.10398865 .3996582 .11299133 .3936615 .11299133 .3447113V.07695007C.11299133 .0309906 .101989749 .0309906 .035995485 .0309906V0C.08099365 .0019989014 .101989749 .0029907227 .1459961 .0029907227 .1619873 .0029907227 .20399475 .0029907227 .25299073 0M.19699097 .6028137C.19699097 .63282778 .17298889 .6568146 .14299011 .6568146 .11299133 .6568146 .08898926 .63282778 .08898926 .6028137 .08898926 .57281497 .11299133 .5488281 .14299011 .5488281 .17298889 .5488281 .19699097 .57281497 .19699097 .6028137Z"/>
<path id="font_1_47" d="M.5399933 0V.0309906C.47200013 .0309906 .46299745 .037994386 .46299745 .087020877V.69433596L.31498719 .6826172V.6516113C.3829956 .6516113 .3919983 .64463809 .3919983 .59580996V.38339234C.3869934 .38938905 .34199525 .4423828 .2639923 .4423828 .14099121 .4423828 .033996583 .3443756 .033996583 .21525574 .033996583 .09013367 .13398743-.0107421879 .25299073-.0107421879 .32598878-.0107421879 .37098695 .03224182 .3889923 .053115846V-.0107421879L.5399933 0M.3889923 .12011719C.3889923 .10211182 .3889923 .099121097 .37399293 .078125 .34298707 .033218385 .29699708 .014251709 .25698854 .014251709 .21398926 .014251709 .17399597 .038208009 .147995 .0801239 .12199402 .12312317 .11999512 .18218994 .11999512 .21421814 .11999512 .26127626 .12599182 .3143463 .1519928 .35438539 .17399597 .38638307 .21499634 .41737367 .2679901 .41737367 .30999757 .41737367 .34999085 .39637757 .3769989 .35839845 .3889923 .3423767 .3889923 .34136964 .3889923 .32235719V.12011719Z"/>
<path id="font_1_50" d="M.4269867 .11936951C.4269867 .12637329 .42199708 .13237 .41299439 .13237 .40299989 .13237 .3999939 .12536621 .39898683 .12136841 .36499024 .019256592 .27598573 .01725769 .26098634 .01725769 .21299744 .01725769 .17199707 .044281007 .14898682 .078323367 .115997318 .12736511 .114990238 .18743897 .114990238 .22949219H.3999939C.42199708 .22949219 .4269867 .22949219 .4269867 .25048829 .4269867 .35333253 .37098695 .4482422 .24299622 .4482422 .12298584 .4482422 .0289917 .3443451 .0289917 .22047425 .0289917 .08932495 .13398743-.0107421879 .2559967-.0107421879 .37799073-.0107421879 .4269867 .096343997 .4269867 .11936951M.35899354 .253479H.115997318C.125 .40725709 .21499634 .42323304 .24299622 .42323304 .2979889 .42323304 .35798646 .38130189 .35899354 .253479Z"/>
<path id="font_1_51" d="M.46998597 .16764832C.46998597 .26472474 .3959961 .3127594 .37098695 .32876588 .3600006 .33677674 .33099366 .35479737 .31900025 .36180116 .36898805 .38581849 .44198609 .43585206 .44198609 .51690676 .44198609 .6109772 .34799195 .6660156 .2579956 .6660156 .15299988 .6660156 .070999149 .5909729 .070999149 .49890138 .070999149 .46087647 .084991458 .42485047 .10899353 .39582826 .12599182 .3768158 .13198853 .37280274 .18998719 .3357849 .101989749 .29374696 .042999269 .23269654 .042999269 .15063477 .042999269 .044555665 .147995-.022460938 .2559967-.022460938 .37199403-.022460938 .46998597 .059570314 .46998597 .16764832M.3939972 .51690676C.3939972 .44685365 .33399964 .40083314 .2939911 .37780763L.17199707 .45387269C.14199829 .47288514 .11898804 .4998932 .11898804 .53692629 .11898804 .6019745 .18899536 .64100649 .25498963 .64100649 .33198548 .64100649 .3939972 .58695986 .3939972 .51690676M.41600038 .1326294C.41600038 .05357361 .33599855 .0055389406 .25698854 .0055389406 .16999817 .0055389406 .09700012 .06758118 .09700012 .15063477 .09700012 .22268677 .14698792 .28274537 .21699524 .31877137L.34298707 .2407074C.3659973 .22569275 .41600038 .19366455 .41600038 .1326294Z"/>
<path id="font_1_107" d="M.46199037 .17704773H.43399049C.43199159 .16404724 .42399598 .10501099 .41099549 .08900452 .40499879 .07998657 .33599855 .07998657 .31599427 .07998657H.13798523L.23699951 .17404175C.40098573 .3161316 .46199037 .36915589 .46199037 .4711914 .46199037 .5860901 .36698915 .6660156 .24398804 .6660156 .1289978 .6660156 .050994874 .575119 .050994874 .4841919 .050994874 .43418885 .09399414 .42919923 .102996829 .42919923 .125 .42919923 .15499878 .44519044 .15499878 .48120118 .15499878 .51119998 .13398743 .5332031 .102996829 .5332031 .09799194 .5332031 .09498596 .5332031 .09098816 .53219607 .114990238 .6030731 .1789856 .63500979 .23298645 .63500979 .33499146 .63500979 .36999513 .5401764 .36999513 .4711914 .36999513 .36915589 .29299928 .28611756 .24499512 .23408509L.06199646 .035995485C.050994874 .024993897 .050994874 .022994996 .050994874 0H.43399049L.46199037 .17704773Z"/>
<path id="font_1_121" d="M.47299195 .31976319C.47299195 .38682557 .46998597 .47288514 .43499757 .5479431 .3909912 .64201357 .31498719 .6660156 .25698854 .6660156 .19699097 .6660156 .12098694 .64201357 .07699585 .5459442 .04499817 .47688294 .039993287 .39582826 .039993287 .31976319 .039993287 .25471498 .041992189 .15765381 .084991458 .07858276 .13198853-.0064697267 .20999146-.022460938 .2559967-.022460938 .32099916-.022460938 .394989 .0055389406 .43699647 .097595218 .46699525 .1646576 .47299195 .23971558 .47299195 .31976319M.3869934 .33177186C.3869934 .2697296 .3869934 .18566895 .3769989 .12661743 .35598756 .012542725 .28199769 .002532959 .25698854 .002532959 .22698975 .002532959 .15499878 .016540528 .13598633 .12962342 .12599182 .18867493 .12599182 .2747345 .12599182 .33177186 .12599182 .39982606 .12599182 .47888185 .13798523 .53393557 .1579895 .6230011 .22200012 .64100649 .2559967 .64100649 .2939911 .64100649 .35699464 .62098696 .37599183 .5279236 .3869934 .47288514 .3869934 .39482118 .3869934 .33177186Z"/>
<path id="font_2_1" d="M.19198609 .2502594C.19198609 .2792511 .16799927 .30325318 .13899231 .30325318 .10998535 .30325318 .085998538 .2792511 .085998538 .2502594 .085998538 .22125244 .10998535 .19726563 .13899231 .19726563 .16799927 .19726563 .19198609 .22125244 .19198609 .2502594Z"/>
<path id="font_1_43" d="M.4269867 .11936951C.4269867 .13139344 .41600038 .13139344 .41299439 .13139344 .4019928 .13139344 .4019928 .12937927 .3959961 .11236572 .37298585 .043289186 .31698609 .01725769 .2659912 .01725769 .20199585 .01725769 .11999512 .06932068 .11999512 .21749878 .11999512 .3735962 .19999695 .42022706 .2599945 .42022706 .272995 .42022706 .32699586 .41825868 .3639984 .39356996 .34298707 .3895874 .32299806 .3755951 .32299806 .34658814 .32299806 .32058717 .34298707 .30059815 .36898805 .30059815 .394989 .30059815 .41600038 .31759645 .41600038 .34858705 .41600038 .4103546 .34599305 .4482422 .2579956 .4482422 .12998963 .4482422 .033996583 .3415985 .033996583 .2164917 .033996583 .08734131 .13798523-.0107421879 .2559967-.0107421879 .394989-.0107421879 .4269867 .11036682 .4269867 .11936951Z"/>
<path id="font_1_96" d="M.37298585 .3798828C.37298585 .41236878 .34298707 .4423828 .2979889 .4423828 .23799134 .4423828 .19599915 .40037538 .17298889 .33787538H.17199707V.4423828L.02999878 .43066407V.3996582C.09799194 .3996582 .10699463 .3927307 .10699463 .34387208V.07698059C.10699463 .0309906 .09599304 .0309906 .02999878 .0309906V0C.08299255 .0019989014 .09599304 .0029907227 .14698792 .0029907227L.27398683 0V.0309906H.2539978C.18099976 .0309906 .17799378 .041992189 .17799378 .07897949V.22891236C.17799378 .26989747 .18899536 .4166565 .30299378 .4166565V.4156494C.30099488 .4146576 .2849884 .40264894 .2849884 .37887574 .2849884 .35186769 .30599977 .33486939 .32899476 .33486939 .34999085 .33486939 .37298585 .34986878 .37298585 .3798828Z"/>
<path id="font_1_72" d="M.26098634 0V.0309906C.19499207 .0309906 .18399048 .0309906 .18399048 .07701111V.69433596L.035995485 .6826172V.6516113C.10398865 .6516113 .11299133 .64460757 .11299133 .5956421V.07696533C.11299133 .0309906 .101989749 .0309906 .035995485 .0309906V0C.08299255 .0019989014 .101989749 .0029907227 .147995 .0029907227 .19499207 .0029907227 .21199036 .0019989014 .26098634 0Z"/>
</defs>
<path transform="matrix(1.00003,0,0,-1.00002,2.2955018,48.770658)" stroke-width=".79701" stroke-linecap="butt" stroke-miterlimit="10" stroke-linejoin="miter" fill="none" stroke="#000000" d="M0 0H28.06241L35.85751 7.79507"/>
<path transform="matrix(1.00003,0,0,-1.00002,2.2955018,48.770658)" stroke-width=".3985" stroke-linecap="butt" stroke-dasharray="2.98883,2.98883" stroke-miterlimit="10" stroke-linejoin="miter" fill="none" stroke="#000000" d="M35.85751 7.79507H7.79507L0 0"/>
<path transform="matrix(1.00003,0,0,-1.00002,2.2955018,48.770658)" stroke-width=".79701" stroke-linecap="butt" stroke-miterlimit="10" stroke-linejoin="miter" fill="none" stroke="#000000" d="M0 0 17.92863 46.77063"/>
<path transform="matrix(1.00003,0,0,-1.00002,2.2955018,48.770658)" stroke-width=".79701" stroke-linecap="butt" stroke-miterlimit="10" stroke-linejoin="miter" fill="none" stroke="#000000" d="M28.06241 0 17.92863 46.77063"/>
<path transform="matrix(1.00003,0,0,-1.00002,2.2955018,48.770658)" stroke-width=".79701" stroke-linecap="butt" stroke-miterlimit="10" stroke-linejoin="miter" fill="none" stroke="#000000" d="M35.85751 7.79507 17.92863 46.77063"/>
<path transform="matrix(1.00003,0,0,-1.00002,2.2955018,48.770658)" stroke-width=".3985" stroke-linecap="butt" stroke-dasharray="2.98883,2.98883" stroke-miterlimit="10" stroke-linejoin="miter" fill="none" stroke="#000000" d="M7.79507 7.79507 17.92863 46.77063"/>
<use data-text="4" xlink:href="#font_1_57" transform="matrix(8.966669,0,0,-8.966579,6.8606417,69.42707)"/>
<use data-text="s" xlink:href="#font_1_98" transform="matrix(8.966669,0,0,-8.966579,14.545074,69.42707)"/>
<use data-text="i" xlink:href="#font_1_66" transform="matrix(8.966669,0,0,-8.966579,18.176583,69.42707)"/>
<use data-text="d" xlink:href="#font_1_47" transform="matrix(8.966669,0,0,-8.966579,20.74105,69.42707)"/>
<use data-text="e" xlink:href="#font_1_50" transform="matrix(8.966669,0,0,-8.966579,25.861016,69.42707)"/>
<use data-text="s" xlink:href="#font_1_98" transform="matrix(8.966669,0,0,-8.966579,29.958779,69.42707)"/>
<path transform="matrix(1.00003,0,0,-1.00002,2.2955018,48.770658)" stroke-width=".79701" stroke-linecap="butt" stroke-miterlimit="10" stroke-linejoin="miter" fill="none" stroke="#000000" d="M45.21329 23.38623H60.00711"/>
<path transform="matrix(1.00003,0,0,-1.00002,62.702928,25.383957)" stroke-width=".79701" stroke-linecap="round" stroke-linejoin="round" fill="none" stroke="#000000" d="M-2.55046 3.11095C-2.0845 1.24435-1.04614 .36295 0 0-1.04614-.36295-2.0845-1.24435-2.55046-3.11095"/>
<path transform="matrix(1.00003,0,0,-1.00002,2.2955018,48.770658)" stroke-width=".79701" stroke-linecap="butt" stroke-miterlimit="10" stroke-linejoin="miter" fill="none" stroke="#000000" d="M68.59682 2.33841 72.65045-1.5591 82.62817-3.11797 92.6059-1.5591 96.65926 2.33841"/>
<path transform="matrix(1.00003,0,0,-1.00002,2.2955018,48.770658)" stroke-width=".3985" stroke-linecap="butt" stroke-dasharray="2.98883,2.98883" stroke-miterlimit="10" stroke-linejoin="miter" fill="none" stroke="#000000" d="M96.65926 2.33841 92.6059 6.23596 82.62817 7.79507 72.65045 6.23596 68.59682 2.33841"/>
<path transform="matrix(1.00003,0,0,-1.00002,2.2955018,48.770658)" stroke-width=".79701" stroke-linecap="butt" stroke-miterlimit="10" stroke-linejoin="miter" fill="none" stroke="#000000" d="M68.59682 2.33841 82.62817 46.77063"/>
<path transform="matrix(1.00003,0,0,-1.00002,2.2955018,48.770658)" stroke-width=".79701" stroke-linecap="butt" stroke-miterlimit="10" stroke-linejoin="miter" fill="none" stroke="#000000" d="M72.65045-1.5591 82.62817 46.77063"/>
<path transform="matrix(1.00003,0,0,-1.00002,2.2955018,48.770658)" stroke-width=".79701" stroke-linecap="butt" stroke-miterlimit="10" stroke-linejoin="miter" fill="none" stroke="#000000" d="M82.62817-3.11797V46.77063"/>
<path transform="matrix(1.00003,0,0,-1.00002,2.2955018,48.770658)" stroke-width=".79701" stroke-linecap="butt" stroke-miterlimit="10" stroke-linejoin="miter" fill="none" stroke="#000000" d="M92.6059-1.5591 82.62817 46.77063"/>
<path transform="matrix(1.00003,0,0,-1.00002,2.2955018,48.770658)" stroke-width=".79701" stroke-linecap="butt" stroke-miterlimit="10" stroke-linejoin="miter" fill="none" stroke="#000000" d="M96.65926 2.33841 82.62817 46.77063"/>
<path transform="matrix(1.00003,0,0,-1.00002,2.2955018,48.770658)" stroke-width=".3985" stroke-linecap="butt" stroke-dasharray="2.98883,2.98883" stroke-miterlimit="10" stroke-linejoin="miter" fill="none" stroke="#000000" d="M92.6059 6.23596 82.62817 46.77063"/>
<path transform="matrix(1.00003,0,0,-1.00002,2.2955018,48.770658)" stroke-width=".3985" stroke-linecap="butt" stroke-dasharray="2.98883,2.98883" stroke-miterlimit="10" stroke-linejoin="miter" fill="none" stroke="#000000" d="M82.62817 7.79507V46.77063"/>
<path transform="matrix(1.00003,0,0,-1.00002,2.2955018,48.770658)" stroke-width=".3985" stroke-linecap="butt" stroke-dasharray="2.98883,2.98883" stroke-miterlimit="10" stroke-linejoin="miter" fill="none" stroke="#000000" d="M72.65045 6.23596 82.62817 46.77063"/>
<use data-text="8" xlink:href="#font_1_51" transform="matrix(8.966669,0,0,-8.966579,71.56458,69.42707)"/>
<use data-text="s" xlink:href="#font_1_98" transform="matrix(8.966669,0,0,-8.966579,79.249019,69.42707)"/>
<use data-text="i" xlink:href="#font_1_66" transform="matrix(8.966669,0,0,-8.966579,82.88052,69.42707)"/>
<use data-text="d" xlink:href="#font_1_47" transform="matrix(8.966669,0,0,-8.966579,85.44499,69.42707)"/>
<use data-text="e" xlink:href="#font_1_50" transform="matrix(8.966669,0,0,-8.966579,90.56496,69.42707)"/>
<use data-text="s" xlink:href="#font_1_98" transform="matrix(8.966669,0,0,-8.966579,94.66272,69.42707)"/>
<path transform="matrix(1.00003,0,0,-1.00002,2.2955018,48.770658)" stroke-width=".79701" stroke-linecap="butt" stroke-miterlimit="10" stroke-linejoin="miter" fill="none" stroke="#000000" d="M106.01768 23.38623H120.8115"/>
<path transform="matrix(1.00003,0,0,-1.00002,123.50914,25.383957)" stroke-width=".79701" stroke-linecap="round" stroke-linejoin="round" fill="none" stroke="#000000" d="M-2.55046 3.11095C-2.0845 1.24435-1.04614 .36295 0 0-1.04614-.36295-2.0845-1.24435-2.55046-3.11095"/>
<path transform="matrix(1.00003,0,0,-1.00002,2.2955018,48.770658)" stroke-width=".79701" stroke-linecap="butt" stroke-miterlimit="10" stroke-linejoin="miter" fill="none" stroke="#000000" d="M130.9631 2.33852 131.64992 .6523 133.64302-.86879 136.74733-2.07611 140.65885-2.85118 144.99477-3.11835 149.33069-2.85118 153.24219-2.07611 156.3465-.86879 158.33962 .6523 159.02643 2.33852"/>
<path transform="matrix(1.00003,0,0,-1.00002,2.2955018,48.770658)" stroke-width=".3985" stroke-linecap="butt" stroke-dasharray="2.98883,2.98883" stroke-miterlimit="10" stroke-linejoin="miter" fill="none" stroke="#000000" d="M159.02643 2.33852 158.33962 4.02473 156.3465 5.54584 153.24219 6.75317 149.33069 7.52824 144.99477 7.7954 140.65885 7.52824 136.74733 6.75317 133.64302 5.54584 131.64992 4.02473 130.9631 2.33852"/>
<path transform="matrix(1.00003,0,0,-1.00002,2.2955018,48.770658)" stroke-width=".79701" stroke-linecap="butt" stroke-miterlimit="10" stroke-linejoin="miter" fill="none" stroke="#000000" d="M130.9631 2.33852 144.99477 46.77248"/>
<path transform="matrix(1.00003,0,0,-1.00002,2.2955018,48.770658)" stroke-width=".79701" stroke-linecap="butt" stroke-miterlimit="10" stroke-linejoin="miter" fill="none" stroke="#000000" d="M131.64992 .6523 144.99477 46.77248"/>
<path transform="matrix(1.00003,0,0,-1.00002,2.2955018,48.770658)" stroke-width=".79701" stroke-linecap="butt" stroke-miterlimit="10" stroke-linejoin="miter" fill="none" stroke="#000000" d="M133.64302-.86879 144.99477 46.77248"/>
<path transform="matrix(1.00003,0,0,-1.00002,2.2955018,48.770658)" stroke-width=".79701" stroke-linecap="butt" stroke-miterlimit="10" stroke-linejoin="miter" fill="none" stroke="#000000" d="M136.74733-2.07611 144.99477 46.77248"/>
<path transform="matrix(1.00003,0,0,-1.00002,2.2955018,48.770658)" stroke-width=".79701" stroke-linecap="butt" stroke-miterlimit="10" stroke-linejoin="miter" fill="none" stroke="#000000" d="M140.65885-2.85118 144.99477 46.77248"/>
<path transform="matrix(1.00003,0,0,-1.00002,2.2955018,48.770658)" stroke-width=".79701" stroke-linecap="butt" stroke-miterlimit="10" stroke-linejoin="miter" fill="none" stroke="#000000" d="M144.99477-3.11835V46.77248"/>
<path transform="matrix(1.00003,0,0,-1.00002,2.2955018,48.770658)" stroke-width=".79701" stroke-linecap="butt" stroke-miterlimit="10" stroke-linejoin="miter" fill="none" stroke="#000000" d="M149.33069-2.85118 144.99477 46.77248"/>
<path transform="matrix(1.00003,0,0,-1.00002,2.2955018,48.770658)" stroke-width=".79701" stroke-linecap="butt" stroke-miterlimit="10" stroke-linejoin="miter" fill="none" stroke="#000000" d="M153.24219-2.07611 144.99477 46.77248"/>
<path transform="matrix(1.00003,0,0,-1.00002,2.2955018,48.770658)" stroke-width=".79701" stroke-linecap="butt" stroke-miterlimit="10" stroke-linejoin="miter" fill="none" stroke="#000000" d="M156.3465-.86879 144.99477 46.77248"/>
<path transform="matrix(1.00003,0,0,-1.00002,2.2955018,48.770658)" stroke-width=".79701" stroke-linecap="butt" stroke-miterlimit="10" stroke-linejoin="miter" fill="none" stroke="#000000" d="M158.33962 .6523 144.99477 46.77248"/>
<path transform="matrix(1.00003,0,0,-1.00002,2.2955018,48.770658)" stroke-width=".79701" stroke-linecap="butt" stroke-miterlimit="10" stroke-linejoin="miter" fill="none" stroke="#000000" d="M159.02643 2.33852 144.99477 46.77248"/>
<path transform="matrix(1.00003,0,0,-1.00002,2.2955018,48.770658)" stroke-width=".3985" stroke-linecap="butt" stroke-dasharray="2.98883,2.98883" stroke-miterlimit="10" stroke-linejoin="miter" fill="none" stroke="#000000" d="M158.33962 4.02473 144.99477 46.77248"/>
<path transform="matrix(1.00003,0,0,-1.00002,2.2955018,48.770658)" stroke-width=".3985" stroke-linecap="butt" stroke-dasharray="2.98883,2.98883" stroke-miterlimit="10" stroke-linejoin="miter" fill="none" stroke="#000000" d="M156.3465 5.54584 144.99477 46.77248"/>
<path transform="matrix(1.00003,0,0,-1.00002,2.2955018,48.770658)" stroke-width=".3985" stroke-linecap="butt" stroke-dasharray="2.98883,2.98883" stroke-miterlimit="10" stroke-linejoin="miter" fill="none" stroke="#000000" d="M153.24219 6.75317 144.99477 46.77248"/>
<path transform="matrix(1.00003,0,0,-1.00002,2.2955018,48.770658)" stroke-width=".3985" stroke-linecap="butt" stroke-dasharray="2.98883,2.98883" stroke-miterlimit="10" stroke-linejoin="miter" fill="none" stroke="#000000" d="M149.33069 7.52824 144.99477 46.77248"/>
<path transform="matrix(1.00003,0,0,-1.00002,2.2955018,48.770658)" stroke-width=".3985" stroke-linecap="butt" stroke-dasharray="2.98883,2.98883" stroke-miterlimit="10" stroke-linejoin="miter" fill="none" stroke="#000000" d="M144.99477 7.7954V46.77248"/>
<path transform="matrix(1.00003,0,0,-1.00002,2.2955018,48.770658)" stroke-width=".3985" stroke-linecap="butt" stroke-dasharray="2.98883,2.98883" stroke-miterlimit="10" stroke-linejoin="miter" fill="none" stroke="#000000" d="M140.65885 7.52824 144.99477 46.77248"/>
<path transform="matrix(1.00003,0,0,-1.00002,2.2955018,48.770658)" stroke-width=".3985" stroke-linecap="butt" stroke-dasharray="2.98883,2.98883" stroke-miterlimit="10" stroke-linejoin="miter" fill="none" stroke="#000000" d="M136.74733 6.75317 144.99477 46.77248"/>
<path transform="matrix(1.00003,0,0,-1.00002,2.2955018,48.770658)" stroke-width=".3985" stroke-linecap="butt" stroke-dasharray="2.98883,2.98883" stroke-miterlimit="10" stroke-linejoin="miter" fill="none" stroke="#000000" d="M133.64302 5.54584 144.99477 46.77248"/>
<path transform="matrix(1.00003,0,0,-1.00002,2.2955018,48.770658)" stroke-width=".3985" stroke-linecap="butt" stroke-dasharray="2.98883,2.98883" stroke-miterlimit="10" stroke-linejoin="miter" fill="none" stroke="#000000" d="M131.64992 4.02473 144.99477 46.77248"/>
<use data-text="2" xlink:href="#font_1_107" transform="matrix(8.966669,0,0,-8.966579,131.6254,69.42707)"/>
<use data-text="0" xlink:href="#font_1_121" transform="matrix(8.966669,0,0,-8.966579,136.23426,69.42707)"/>
<use data-text="s" xlink:href="#font_1_98" transform="matrix(8.966669,0,0,-8.966579,143.9187,69.42707)"/>
<use data-text="i" xlink:href="#font_1_66" transform="matrix(8.966669,0,0,-8.966579,147.5502,69.42707)"/>
<use data-text="d" xlink:href="#font_1_47" transform="matrix(8.966669,0,0,-8.966579,150.11467,69.42707)"/>
<use data-text="e" xlink:href="#font_1_50" transform="matrix(8.966669,0,0,-8.966579,155.23464,69.42707)"/>
<use data-text="s" xlink:href="#font_1_98" transform="matrix(8.966669,0,0,-8.966579,159.3324,69.42707)"/>
<path transform="matrix(1.00003,0,0,-1.00002,2.2955018,48.770658)" stroke-width=".79701" stroke-linecap="butt" stroke-miterlimit="10" stroke-linejoin="miter" fill="none" stroke="#000000" d="M168.38101 23.38623H190.97026"/>
<path transform="matrix(1.00003,0,0,-1.00002,193.67002,25.383957)" stroke-width=".79701" stroke-linecap="round" stroke-linejoin="round" fill="none" stroke="#000000" d="M-2.55046 3.11095C-2.0845 1.24435-1.04614 .36295 0 0-1.04614-.36295-2.0845-1.24435-2.55046-3.11095"/>
<use data-text="&#x00b7;" xlink:href="#font_2_1" transform="matrix(9.962899,0,0,-9.962799,175.73271,21.864117)"/>
<use data-text="&#x00b7;" xlink:href="#font_2_1" transform="matrix(9.962899,0,0,-9.962799,180.14627,21.864117)"/>
<use data-text="&#x00b7;" xlink:href="#font_2_1" transform="matrix(9.962899,0,0,-9.962799,184.56983,21.864117)"/>
<path transform="matrix(1.00003,0,0,-1.00002,2.2955018,48.770658)" stroke-width=".79701" stroke-linecap="butt" stroke-miterlimit="10" stroke-linejoin="miter" fill="none" stroke="#000000" d="M196.44457 0C196.44457-3.01376 202.72664-5.45686 210.4762-5.45686 218.22576-5.45686 224.50785-3.01376 224.50785 0"/>
<path transform="matrix(1.00003,0,0,-1.00002,2.2955018,48.770658)" stroke-width=".3985" stroke-linecap="butt" stroke-dasharray="2.98883,2.98883" stroke-miterlimit="10" stroke-linejoin="miter" fill="none" stroke="#000000" d="M196.44457 0C196.44457 3.01376 202.72664 5.45686 210.4762 5.45686 218.22576 5.45686 224.50785 3.01376 224.50785 0"/>
<path transform="matrix(1.00003,0,0,-1.00002,2.2955018,48.770658)" stroke-width=".79701" stroke-linecap="butt" stroke-miterlimit="10" stroke-linejoin="miter" fill="none" stroke="#000000" d="M196.44457 0 210.47621 46.77248"/>
<path transform="matrix(1.00003,0,0,-1.00002,2.2955018,48.770658)" stroke-width=".79701" stroke-linecap="butt" stroke-miterlimit="10" stroke-linejoin="miter" fill="none" stroke="#000000" d="M224.50788 0 210.47621 46.77248"/>
<use data-text="c" xlink:href="#font_1_43" transform="matrix(8.966669,0,0,-8.966579,202.26451,69.42707)"/>
<use data-text="i" xlink:href="#font_1_66" transform="matrix(8.966669,0,0,-8.966579,206.36228,69.42707)"/>
<use data-text="r" xlink:href="#font_1_96" transform="matrix(8.966669,0,0,-8.966579,208.92675,69.42707)"/>
<use data-text="c" xlink:href="#font_1_43" transform="matrix(8.966669,0,0,-8.966579,212.53134,69.42707)"/>
<use data-text="l" xlink:href="#font_1_72" transform="matrix(8.966669,0,0,-8.966579,216.62912,69.42707)"/>
<use data-text="e" xlink:href="#font_1_50" transform="matrix(8.966669,0,0,-8.966579,219.19358,69.42707)"/>
</svg>
