<svg xmlns="http://www.w3.org/2000/svg" xmlns:xlink="http://www.w3.org/1999/xlink" xmlns:inkscape="http://www.inkscape.org/namespaces/inkscape" version="1.1" width="120" height="121" viewBox="0 0 120 121">
<defs>
<path id="font_1_1" d="M.33399964 .30233766C.33999635 .32835389 .36299134 .42037965 .43299867 .42037965 .43798829 .42037965 .46199037 .42037965 .48298646 .40734864 .45498658 .402359 .43499757 .37734986 .43499757 .35334779 .43499757 .33735658 .44599916 .31835938 .47299195 .31835938 .49499513 .31835938 .5269928 .3363495 .5269928 .37635804 .5269928 .42837525 .46798707 .4423828 .43399049 .4423828 .37599183 .4423828 .34098817 .38935853 .32899476 .36634828 .3039856 .43237306 .25 .4423828 .22099304 .4423828 .116989139 .4423828 .05999756 .3133545 .05999756 .28834535 .05999756 .27833558 .069992069 .27833558 .07199097 .27833558 .07998657 .27833558 .08299255 .28033448 .084991458 .28933717 .11898804 .39535523 .18499756 .42037965 .21899414 .42037965 .23799134 .42037965 .272995 .4113617 .272995 .35334779 .272995 .32235719 .2559967 .25532533 .21899414 .11528015 .20298767 .053268434 .16799927 .011245728 .12399292 .011245728 .117996219 .011245728 .09498596 .011245728 .07398987 .024276734 .09899902 .029266358 .12098694 .05027771 .12098694 .07827759 .12098694 .105270389 .09899902 .11328125 .083999637 .11328125 .053985597 .11328125 .0289917 .08728027 .0289917 .055267335 .0289917 .009246826 .07899475-.0107421879 .12298584-.0107421879 .18899536-.0107421879 .22499085 .059280397 .22799683 .0652771 .23999024 .028274537 .27598573-.0107421879 .33599855-.0107421879 .43899537-.0107421879 .49598695 .118270877 .49598695 .14328003 .49598695 .1532898 .4869995 .1532898 .48399354 .1532898 .47499085 .1532898 .47299195 .14929199 .47099305 .14228821 .43798829 .03527832 .36999513 .011245728 .33799745 .011245728 .29899598 .011245728 .2829895 .043273927 .2829895 .07727051 .2829895 .09927368 .2889862 .121276859 .2999878 .16529846L.33399964 .30233766Z"/>
<path id="font_1_2" d="M.48599244 .38136292C.48999024 .39537049 .48999024 .39736939 .48999024 .40437318 .48999024 .42237855 .47599793 .43138124 .46099855 .43138124 .45098878 .43138124 .43499757 .42536927 .42599488 .41036988 .42399598 .405365 .41600038 .37435914 .4119873 .35635377 .40499879 .33035279 .397995 .30334474 .3919983 .27633668L.34700013 .09628296C.34298707 .08126831 .2999878 .011245728 .23399353 .011245728 .18299866 .011245728 .17199707 .055267335 .17199707 .0922699 .17199707 .1382904 .18899536 .20030213 .22299195 .28833009 .23899842 .3293457 .24299622 .3403473 .24299622 .36035157 .24299622 .405365 .21099854 .4423828 .16099549 .4423828 .06599426 .4423828 .0289917 .29733277 .0289917 .28833009 .0289917 .27833558 .038986207 .27833558 .040985109 .27833558 .050994874 .27833558 .051986696 .28033448 .056991579 .29634095 .083999637 .3903656 .12399292 .42037965 .1579895 .42037965 .1659851 .42037965 .18299866 .42037965 .18299866 .3883667 .18299866 .36335755 .17298889 .3373413 .1659851 .31834413 .12599182 .21231079 .10798645 .1552887 .10798645 .10827637 .10798645 .019256592 .17098999-.0107421879 .22999573-.0107421879 .2689972-.0107421879 .30299378 .0062561037 .33099366 .03425598 .31799317-.017745972 .30599977-.06674194 .2659912-.11973572 .23999024-.15385437 .20199585-.18309021 .1559906-.18309021 .14199829-.18309021 .09700012-.18005371 .07998657-.14074707 .09599304-.14074707 .10899353-.14074707 .12298584-.1287384 .1329956-.11973572 .14299011-.10673523 .14299011-.08773804 .14299011-.056747438 .115997318-.052734376 .10598755-.052734376 .08299255-.052734376 .049987794-.068740848 .049987794-.11773682 .049987794-.16796875 .09399414-.20507813 .1559906-.20507813 .25898744-.20507813 .3619995-.11373901 .3899994-.00074768069L.48599244 .38136292Z"/>
<path id="font_2_64" d="M.27598573 .18710327V.24511719H.010986328V.18710327H.27598573Z"/>
<path id="font_2_57" d="M.47099305 .16503906V.19602967H.37098695V.6507721C.37098695 .6707611 .37098695 .6767578 .35499574 .6767578 .34599305 .6767578 .34298707 .6767578 .33499146 .6647644L.027999878 .19602967V.16503906H.2939911V.07800293C.2939911 .041992189 .2919922 .0309906 .21798706 .0309906H.19699097V0C.23799134 .0029907227 .2899933 .0029907227 .33198548 .0029907227 .37399293 .0029907227 .4269867 .0029907227 .46798707 0V.0309906H.44699098C.37298585 .0309906 .37098695 .041992189 .37098695 .07800293V.16503906H.47099305M.2999878 .19602967H.055999757L.2999878 .56881716V.19602967Z"/>
<path id="font_2_107" d="M.44898988 .17396546H.42399598C.4189911 .14398194 .4119873 .099990848 .4019928 .084991458 .394989 .07699585 .32899476 .07699585 .30699159 .07699585H.1269989L.23298645 .17996216C.3889923 .31803895 .44898988 .37210084 .44898988 .47216798 .44898988 .5860901 .35899354 .6660156 .23699951 .6660156 .12399292 .6660156 .049987794 .57411196 .049987794 .48516847 .049987794 .4291687 .099990848 .4291687 .102996829 .4291687 .11999512 .4291687 .15499878 .44117738 .15499878 .48217774 .15499878 .5081787 .13699341 .5341797 .101989749 .5341797 .09399414 .5341797 .09199524 .5341797 .08898926 .5331726 .11199951 .59806826 .1659851 .63500979 .22399903 .63500979 .31498719 .63500979 .35798646 .5541382 .35798646 .47216798 .35798646 .39196778 .30799867 .31297303 .25299073 .25097657L.06098938 .036987306C.049987794 .025985718 .049987794 .023986817 .049987794 0H.42099L.44898988 .17396546Z"/>
<path id="font_2_101" d="M.45700074 .2036438C.45700074 .33070375 .36799623 .4267578 .25698854 .4267578 .18899536 .4267578 .1519928 .37573243 .13198853 .327713V.35173036C.13198853 .6047821 .2559967 .64100649 .30699159 .64100649 .33099366 .64100649 .37298585 .634964 .394989 .6007538 .37998963 .6007538 .33999635 .6007538 .33999635 .5557556 .33999635 .524765 .3639984 .5097656 .38598634 .5097656 .4019928 .5097656 .43199159 .51875308 .43199159 .5577545 .43199159 .6178589 .3880005 .6660156 .30499269 .6660156 .1769867 .6660156 .041992189 .5367584 .041992189 .31570436 .041992189 .048553468 .1579895-.022460938 .25099183-.022460938 .3619995-.022460938 .45700074 .07156372 .45700074 .2036438M.36698915 .20463562C.36698915 .15661621 .36698915 .10658264 .34999085 .0705719 .31999208 .010528564 .27398683 .0055389406 .25099183 .0055389406 .18798828 .0055389406 .1579895 .06556702 .1519928 .080566409 .13398743 .127594 .13398743 .2076416 .13398743 .22564698 .13398743 .30369569 .1659851 .40374757 .2559967 .40374757 .27198792 .40374757 .31799317 .40374757 .34899903 .34172059 .36698915 .30470277 .36698915 .2536621 .36698915 .20463562Z"/>
<path id="font_2_51" d="M.45700074 .16764832C.45700074 .20367432 .44599916 .24871826 .4079895 .29074098 .3889923 .31176759 .37298585 .32176209 .30899049 .36180116 .3809967 .39881898 .42999269 .4508667 .42999269 .51690676 .42999269 .6089783 .34098817 .6660156 .25 .6660156 .1499939 .6660156 .068984989 .5919647 .068984989 .49890138 .068984989 .48088075 .070999149 .43585206 .11299133 .38882447 .12399292 .3768158 .16099549 .35179139 .18598938 .33477784 .12799073 .30575563 .041992189 .24971009 .041992189 .15063477 .041992189 .044555665 .14399719-.022460938 .24899292-.022460938 .3619995-.022460938 .45700074 .060577394 .45700074 .16764832M.38598634 .51690676C.38598634 .45986939 .34700013 .41183473 .2869873 .3768158L.16299439 .4568634C.116989139 .4868927 .11299133 .5209198 .11299133 .53793337 .11299133 .5989685 .17799378 .64100649 .24899292 .64100649 .32199098 .64100649 .38598634 .588974 .38598634 .51690676M.40699769 .13162232C.40699769 .05757141 .33198548 .0055389406 .25 .0055389406 .1639862 .0055389406 .09199524 .06758118 .09199524 .15063477 .09199524 .2086792 .12399292 .2727356 .20899964 .31976319L.33198548 .24171448C.3600006 .22268677 .40699769 .19267273 .40699769 .13162232Z"/>
<clipPath id="clip_3">
<path transform="matrix(1.00008,0,0,-1.00003,39.386957,82.25308)" d="M-34.0165-34.0165V68.03302H68.03302V-34.0165ZM68.03302 68.03302"/>
</clipPath>
</defs>
<path transform="matrix(1.00008,0,0,-1.00003,39.386957,82.25308)" stroke-width=".19925" stroke-linecap="butt" stroke-miterlimit="10" stroke-linejoin="miter" fill="none" stroke="#d9d9d9" d="M-34.0165-34.0165H68.03302M-34.0165-25.51237H68.03302M-34.0165-17.00824H68.03302M-34.0165-8.50412H68.03302M-34.0165 0H68.03302M-34.0165 8.50412H68.03302M-34.0165 17.00824H68.03302M-34.0165 25.51237H68.03302M-34.0165 34.0165H68.03302M-34.0165 42.52063H68.03302M-34.0165 51.02477H68.03302M-34.0165 59.52888H68.03302M-34.0165 68.03003H68.03302M-34.0165-34.0165V68.03302M-25.51237-34.0165V68.03302M-17.00824-34.0165V68.03302M-8.50412-34.0165V68.03302M0-34.0165V68.03302M8.50412-34.0165V68.03302M17.00824-34.0165V68.03302M25.51237-34.0165V68.03302M34.0165-34.0165V68.03302M42.52063-34.0165V68.03302M51.02477-34.0165V68.03302M59.52888-34.0165V68.03302M68.03003-34.0165V68.03302M68.03302 68.03302"/>
<path transform="matrix(1.00008,0,0,-1.00003,39.386957,82.25308)" stroke-width=".3985" stroke-linecap="butt" stroke-miterlimit="10" stroke-linejoin="miter" fill="none" stroke="#000000" d="M-34.0165 0H70.18578"/>
<path transform="matrix(1.00008,0,0,-1.00003,109.77762,82.25308)" stroke-width=".3985" stroke-linecap="round" stroke-linejoin="round" fill="none" stroke="#000000" d="M-2.07224 2.39104C-1.69365 .95639-.84999 .27895 0 0-.84999-.27895-1.69365-.95639-2.07224-2.39104"/>
<use data-text="x" xlink:href="#font_1_1" transform="matrix(9.963397,0,0,-9.962899,113.49688,84.39815)"/>
<path transform="matrix(1.00008,0,0,-1.00003,39.386957,82.25308)" stroke-width=".3985" stroke-linecap="butt" stroke-miterlimit="10" stroke-linejoin="miter" fill="none" stroke="#000000" d="M0-34.0165V70.18578"/>
<path transform="matrix(0,-1.00003,-1.00008,-0,39.386957,11.865936)" stroke-width=".3985" stroke-linecap="round" stroke-linejoin="round" fill="none" stroke="#000000" d="M-2.07224 2.39104C-1.69365 .95639-.84999 .27895 0 0-.84999-.27895-1.69365-.95639-2.07224-2.39104"/>
<use data-text="y" xlink:href="#font_1_2" transform="matrix(9.963397,0,0,-9.962899,36.765748,6.2098009)"/>
<use data-text="-" xlink:href="#font_2_64" transform="matrix(9.963397,0,0,-9.962899,1.2179031,92.51839)"/>
<use data-text="4" xlink:href="#font_2_57" transform="matrix(9.963397,0,0,-9.962899,4.535713,92.51839)"/>
<use data-text="-" xlink:href="#font_2_64" transform="matrix(9.963397,0,0,-9.962899,18.227265,92.40839)"/>
<use data-text="2" xlink:href="#font_2_107" transform="matrix(9.963397,0,0,-9.962899,21.545075,92.40839)"/>
<use data-text="2" xlink:href="#font_2_107" transform="matrix(9.963397,0,0,-9.962899,53.90612,92.40839)"/>
<use data-text="4" xlink:href="#font_2_57" transform="matrix(9.963397,0,0,-9.962899,70.915477,92.51839)"/>
<use data-text="6" xlink:href="#font_2_101" transform="matrix(9.963397,0,0,-9.962899,87.924839,92.40839)"/>
<use data-text="8" xlink:href="#font_2_51" transform="matrix(9.963397,0,0,-9.962899,104.9342,92.40839)"/>
<use data-text="-" xlink:href="#font_2_64" transform="matrix(9.963397,0,0,-9.962899,27.567009,119.6432)"/>
<use data-text="4" xlink:href="#font_2_57" transform="matrix(9.963397,0,0,-9.962899,30.884819,119.6432)"/>
<use data-text="-" xlink:href="#font_2_64" transform="matrix(9.963397,0,0,-9.962899,27.567009,102.5797)"/>
<use data-text="2" xlink:href="#font_2_107" transform="matrix(9.963397,0,0,-9.962899,30.884819,102.5797)"/>
<use data-text="2" xlink:href="#font_2_107" transform="matrix(9.963397,0,0,-9.962899,30.885277,68.56167)"/>
<use data-text="4" xlink:href="#font_2_57" transform="matrix(9.963397,0,0,-9.962899,30.885277,51.608163)"/>
<use data-text="6" xlink:href="#font_2_101" transform="matrix(9.963397,0,0,-9.962899,30.885277,34.434644)"/>
<use data-text="8" xlink:href="#font_2_51" transform="matrix(9.963397,0,0,-9.962899,30.885277,17.42614)"/>
<g clip-path="url(#clip_3)">
<path transform="matrix(1.00008,0,0,-1.00003,39.386957,82.25308)" stroke-width="1.19553" stroke-linecap="butt" stroke-miterlimit="10" stroke-linejoin="miter" fill="none" stroke="#0000ff" d="M-26.15912 71.7148-25.68379 68.96745-25.00475 65.25363-24.3257 61.74225-23.64664 58.41759-22.96759 55.27293-22.28856 52.29605-21.6095 49.48137-20.93045 46.8181-20.2514 44.29683-19.57236 41.91179-18.8933 39.65546-18.21426 37.52061-17.5352 35.50073-16.85616 33.58958-16.17712 31.78108-15.49806 30.07054-14.81902 28.45135-14.13995 26.91966-13.46092 25.47008-12.78188 24.09912-12.10281 22.80162-11.42378 21.57394-10.74472 20.41269-10.06567 19.31412-9.38664 18.27382-8.70758 17.28995-8.02853 16.35904-7.34949 15.4786-6.67044 14.64552-5.9914 13.85657-5.31233 13.11095-4.6333 12.40517-3.95424 11.73727-3.27519 11.10535-2.59615 10.50752-1.9171 9.9419-1.23804 9.40675-.559 8.90028 .12001 8.4208 .79906 7.96754 1.4781 7.53894 2.15715 7.13329 2.83621 6.74881 3.51526 6.38574 4.1943 6.04135 4.87335 5.71642 5.5524 5.40863 6.23145 5.11783 6.91049 4.84221 7.58955 4.58113 8.26859 4.33458 8.94763 4.10152 9.6267 3.8804 10.30574 3.67122 10.98479 3.47386 11.66383 3.28688 12.3429 3.11 13.02193 2.94235 13.70097 2.78418 14.38004 2.63364 15.05907 2.4926 15.73813 2.35815 16.41718 2.2306 17.0962 2.11072 17.77527 1.99754 18.45432 1.88959 19.13338 1.7876 19.81241 1.69144 20.49146 1.60048 21.17052 1.51459 21.84955 1.43295 22.52861 1.3555 23.20766 1.28242 23.8867 1.21352 24.56575 1.148 25.2448 1.08598 25.92384 1.02809 26.60289 .97281 27.28195 .92014 27.961 .87082 28.64005 .82397 29.31909 .77895 29.99814 .73729 30.67719 .69733 31.35623 .65996 32.0353 .62415 32.71432 .59105 33.39337 .55875 34.07243 .5289 34.75146 .50009 35.43053 .47362 36.10957 .44818 36.78862 .42352 37.46767 .40056 38.14671 .37929 38.82578 .35892 39.5048 .33931 40.18385 .32141 40.86292 .30362 41.54195 .2874 42.22101 .2721 42.90005 .25769 43.5791 .24316 44.25815 .23044 44.93721 .21773 45.61626 .20578 46.29529 .19476 46.97435 .1845 47.6534 .17426 48.33244 .16492 49.01149 .15648 49.69054 .1479 50.36958 .13947 51.04863 .1326 51.72769 .12494 52.40672 .11821 53.08577 .11223 53.76483 .10625 54.44388 .10028 55.12292 .09431 55.80197 .08926 56.48102 .08498 57.16006 .08057 57.83913 .07616 58.51817 .07213 59.1972 .06824 59.87627 .0646 60.55531 .06111 61.23436 .05772 61.9134 .05461 62.59245 .05176 63.27151 .0489 63.95055 .04631 64.62961 .04385 65.30865 .04137 65.98769 .03917 66.66675 .0371 67.3458 .03502 66.82938 .0364"/>
<path transform="matrix(-.17042364,-.9853696,-.9854188,.17041514,13.123886,9.947151)" stroke-width="1.19553" stroke-linecap="round" stroke-linejoin="round" fill="none" stroke="#0000ff" d="M-3.02867 3.83081C-2.47534 1.53229-1.24231 .44691 0 0-1.24231-.44691-2.47534-1.53229-3.02867-3.83081"/>
<path transform="matrix(1.00005,.0026900809,.0026902152,-1,106.81946,82.218288)" stroke-width="1.19553" stroke-linecap="round" stroke-linejoin="round" fill="none" stroke="#0000ff" d="M-3.02867 3.83081C-2.47534 1.53229-1.24231 .44691 0 0-1.24231-.44691-2.47534-1.53229-3.02867-3.83081"/>
</g>
</svg>
