<svg xmlns="http://www.w3.org/2000/svg" xmlns:xlink="http://www.w3.org/1999/xlink" xmlns:inkscape="http://www.inkscape.org/namespaces/inkscape" version="1.1" width="379" height="121" viewBox="0 0 379 121">
<defs>
<path id="font_1_5" d="M.33399964 .30233766C.33999635 .32835389 .36299134 .42037965 .43299867 .42037965 .43798829 .42037965 .46199037 .42037965 .48298646 .40734864 .45498658 .402359 .43499757 .37734986 .43499757 .35334779 .43499757 .33735658 .44599916 .31835938 .47299195 .31835938 .49499513 .31835938 .5269928 .3363495 .5269928 .37635804 .5269928 .42837525 .46798707 .4423828 .43399049 .4423828 .37599183 .4423828 .34098817 .38935853 .32899476 .36634828 .3039856 .43237306 .25 .4423828 .22099304 .4423828 .116989139 .4423828 .05999756 .3133545 .05999756 .28834535 .05999756 .27833558 .069992069 .27833558 .07199097 .27833558 .07998657 .27833558 .08299255 .28033448 .084991458 .28933717 .11898804 .39535523 .18499756 .42037965 .21899414 .42037965 .23799134 .42037965 .272995 .4113617 .272995 .35334779 .272995 .32235719 .2559967 .25532533 .21899414 .11528015 .20298767 .053268434 .16799927 .011245728 .12399292 .011245728 .117996219 .011245728 .09498596 .011245728 .07398987 .024276734 .09899902 .029266358 .12098694 .05027771 .12098694 .07827759 .12098694 .105270389 .09899902 .11328125 .083999637 .11328125 .053985597 .11328125 .0289917 .08728027 .0289917 .055267335 .0289917 .009246826 .07899475-.0107421879 .12298584-.0107421879 .18899536-.0107421879 .22499085 .059280397 .22799683 .0652771 .23999024 .028274537 .27598573-.0107421879 .33599855-.0107421879 .43899537-.0107421879 .49598695 .118270877 .49598695 .14328003 .49598695 .1532898 .4869995 .1532898 .48399354 .1532898 .47499085 .1532898 .47299195 .14929199 .47099305 .14228821 .43798829 .03527832 .36999513 .011245728 .33799745 .011245728 .29899598 .011245728 .2829895 .043273927 .2829895 .07727051 .2829895 .09927368 .2889862 .121276859 .2999878 .16529846L.33399964 .30233766Z"/>
<path id="font_1_6" d="M.48599244 .38136292C.48999024 .39537049 .48999024 .39736939 .48999024 .40437318 .48999024 .42237855 .47599793 .43138124 .46099855 .43138124 .45098878 .43138124 .43499757 .42536927 .42599488 .41036988 .42399598 .405365 .41600038 .37435914 .4119873 .35635377 .40499879 .33035279 .397995 .30334474 .3919983 .27633668L.34700013 .09628296C.34298707 .08126831 .2999878 .011245728 .23399353 .011245728 .18299866 .011245728 .17199707 .055267335 .17199707 .0922699 .17199707 .1382904 .18899536 .20030213 .22299195 .28833009 .23899842 .3293457 .24299622 .3403473 .24299622 .36035157 .24299622 .405365 .21099854 .4423828 .16099549 .4423828 .06599426 .4423828 .0289917 .29733277 .0289917 .28833009 .0289917 .27833558 .038986207 .27833558 .040985109 .27833558 .050994874 .27833558 .051986696 .28033448 .056991579 .29634095 .083999637 .3903656 .12399292 .42037965 .1579895 .42037965 .1659851 .42037965 .18299866 .42037965 .18299866 .3883667 .18299866 .36335755 .17298889 .3373413 .1659851 .31834413 .12599182 .21231079 .10798645 .1552887 .10798645 .10827637 .10798645 .019256592 .17098999-.0107421879 .22999573-.0107421879 .2689972-.0107421879 .30299378 .0062561037 .33099366 .03425598 .31799317-.017745972 .30599977-.06674194 .2659912-.11973572 .23999024-.15385437 .20199585-.18309021 .1559906-.18309021 .14199829-.18309021 .09700012-.18005371 .07998657-.14074707 .09599304-.14074707 .10899353-.14074707 .12298584-.1287384 .1329956-.11973572 .14299011-.10673523 .14299011-.08773804 .14299011-.056747438 .115997318-.052734376 .10598755-.052734376 .08299255-.052734376 .049987794-.068740848 .049987794-.11773682 .049987794-.16796875 .09399414-.20507813 .1559906-.20507813 .25898744-.20507813 .3619995-.11373901 .3899994-.00074768069L.48599244 .38136292Z"/>
<path id="font_2_3" d="M.68699648 .32714845C.70199587 .32714845 .72099307 .32714845 .72099307 .34713746 .72099307 .36714173 .70199587 .36714173 .6879883 .36714173H.08898926C.07499695 .36714173 .055999757 .36714173 .055999757 .34713746 .055999757 .32714845 .07499695 .32714845 .08999634 .32714845H.68699648M.6879883 .13284302C.70199587 .13284302 .72099307 .13284302 .72099307 .15284729 .72099307 .17285156 .70199587 .17285156 .68699648 .17285156H.08999634C.07499695 .17285156 .055999757 .17285156 .055999757 .15284729 .055999757 .13284302 .07499695 .13284302 .08898926 .13284302H.6879883Z"/>
<path id="font_1_4" d="M.23899842 .68333438C.23899842 .6843262 .23899842 .69433596 .22599793 .69433596 .20298767 .69433596 .12998963 .6863251 .10398865 .6843262 .09599304 .68333438 .084991458 .6823273 .084991458 .6643219 .084991458 .6523285 .09399414 .6523285 .10899353 .6523285 .15699768 .6523285 .15899658 .6453247 .15899658 .6353302 .15899658 .6283264 .1499939 .5943451 .14498902 .573349L.06298828 .24731446C.050994874 .1973114 .04699707 .18130493 .04699707 .14628601 .04699707 .05126953 .099990848-.0107421879 .17399597-.0107421879 .2919922-.0107421879 .4149933 .1382904 .4149933 .28233338 .4149933 .37335206 .3619995 .4423828 .28199769 .4423828 .23599243 .4423828 .19499207 .41337586 .16499329 .38235475L.23899842 .68333438M.14498902 .30534364C.15098572 .3273468 .15098572 .3293457 .1599884 .3403473 .20899964 .405365 .2539978 .42037965 .27999879 .42037965 .31599427 .42037965 .34298707 .3903656 .34298707 .32633973 .34298707 .26733399 .30999757 .15229798 .2919922 .11428833 .25898744 .04725647 .21299744 .011245728 .17399597 .011245728 .13999939 .011245728 .10699463 .038253786 .10699463 .11227417 .10699463 .13128662 .10699463 .15029907 .12298584 .21331787L.14498902 .30534364Z"/>
<path id="font_3_1" d="M.24899292 .10601807C.23899842 .072021488 .20599365 .018234253 .15499878 .018234253 .1519928 .018234253 .12199402 .018234253 .100997928 .03215027 .14199829 .04508972 .14498902 .08100891 .14498902 .087020877 .14498902 .10900879 .12799073 .12402344 .10499573 .12402344 .07699585 .12402344 .04798889 .10002136 .04798889 .0630188 .04798889 .01322937 .10398865-.009765625 .15299988-.009765625 .19898987-.009765625 .23999024 .019226075 .2649994 .061019899 .2889862 .008224487 .34399415-.009765625 .38398744-.009765625 .49899293-.009765625 .55999758 .11502075 .55999758 .14305115 .55999758 .15608216 .5469971 .15608216 .5439911 .15608216 .5299988 .15608216 .5289917 .15107727 .5249939 .13905335 .5039978 .07002258 .44400025 .018234253 .3880005 .018234253 .34799195 .018234253 .32699586 .04508972 .32699586 .08302307 .32699586 .10900879 .35099793 .20018006 .3789978 .31140138 .39898683 .38841249 .44400025 .4133911 .47698976 .4133911 .47898866 .4133911 .5099945 .4133911 .5309906 .39941407 .49899293 .39041139 .4869995 .3624115 .4869995 .34440614 .4869995 .32240296 .5039978 .30740357 .5269928 .30740357 .5499878 .30740357 .58299258 .32640077 .58299258 .3684082 .58299258 .4243927 .5189972 .44140626 .47898866 .44140626 .42900086 .44140626 .3889923 .4084015 .36698915 .3704071 .34899903 .4113922 .30299378 .44140626 .24699402 .44140626 .1349945 .44140626 .070999149 .31840516 .070999149 .2883606 .070999149 .27534486 .084991458 .27534486 .08799744 .27534486 .100997928 .27534486 .101989749 .27934266 .10699463 .29237367 .13198853 .3704071 .19499207 .4133911 .24398804 .4133911 .2769928 .4133911 .3039856 .395401 .3039856 .3474121 .3039856 .32740785 .2919922 .27734376 .2829895 .24327088L.24899292 .10601807Z"/>
<path id="font_1_1" d="M.20298767 .0009918213C.20298767 .066986087 .17799378 .10598755 .13899231 .10598755 .10598755 .10598755 .085998538 .08099365 .085998538 .052993776 .085998538 .025985718 .10598755 0 .13899231 0 .15098572 0 .1639862 .0039978029 .17399597 .0129852299 .1769867 .01499939 .17799378 .015991211 .1789856 .015991211 .17999268 .015991211 .18099976 .01499939 .18099976 .0009918213 .18099976-.07316589 .1459961-.13328552 .11299133-.16635132 .101989749-.17736817 .101989749-.17936707 .101989749-.18237305 .101989749-.18936157 .10699463-.19335938 .11199951-.19335938 .12298584-.19335938 .20298767-.116256717 .20298767 .0009918213Z"/>
<path id="font_1_3" d="M.6749878 .22798157C.6859894 .23298645 .69400027 .23799134 .69400027 .24998474 .69400027 .2619934 .6859894 .2669983 .6749878 .27198792L.12098694 .53305056C.10798645 .5400543 .10598755 .5400543 .102996829 .5400543 .09199524 .5400543 .08299255 .53105166 .08299255 .52005007 .08299255 .51104739 .08799744 .50505068 .101989749 .49804688L.6269989 .24998474 .101989749 .0019378662C.08799744-.005065918 .08299255-.011062622 .08299255-.020065308 .08299255-.031066895 .09199524-.04006958 .102996829-.04006958 .10598755-.04006958 .10798645-.04006958 .12098694-.033065797L.6749878 .22798157Z"/>
<path id="font_2_2" d="M.2939911 .64004519C.2939911 .66400149 .2939911 .6660156 .2709961 .6660156 .20899964 .60227969 .12098694 .60227969 .08898926 .60227969V.57128909C.10899353 .57128909 .16799927 .57128909 .21998596 .5972748V.07902527C.21998596 .042999269 .21699524 .0309906 .1269989 .0309906H.09498596V0C.12998963 .0029907227 .21699524 .0029907227 .25698854 .0029907227 .29699708 .0029907227 .38398744 .0029907227 .4189911 0V.0309906H.3869934C.29699708 .0309906 .2939911 .041992189 .2939911 .07902527V.64004519Z"/>
<path id="font_2_1" d="M.45999146 .31976319C.45999146 .39982606 .45498658 .47988893 .41999818 .5539398 .37399293 .65000918 .2919922 .6660156 .25 .6660156 .18998719 .6660156 .116989139 .64001467 .07598877 .54693606 .04399109 .47789 .038986207 .39982606 .038986207 .31976319 .038986207 .24472046 .042999269 .15464783 .083999637 .07859802 .1269989-.0024719239 .19999695-.022460938 .24899292-.022460938 .30299378-.022460938 .3789978-.0014648438 .4229889 .09359741 .45498658 .16265869 .45999146 .2407074 .45999146 .31976319M.24899292-.00047302247C.20999146-.00047302247 .15098572 .024551392 .1329956 .12062073 .12199402 .18066406 .12199402 .2727356 .12199402 .3317871 .12199402 .39582826 .12199402 .46188355 .12998963 .5159149 .14898682 .63500979 .22399903 .64401248 .24899292 .64401248 .28199769 .64401248 .34799195 .6259918 .36698915 .52693179 .3769989 .47088624 .3769989 .39482118 .3769989 .3317871 .3769989 .25672914 .3769989 .18867493 .3659973 .12461853 .35099793 .029556275 .2939911-.00047302247 .24899292-.00047302247Z"/>
<path id="font_1_2" d="M.6749878 .49804688C.68699648 .5040436 .69400027 .50904849 .69400027 .52005007 .69400027 .53105166 .68499758 .5400543 .673996 .5400543 .67099 .5400543 .6689911 .5400543 .6559906 .53305056L.101989749 .27198792C.09098816 .2669983 .08299255 .2619934 .08299255 .24998474 .08299255 .23799134 .09098816 .23298645 .101989749 .22798157L.6559906-.033065797C.6689911-.04006958 .67099-.04006958 .673996-.04006958 .68499758-.04006958 .69400027-.031066895 .69400027-.020065308 .69400027-.009063721 .68699648-.0040740969 .6749878 .0019378662L.1499939 .24998474 .6749878 .49804688Z"/>
</defs>
<path transform="matrix(1.00005,0,0,-1.00005,69.130558,110.884899)" stroke-width=".3985" stroke-linecap="butt" stroke-miterlimit="10" stroke-linejoin="miter" fill="none" stroke="#000000" d="M-66.03964 0H66.03964"/>
<path transform="matrix(-1.00005,-0,0,1.00005,3.087616,110.884899)" d="M1.99252 0-1.19551 1.59401 0 0-1.19551-1.59401"/>
<path transform="matrix(1.00005,0,0,-1.00005,135.1735,110.884899)" d="M1.99252 0-1.19551 1.59401 0 0-1.19551-1.59401"/>
<use data-text="x" xlink:href="#font_1_5" transform="matrix(9.963098,0,0,-9.963098,140.68613,113.03)"/>
<path transform="matrix(1.00005,0,0,-1.00005,69.130558,110.884899)" stroke-width=".3985" stroke-linecap="butt" stroke-miterlimit="10" stroke-linejoin="miter" fill="none" stroke="#000000" d="M0-8.50412V97.2213"/>
<path transform="matrix(0,-1.00005,-1.00005,-0,69.130558,13.658745)" d="M1.99252 0-1.19551 1.59401 0 0-1.19551-1.59401"/>
<use data-text="y" xlink:href="#font_1_6" transform="matrix(9.963098,0,0,-9.963098,66.50942,6.2086718)"/>
<path transform="matrix(1.00005,0,0,-1.00005,69.130558,110.884899)" stroke-width=".79701" stroke-linecap="butt" stroke-miterlimit="10" stroke-linejoin="miter" fill="none" stroke="#000000" d="M-54.1483 10.28654-55.74117 9.98642-54.78871 10.16505-53.83626 10.34932-52.88382 10.53358-51.93137 10.72346-50.97891 10.91638-50.02646 11.11188-49.07402 11.31302-48.12157 11.51718-47.16911 11.72437-46.21666 11.93414-45.26422 12.14955-44.31177 12.36755-43.35931 12.5916-42.40688 12.81566-41.45442 13.04793-40.50197 13.28322-39.54953 13.52156-38.59709 13.76508-37.64464 14.01163-36.69218 14.26422-35.73973 14.51942-34.7873 14.78284-33.83484 15.04668-32.88239 15.31876-31.92993 15.5934-30.9775 15.87413-30.02504 16.16048-29.07259 16.44984-28.12015 16.74742-27.1677 17.04759-26.21524 17.35384-25.26279 17.6657-24.31035 17.98318-23.35791 18.30629-22.40546 18.63805-21.453 18.9724-20.50056 19.3128-19.54811 19.66142-18.59566 20.01265-17.6432 20.37555-16.69077 20.74149-15.73831 21.1126-14.78586 21.49237-13.83342 21.88078-12.88097 22.27483-11.92851 22.67448-10.97606 23.08281-10.02362 23.49675-9.07117 23.9189-8.11871 24.34972-7.16628 24.78917-6.21384 25.23425-5.26138 25.68797-4.30893 26.14993-3.35648 26.62054-2.40404 27.09937-1.45158 27.58725-.49913 28.08339 .45328 28.58772 1.40573 29.102 2.35818 29.62494 3.31064 30.15782 4.26308 30.70024 5.21553 31.253 6.16798 31.81445 7.12044 32.38628 8.07288 32.9689 9.02531 33.56235 9.97777 34.16573 10.93022 34.78036 11.88266 35.4058 12.83511 36.04251 13.78757 36.69046 14.74 37.35051 15.69246 38.02266 16.64491 38.70564 17.59737 39.40202 18.5498 40.11096 19.50226 40.83287 20.45471 41.56688 21.40717 42.31474 22.3596 43.07558 23.31206 43.85025 24.26451 44.63834 25.21695 45.44112 26.16939 46.25906 27.12184 47.09126 28.0743 47.93817 29.02675 48.79979 29.97919 49.67784 30.93164 50.57103 31.8841 51.48065 32.83653 52.40671 33.78899 53.35008 34.74144 54.30904 35.6939 55.28569 36.64633 56.2788 37.59879 57.29181 38.55124 58.32169 39.5037 59.37144 40.45613 60.43895 41.40857 61.52592 42.36102 62.63322 43.31348 63.75868 44.26591 64.90576 45.21837 66.07275 46.17082 67.26137 47.12326 68.47205 48.07571 69.70175 49.02817 70.95697 49.98062 72.23253 50.93306 73.53145 51.88551 74.85371 52.83797 76.20107 53.79042 77.5705 54.74286 78.9663 55.69531 80.3863 55.22343 79.6694"/>
<path transform="matrix(-.98269906,.18517925,.18517925,.98269906,14.9795689,100.59784)" d="M2.59026 0-1.55415 2.0722 0 0-1.55415-2.0722"/>
<path transform="matrix(.5499075,-.8352117,-.8352117,-.5499075,124.35674,31.21151)" d="M2.59026 0-1.55415 2.0722 0 0-1.55415-2.0722"/>
<use data-text="y" xlink:href="#font_1_6" transform="matrix(9.963098,0,0,-9.963098,98.164,14.713089)"/>
<use data-text="=" xlink:href="#font_2_3" transform="matrix(9.963098,0,0,-9.963098,106.1734,14.713089)"/>
<use data-text="b" xlink:href="#font_1_4" transform="matrix(9.963098,0,0,-9.963098,116.69092,14.713089)"/>
<use data-text="x" xlink:href="#font_3_1" transform="matrix(6.9741489,0,0,-6.9741489,120.966129,11.097908)"/>
<use data-text="," xlink:href="#font_1_1" transform="matrix(9.963098,0,0,-9.963098,125.98239,14.713089)"/>
<use data-text="b" xlink:href="#font_1_4" transform="matrix(9.963098,0,0,-9.963098,133.71376,14.713089)"/>
<use data-text="&#x003e;" xlink:href="#font_1_3" transform="matrix(9.963098,0,0,-9.963098,140.75768,14.713089)"/>
<use data-text="1" xlink:href="#font_2_2" transform="matrix(9.963098,0,0,-9.963098,151.28865,14.713089)"/>
<path transform="matrix(1.00005,0,0,-1.00005,69.130558,110.884899)" stroke-width=".3985" stroke-linecap="butt" stroke-miterlimit="10" stroke-linejoin="miter" fill="none" stroke="#000000" d="M138.05738 0H270.13667"/>
<path transform="matrix(-1.00005,-0,0,1.00005,207.19483,110.884899)" d="M1.99252 0-1.19551 1.59401 0 0-1.19551-1.59401"/>
<path transform="matrix(1.00005,0,0,-1.00005,339.2807,110.884899)" d="M1.99252 0-1.19551 1.59401 0 0-1.19551-1.59401"/>
<use data-text="x" xlink:href="#font_1_5" transform="matrix(9.963098,0,0,-9.963098,344.7933,113.03)"/>
<path transform="matrix(1.00005,0,0,-1.00005,69.130558,110.884899)" stroke-width=".3985" stroke-linecap="butt" stroke-miterlimit="10" stroke-linejoin="miter" fill="none" stroke="#000000" d="M204.09702-8.50412V97.2213"/>
<path transform="matrix(0,-1.00005,-1.00005,-0,273.23777,13.658745)" d="M1.99252 0-1.19551 1.59401 0 0-1.19551-1.59401"/>
<use data-text="y" xlink:href="#font_1_6" transform="matrix(9.963098,0,0,-9.963098,270.61665,6.2086718)"/>
<path transform="matrix(1.00005,0,0,-1.00005,69.130558,110.884899)" stroke-width=".79701" stroke-linecap="butt" stroke-miterlimit="10" stroke-linejoin="miter" fill="none" stroke="#000000" d="M148.90384 76.62274 148.35584 77.39401 149.30829 76.07649 150.26074 74.78148 151.2132 73.50894 152.16564 72.25978 153.11809 71.02922 154.07054 69.82112 155.023 68.63295 155.97544 67.46468 156.92789 66.31715 157.88034 65.18864 158.83278 64.07877 159.78524 62.98833 160.73769 61.91693 161.69014 60.8637 162.64258 59.82822 163.59503 58.80914 164.54747 57.80869 165.49993 56.82509 166.45236 55.85881 167.40482 54.90765 168.35727 53.97295 169.30973 53.05467 170.26216 52.15239 171.21462 51.26439 172.16707 50.39153 173.1195 49.53467 174.07196 48.69165 175.02442 47.86377 175.97687 47.04887 176.9293 46.24825 177.88176 45.46103 178.83422 44.68721 179.78667 43.92725 180.73909 43.18068 181.69155 42.44493 182.644 41.7226 183.59645 41.01324 184.54889 40.31512 185.50135 39.62955 186.4538 38.95436 187.40624 38.2917 188.35869 37.64075 189.31114 36.99973 190.2636 36.3708 191.21604 35.75142 192.16849 35.14284 193.12094 34.5455 194.0734 33.95724 195.02584 33.37936 195.97829 32.81187 196.93073 32.25304 197.88318 31.70459 198.83562 31.16522 199.78807 30.63493 200.74053 30.11328 201.69298 29.60115 202.64542 29.09767 203.59787 28.60242 204.55031 28.11452 205.50275 27.63527 206.4552 27.1677 207.40766 26.7053 208.3601 26.249 209.31255 25.80391 210.265 25.36487 211.21746 24.93364 212.1699 24.50845 213.12233 24.09192 214.07479 23.68102 215.02724 23.2783 215.97969 22.88168 216.93213 22.49327 217.88459 22.11046 218.83704 21.73329 219.78948 21.36476 220.74193 20.99928 221.69438 20.642 222.64684 20.29077 223.59928 19.94777 224.55173 19.60736 225.50418 19.27301 226.45664 18.94429 227.40908 18.62376 228.36153 18.30629 229.31397 17.99443 230.26642 17.68819 231.21886 17.38802 232.17131 17.09042 233.12377 16.80106 234.0762 16.51472 235.02866 16.23401 235.98111 15.95631 236.93357 15.68727 237.886 15.4178 238.83846 15.15698 239.79091 14.8992 240.74337 14.644 241.6958 14.39441 242.64826 14.1509 243.60071 13.90997 244.55316 13.67467 245.50559 13.43938 246.45804 13.2123 247.41049 12.98866 248.36293 12.76721 249.31539 12.54921 250.26784 12.3364 251.22029 12.12663 252.17273 11.91986 253.12519 11.71571 254.07764 11.51718 255.03009 11.32167 255.98253 11.12875 256.93498 10.93886 257.88746 10.75201 258.8399 10.57036 259.79234 10.38911 258.19758 10.68307"/>
<path transform="matrix(-.5792989,-.8151207,-.8151207,.5792989,218.04183,34.25834)" d="M2.59026 0-1.55415 2.0722 0 0-1.55415-2.0722"/>
<path transform="matrix(.98342916,.18129906,.18129906,-.98342916,327.34104,100.20127)" d="M2.59026 0-1.55415 2.0722 0 0-1.55415-2.0722"/>
<use data-text="y" xlink:href="#font_1_6" transform="matrix(9.963098,0,0,-9.963098,302.27119,48.73079)"/>
<use data-text="=" xlink:href="#font_2_3" transform="matrix(9.963098,0,0,-9.963098,310.28059,48.73079)"/>
<use data-text="b" xlink:href="#font_1_4" transform="matrix(9.963098,0,0,-9.963098,320.7981,48.73079)"/>
<use data-text="x" xlink:href="#font_3_1" transform="matrix(6.9741489,0,0,-6.9741489,325.0733,45.11561)"/>
<use data-text="," xlink:href="#font_1_1" transform="matrix(9.963098,0,0,-9.963098,330.0896,48.73079)"/>
<use data-text="0" xlink:href="#font_2_1" transform="matrix(9.963098,0,0,-9.963098,337.83497,48.73079)"/>
<use data-text="&#x003c;" xlink:href="#font_1_2" transform="matrix(9.963098,0,0,-9.963098,345.58436,48.73079)"/>
<use data-text="b" xlink:href="#font_1_4" transform="matrix(9.963098,0,0,-9.963098,356.08546,48.73079)"/>
<use data-text="&#x003c;" xlink:href="#font_1_2" transform="matrix(9.963098,0,0,-9.963098,363.12937,48.73079)"/>
<use data-text="1" xlink:href="#font_2_2" transform="matrix(9.963098,0,0,-9.963098,373.66075,48.73079)"/>
</svg>
