<svg xmlns="http://www.w3.org/2000/svg" xmlns:xlink="http://www.w3.org/1999/xlink" xmlns:inkscape="http://www.inkscape.org/namespaces/inkscape" version="1.1" width="86" height="121" viewBox="0 0 86 121">
<defs>
<path id="font_1_1" d="M.33399964 .30233766C.33999635 .32835389 .36299134 .42037965 .43299867 .42037965 .43798829 .42037965 .46199037 .42037965 .48298646 .40734864 .45498658 .402359 .43499757 .37734986 .43499757 .35334779 .43499757 .33735658 .44599916 .31835938 .47299195 .31835938 .49499513 .31835938 .5269928 .3363495 .5269928 .37635804 .5269928 .42837525 .46798707 .4423828 .43399049 .4423828 .37599183 .4423828 .34098817 .38935853 .32899476 .36634828 .3039856 .43237306 .25 .4423828 .22099304 .4423828 .116989139 .4423828 .05999756 .3133545 .05999756 .28834535 .05999756 .27833558 .069992069 .27833558 .07199097 .27833558 .07998657 .27833558 .08299255 .28033448 .084991458 .28933717 .11898804 .39535523 .18499756 .42037965 .21899414 .42037965 .23799134 .42037965 .272995 .4113617 .272995 .35334779 .272995 .32235719 .2559967 .25532533 .21899414 .11528015 .20298767 .053268434 .16799927 .011245728 .12399292 .011245728 .117996219 .011245728 .09498596 .011245728 .07398987 .024276734 .09899902 .029266358 .12098694 .05027771 .12098694 .07827759 .12098694 .105270389 .09899902 .11328125 .083999637 .11328125 .053985597 .11328125 .0289917 .08728027 .0289917 .055267335 .0289917 .009246826 .07899475-.0107421879 .12298584-.0107421879 .18899536-.0107421879 .22499085 .059280397 .22799683 .0652771 .23999024 .028274537 .27598573-.0107421879 .33599855-.0107421879 .43899537-.0107421879 .49598695 .118270877 .49598695 .14328003 .49598695 .1532898 .4869995 .1532898 .48399354 .1532898 .47499085 .1532898 .47299195 .14929199 .47099305 .14228821 .43798829 .03527832 .36999513 .011245728 .33799745 .011245728 .29899598 .011245728 .2829895 .043273927 .2829895 .07727051 .2829895 .09927368 .2889862 .121276859 .2999878 .16529846L.33399964 .30233766Z"/>
<path id="font_1_2" d="M.48599244 .38136292C.48999024 .39537049 .48999024 .39736939 .48999024 .40437318 .48999024 .42237855 .47599793 .43138124 .46099855 .43138124 .45098878 .43138124 .43499757 .42536927 .42599488 .41036988 .42399598 .405365 .41600038 .37435914 .4119873 .35635377 .40499879 .33035279 .397995 .30334474 .3919983 .27633668L.34700013 .09628296C.34298707 .08126831 .2999878 .011245728 .23399353 .011245728 .18299866 .011245728 .17199707 .055267335 .17199707 .0922699 .17199707 .1382904 .18899536 .20030213 .22299195 .28833009 .23899842 .3293457 .24299622 .3403473 .24299622 .36035157 .24299622 .405365 .21099854 .4423828 .16099549 .4423828 .06599426 .4423828 .0289917 .29733277 .0289917 .28833009 .0289917 .27833558 .038986207 .27833558 .040985109 .27833558 .050994874 .27833558 .051986696 .28033448 .056991579 .29634095 .083999637 .3903656 .12399292 .42037965 .1579895 .42037965 .1659851 .42037965 .18299866 .42037965 .18299866 .3883667 .18299866 .36335755 .17298889 .3373413 .1659851 .31834413 .12599182 .21231079 .10798645 .1552887 .10798645 .10827637 .10798645 .019256592 .17098999-.0107421879 .22999573-.0107421879 .2689972-.0107421879 .30299378 .0062561037 .33099366 .03425598 .31799317-.017745972 .30599977-.06674194 .2659912-.11973572 .23999024-.15385437 .20199585-.18309021 .1559906-.18309021 .14199829-.18309021 .09700012-.18005371 .07998657-.14074707 .09599304-.14074707 .10899353-.14074707 .12298584-.1287384 .1329956-.11973572 .14299011-.10673523 .14299011-.08773804 .14299011-.056747438 .115997318-.052734376 .10598755-.052734376 .08299255-.052734376 .049987794-.068740848 .049987794-.11773682 .049987794-.16796875 .09399414-.20507813 .1559906-.20507813 .25898744-.20507813 .3619995-.11373901 .3899994-.00074768069L.48599244 .38136292Z"/>
<path id="font_2_64" d="M.27598573 .18710327V.24511719H.010986328V.18710327H.27598573Z"/>
<path id="font_2_57" d="M.47099305 .16503906V.19602967H.37098695V.6507721C.37098695 .6707611 .37098695 .6767578 .35499574 .6767578 .34599305 .6767578 .34298707 .6767578 .33499146 .6647644L.027999878 .19602967V.16503906H.2939911V.07800293C.2939911 .041992189 .2919922 .0309906 .21798706 .0309906H.19699097V0C.23799134 .0029907227 .2899933 .0029907227 .33198548 .0029907227 .37399293 .0029907227 .4269867 .0029907227 .46798707 0V.0309906H.44699098C.37298585 .0309906 .37098695 .041992189 .37098695 .07800293V.16503906H.47099305M.2999878 .19602967H.055999757L.2999878 .56881716V.19602967Z"/>
<path id="font_2_107" d="M.44898988 .17396546H.42399598C.4189911 .14398194 .4119873 .099990848 .4019928 .084991458 .394989 .07699585 .32899476 .07699585 .30699159 .07699585H.1269989L.23298645 .17996216C.3889923 .31803895 .44898988 .37210084 .44898988 .47216798 .44898988 .5860901 .35899354 .6660156 .23699951 .6660156 .12399292 .6660156 .049987794 .57411196 .049987794 .48516847 .049987794 .4291687 .099990848 .4291687 .102996829 .4291687 .11999512 .4291687 .15499878 .44117738 .15499878 .48217774 .15499878 .5081787 .13699341 .5341797 .101989749 .5341797 .09399414 .5341797 .09199524 .5341797 .08898926 .5331726 .11199951 .59806826 .1659851 .63500979 .22399903 .63500979 .31498719 .63500979 .35798646 .5541382 .35798646 .47216798 .35798646 .39196778 .30799867 .31297303 .25299073 .25097657L.06098938 .036987306C.049987794 .025985718 .049987794 .023986817 .049987794 0H.42099L.44898988 .17396546Z"/>
<path id="font_2_101" d="M.45700074 .2036438C.45700074 .33070375 .36799623 .4267578 .25698854 .4267578 .18899536 .4267578 .1519928 .37573243 .13198853 .327713V.35173036C.13198853 .6047821 .2559967 .64100649 .30699159 .64100649 .33099366 .64100649 .37298585 .634964 .394989 .6007538 .37998963 .6007538 .33999635 .6007538 .33999635 .5557556 .33999635 .524765 .3639984 .5097656 .38598634 .5097656 .4019928 .5097656 .43199159 .51875308 .43199159 .5577545 .43199159 .6178589 .3880005 .6660156 .30499269 .6660156 .1769867 .6660156 .041992189 .5367584 .041992189 .31570436 .041992189 .048553468 .1579895-.022460938 .25099183-.022460938 .3619995-.022460938 .45700074 .07156372 .45700074 .2036438M.36698915 .20463562C.36698915 .15661621 .36698915 .10658264 .34999085 .0705719 .31999208 .010528564 .27398683 .0055389406 .25099183 .0055389406 .18798828 .0055389406 .1579895 .06556702 .1519928 .080566409 .13398743 .127594 .13398743 .2076416 .13398743 .22564698 .13398743 .30369569 .1659851 .40374757 .2559967 .40374757 .27198792 .40374757 .31799317 .40374757 .34899903 .34172059 .36698915 .30470277 .36698915 .2536621 .36698915 .20463562Z"/>
<path id="font_2_51" d="M.45700074 .16764832C.45700074 .20367432 .44599916 .24871826 .4079895 .29074098 .3889923 .31176759 .37298585 .32176209 .30899049 .36180116 .3809967 .39881898 .42999269 .4508667 .42999269 .51690676 .42999269 .6089783 .34098817 .6660156 .25 .6660156 .1499939 .6660156 .068984989 .5919647 .068984989 .49890138 .068984989 .48088075 .070999149 .43585206 .11299133 .38882447 .12399292 .3768158 .16099549 .35179139 .18598938 .33477784 .12799073 .30575563 .041992189 .24971009 .041992189 .15063477 .041992189 .044555665 .14399719-.022460938 .24899292-.022460938 .3619995-.022460938 .45700074 .060577394 .45700074 .16764832M.38598634 .51690676C.38598634 .45986939 .34700013 .41183473 .2869873 .3768158L.16299439 .4568634C.116989139 .4868927 .11299133 .5209198 .11299133 .53793337 .11299133 .5989685 .17799378 .64100649 .24899292 .64100649 .32199098 .64100649 .38598634 .588974 .38598634 .51690676M.40699769 .13162232C.40699769 .05757141 .33198548 .0055389406 .25 .0055389406 .1639862 .0055389406 .09199524 .06758118 .09199524 .15063477 .09199524 .2086792 .12399292 .2727356 .20899964 .31976319L.33198548 .24171448C.3600006 .22268677 .40699769 .19267273 .40699769 .13162232Z"/>
<clipPath id="clip_3">
<path transform="matrix(1.00008,0,0,-1.00003,39.386957,82.25308)" d="M-34.0165-34.0165V68.03302H34.0165V-34.0165ZM34.0165 68.03302"/>
</clipPath>
</defs>
<path transform="matrix(1.00008,0,0,-1.00003,39.386957,82.25308)" stroke-width=".19925" stroke-linecap="butt" stroke-miterlimit="10" stroke-linejoin="miter" fill="none" stroke="#d9d9d9" d="M-34.0165-34.0165H34.0165M-34.0165-25.51237H34.0165M-34.0165-17.00824H34.0165M-34.0165-8.50412H34.0165M-34.0165 0H34.0165M-34.0165 8.50412H34.0165M-34.0165 17.00824H34.0165M-34.0165 25.51237H34.0165M-34.0165 34.0165H34.0165M-34.0165 42.52063H34.0165M-34.0165 51.02477H34.0165M-34.0165 59.52888H34.0165M-34.0165 68.03003H34.0165M-34.0165-34.0165V68.03302M-25.51237-34.0165V68.03302M-17.00824-34.0165V68.03302M-8.50412-34.0165V68.03302M0-34.0165V68.03302M8.50412-34.0165V68.03302M17.00824-34.0165V68.03302M25.51237-34.0165V68.03302M34.01352-34.0165V68.03302M34.0165 68.03302"/>
<path transform="matrix(1.00008,0,0,-1.00003,39.386957,82.25308)" stroke-width=".3985" stroke-linecap="butt" stroke-miterlimit="10" stroke-linejoin="miter" fill="none" stroke="#000000" d="M-34.0165 0H36.16925"/>
<path transform="matrix(1.00008,0,0,-1.00003,75.75836,82.25308)" stroke-width=".3985" stroke-linecap="round" stroke-linejoin="round" fill="none" stroke="#000000" d="M-2.07224 2.39104C-1.69365 .95639-.84999 .27895 0 0-.84999-.27895-1.69365-.95639-2.07224-2.39104"/>
<use data-text="x" xlink:href="#font_1_1" transform="matrix(9.963397,0,0,-9.962899,79.478168,84.39815)"/>
<path transform="matrix(1.00008,0,0,-1.00003,39.386957,82.25308)" stroke-width=".3985" stroke-linecap="butt" stroke-miterlimit="10" stroke-linejoin="miter" fill="none" stroke="#000000" d="M0-34.0165V70.18578"/>
<path transform="matrix(0,-1.00003,-1.00008,-0,39.386957,11.865936)" stroke-width=".3985" stroke-linecap="round" stroke-linejoin="round" fill="none" stroke="#000000" d="M-2.07224 2.39104C-1.69365 .95639-.84999 .27895 0 0-.84999-.27895-1.69365-.95639-2.07224-2.39104"/>
<use data-text="y" xlink:href="#font_1_2" transform="matrix(9.963397,0,0,-9.962899,36.765748,6.2098009)"/>
<use data-text="-" xlink:href="#font_2_64" transform="matrix(9.963397,0,0,-9.962899,1.2179031,92.51839)"/>
<use data-text="4" xlink:href="#font_2_57" transform="matrix(9.963397,0,0,-9.962899,4.535713,92.51839)"/>
<use data-text="-" xlink:href="#font_2_64" transform="matrix(9.963397,0,0,-9.962899,18.227265,92.40839)"/>
<use data-text="2" xlink:href="#font_2_107" transform="matrix(9.963397,0,0,-9.962899,21.545075,92.40839)"/>
<use data-text="2" xlink:href="#font_2_107" transform="matrix(9.963397,0,0,-9.962899,53.90612,92.40839)"/>
<use data-text="4" xlink:href="#font_2_57" transform="matrix(9.963397,0,0,-9.962899,70.915477,92.51839)"/>
<use data-text="-" xlink:href="#font_2_64" transform="matrix(9.963397,0,0,-9.962899,27.567009,119.6432)"/>
<use data-text="4" xlink:href="#font_2_57" transform="matrix(9.963397,0,0,-9.962899,30.884819,119.6432)"/>
<use data-text="-" xlink:href="#font_2_64" transform="matrix(9.963397,0,0,-9.962899,27.567009,102.5797)"/>
<use data-text="2" xlink:href="#font_2_107" transform="matrix(9.963397,0,0,-9.962899,30.884819,102.5797)"/>
<use data-text="2" xlink:href="#font_2_107" transform="matrix(9.963397,0,0,-9.962899,30.885277,68.56167)"/>
<use data-text="4" xlink:href="#font_2_57" transform="matrix(9.963397,0,0,-9.962899,30.885277,51.608163)"/>
<use data-text="6" xlink:href="#font_2_101" transform="matrix(9.963397,0,0,-9.962899,30.885277,34.434644)"/>
<use data-text="8" xlink:href="#font_2_51" transform="matrix(9.963397,0,0,-9.962899,30.885277,17.42614)"/>
<g clip-path="url(#clip_3)">
<path transform="matrix(1.00008,0,0,-1.00003,39.386957,82.25308)" stroke-width="1.19553" stroke-linecap="butt" stroke-miterlimit="10" stroke-linejoin="miter" fill="none" stroke="#0000ff" d="M-28.91397 64.29079-28.42815 61.01492-27.9423 57.79448-27.45648 54.62956-26.97064 51.52032-26.48482 48.46637-25.99898 45.46806-25.51315 42.52531-25.02731 39.63795-24.54149 36.80614-24.05565 34.02974-23.56982 31.309-23.084 28.64368-22.59816 26.03387-22.11234 23.47963-21.6265 20.98093-21.14067 18.53763-20.65483 16.15-20.169 13.81776-19.68317 11.54108-19.19734 9.3198-18.7115 7.15405-18.22568 5.04399-17.73985 2.98932-17.25401 .99007-16.76819-.95348-16.28235-2.84166-15.79652-4.6743-15.31068-6.45139-14.82486-8.1731-14.33904-9.83911-13.8532-11.44972-13.36736-13.00479-12.88153-14.50433-12.3957-15.94847-11.90987-17.33693-11.42404-18.66998-10.9382-19.94763-10.45238-21.1696-9.96654-22.33603-9.48071-23.44707-8.99489-24.50256-8.50905-25.50252-8.02322-26.44705-7.53738-27.33606-7.05154-28.16939-6.5657-28.94745-6.07988-29.66985-5.59404-30.3367-5.10822-30.94814-4.62238-31.50403-4.13655-32.0044-3.65073-32.44936-3.16489-32.83864-2.67906-33.17252-2.19322-33.45087-1.7074-33.6738-1.22157-33.84105-.73573-33.95291-.2499-34.00923 .2359-34.01001 .72173-33.95525 1.20757-33.84508 1.69339-33.67938 2.17921-33.45813 2.66505-33.18135 3.15088-32.84915 3.63672-32.46129 4.12254-32.01802 4.60838-31.51921 5.09421-30.96501 5.58003-30.35512 6.06587-29.68982 6.55171-28.969 7.03754-28.19263 7.52336-27.36086 8.0092-26.47353 8.49503-25.53055 8.98087-24.53227 9.46669-23.47833 9.95253-22.36887 10.43835-21.20398 10.92418-19.98357 11.41002-18.70763 11.89584-17.37625 12.38168-15.98923 12.86751-14.54677 13.35335-13.0488 13.83917-11.49539 14.32501-9.88634 14.81084-8.22188 15.29668-6.50188 15.7825-4.72633 16.26833-2.89525 16.75417-1.00874 17.23999 .93324 17.72583 2.9308 18.21165 4.9839 18.6975 7.09242 19.18332 9.25659 19.66914 11.4762 20.15498 13.75133 20.64082 16.08186 21.12665 18.46806 21.61247 20.90968 22.09831 23.40685 22.58414 25.95953 23.06998 28.56763 23.5558 31.23141 24.04163 33.95059 24.52747 36.7253 25.01329 39.55542 25.49913 42.44121 25.98495 45.38242 26.4708 48.37917 26.95663 51.43143 27.44247 54.53912 27.9283 57.70247 28.41414 60.92123 28.89996 64.19554"/>
<path transform="matrix(1.00008,0,0,-1.00003,39.386957,82.25308)" stroke-width="1.19553" stroke-linecap="butt" stroke-miterlimit="10" stroke-linejoin="miter" fill="none" stroke="#0000ff" d="M-27.21318 53.06554-29.58798 68.97672"/>
<path transform="matrix(-.1476118,-.9890097,-.9890591,.14760444,9.70838,12.683105)" stroke-width="1.19553" stroke-linecap="round" stroke-linejoin="round" fill="none" stroke="#0000ff" d="M-3.02867 3.83081C-2.47534 1.53229-1.24231 .44691 0 0-1.24231-.44691-2.47534-1.53229-3.02867-3.83081"/>
<path transform="matrix(1.00008,0,0,-1.00003,39.386957,82.25308)" stroke-width="1.19553" stroke-linecap="butt" stroke-miterlimit="10" stroke-linejoin="miter" fill="none" stroke="#0000ff" d="M27.21318 53.06554 29.58798 68.97672"/>
<path transform="matrix(.1476118,-.9890097,-.9890591,-.14760444,69.06553,12.683105)" stroke-width="1.19553" stroke-linecap="round" stroke-linejoin="round" fill="none" stroke="#0000ff" d="M-3.02867 3.83081C-2.47534 1.53229-1.24231 .44691 0 0-1.24231-.44691-2.47534-1.53229-3.02867-3.83081"/>
</g>
</svg>
