<svg xmlns="http://www.w3.org/2000/svg" xmlns:xlink="http://www.w3.org/1999/xlink" xmlns:inkscape="http://www.inkscape.org/namespaces/inkscape" version="1.1" width="298" height="158" viewBox="0 0 298 158">
<defs>
<clipPath id="clip_1">
<path transform="matrix(1,0,0,-1.00003,1.0960007,155.39519)" d="M0 0H295.32398V153.59349H0Z"/>
</clipPath>
<path id="font_2_1" d="M.30099488 .119277957C.29599 .102264408 .29599 .1002655 .28199769 .08125305 .2599945 .053237916 .21598816 .010223389 .16899109 .010223389 .12799073 .010223389 .10499573 .04724121 .10499573 .10626221 .10499573 .1612854 .13598633 .2733307 .15499878 .3153534 .18899536 .38539125 .23599243 .42140199 .2749939 .42140199 .34098817 .42140199 .35398866 .33937074 .35398866 .33135987 .35398866 .33036805 .35099793 .3173523 .34999085 .3153534L.30099488 .119277957M.36499024 .37538148C.35398866 .4013977 .32699586 .44140626 .2749939 .44140626 .1619873 .44140626 .039993287 .29534913 .039993287 .14727783 .039993287 .04824829 .09799194-.009765625 .1659851-.009765625 .22099304-.009765625 .2679901 .033233644 .29599 .06625366 .30599977 .007232666 .35299684-.009765625 .3829956-.009765625 .41299439-.009765625 .43699647 .008224487 .45498658 .04423523 .47099305 .07824707 .4850006 .13926697 .4850006 .14326477 .4850006 .14826966 .48098756 .15226746 .47499085 .15226746 .46598817 .15226746 .46499635 .14726258 .46099855 .13226319 .44599916 .07324219 .4269867 .010223389 .38598634 .010223389 .35699464 .010223389 .35499574 .036239625 .35499574 .056243898 .35499574 .07923889 .35798646 .09025574 .36698915 .1292572 .37399293 .15426636 .3789978 .17626953 .3869934 .20527649 .42399598 .35533143 .43299867 .39134217 .43299867 .39733888 .43299867 .41133119 .42199708 .42233277 .40699769 .42233277 .375 .42233277 .36698915 .3873291 .36499024 .3753357V.37538148Z"/>
<path id="font_3_2" d="M.23899842 .68333438C.23899842 .6843262 .23899842 .69433596 .22599793 .69433596 .20298767 .69433596 .12998963 .6863251 .10398865 .6843262 .09599304 .68333438 .084991458 .6823273 .084991458 .6643219 .084991458 .6523285 .09399414 .6523285 .10899353 .6523285 .15699768 .6523285 .15899658 .6453247 .15899658 .6353302 .15899658 .6283264 .1499939 .5943451 .14498902 .573349L.06298828 .24731446C.050994874 .1973114 .04699707 .18130493 .04699707 .14628601 .04699707 .05126953 .099990848-.0107421879 .17399597-.0107421879 .2919922-.0107421879 .4149933 .1382904 .4149933 .28233338 .4149933 .37335206 .3619995 .4423828 .28199769 .4423828 .23599243 .4423828 .19499207 .41337586 .16499329 .38235475L.23899842 .68333438M.14498902 .30534364C.15098572 .3273468 .15098572 .3293457 .1599884 .3403473 .20899964 .405365 .2539978 .42037965 .27999879 .42037965 .31599427 .42037965 .34298707 .3903656 .34298707 .32633973 .34298707 .26733399 .30999757 .15229798 .2919922 .11428833 .25898744 .04725647 .21299744 .011245728 .17399597 .011245728 .13999939 .011245728 .10699463 .038253786 .10699463 .11227417 .10699463 .13128662 .10699463 .15029907 .12298584 .21331787L.14498902 .30534364Z"/>
<path id="font_4_6" d="M.68699648 .32714845C.70199587 .32714845 .72099307 .32714845 .72099307 .34713746 .72099307 .36714173 .70199587 .36714173 .6879883 .36714173H.08898926C.07499695 .36714173 .055999757 .36714173 .055999757 .34713746 .055999757 .32714845 .07499695 .32714845 .08999634 .32714845H.68699648M.6879883 .13284302C.70199587 .13284302 .72099307 .13284302 .72099307 .15284729 .72099307 .17285156 .70199587 .17285156 .68699648 .17285156H.08999634C.07499695 .17285156 .055999757 .17285156 .055999757 .15284729 .055999757 .13284302 .07499695 .13284302 .08898926 .13284302H.6879883Z"/>
<path id="font_4_2" d="M.2939911 .64004519C.2939911 .66400149 .2939911 .6660156 .2709961 .6660156 .20899964 .60227969 .12098694 .60227969 .08898926 .60227969V.57128909C.10899353 .57128909 .16799927 .57128909 .21998596 .5972748V.07902527C.21998596 .042999269 .21699524 .0309906 .1269989 .0309906H.09498596V0C.12998963 .0029907227 .21699524 .0029907227 .25698854 .0029907227 .29699708 .0029907227 .38398744 .0029907227 .4189911 0V.0309906H.3869934C.29699708 .0309906 .2939911 .041992189 .2939911 .07902527V.64004519Z"/>
<path id="font_3_1" d="M.19198609 .052993776C.19198609 .08198547 .16799927 .10598755 .13899231 .10598755 .10998535 .10598755 .085998538 .08198547 .085998538 .052993776 .085998538 .023986817 .10998535 0 .13899231 0 .16799927 0 .19198609 .023986817 .19198609 .052993776Z"/>
<path id="font_4_3" d="M.1269989 .07699585 .23298645 .18003845C.3889923 .31811524 .44898988 .3721466 .44898988 .47216798 .44898988 .5860901 .35899354 .6660156 .23699951 .6660156 .12399292 .6660156 .049987794 .57411196 .049987794 .48516847 .049987794 .4291687 .099990848 .4291687 .102996829 .4291687 .11999512 .4291687 .15499878 .44117738 .15499878 .48217774 .15499878 .5081787 .13699341 .5341797 .101989749 .5341797 .09399414 .5341797 .09199524 .5341797 .08898926 .5331726 .11199951 .59806826 .1659851 .63500979 .22399903 .63500979 .31498719 .63500979 .35798646 .5541382 .35798646 .47216798 .35798646 .39215089 .30799867 .31311036 .25299073 .25108338L.06098938 .036987306C.049987794 .025985718 .049987794 .023986817 .049987794 0H.42099L.44898988 .17404175H.42399598C.4189911 .14402771 .4119873 .1000061 .4019928 .084991458 .394989 .07699585 .32899476 .07699585 .30699159 .07699585H.1269989Z"/>
<path id="font_4_4" d="M.44898988 .20022583C.44898988 .3193512 .36698915 .41944886 .25898744 .41944886 .21099854 .41944886 .16799927 .40345765 .13198853 .36842347V.5637665C.1519928 .5577698 .18499756 .55078127 .21699524 .55078127 .33999635 .55078127 .4099884 .6417694 .4099884 .6547699 .4099884 .6607666 .40699769 .6657715 .3999939 .6657715 .39898683 .6657715 .39698792 .6657715 .3919983 .66278079 .37199403 .6537781 .32299806 .6337738 .2559967 .6337738 .21598816 .6337738 .16999817 .6407776 .12298584 .6617737 .114990238 .66477969 .11299133 .66477969 .11099243 .66477969 .100997928 .66477969 .100997928 .6567688 .100997928 .6407776V.34439088C.100997928 .32637025 .100997928 .31835938 .114990238 .31835938 .12199402 .31835938 .12399292 .32136537 .12799073 .32736207 .13899231 .3433838 .17599488 .39746095 .25698854 .39746095 .30899049 .39746095 .33399964 .35139466 .34199525 .33337403 .35798646 .29632569 .3600006 .25727845 .3600006 .20722962 .3600006 .17222595 .3600006 .11222839 .33599855 .07035828 .31199647 .031463624 .2749939 .0055389406 .22898865 .0055389406 .1559906 .0055389406 .09899902 .058380128 .08198547 .11723328 .084991458 .1162262 .08799744 .115234378 .09899902 .115234378 .13198853 .115234378 .14898682 .14022827 .14898682 .16423035 .14898682 .18823242 .13198853 .21322632 .09899902 .21322632 .084991458 .21322632 .049987794 .20622254 .049987794 .16023255 .049987794 .07434082 .11898804-.022460938 .23098755-.022460938 .34700013-.022460938 .44898988 .073349 .44898988 .20022583Z"/>
<path id="font_4_1" d="M.45999146 .31976319C.45999146 .39982606 .45498658 .47988893 .41999818 .5539398 .37399293 .65000918 .2919922 .6660156 .25 .6660156 .18998719 .6660156 .116989139 .64001467 .07598877 .54693606 .04399109 .47789 .038986207 .39982606 .038986207 .31976319 .038986207 .24472046 .042999269 .15464783 .083999637 .07859802 .1269989-.0024719239 .19999695-.022460938 .24899292-.022460938 .30299378-.022460938 .3789978-.0014648438 .4229889 .09359741 .45498658 .16265869 .45999146 .2407074 .45999146 .31976319M.24899292-.00047302247C.20999146-.00047302247 .15098572 .024551392 .1329956 .12062073 .12199402 .18066406 .12199402 .2727356 .12199402 .3317871 .12199402 .39582826 .12199402 .46188355 .12998963 .5159149 .14898682 .63500979 .22399903 .64401248 .24899292 .64401248 .28199769 .64401248 .34799195 .6259918 .36698915 .52693179 .3769989 .47088624 .3769989 .39482118 .3769989 .3317871 .3769989 .25672914 .3769989 .18867493 .3659973 .12461853 .35099793 .029556275 .2939911-.00047302247 .24899292-.00047302247Z"/>
<path id="font_4_5" d="M.16299439 .4569702C.116989139 .486969 .11299133 .52098086 .11299133 .5379791 .11299133 .598999 .17799378 .64100649 .24899292 .64100649 .32199098 .64100649 .38598634 .58898928 .38598634 .51698306 .38598634 .45996095 .34700013 .4119568 .2869873 .37695313L.16299439 .4569702M.30899049 .36193849C.3809967 .3989563 .42999269 .45095826 .42999269 .51698306 .42999269 .6090088 .34098817 .6660156 .25 .6660156 .1499939 .6660156 .068984989 .59199526 .068984989 .49897767 .068984989 .4809723 .070999149 .43595887 .11299133 .38894654 .12399292 .37695313 .16099549 .35194398 .18598938 .33494569 .12799073 .30592347 .041992189 .24984741 .041992189 .15072632 .041992189 .04458618 .14399719-.022460938 .24899292-.022460938 .3619995-.022460938 .45700074 .06060791 .45700074 .16773987 .45700074 .20379639 .44599916 .24885559 .4079895 .2909088 .3889923 .31193543 .37298585 .3219452 .30899049 .36193849M.20899964 .3199463 .33198548 .24183655C.3600006 .2228241 .40699769 .19277954 .40699769 .13169861 .40699769 .05760193 .33198548 .0055389406 .25 .0055389406 .1639862 .0055389406 .09199524 .067611698 .09199524 .15072632 .09199524 .20880127 .12399292 .27288819 .20899964 .3199463Z"/>
<path id="font_3_3" d="M.33399964 .30233766C.33999635 .32835389 .36299134 .42037965 .43299867 .42037965 .43798829 .42037965 .46199037 .42037965 .48298646 .40734864 .45498658 .402359 .43499757 .37734986 .43499757 .35334779 .43499757 .33735658 .44599916 .31835938 .47299195 .31835938 .49499513 .31835938 .5269928 .3363495 .5269928 .37635804 .5269928 .42837525 .46798707 .4423828 .43399049 .4423828 .37599183 .4423828 .34098817 .38935853 .32899476 .36634828 .3039856 .43237306 .25 .4423828 .22099304 .4423828 .116989139 .4423828 .05999756 .3133545 .05999756 .28834535 .05999756 .27833558 .069992069 .27833558 .07199097 .27833558 .07998657 .27833558 .08299255 .28033448 .084991458 .28933717 .11898804 .39535523 .18499756 .42037965 .21899414 .42037965 .23799134 .42037965 .272995 .4113617 .272995 .35334779 .272995 .32235719 .2559967 .25532533 .21899414 .11528015 .20298767 .053268434 .16799927 .011245728 .12399292 .011245728 .117996219 .011245728 .09498596 .011245728 .07398987 .024276734 .09899902 .029266358 .12098694 .05027771 .12098694 .07827759 .12098694 .105270389 .09899902 .11328125 .083999637 .11328125 .053985597 .11328125 .0289917 .08728027 .0289917 .055267335 .0289917 .009246826 .07899475-.0107421879 .12298584-.0107421879 .18899536-.0107421879 .22499085 .059280397 .22799683 .0652771 .23999024 .028274537 .27598573-.0107421879 .33599855-.0107421879 .43899537-.0107421879 .49598695 .118270877 .49598695 .14328003 .49598695 .1532898 .4869995 .1532898 .48399354 .1532898 .47499085 .1532898 .47299195 .14929199 .47099305 .14228821 .43798829 .03527832 .36999513 .011245728 .33799745 .011245728 .29899598 .011245728 .2829895 .043273927 .2829895 .07727051 .2829895 .09927368 .2889862 .121276859 .2999878 .16529846L.33399964 .30233766Z"/>
<path id="font_3_4" d="M.48599244 .38136292C.48999024 .39537049 .48999024 .39736939 .48999024 .40437318 .48999024 .42237855 .47599793 .43138124 .46099855 .43138124 .45098878 .43138124 .43499757 .42536927 .42599488 .41036988 .42399598 .405365 .41600038 .37435914 .4119873 .35635377 .40499879 .33035279 .397995 .30334474 .3919983 .27633668L.34700013 .09628296C.34298707 .08126831 .2999878 .011245728 .23399353 .011245728 .18299866 .011245728 .17199707 .055267335 .17199707 .0922699 .17199707 .1382904 .18899536 .20030213 .22299195 .28833009 .23899842 .3293457 .24299622 .3403473 .24299622 .36035157 .24299622 .405365 .21099854 .4423828 .16099549 .4423828 .06599426 .4423828 .0289917 .29733277 .0289917 .28833009 .0289917 .27833558 .038986207 .27833558 .040985109 .27833558 .050994874 .27833558 .051986696 .28033448 .056991579 .29634095 .083999637 .3903656 .12399292 .42037965 .1579895 .42037965 .1659851 .42037965 .18299866 .42037965 .18299866 .3883667 .18299866 .36335755 .17298889 .3373413 .1659851 .31834413 .12599182 .21231079 .10798645 .1552887 .10798645 .10827637 .10798645 .019256592 .17098999-.0107421879 .22999573-.0107421879 .2689972-.0107421879 .30299378 .0062561037 .33099366 .03425598 .31799317-.017745972 .30599977-.06674194 .2659912-.11973572 .23999024-.15385437 .20199585-.18309021 .1559906-.18309021 .14199829-.18309021 .09700012-.18005371 .07998657-.14074707 .09599304-.14074707 .10899353-.14074707 .12298584-.1287384 .1329956-.11973572 .14299011-.10673523 .14299011-.08773804 .14299011-.056747438 .115997318-.052734376 .10598755-.052734376 .08299255-.052734376 .049987794-.068740848 .049987794-.11773682 .049987794-.16796875 .09399414-.20507813 .1559906-.20507813 .25898744-.20507813 .3619995-.11373901 .3899994-.00074768069L.48599244 .38136292Z"/>
</defs>
<path transform="matrix(1,0,0,-1.00003,1.0960007,155.39519)" stroke-width=".19925" stroke-linecap="butt" stroke-miterlimit="10" stroke-linejoin="miter" fill="none" stroke="#7f807f" d=""/>
<path transform="matrix(1,0,0,-1.00003,1.0960007,155.39519)" stroke-width=".19925" stroke-linecap="butt" stroke-miterlimit="10" stroke-linejoin="miter" fill="none" stroke="#7f807f" d=""/>
<path transform="matrix(1,0,0,-1.00003,1.0960007,155.39519)" stroke-width=".3985" stroke-linecap="butt" stroke-miterlimit="10" stroke-linejoin="miter" fill="none" stroke="#000000" d="M0 0H293.33146"/>
<path transform="matrix(1,0,0,-1.00003,294.42747,155.39519)" d="M1.99252 0-1.19551 1.59401 0 0-1.19551-1.59401"/>
<path transform="matrix(1,0,0,-1.00003,1.0960007,155.39519)" stroke-width=".3985" stroke-linecap="butt" stroke-miterlimit="10" stroke-linejoin="miter" fill="none" stroke="#000000" d="M113.58614 0V151.60097"/>
<path transform="matrix(0,-1.00003,-1,-0,114.682147,3.7896729)" d="M1.99252 0-1.19551 1.59401 0 0-1.19551-1.59401"/>
<g clip-path="url(#clip_1)">
<path transform="matrix(1,0,0,-1.00003,1.0960007,155.39519)" stroke-width=".79701" stroke-linecap="butt" stroke-miterlimit="10" stroke-linejoin="miter" fill="none" stroke="#000000" d="M102.22752 43.88385H124.94475"/>
<path transform="matrix(1,0,0,-1.00003,1.0960007,155.39519)" d="M117.57124 43.88385C117.57124 46.0848 115.78708 47.86896 113.58614 47.86896 111.3852 47.86896 109.60103 46.0848 109.60103 43.88385 109.60103 41.6829 111.3852 39.89874 113.58614 39.89874 115.78708 39.89874 117.57124 41.6829 117.57124 43.88385ZM113.58614 43.88385"/>
<use data-text="a" xlink:href="#font_2_1" transform="matrix(24.7871,0,0,-24.787844,98.422,101.40756)"/>
<path transform="matrix(1,0,0,-1.00003,1.0960007,155.39519)" stroke-width=".79701" stroke-linecap="butt" stroke-miterlimit="10" stroke-linejoin="miter" fill="none" stroke="#ff0000" d="M0 30.47464 1.42694 30.61995 2.85391 30.7608 4.28085 30.90607 5.70782 31.04605 7.13478 31.18648 8.56174 31.3313 9.9887 31.47656 11.41566 31.62137 12.8426 31.76576 14.26958 31.911 15.69653 32.05583 17.12349 32.20503 18.55045 32.35423 19.97742 32.49905 21.40436 32.64827 22.83133 32.80185 24.25829 32.95105 25.68524 33.10027 27.1122 33.25429 28.53917 33.4079 29.96611 33.56105 31.39308 33.71507 32.82004 33.86824 34.247 34.02226 35.67397 34.18024 37.1009 34.33865 38.52788 34.49664 39.95483 34.65462 41.38179 34.81259 42.80875 34.97058 44.23572 35.1325 45.66266 35.29533 47.08963 35.45726 48.51659 35.62009 49.94354 35.78201 51.3705 35.94481 52.79747 36.11157 54.22441 36.27834 55.65138 36.4451 57.07834 36.61185 58.5053 36.77861 59.93225 36.95018 61.35922 37.11694 62.78616 37.2881 64.21313 37.45923 65.64009 37.63039 67.06706 37.80591 68.49402 37.97707 69.92097 38.1526 71.34795 38.32814 72.77489 38.50412 74.20186 38.67966 75.62881 38.85957 77.05577 39.03511 78.48274 39.21547 79.9097 39.39452 81.33665 39.57489 82.76363 39.75876 84.19057 39.93913 85.61754 40.12387 87.0445 40.30818 88.47145 40.49207 89.8984 40.68118 91.32536 40.86507 92.75232 41.05421 94.17929 41.24292 95.60625 41.43161 97.03322 41.62074 98.46016 41.8134 99.88713 42.0021 101.31409 42.19562 102.74104 42.39311 104.16801 42.5862 105.59497 42.77884 107.02193 42.97633 108.44888 43.17424 109.87585 43.37172 111.30281 43.57404 112.72977 43.77148 114.15672 43.96413 115.5837 44.16554 117.01064 44.3679 118.43762 44.5724 119.86456 44.77731 121.29153 44.98268 122.71849 45.18892 124.14545 45.39563 125.5724 45.60408 126.99937 45.81387 128.42632 46.02448 129.85329 46.2356 131.28023 46.44713 132.70722 46.6608 134.13416 46.87581 135.56113 47.09041 136.98809 47.30638 138.41504 47.52399 139.84201 47.74123 141.26897 47.96065 142.69593 48.18135 144.12288 48.40253 145.54985 48.62418 146.9768 48.84755 148.40377 49.0722 149.83072 49.2978 151.25769 49.5238 152.68463 49.75114 154.1116 49.97887 155.53856 50.20834 156.96552 50.43875 158.39247 50.67093 159.81945 50.90349 161.2464 51.13696 162.67337 51.37134 164.10031 51.60738 165.52729 51.84482 166.95424 52.08267 168.3812 52.32185 169.80815 52.56183 171.23513 52.80324 172.66208 53.0455 174.08904 53.28857 175.51599 53.53392 176.94295 53.77966 178.36992 54.02582 179.79686 54.27425 181.22383 54.52348 182.65079 54.77365 184.07775 55.02548 185.5047 55.27786 186.93167 55.53192 188.35861 55.78557 189.78559 56.04277 191.21254 56.2999 192.6395 56.55838 194.06645 56.81818 195.49343 57.07799 196.92037 57.34041 198.34734 57.60371 199.77429 57.86787 201.20125 58.1329 202.6282 58.4006 204.05518 58.66873 205.48212 58.93953 206.90909 59.20937 208.33606 59.48192 209.763 59.75357 211.18997 60.02824 212.61692 60.303 214.04389 60.58075 215.47084 60.85858 216.8978 61.13766 218.32476 61.41849 219.75173 61.70067 221.17867 61.98419 222.60564 62.2681 224.0326 62.55423 225.45955 62.8417 226.8865 63.12996 228.31348 63.42004 229.74042 63.711 231.16739 64.00368 232.59435 64.2977 234.0213 64.59174 235.44826 64.88844 236.87523 65.18768 238.30217 65.48701 239.72914 65.78674 241.15612 66.08907 242.58306 66.39232 244.01003 66.69641 245.43697 67.00363 246.86394 67.31165 248.2909 67.62059 249.71785 67.93044 251.1448 68.2416 252.57178 68.55579 253.99872 68.86996 255.42569 69.18636 256.85267 69.50322 258.2796 69.8227 259.70658 70.14264 261.13356 70.46606 262.56047 70.78902 263.98744 71.11378 265.4144 71.44029 266.84135 71.76767 268.2683 72.09811 269.69529 72.4303 271.12223 72.7625 272.5492 73.09511 273.97615 73.43124 275.4031 73.76787 276.83009 74.10756 278.25703 74.44765 279.684 74.78862 281.11097 75.1322 282.5379 75.47624 283.96488 75.82425"/>
<use data-text="b" xlink:href="#font_3_2" transform="matrix(9.9626,0,0,-9.962899,227.434,81.38596)" fill="#ff0000"/>
<use data-text="=" xlink:href="#font_4_6" transform="matrix(9.9626,0,0,-9.962899,234.477,81.38596)" fill="#ff0000"/>
<use data-text="1" xlink:href="#font_4_2" transform="matrix(9.9626,0,0,-9.962899,244.97759,81.38596)" fill="#ff0000"/>
<use data-text="." xlink:href="#font_3_1" transform="matrix(9.9626,0,0,-9.962899,249.975,81.38596)" fill="#ff0000"/>
<use data-text="2" xlink:href="#font_4_3" transform="matrix(9.9626,0,0,-9.962899,252.742,81.38596)" fill="#ff0000"/>
<path transform="matrix(1,0,0,-1.00003,1.0960007,155.39519)" stroke-width=".79701" stroke-linecap="butt" stroke-miterlimit="10" stroke-linejoin="miter" fill="none" stroke="#0000ff" d="M0 19.50352 1.42694 19.70824 2.85391 19.91008 4.28085 20.11195 5.70782 20.3182 7.13478 20.52887 8.56174 20.73509 9.9887 20.95015 11.41566 21.16605 12.8426 21.38065 14.26958 21.6005 15.69653 21.81947 17.12349 22.04373 18.55045 22.27191 19.97742 22.49966 21.40436 22.72787 22.83133 22.96089 24.25829 23.1983 25.68524 23.43529 27.1122 23.6762 28.53917 23.91801 29.96611 24.16377 31.39308 24.4095 32.82004 24.66008 34.247 24.90977 35.67397 25.16429 37.1009 25.42322 38.52788 25.68259 39.95483 25.94543 41.38179 26.21356 42.80875 26.48126 44.23572 26.75288 45.66266 27.02544 47.08963 27.30232 48.51659 27.58275 49.94354 27.86403 51.3705 28.14928 52.79747 28.43935 54.22441 28.72856 55.65138 29.02257 57.07834 29.32097 58.5053 29.6242 59.93225 29.92702 61.35922 30.22981 62.78616 30.54095 64.21313 30.85297 65.64009 31.16937 67.06706 31.48927 68.49402 31.81007 69.92097 32.13963 71.34795 32.46439 72.77489 32.7979 74.20186 33.1358 75.62881 33.47327 77.05577 33.81601 78.48274 34.16313 79.9097 34.51376 81.33665 34.86484 82.76363 35.22511 84.19057 35.58452 85.61754 35.94965 87.0445 36.31784 88.47145 36.68689 89.8984 37.06429 91.32536 37.4417 92.75232 37.82787 94.17929 38.21404 95.60625 38.60461 97.03322 38.99957 98.46016 39.39935 99.88713 39.80307 101.31409 40.21164 102.74104 40.62416 104.16801 41.03665 105.59497 41.45795 107.02193 41.88362 108.44888 42.3141 109.87585 42.74417 111.30281 43.18346 112.72977 43.62668 114.15672 44.06242 115.5837 44.514 117.01064 44.96909 118.43762 45.42984 119.86456 45.89369 121.29153 46.36462 122.71849 46.83939 124.14545 47.31909 125.5724 47.8031 126.99937 48.29237 128.42632 48.78656 129.85329 49.28683 131.28023 49.79057 132.70722 50.30055 134.13416 50.81703 135.56113 51.33665 136.98809 51.86237 138.41504 52.3929 139.84201 52.9296 141.26897 53.47206 142.69593 54.01791 144.12288 54.5731 145.54985 55.13081 146.9768 55.69429 148.40377 56.26567 149.83072 56.84142 151.25769 57.42331 152.68463 58.0105 154.1116 58.6051 155.53856 59.20589 156.96552 59.81189 158.39247 60.42365 159.81945 61.04198 161.2464 61.6682 162.67337 62.29971 164.10031 62.93692 165.52729 63.58109 166.95424 64.23276 168.3812 64.88971 169.80815 65.55457 171.23513 66.22513 172.66208 66.90398 174.08904 67.58812 175.51599 68.2793 176.94295 68.97885 178.36992 69.68536 179.79686 70.39937 181.22383 71.12033 182.65079 71.84842 184.07775 72.58385 185.5047 73.32686 186.93167 74.07683 188.35861 74.8369 189.78559 75.60307 191.21254 76.37762 192.6395 77.15746 194.06645 77.94867 195.49343 78.74652 196.92037 79.55266 198.34734 80.36798 199.77429 81.19128 201.20125 82.02153 202.6282 82.86191 204.05518 83.70842 205.48212 84.56767 206.90909 85.43349 208.33606 86.30814 209.763 87.19196 211.18997 88.08322 212.61692 88.98633 214.04389 89.89827 215.47084 90.81633 216.8978 91.74709 218.32476 92.68661 219.75173 93.63626 221.17867 94.59602 222.60564 95.56187 224.0326 96.54097 225.45955 97.53053 226.8865 98.52847 228.31348 99.53864 229.74042 100.5568 231.16739 101.58539 232.59435 102.62677 234.0213 103.67781 235.44826 104.73973 236.87523 105.80927 238.30217 106.8945 239.72914 107.98717 241.15612 109.09438 242.58306 110.2125 244.01003 111.3386 245.43697 112.48042 246.86394 113.63109 248.2909 114.79488 249.71785 115.96965 251.1448 117.15714 252.57178 118.35695 253.99872 119.57117 255.42569 120.79295 256.85267 122.03047 258.2796 123.2807 259.70658 124.54152 261.13356 125.81807 262.56047 127.1056 263.98744 128.40593 265.4144 129.72374 266.84135 131.05037 268.2683 132.3914 269.69529 133.74657 271.12223 135.11833 272.5492 136.5007 273.97615 137.89752 275.4031 139.30927 276.83009 140.7364 278.25703 142.17668 279.684 143.63356 281.11097 145.10196 282.5379 146.58965 283.96488 148.0918"/>
<use data-text="b" xlink:href="#font_3_2" transform="matrix(9.9626,0,0,-9.962899,213.33101,38.54168)" fill="#0000ff"/>
<use data-text="=" xlink:href="#font_4_6" transform="matrix(9.9626,0,0,-9.962899,220.37401,38.54168)" fill="#0000ff"/>
<use data-text="1" xlink:href="#font_4_2" transform="matrix(9.9626,0,0,-9.962899,230.87459,38.54168)" fill="#0000ff"/>
<use data-text="." xlink:href="#font_3_1" transform="matrix(9.9626,0,0,-9.962899,235.87201,38.54168)" fill="#0000ff"/>
<use data-text="5" xlink:href="#font_4_4" transform="matrix(9.9626,0,0,-9.962899,238.639,38.54168)" fill="#0000ff"/>
<path transform="matrix(1,0,0,-1.00003,1.0960007,155.39519)" stroke-width=".79701" stroke-linecap="butt" stroke-miterlimit="10" stroke-linejoin="miter" fill="none" stroke="#009900" d="M0 10.97096 1.42694 11.16669 2.85391 11.36414 4.28085 11.56161 5.70782 11.76306 7.13478 11.97414 8.56174 12.18039 9.9887 12.39542 11.41566 12.61484 12.8426 12.83469 14.26958 13.06288 15.69653 13.29109 17.12349 13.52367 18.55045 13.76064 19.97742 14.00244 21.40436 14.2482 22.83133 14.50229 24.25829 14.7568 25.68524 15.01616 27.1122 15.27946 28.53917 15.54716 29.96611 15.81879 31.39308 16.0957 32.82004 16.38095 34.247 16.66664 35.67397 16.96066 37.1009 17.25864 38.52788 17.56186 39.95483 17.86948 41.38179 18.18547 42.80875 18.50536 44.23572 18.83055 45.66266 19.15968 47.08963 19.49757 48.51659 19.83987 49.94354 20.18655 51.3705 20.54245 52.79747 20.90186 54.22441 21.27092 55.65138 21.64394 57.07834 22.0253 58.5053 22.41193 59.93225 22.80292 61.35922 23.20665 62.78616 23.61476 64.21313 24.02771 65.64009 24.449 67.06706 24.87906 68.49402 25.31789 69.92097 25.76155 71.34795 26.21356 72.77489 26.67392 74.20186 27.14435 75.62881 27.61827 77.05577 28.10495 78.48274 28.59735 79.9097 29.10156 81.33665 29.61105 82.76363 30.13329 84.19057 30.65944 85.61754 31.20009 87.0445 31.7482 88.47145 32.3064 89.8984 32.87207 91.32536 33.45177 92.75232 34.03981 94.17929 34.63705 95.60625 35.24706 97.03322 35.86583 98.46016 36.49336 99.88713 37.13406 101.31409 37.78838 102.74104 38.45102 104.16801 39.12683 105.59497 39.81184 107.02193 40.51443 108.44888 41.22536 109.87585 41.94987 111.30281 42.68712 112.72977 43.43797 114.15672 44.18973 115.5837 44.96648 117.01064 45.75594 118.43762 46.55943 119.86456 47.37701 121.29153 48.20947 122.71849 49.05728 124.14545 49.91833 125.5724 50.79553 126.99937 51.68639 128.42632 52.59433 129.85329 53.5194 131.28023 54.45853 132.70722 55.4152 134.13416 56.38896 135.56113 57.37859 136.98809 58.38615 138.41504 59.41301 139.84201 60.45613 141.26897 61.51814 142.69593 62.59808 144.12288 63.69693 145.54985 64.81645 146.9768 65.9548 148.40377 67.11417 149.83072 68.2925 151.25769 69.49184 152.68463 70.71402 154.1116 71.95462 155.53856 73.21884 156.96552 74.5047 158.39247 75.81374 159.81945 77.14694 161.2464 78.50203 162.67337 79.87956 164.10031 81.28294 165.52729 82.71097 166.95424 84.16397 168.3812 85.6428 169.80815 87.14543 171.23513 88.6761 172.66208 90.23308 174.08904 91.82034 175.51599 93.43396 176.94295 95.07172 178.36992 96.74501 179.79686 98.4429 181.22383 100.17278 182.65079 101.93253 184.07775 103.72386 185.5047 105.54414 186.93167 107.39738 188.35861 109.28569 189.78559 111.20609 191.21254 113.158 192.6395 115.14508 194.06645 117.16638 195.49343 119.22498 196.92037 121.32088 198.34734 123.45099 199.77429 125.621 201.20125 127.82664 202.6282 130.07347 204.05518 132.35939 205.48212 134.68175 206.90909 137.0475 208.33606 139.4541 209.763 141.90454 211.18997 144.39632 212.61692 146.9341 214.04389 149.51406 215.47084 152.13962 216.8978 154.81566 218.32476 157.53423 219.75173 160.30027 221.17867 163.11626 222.60564 165.98014 224.0326 168.8975 225.45955 171.86586 226.8865 174.88112 228.31348 177.9556 229.74042 181.07968 231.16739 184.26256 232.59435 187.49814 234.0213 190.79077 235.44826 194.1426 236.87523 197.55193 238.30217 201.02228 239.72914 204.55449 241.15612 208.14992 242.58306 211.80495 244.01003 215.52283 245.43697 219.30998 246.86394 223.16562 248.2909 227.0836 249.71785 231.07398 251.1448 235.1266 252.57178 239.26181 253.99872 243.46633 255.42569 247.7406 256.85267 252.09384 258.2796 256.52 259.70658 261.0251 261.13356 265.614 262.56047 270.2811 263.98744 275.0276 265.4144 279.85478 266.84135 284.77024 268.2683 289.77165 269.69529 294.8644 271.12223 300.04747 272.5492 305.3105 273.97615 310.6762 275.4031 316.13926 276.83009 321.69017 278.25703 327.3437 279.684 333.089 281.11097 338.94004 282.5379 344.89677 283.96488 350.95277"/>
<use data-text="b" xlink:href="#font_3_2" transform="matrix(9.9626,0,0,-9.962899,169.022,34.33455)" fill="#009900"/>
<use data-text="=" xlink:href="#font_4_6" transform="matrix(9.9626,0,0,-9.962899,176.065,34.33455)" fill="#009900"/>
<use data-text="2" xlink:href="#font_4_3" transform="matrix(9.9626,0,0,-9.962899,186.56558,34.33455)" fill="#009900"/>
<path transform="matrix(1,0,0,-1.00003,1.0960007,155.39519)" stroke-width=".79701" stroke-linecap="butt" stroke-miterlimit="10" stroke-linejoin="miter" fill="none" stroke="#ff8000" d="M0 68.56851 1.42694 68.18234 2.85391 67.80186 4.28085 67.42139 5.70782 67.04526 7.13478 66.67007 8.56174 66.29797 9.9887 65.92627 11.41566 65.55852 12.8426 65.1925 14.26958 64.82744 15.69653 64.46577 17.12349 64.10466 18.55045 63.74655 19.97742 63.38979 21.40436 63.03561 22.83133 62.6828 24.25829 62.33305 25.68524 61.98419 27.1122 61.63794 28.53917 61.29301 29.96611 60.94983 31.39308 60.60928 32.82004 60.27052 34.247 59.93303 35.67397 59.59909 37.1009 59.26604 38.52788 58.93423 39.95483 58.60472 41.38179 58.27734 42.80875 57.95125 44.23572 57.62654 45.66266 57.30486 47.08963 56.98404 48.51659 56.6663 49.94354 56.34857 51.3705 56.03487 52.79747 55.72108 54.22441 55.40904 55.65138 55.09969 57.07834 54.79205 58.5053 54.4853 59.93225 54.1803 61.35922 53.87796 62.78616 53.57732 64.21313 53.27672 65.64009 52.9792 67.06706 52.68257 68.49402 52.38855 69.92097 52.09587 71.34795 51.80397 72.77489 51.51483 74.20186 51.2269 75.62881 50.94077 77.05577 50.65558 78.48274 50.37254 79.9097 50.09036 81.33665 49.8112 82.76363 49.53256 84.19057 49.25522 85.61754 48.98007 87.0445 48.70668 88.47145 48.4346 89.8984 48.16254 91.32536 47.89397 92.75232 47.62625 94.17929 47.35988 95.60625 47.09525 97.03322 46.83156 98.46016 46.5704 99.88713 46.30933 101.31409 46.05171 102.74104 45.79364 104.16801 45.53691 105.59497 45.28326 107.02193 45.02962 108.44888 44.77866 109.87585 44.5272 111.30281 44.27878 112.72977 44.03177 114.15672 43.79344 115.5837 43.54768 117.01064 43.3059 118.43762 43.06496 119.86456 42.82318 121.29153 42.58138 122.71849 42.34439 124.14545 42.10742 125.5724 41.87483 126.99937 41.63786 128.42632 41.40572 129.85329 41.1771 131.28023 40.94406 132.70722 40.71674 134.13416 40.4881 135.56113 40.26387 136.98809 40.03566 138.41504 39.81184 139.84201 39.592 141.26897 39.36864 142.69593 39.14877 144.12288 38.93024 145.54985 38.71431 146.9768 38.49535 148.40377 38.27986 149.83072 38.06483 151.25769 37.8542 152.68463 37.64355 154.1116 37.4329 155.53856 37.22227 156.96552 37.01556 158.39247 36.80933 159.81945 36.60307 161.2464 36.3968 162.67337 36.19539 164.10031 35.99309 165.52729 35.79166 166.95424 35.58936 168.3812 35.39188 169.80815 35.1944 171.23513 34.99692 172.66208 34.79901 174.08904 34.60635 175.51599 34.41283 176.94295 34.22018 178.36992 34.03104 179.79686 33.83751 181.22383 33.64925 182.65079 33.46056 184.07775 33.27579 185.5047 33.08752 186.93167 32.90277 188.35861 32.71846 189.78559 32.53459 191.21254 32.35423 192.6395 32.17432 194.06645 31.99396 195.49343 31.81403 196.92037 31.63849 198.34734 31.45901 199.77429 31.28304 201.20125 31.1075 202.6282 30.93678 204.05518 30.7608 205.48212 30.5901 206.90909 30.41852 208.33606 30.24695 209.763 30.0806 211.18997 29.91385 212.61692 29.7427 214.04389 29.58034 215.47084 29.41357 216.8978 29.24683 218.32476 29.084 219.75173 28.92207 221.17867 28.75928 222.60564 28.6013 224.0326 28.43935 225.45955 28.28093 226.8865 28.12296 228.31348 27.96498 229.74042 27.81093 231.16739 27.65295 232.59435 27.49979 234.0213 27.34576 235.44826 27.19218 236.87523 27.03815 238.30217 26.88982 239.72914 26.74017 241.15612 26.59096 242.58306 26.44176 244.01003 26.29256 245.43697 26.14775 246.86394 25.99854 248.2909 25.85373 249.71785 25.70845 251.1448 25.56366 252.57178 25.42322 253.99872 25.28278 255.42569 25.13799 256.85267 24.99754 258.2796 24.86151 259.70658 24.72064 261.13356 24.58064 262.56047 24.44417 263.98744 24.30812 265.4144 24.17253 266.84135 24.03648 268.2683 23.9044 269.69529 23.76878 271.12223 23.63672 272.5492 23.5055 273.97615 23.3734 275.4031 23.24174 276.83009 23.11053 278.25703 22.98239 279.684 22.85513 281.11097 22.72392 282.5379 22.6006 283.96488 22.47379"/>
<use data-text="b" xlink:href="#font_3_2" transform="matrix(9.9626,0,0,-9.962899,219.678,124.29726)" fill="#ff8000"/>
<use data-text="=" xlink:href="#font_4_6" transform="matrix(9.9626,0,0,-9.962899,226.721,124.29726)" fill="#ff8000"/>
<use data-text="0" xlink:href="#font_4_1" transform="matrix(9.9626,0,0,-9.962899,237.22158,124.29726)" fill="#ff8000"/>
<use data-text="." xlink:href="#font_3_1" transform="matrix(9.9626,0,0,-9.962899,242.219,124.29726)" fill="#ff8000"/>
<use data-text="8" xlink:href="#font_4_5" transform="matrix(9.9626,0,0,-9.962899,244.986,124.29726)" fill="#ff8000"/>
<path transform="matrix(1,0,0,-1.00003,1.0960007,155.39519)" stroke-width=".79701" stroke-linecap="butt" stroke-miterlimit="10" stroke-linejoin="miter" fill="none" stroke="#bf0040" d="M0 175.53542 1.42694 172.50305 2.85391 169.52422 4.28085 166.59886 5.70782 163.72052 7.13478 160.89315 8.56174 158.1166 9.9887 155.38524 11.41566 152.70223 12.8426 150.06522 14.26958 147.47473 15.69653 144.92993 17.12349 142.42505 18.55045 139.96756 19.97742 137.55219 21.40436 135.17633 22.83133 132.843 24.25829 130.5479 25.68524 128.2953 27.1122 126.08096 28.53917 123.90431 29.96611 121.7645 31.39308 119.66338 32.82004 117.59427 34.247 115.56546 35.67397 113.56921 37.1009 111.60979 38.52788 109.68285 39.95483 107.78925 41.38179 105.92905 42.80875 104.10127 44.23572 102.30162 45.66266 100.53745 47.08963 98.79965 48.51659 97.09389 49.94354 95.41751 51.3705 93.76924 52.79747 92.15213 54.22441 90.56133 55.65138 88.99777 57.07834 87.46046 58.5053 85.95049 59.93225 84.4659 61.35922 83.00896 62.78616 81.57437 64.21313 80.16617 65.64009 78.78294 67.06706 77.42162 68.49402 76.08714 69.92097 74.77235 71.34795 73.48134 72.77489 72.21262 74.20186 70.96498 75.62881 69.74019 77.05577 68.53555 78.48274 67.3525 79.9097 66.19092 81.33665 65.04768 82.76363 63.92474 84.19057 62.82195 85.61754 61.73624 87.0445 60.67027 88.47145 59.62231 89.8984 58.59239 91.32536 57.58134 92.75232 56.58775 94.17929 55.61093 95.60625 54.65205 97.03322 53.70721 98.46016 52.78041 99.88713 51.86852 101.31409 50.97371 102.74104 50.09384 104.16801 49.22803 105.59497 48.37889 107.02193 47.54329 108.44888 46.72227 109.87585 45.91612 111.30281 45.1231 112.72977 44.3446 114.15672 43.58717 115.5837 42.83676 117.01064 42.0947 118.43762 41.37016 119.86456 40.65486 121.29153 39.95274 122.71849 39.26329 124.14545 38.5831 125.5724 37.92001 126.99937 37.26616 128.42632 36.62064 129.85329 35.98914 131.28023 35.36598 132.70722 34.75513 134.13416 34.15347 135.56113 33.56587 136.98809 32.9866 138.41504 32.4161 139.84201 31.85835 141.26897 31.3098 142.69593 30.76564 144.12288 30.2342 145.54985 29.71199 146.9768 29.20248 148.40377 28.69783 149.83072 28.20195 151.25769 27.71483 152.68463 27.23605 154.1116 26.7665 155.53856 26.30573 156.96552 25.84933 158.39247 25.40128 159.81945 24.96245 161.2464 24.53192 162.67337 24.11067 164.10031 23.69376 165.52729 23.28563 166.95424 22.8819 168.3812 22.48694 169.80815 22.10078 171.23513 21.71898 172.66208 21.34114 174.08904 20.97208 175.51599 20.61266 176.94295 20.2572 178.36992 19.90569 179.79686 19.5634 181.22383 19.22551 182.65079 18.892 184.07775 18.56723 185.5047 18.24644 186.93167 17.93005 188.35861 17.61891 189.78559 17.31612 191.21254 17.0177 192.6395 16.72368 194.06645 16.43362 195.49343 16.15318 196.92037 15.87189 198.34734 15.59982 199.77429 15.3273 201.20125 15.06444 202.6282 14.80508 204.05518 14.54617 205.48212 14.29646 206.90909 14.05072 208.33606 13.80891 209.763 13.56757 211.18997 13.33455 212.61692 13.10634 214.04389 12.87814 215.47084 12.65433 216.8978 12.4349 218.32476 12.22427 219.75173 12.01364 221.17867 11.80255 222.60564 11.60112 224.0326 11.39882 225.45955 11.20132 226.8865 11.00824 228.31348 10.81955 229.74042 10.63086 231.16739 10.45049 232.59435 10.26662 234.0213 10.09108 235.44826 9.91553 236.87523 9.7444 238.30217 9.57764 239.72914 9.41089 241.15612 9.24808 242.58306 9.09009 244.01003 8.93211 245.43697 8.77852 246.86394 8.62448 248.2909 8.4801 249.71785 8.33046 251.1448 8.1861 252.57178 8.0452 253.99872 7.90479 255.42569 7.76875 256.85267 7.63708 258.2796 7.50587 259.70658 7.37378 261.13356 7.24652 262.56047 7.12408 263.98744 7.00078 265.4144 6.87746 266.84135 6.75897 268.2683 6.64137 269.69529 6.52684 271.12223 6.41669 272.5492 6.30304 273.97615 6.19727 275.4031 6.08798 276.83009 5.98222 278.25703 5.88129 279.684 5.7808 281.11097 5.67987 282.5379 5.5785 283.96488 5.48679"/>
<use data-text="b" xlink:href="#font_3_2" transform="matrix(9.9626,0,0,-9.962899,137.345,144.05185)" fill="#bf0040"/>
<use data-text="=" xlink:href="#font_4_6" transform="matrix(9.9626,0,0,-9.962899,144.388,144.05185)" fill="#bf0040"/>
<use data-text="0" xlink:href="#font_4_1" transform="matrix(9.9626,0,0,-9.962899,154.88858,144.05185)" fill="#bf0040"/>
<use data-text="." xlink:href="#font_3_1" transform="matrix(9.9626,0,0,-9.962899,159.88599,144.05185)" fill="#bf0040"/>
<use data-text="5" xlink:href="#font_4_4" transform="matrix(9.9626,0,0,-9.962899,162.65299,144.05185)" fill="#bf0040"/>
</g>
<use data-text="x" xlink:href="#font_3_3" transform="matrix(9.9626,0,0,-9.962899,287.24598,151.87508)"/>
<use data-text="y" xlink:href="#font_3_4" transform="matrix(9.9626,0,0,-9.962899,118.226,9.580811)"/>
</svg>
