<svg xmlns="http://www.w3.org/2000/svg" xmlns:xlink="http://www.w3.org/1999/xlink" xmlns:inkscape="http://www.inkscape.org/namespaces/inkscape" version="1.1" width="241" height="100" viewBox="0 0 241 100">
<defs>
<clipPath id="clip_1">
<path transform="matrix(1.00002,0,0,-1.00005,1.095665,98.70213)" d="M0 0H238.63304V96.89969H0Z"/>
</clipPath>
<path id="font_2_3" d="M.48599244 .38136292C.48999024 .39537049 .48999024 .39736939 .48999024 .40437318 .48999024 .42237855 .47599793 .43138124 .46099855 .43138124 .45098878 .43138124 .43499757 .42536927 .42599488 .41036988 .42399598 .405365 .41600038 .37435914 .4119873 .35635377 .40499879 .33035279 .397995 .30334474 .3919983 .27633668L.34700013 .09628296C.34298707 .08126831 .2999878 .011245728 .23399353 .011245728 .18299866 .011245728 .17199707 .055267335 .17199707 .0922699 .17199707 .1382904 .18899536 .20030213 .22299195 .28833009 .23899842 .3293457 .24299622 .3403473 .24299622 .36035157 .24299622 .405365 .21099854 .4423828 .16099549 .4423828 .06599426 .4423828 .0289917 .29733277 .0289917 .28833009 .0289917 .27833558 .038986207 .27833558 .040985109 .27833558 .050994874 .27833558 .051986696 .28033448 .056991579 .29634095 .083999637 .3903656 .12399292 .42037965 .1579895 .42037965 .1659851 .42037965 .18299866 .42037965 .18299866 .3883667 .18299866 .36335755 .17298889 .3373413 .1659851 .31834413 .12599182 .21231079 .10798645 .1552887 .10798645 .10827637 .10798645 .019256592 .17098999-.0107421879 .22999573-.0107421879 .2689972-.0107421879 .30299378 .0062561037 .33099366 .03425598 .31799317-.017745972 .30599977-.06674194 .2659912-.11973572 .23999024-.15385437 .20199585-.18309021 .1559906-.18309021 .14199829-.18309021 .09700012-.18005371 .07998657-.14074707 .09599304-.14074707 .10899353-.14074707 .12298584-.1287384 .1329956-.11973572 .14299011-.10673523 .14299011-.08773804 .14299011-.056747438 .115997318-.052734376 .10598755-.052734376 .08299255-.052734376 .049987794-.068740848 .049987794-.11773682 .049987794-.16796875 .09399414-.20507813 .1559906-.20507813 .25898744-.20507813 .3619995-.11373901 .3899994-.00074768069L.48599244 .38136292Z"/>
<path id="font_3_5" d="M.68699648 .32714845C.70199587 .32714845 .72099307 .32714845 .72099307 .34713746 .72099307 .36714173 .70199587 .36714173 .6879883 .36714173H.08898926C.07499695 .36714173 .055999757 .36714173 .055999757 .34713746 .055999757 .32714845 .07499695 .32714845 .08999634 .32714845H.68699648M.6879883 .13284302C.70199587 .13284302 .72099307 .13284302 .72099307 .15284729 .72099307 .17285156 .70199587 .17285156 .68699648 .17285156H.08999634C.07499695 .17285156 .055999757 .17285156 .055999757 .15284729 .055999757 .13284302 .07499695 .13284302 .08898926 .13284302H.6879883Z"/>
<path id="font_3_1" d="M.45999146 .31976319C.45999146 .39982606 .45498658 .47988893 .41999818 .5539398 .37399293 .65000918 .2919922 .6660156 .25 .6660156 .18998719 .6660156 .116989139 .64001467 .07598877 .54693606 .04399109 .47789 .038986207 .39982606 .038986207 .31976319 .038986207 .24472046 .042999269 .15464783 .083999637 .07859802 .1269989-.0024719239 .19999695-.022460938 .24899292-.022460938 .30299378-.022460938 .3789978-.0014648438 .4229889 .09359741 .45498658 .16265869 .45999146 .2407074 .45999146 .31976319M.24899292-.00047302247C.20999146-.00047302247 .15098572 .024551392 .1329956 .12062073 .12199402 .18066406 .12199402 .2727356 .12199402 .3317871 .12199402 .39582826 .12199402 .46188355 .12998963 .5159149 .14898682 .63500979 .22399903 .64401248 .24899292 .64401248 .28199769 .64401248 .34799195 .6259918 .36698915 .52693179 .3769989 .47088624 .3769989 .39482118 .3769989 .3317871 .3769989 .25672914 .3769989 .18867493 .3659973 .12461853 .35099793 .029556275 .2939911-.00047302247 .24899292-.00047302247Z"/>
<path id="font_3_3" d="M.1269989 .07699585 .23298645 .18003845C.3889923 .31811524 .44898988 .3721466 .44898988 .47216798 .44898988 .5860901 .35899354 .6660156 .23699951 .6660156 .12399292 .6660156 .049987794 .57411196 .049987794 .48516847 .049987794 .4291687 .099990848 .4291687 .102996829 .4291687 .11999512 .4291687 .15499878 .44117738 .15499878 .48217774 .15499878 .5081787 .13699341 .5341797 .101989749 .5341797 .09399414 .5341797 .09199524 .5341797 .08898926 .5331726 .11199951 .59806826 .1659851 .63500979 .22399903 .63500979 .31498719 .63500979 .35798646 .5541382 .35798646 .47216798 .35798646 .39215089 .30799867 .31311036 .25299073 .25108338L.06098938 .036987306C.049987794 .025985718 .049987794 .023986817 .049987794 0H.42099L.44898988 .17404175H.42399598C.4189911 .14402771 .4119873 .1000061 .4019928 .084991458 .394989 .07699585 .32899476 .07699585 .30699159 .07699585H.1269989Z"/>
<path id="font_4_1" d="M.19198609 .2502594C.19198609 .2792511 .16799927 .30325318 .13899231 .30325318 .10998535 .30325318 .085998538 .2792511 .085998538 .2502594 .085998538 .22125244 .10998535 .19726563 .13899231 .19726563 .16799927 .19726563 .19198609 .22125244 .19198609 .2502594Z"/>
<path id="font_3_2" d="M.2939911 .64004519C.2939911 .66400149 .2939911 .6660156 .2709961 .6660156 .20899964 .60227969 .12098694 .60227969 .08898926 .60227969V.57128909C.10899353 .57128909 .16799927 .57128909 .21998596 .5972748V.07902527C.21998596 .042999269 .21699524 .0309906 .1269989 .0309906H.09498596V0C.12998963 .0029907227 .21699524 .0029907227 .25698854 .0029907227 .29699708 .0029907227 .38398744 .0029907227 .4189911 0V.0309906H.3869934C.29699708 .0309906 .2939911 .041992189 .2939911 .07902527V.64004519Z"/>
<path id="font_2_1" d="M.19198609 .052993776C.19198609 .08198547 .16799927 .10598755 .13899231 .10598755 .10998535 .10598755 .085998538 .08198547 .085998538 .052993776 .085998538 .023986817 .10998535 0 .13899231 0 .16799927 0 .19198609 .023986817 .19198609 .052993776Z"/>
<path id="font_3_4" d="M.47599793 .609375C.4850006 .6213684 .4850006 .62338259 .4850006 .64437869H.24198914C.11999512 .64437869 .117996219 .65737918 .11399841 .67637637H.08898926L.055999757 .4702301H.08099365C.083999637 .48625184 .09298706 .5493469 .10598755 .56137087 .11299133 .5673828 .19099427 .5673828 .20399475 .5673828H.41099549C.3999939 .5513611 .32099916 .4421997 .29899598 .40914918 .20899964 .27394105 .17599488 .1347351 .17599488 .032577516 .17599488 .022567749 .17599488-.022460938 .22200012-.022460938 .2679901-.022460938 .2679901 .022567749 .2679901 .032577516V.08366394C.2679901 .13873291 .2709961 .19381714 .2789917 .24790955 .2829895 .27093507 .29699708 .35707093 .34098817 .41915895L.47599793 .609375Z"/>
<path id="font_5_1" d="M.24899292 .10601807C.23899842 .072021488 .20599365 .018234253 .15499878 .018234253 .1519928 .018234253 .12199402 .018234253 .100997928 .03215027 .14199829 .04508972 .14498902 .08100891 .14498902 .087020877 .14498902 .10900879 .12799073 .12402344 .10499573 .12402344 .07699585 .12402344 .04798889 .10002136 .04798889 .0630188 .04798889 .01322937 .10398865-.009765625 .15299988-.009765625 .19898987-.009765625 .23999024 .019226075 .2649994 .061019899 .2889862 .008224487 .34399415-.009765625 .38398744-.009765625 .49899293-.009765625 .55999758 .11502075 .55999758 .14305115 .55999758 .15608216 .5469971 .15608216 .5439911 .15608216 .5299988 .15608216 .5289917 .15107727 .5249939 .13905335 .5039978 .07002258 .44400025 .018234253 .3880005 .018234253 .34799195 .018234253 .32699586 .04508972 .32699586 .08302307 .32699586 .10900879 .35099793 .20018006 .3789978 .31140138 .39898683 .38841249 .44400025 .4133911 .47698976 .4133911 .47898866 .4133911 .5099945 .4133911 .5309906 .39941407 .49899293 .39041139 .4869995 .3624115 .4869995 .34440614 .4869995 .32240296 .5039978 .30740357 .5269928 .30740357 .5499878 .30740357 .58299258 .32640077 .58299258 .3684082 .58299258 .4243927 .5189972 .44140626 .47898866 .44140626 .42900086 .44140626 .3889923 .4084015 .36698915 .3704071 .34899903 .4113922 .30299378 .44140626 .24699402 .44140626 .1349945 .44140626 .070999149 .31840516 .070999149 .2883606 .070999149 .27534486 .084991458 .27534486 .08799744 .27534486 .100997928 .27534486 .101989749 .27934266 .10699463 .29237367 .13198853 .3704071 .19499207 .4133911 .24398804 .4133911 .2769928 .4133911 .3039856 .395401 .3039856 .3474121 .3039856 .32740785 .2919922 .27734376 .2829895 .24327088L.24899292 .10601807Z"/>
<path id="font_2_2" d="M.33399964 .30233766C.33999635 .32835389 .36299134 .42037965 .43299867 .42037965 .43798829 .42037965 .46199037 .42037965 .48298646 .40734864 .45498658 .402359 .43499757 .37734986 .43499757 .35334779 .43499757 .33735658 .44599916 .31835938 .47299195 .31835938 .49499513 .31835938 .5269928 .3363495 .5269928 .37635804 .5269928 .42837525 .46798707 .4423828 .43399049 .4423828 .37599183 .4423828 .34098817 .38935853 .32899476 .36634828 .3039856 .43237306 .25 .4423828 .22099304 .4423828 .116989139 .4423828 .05999756 .3133545 .05999756 .28834535 .05999756 .27833558 .069992069 .27833558 .07199097 .27833558 .07998657 .27833558 .08299255 .28033448 .084991458 .28933717 .11898804 .39535523 .18499756 .42037965 .21899414 .42037965 .23799134 .42037965 .272995 .4113617 .272995 .35334779 .272995 .32235719 .2559967 .25532533 .21899414 .11528015 .20298767 .053268434 .16799927 .011245728 .12399292 .011245728 .117996219 .011245728 .09498596 .011245728 .07398987 .024276734 .09899902 .029266358 .12098694 .05027771 .12098694 .07827759 .12098694 .105270389 .09899902 .11328125 .083999637 .11328125 .053985597 .11328125 .0289917 .08728027 .0289917 .055267335 .0289917 .009246826 .07899475-.0107421879 .12298584-.0107421879 .18899536-.0107421879 .22499085 .059280397 .22799683 .0652771 .23999024 .028274537 .27598573-.0107421879 .33599855-.0107421879 .43899537-.0107421879 .49598695 .118270877 .49598695 .14328003 .49598695 .1532898 .4869995 .1532898 .48399354 .1532898 .47499085 .1532898 .47299195 .14929199 .47099305 .14228821 .43798829 .03527832 .36999513 .011245728 .33799745 .011245728 .29899598 .011245728 .2829895 .043273927 .2829895 .07727051 .2829895 .09927368 .2889862 .121276859 .2999878 .16529846L.33399964 .30233766Z"/>
</defs>
<path transform="matrix(1.00002,0,0,-1.00005,1.095665,98.70213)" stroke-width=".3985" stroke-linecap="butt" stroke-miterlimit="10" stroke-linejoin="miter" fill="none" stroke="#000000" d="M0 28.49991H236.64052"/>
<path transform="matrix(1.00002,0,0,-1.00005,237.74094,70.2008)" d="M1.99252 0-1.19551 1.59401 0 0-1.19551-1.59401"/>
<path transform="matrix(1.00002,0,0,-1.00005,1.095665,98.70213)" stroke-width=".3985" stroke-linecap="butt" stroke-miterlimit="10" stroke-linejoin="miter" fill="none" stroke="#000000" d="M136.36174 0V94.90717"/>
<path transform="matrix(0,-1.00005,-1.00002,-0,137.46015,3.7902222)" d="M1.99252 0-1.19551 1.59401 0 0-1.19551-1.59401"/>
<g clip-path="url(#clip_1)">
<path transform="matrix(1.00002,0,0,-1.00005,1.095665,98.70213)" stroke-width=".79701" stroke-linecap="butt" stroke-miterlimit="10" stroke-linejoin="miter" fill="none" stroke="#000000" d="M0 31.22964 1.19916 31.28194 2.39832 31.33461 3.59747 31.38681 4.79665 31.44177 5.9958 31.49626 7.19496 31.5535 8.39413 31.61049 9.59329 31.66954 10.79245 31.72905 11.99162 31.79062 13.19078 31.85217 14.38994 31.91602 15.58911 31.97984 16.78827 32.04596 17.98743 32.11209 19.18658 32.18071 20.38576 32.2514 21.58492 32.32184 22.78407 32.39252 23.98325 32.46548 25.1824 32.54073 26.38156 32.61618 27.58073 32.69348 28.77989 32.77351 29.97905 32.85307 31.17822 32.93517 32.37738 33.01976 33.57654 33.10388 34.77571 33.19098 35.97487 33.27968 37.17403 33.37088 38.3732 33.4623 39.57237 33.55554 40.77153 33.65154 41.97069 33.74728 43.16986 33.8474 44.36902 33.94794 45.56818 34.05054 46.76735 34.15541 47.9665 34.26053 49.16566 34.36996 50.36484 34.47917 51.564 34.5934 52.76315 34.7074 53.96231 34.82619 55.16148 34.94429 56.36064 35.06537 57.5598 35.1887 58.75897 35.31639 59.95813 35.44408 61.15729 35.57402 62.35646 35.70831 63.55562 35.84306 64.75478 35.98215 65.95395 36.1235 67.1531 36.26714 68.35226 36.41328 69.55144 36.5615 70.7506 36.71425 71.94975 36.8693 73.14891 37.02661 74.34808 37.1862 75.54724 37.35037 76.74641 37.51726 77.94559 37.6878 79.14474 37.85902 80.3439 38.03688 81.54308 38.21722 82.74223 38.39963 83.94139 38.58658 85.14056 38.77582 86.33972 38.96962 87.53888 39.1657 88.73805 39.36656 89.93721 39.57176 91.13637 39.78154 92.33553 39.9938 93.5347 40.21017 94.73386 40.42928 95.93301 40.65523 97.13219 40.883 98.33134 41.11783 99.5305 41.35518 100.72968 41.59686 101.92883 41.84332 103.12799 42.0964 104.32716 42.35176 105.52634 42.61168 106.7255 42.87866 107.92465 43.15 109.12383 43.42587 110.32298 43.7063 111.52214 43.99405 112.72131 44.28587 113.92049 44.58228 115.11964 44.88553 116.31882 45.19354 117.51797 45.50795 118.71713 45.82944 119.9163 46.1557 121.11548 46.4863 122.31464 46.82625 123.51381 47.17076 124.71297 47.52415 125.91214 47.88211 127.1113 48.2469 128.31047 48.61855 129.50963 48.99748 130.70879 49.38509 131.90796 49.77702 133.10712 50.17851 134.30628 50.58687 135.50547 51.00204 136.70462 51.42159 137.90378 51.8534 139.10295 52.29297 140.30211 52.74144 141.50128 53.19792 142.70044 53.66304 143.89962 54.13705 145.09877 54.6197 146.29793 55.11197 147.49712 55.61311 148.69628 56.12428 149.89543 56.64412 151.0946 57.17445 152.29376 57.7148 153.49292 58.26474 154.6921 58.82516 155.89127 59.39676 157.09043 59.97862 158.2896 60.57141 159.48876 61.1756 160.68791 61.79166 161.88709 62.41843 163.08626 63.05704 164.28542 63.70845 165.48458 64.37148 166.68375 65.04681 167.8829 65.73514 169.08206 66.43736 170.28125 67.15146 171.48041 67.87994 172.67957 68.62183 173.87874 69.37788 175.0779 70.14761 176.27706 70.93216 177.47621 71.7313 178.67539 72.54572 179.87454 73.37518 181.0737 74.22012 182.27288 75.08127 183.47203 75.9593 184.67119 76.8526 185.87036 77.76369 187.06952 78.69167 188.26868 79.63785 189.46785 80.6007 190.667 81.58177 191.86617 82.58153 193.06534 83.60117 194.2645 84.63786 195.46367 85.69559 196.66283 86.77264 197.862 87.8709 199.06116 88.98924 200.26032 90.12946 201.45949 91.29088 202.65865 92.47328 203.8578 93.67737 205.05698 94.90628 206.25614 96.15594 207.45529 97.43092 208.65447 98.7287 209.85363 100.05289 211.05278 101.39948 212.25194 102.77315 213.45111 104.17172 214.65027 105.5983 215.84943 107.04884 217.0486 108.529 218.24776 110.03677 219.44692 111.57347 220.64609 113.1396 221.84525 114.73264 223.0444 116.35803 224.24358 118.01195 225.44274 119.69916 226.64189 121.41507 227.84107 123.16771 229.04022 124.95042 230.23938 126.7662 231.43854 128.61759 232.63773 130.50493 233.83689 132.42401 235.03604 134.38277 236.23522 136.37685 237.43437 138.409 238.63353 140.479"/>
<path transform="matrix(1.00002,0,0,-1.00005,1.095665,98.70213)" stroke-width="2.1918" stroke-linecap="butt" stroke-dasharray="2.98883,2.98883" stroke-miterlimit="10" stroke-linejoin="miter" fill="none" stroke="#000000" d="M0 28.49991H136.36174"/>
<use data-text="y" xlink:href="#font_2_3" transform="matrix(9.962799,0,0,-9.963098,33.660318,80.141208)"/>
<use data-text="=" xlink:href="#font_3_5" transform="matrix(9.962799,0,0,-9.963098,41.66948,80.141208)"/>
<use data-text="0" xlink:href="#font_3_1" transform="matrix(9.962799,0,0,-9.963098,52.170267,80.141208)"/>
<use data-text="y" xlink:href="#font_2_3" transform="matrix(9.962799,0,0,-9.963098,92.30949,18.959153)"/>
<use data-text="=" xlink:href="#font_3_5" transform="matrix(9.962799,0,0,-9.963098,100.31865,18.959153)"/>
<use data-text="2" xlink:href="#font_3_3" transform="matrix(9.962799,0,0,-9.963098,110.819438,18.959153)"/>
<use data-text="&#x00b7;" xlink:href="#font_4_1" transform="matrix(9.962799,0,0,-9.963098,118.031,18.959153)"/>
<use data-text="1" xlink:href="#font_3_2" transform="matrix(9.962799,0,0,-9.963098,123.0121,18.959153)"/>
<use data-text="." xlink:href="#font_2_1" transform="matrix(9.962799,0,0,-9.963098,127.9932,18.959153)"/>
<use data-text="7" xlink:href="#font_3_4" transform="matrix(9.962799,0,0,-9.963098,130.76126,18.959153)"/>
<use data-text="x" xlink:href="#font_5_1" transform="matrix(6.97394,0,0,-6.9741489,135.74237,15.342972)"/>
</g>
<use data-text="x" xlink:href="#font_2_2" transform="matrix(9.962799,0,0,-9.963098,230.56125,66.67554)"/>
<use data-text="y" xlink:href="#font_2_3" transform="matrix(9.962799,0,0,-9.963098,141.00849,9.586685)"/>
</svg>
