<svg xmlns="http://www.w3.org/2000/svg" xmlns:xlink="http://www.w3.org/1999/xlink" xmlns:inkscape="http://www.inkscape.org/namespaces/inkscape" version="1.1" width="47" height="46" viewBox="0 0 47 46">
<defs>
<path id="font_1_1" d="M.44898988 .20022583C.44898988 .3193512 .36698915 .41944886 .25898744 .41944886 .21099854 .41944886 .16799927 .40345765 .13198853 .36842347V.5637665C.1519928 .5577698 .18499756 .55078127 .21699524 .55078127 .33999635 .55078127 .4099884 .6417694 .4099884 .6547699 .4099884 .6607666 .40699769 .6657715 .3999939 .6657715 .39898683 .6657715 .39698792 .6657715 .3919983 .66278079 .37199403 .6537781 .32299806 .6337738 .2559967 .6337738 .21598816 .6337738 .16999817 .6407776 .12298584 .6617737 .114990238 .66477969 .11299133 .66477969 .11099243 .66477969 .100997928 .66477969 .100997928 .6567688 .100997928 .6407776V.34439088C.100997928 .32637025 .100997928 .31835938 .114990238 .31835938 .12199402 .31835938 .12399292 .32136537 .12799073 .32736207 .13899231 .3433838 .17599488 .39746095 .25698854 .39746095 .30899049 .39746095 .33399964 .35139466 .34199525 .33337403 .35798646 .29632569 .3600006 .25727845 .3600006 .20722962 .3600006 .17222595 .3600006 .11222839 .33599855 .07035828 .31199647 .031463624 .2749939 .0055389406 .22898865 .0055389406 .1559906 .0055389406 .09899902 .058380128 .08198547 .11723328 .084991458 .1162262 .08799744 .115234378 .09899902 .115234378 .13198853 .115234378 .14898682 .14022827 .14898682 .16423035 .14898682 .18823242 .13198853 .21322632 .09899902 .21322632 .084991458 .21322632 .049987794 .20622254 .049987794 .16023255 .049987794 .07434082 .11898804-.022460938 .23098755-.022460938 .34700013-.022460938 .44898988 .073349 .44898988 .20022583Z"/>
</defs>
<path transform="matrix(1,0,0,-1.00005,23.555,23.259362)" stroke-width=".79701" stroke-linecap="butt" stroke-miterlimit="10" stroke-linejoin="miter" fill="none" stroke="#000000" d="M21.2601 0C21.2601 11.74178 11.74178 21.2601 0 21.2601-11.74178 21.2601-21.2601 11.74178-21.2601 0-21.2601-11.74178-11.74178-21.2601 0-21.2601 11.74178-21.2601 21.2601-11.74178 21.2601 0ZM0 0"/>
<path transform="matrix(1,0,0,-1.00005,23.555,23.259362)" stroke-width=".3985" stroke-linecap="butt" stroke-dasharray="2.98883,2.98883" stroke-miterlimit="10" stroke-linejoin="miter" fill="none" stroke="#000000" d="M-21.2601 0C-21.2601-3.52249-11.74178-6.37796 0-6.37796 11.74178-6.37796 21.2601-3.52249 21.2601 0"/>
<path transform="matrix(1,0,0,-1.00005,23.555,23.259362)" stroke-width=".79701" stroke-linecap="butt" stroke-miterlimit="10" stroke-linejoin="miter" fill="none" stroke="#000000" d="M-21.2601 0C-21.2601 3.52249-11.74178 6.37796 0 6.37796 11.74178 6.37796 21.2601 3.52249 21.2601 0"/>
<path transform="matrix(1,0,0,-1.00005,23.555,23.259362)" stroke-width=".3985" stroke-linecap="butt" stroke-miterlimit="10" stroke-linejoin="miter" fill="none" stroke="#000000" d="M.3985 0H20.86159"/>
<path transform="matrix(-1,-0,0,1.00005,23.75425,23.259362)" stroke-width=".3985" stroke-linecap="round" stroke-linejoin="round" fill="none" stroke="#000000" d="M-2.07224 2.39104C-1.69365 .95639-.84999 .27895 0 0-.84999-.27895-1.69365-.95639-2.07224-2.39104"/>
<path transform="matrix(1,0,0,-1.00005,44.61584,23.259362)" stroke-width=".3985" stroke-linecap="round" stroke-linejoin="round" fill="none" stroke="#000000" d="M-2.07224 2.39104C-1.69365 .95639-.84999 .27895 0 0-.84999-.27895-1.69365-.95639-2.07224-2.39104"/>
<use data-text="5" xlink:href="#font_1_1" transform="matrix(9.9626,0,0,-9.963098,31.694,19.739186)"/>
<path transform="matrix(1,0,0,-1.00005,23.555,23.259362)" d="M.74721 0C.74721 .41266 .41266 .74721 0 .74721-.41266 .74721-.74721 .41266-.74721 0-.74721-.41266-.41266-.74721 0-.74721 .41266-.74721 .74721-.41266 .74721 0ZM0 0"/>
</svg>
