<svg xmlns="http://www.w3.org/2000/svg" xmlns:xlink="http://www.w3.org/1999/xlink" xmlns:inkscape="http://www.inkscape.org/namespaces/inkscape" version="1.1" width="88" height="100" viewBox="0 0 88 100">
<defs>
<path id="font_1_1" d="M.37298585 .37835694C.35499574 .41537477 .32598878 .4423828 .2809906 .4423828 .1639862 .4423828 .039993287 .29533387 .039993287 .14929199 .039993287 .055267335 .09498596-.0107421879 .17298889-.0107421879 .19299317-.0107421879 .24299622-.0067443849 .30299378 .06427002 .31098939 .022247315 .34599305-.0107421879 .3939972-.0107421879 .42900086-.0107421879 .45199586 .012252808 .46798707 .044265748 .4850006 .08027649 .49798585 .14129639 .49798585 .14329529 .49798585 .1532898 .4889984 .1532898 .48599244 .1532898 .47599793 .1532898 .47499085 .14929199 .47200013 .13528443 .45498658 .07026672 .43699647 .011245728 .3959961 .011245728 .36898805 .011245728 .3659973 .037261964 .3659973 .057266237 .3659973 .07926941 .36799623 .08728027 .3789978 .13128662 .3899994 .17329407 .3919983 .18330384 .40098573 .22131348L.43699647 .36135865C.44400025 .38935853 .44400025 .39135743 .44400025 .39537049 .44400025 .41236878 .43199159 .42237855 .4149933 .42237855 .3909912 .42237855 .37599183 .4003601 .37298585 .37835694M.30799867 .119277957C.30299378 .10127258 .30299378 .09927368 .28799439 .08227539 .24398804 .027252198 .20298767 .011245728 .1749878 .011245728 .125 .011245728 .11099243 .06626892 .11099243 .105285648 .11099243 .1552887 .14299011 .27833558 .1659851 .32434083 .19699097 .38336183 .24198914 .42037965 .28199769 .42037965 .34700013 .42037965 .36099244 .3383484 .36099244 .33235169 .36099244 .32633973 .35899354 .32034303 .35798646 .31533814L.30799867 .119277957Z"/>
</defs>
<path transform="matrix(1.00002,0,0,-1.00002,1.7368012,90.58763)" d="M0 0H84.32835L42.16415 89.14705Z" fill="#ebebff"/>
<path transform="matrix(1.00002,0,0,-1.00002,1.7368012,90.58763)" stroke-width=".3985" stroke-linecap="butt" stroke-dasharray="2.98883,2.98883" stroke-miterlimit="10" stroke-linejoin="miter" fill="none" stroke="#000000" d="M0 0 50.59717 28.91249"/>
<path transform="matrix(1.00002,0,0,-1.00002,1.7368012,90.58763)" stroke-width=".79701" stroke-linecap="butt" stroke-miterlimit="10" stroke-linejoin="miter" fill="none" stroke="#000000" d="M0 0H84.32835"/>
<path transform="matrix(1.00002,0,0,-1.00002,1.7368012,90.58763)" stroke-width=".3985" stroke-linecap="butt" stroke-dasharray="2.98883,2.98883" stroke-miterlimit="10" stroke-linejoin="miter" fill="none" stroke="#000000" d="M84.32835 0 50.59717 28.91249"/>
<path transform="matrix(1.00002,0,0,-1.00002,1.7368012,90.58763)" stroke-width=".79701" stroke-linecap="butt" stroke-miterlimit="10" stroke-linejoin="miter" fill="none" stroke="#000000" d="M0 0 42.16415 89.14705"/>
<path transform="matrix(1.00002,0,0,-1.00002,1.7368012,90.58763)" stroke-width=".79701" stroke-linecap="butt" stroke-miterlimit="10" stroke-linejoin="miter" fill="none" stroke="#000000" d="M84.32835 0 42.16415 89.14705"/>
<path transform="matrix(1.00002,0,0,-1.00002,1.7368012,90.58763)" stroke-width=".3985" stroke-linecap="butt" stroke-dasharray="2.98883,2.98883" stroke-miterlimit="10" stroke-linejoin="miter" fill="none" stroke="#000000" d="M50.59717 28.91249 42.16415 89.14705"/>
<use data-text="a" xlink:href="#font_1_1" transform="matrix(9.962799,0,0,-9.962799,41.270597,98.39679)"/>
<use data-text="a" xlink:href="#font_1_1" transform="matrix(9.962799,0,0,-9.962799,12.227013,46.950757)"/>
<use data-text="a" xlink:href="#font_1_1" transform="matrix(9.962799,0,0,-9.962799,70.31417,46.950757)"/>
</svg>
