<svg xmlns="http://www.w3.org/2000/svg" xmlns:xlink="http://www.w3.org/1999/xlink" xmlns:inkscape="http://www.inkscape.org/namespaces/inkscape" version="1.1" width="362" height="117" viewBox="0 0 362 117">
<defs>
<path id="font_1_98" d="M.3600006 .12823487C.3600006 .18122864 .32998658 .21122742 .31799317 .22323609 .2849884 .25523377 .24598694 .26322938 .20399475 .27124024 .147995 .28224183 .08099365 .29522706 .08099365 .35324098 .08099365 .38822938 .10699463 .42922975 .19299317 .42922975 .30299378 .42922975 .30799867 .3392334 .30999757 .30822755 .31098939 .2992401 .32199098 .2992401 .32199098 .2992401 .33499146 .2992401 .33499146 .30422975 .33499146 .32322694V.4242401C.33499146 .4412384 .33499146 .4482422 .32398988 .4482422 .31900025 .4482422 .31698609 .4482422 .3039856 .43623353 .30099488 .43223573 .29100038 .42323304 .2869873 .42022706 .24899292 .4482422 .20799256 .4482422 .19299317 .4482422 .070999149 .4482422 .032989503 .38124085 .032989503 .3252411 .032989503 .29023744 .04899597 .26223756 .07598877 .24023438 .10798645 .2142334 .13598633 .2082367 .20799256 .19422913 .22999573 .19021607 .31199647 .17422486 .31199647 .10221863 .31199647 .051223756 .2769928 .011245728 .19898987 .011245728 .114990238 .011245728 .07899475 .068222049 .05999756 .1532135 .056991579 .16621399 .055999757 .17021179 .04598999 .17021179 .032989503 .17021179 .032989503 .16322327 .032989503 .1452179V.013214111C.032989503-.003753662 .032989503-.0107421879 .04399109-.0107421879 .04899597-.0107421879 .049987794-.009750366 .068984989 .009246826 .070999149 .011245728 .070999149 .013214111 .08898926 .032226564 .1329956-.009750366 .17799378-.0107421879 .19898987-.0107421879 .31399537-.0107421879 .3600006 .05621338 .3600006 .1282196V.12823487Z"/>
<path id="font_1_84" d="M.5209961 .21636963C.5209961 .34336854 .42399598 .4423828 .31199647 .4423828 .23399353 .4423828 .19198609 .39837647 .17199707 .3763733V.4423828L.027999878 .43066407V.3996582C.09899902 .3996582 .10598755 .3936615 .10598755 .34973146V-.117996219C.10598755-.16308594 .09498596-.16308594 .027999878-.16308594V-.1940918L.13999939-.19110108 .25299073-.1940918V-.16308594C.18598938-.16308594 .1749878-.16308594 .1749878-.117996219V.050186159 .059173585C.17999268 .04319763 .22200012-.0107421879 .2979889-.0107421879 .4169922-.0107421879 .5209961 .087127689 .5209961 .21594239V.21636963M.43798829 .21594239C.43798829 .09512329 .36799623 .011245728 .2939911 .011245728 .2539978 .011245728 .21598816 .031219483 .18899536 .07215881 .1749878 .09312439 .1749878 .09411621 .1749878 .114089969V.33674623C.20399475 .38838197 .25299073 .41737367 .3039856 .41737367 .3769989 .41737367 .43798829 .32937623 .43798829 .21636963V.21594239Z"/>
<path id="font_1_63" d="M.5349884 0V.0309906C.48298646 .0309906 .45799256 .0309906 .45700074 .061019899V.25221253C.45700074 .3383026 .45700074 .36932374 .42599488 .405365 .4119873 .42237855 .3789978 .4423828 .32099916 .4423828 .23699951 .4423828 .19299317 .38233949 .1769867 .34629823H.17599488V.69433596L.03199768 .6826172V.6516113C.101989749 .6516113 .10998535 .64463809 .10998535 .59580996V.076034549C.10998535 .0309906 .09899902 .0309906 .03199768 .0309906V0L.14498902 .0029907227 .25698854 0V.0309906C.18998719 .0309906 .1789856 .0309906 .1789856 .076034549V.2602234C.1789856 .36431886 .25 .42037965 .31399537 .42037965 .3769989 .42037965 .3880005 .36631776 .3880005 .30926515V.076034549C.3880005 .0309906 .3769989 .0309906 .30999757 .0309906V0L.4229889 .0029907227 .5349884 0Z"/>
<path id="font_1_50" d="M.4149933 .11933899C.4149933 .12934876 .40699769 .13134766 .4019928 .13134766 .3929901 .13134766 .3909912 .12535095 .3889923 .11734009 .35398866 .014251709 .2639923 .014251709 .2539978 .014251709 .20399475 .014251709 .1639862 .044281007 .14099121 .08131409 .11099243 .12934876 .11099243 .19540406 .11099243 .23144531H.3899994C.4119873 .23144531 .4149933 .23144531 .4149933 .2524414 .4149933 .35131837 .36099244 .4482422 .23599243 .4482422 .11999512 .4482422 .027999878 .34532167 .027999878 .22042847 .027999878 .08631897 .1329956-.0107421879 .24798584-.0107421879 .36999513-.0107421879 .4149933 .10032654 .4149933 .11933899M.34899903 .2524414H.11199951C.117996219 .40126039 .20199585 .426239 .23599243 .426239 .33898927 .426239 .34899903 .2913971 .34899903 .2524414Z"/>
<path id="font_1_96" d="M.3639984 .38137818C.3639984 .41337586 .33299256 .4423828 .2899933 .4423828 .21699524 .4423828 .18099976 .37538148 .16699219 .3323822V.4423828L.027999878 .43066407V.3996582C.09799194 .3996582 .10598755 .39266969 .10598755 .34370423V.07595825C.10598755 .0309906 .09498596 .0309906 .027999878 .0309906V0L.14199829 .0029907227C.18199158 .0029907227 .22898865 .0029907227 .2689972 0V.0309906H.24798584C.17399597 .0309906 .17199707 .04197693 .17199707 .07795715V.23181153C.17199707 .33137513 .21398926 .42037965 .2899933 .42037965 .29699708 .42037965 .29899598 .42037965 .30099488 .41937257 .2979889 .41838075 .27799989 .40637208 .27799989 .3803711 .27799989 .35237123 .29899598 .33737184 .32099916 .33737184 .33898927 .33737184 .3639984 .3493805 .3639984 .38137818Z"/>
<path id="font_1_66" d="M.24699402 0V.0309906C.18099976 .0309906 .1769867 .035995485 .1769867 .075042728V.4423828L.036987306 .43066407V.3996582C.101989749 .3996582 .11099243 .3936615 .11099243 .3447113V.07595825C.11099243 .0309906 .099990848 .0309906 .032989503 .0309906V0L.14299011 .0029907227C.17799378 .0029907227 .21299744 .0009918213 .24699402 0M.19198609 .603775C.19198609 .6307678 .16899109 .6567688 .13899231 .6567688 .10499573 .6567688 .084991458 .6287689 .084991458 .603775 .084991458 .57676699 .10798645 .55078127 .13798523 .55078127 .17199707 .55078127 .19198609 .5787811 .19198609 .603775Z"/>
<path id="font_1_77" d="M.5349884 0V.0309906C.48298646 .0309906 .45799256 .0309906 .45700074 .061019899V.25221253C.45700074 .3383026 .45700074 .36932374 .42599488 .405365 .4119873 .42237855 .3789978 .4423828 .32099916 .4423828 .24798584 .4423828 .20098877 .39935304 .17298889 .33729554V.4423828L.03199768 .43066407V.3996582C.101989749 .3996582 .10998535 .39266969 .10998535 .34370423V.07595825C.10998535 .0309906 .09899902 .0309906 .03199768 .0309906V0L.14498902 .0029907227 .25698854 0V.0309906C.18998719 .0309906 .1789856 .0309906 .1789856 .07595825V.25978089C.1789856 .36431886 .25 .42037965 .31399537 .42037965 .3769989 .42037965 .3880005 .36631776 .3880005 .30926515V.076034549C.3880005 .0309906 .3769989 .0309906 .30999757 .0309906V0L.4229889 .0029907227 .5349884 0Z"/>
<path id="font_1_47" d="M.5269928 0V.0309906C.45700074 .0309906 .44898988 .038009645 .44898988 .0871582V.69433596L.30499269 .6826172V.6516113C.375 .6516113 .3829956 .64463809 .3829956 .59580996V.38035584C.35398866 .41636659 .31098939 .4423828 .25698854 .4423828 .13899231 .4423828 .033996583 .3443451 .033996583 .21531677 .033996583 .088272098 .13198853-.0107421879 .24598694-.0107421879 .30999757-.0107421879 .35499574 .023254395 .37998963 .055267335V-.0107421879L.5269928 0M.37998963 .117996219C.37998963 .099990848 .37998963 .09799194 .36898805 .08099365 .33898927 .033218385 .2939911 .011245728 .25099183 .011245728 .20599365 .011245728 .16999817 .037216188 .1459961 .075164798 .11999512 .1161499 .116989139 .17320252 .116989139 .21421814 .116989139 .25125123 .11898804 .31129457 .147995 .35632325 .16899109 .38734437 .20698548 .42037965 .26098634 .42037965 .29599 .42037965 .33799745 .405365 .36898805 .3603363 .37998963 .34332276 .37998963 .34132386 .37998963 .32330323V.117996219Z"/>
<path id="font_1_43" d="M.4149933 .119140628C.4149933 .12911988 .40499879 .12911988 .4019928 .12911988 .3929901 .12911988 .3909912 .12512207 .3889923 .119140628 .3600006 .026229859 .29499818 .014251709 .2579956 .014251709 .20498657 .014251709 .116989139 .0572052 .116989139 .21801758 .116989139 .38093568 .19898987 .42323304 .2519989 .42323304 .26098634 .42323304 .32398988 .42222596 .35899354 .38594056 .31799317 .38293458 .31199647 .3529358 .31199647 .3399353 .31199647 .31393434 .32998658 .2939453 .35798646 .2939453 .38398744 .2939453 .4039917 .3109436 .4039917 .34094239 .4039917 .40911866 .32798768 .4482422 .25099183 .4482422 .12599182 .4482422 .033996583 .3399353 .033996583 .21601868 .033996583 .08816528 .1329956-.0107421879 .24899292-.0107421879 .3829956-.0107421879 .4149933 .10914612 .4149933 .119140628Z"/>
<path id="font_1_118" d="M.5079956 .3996582V.43066407C.4850006 .4286499 .45599366 .42765809 .43299867 .42765809L.34599305 .43066407V.3996582C.3769989 .39866639 .3929901 .3816681 .3929901 .35668946 .3929901 .34669496 .3919983 .34469605 .3869934 .33270265L.28599549 .08685303 .1749878 .35568238C.17098999 .36567689 .16899109 .36967469 .16899109 .3736725 .16899109 .3996582 .20599365 .3996582 .22499085 .3996582V.43066407L.115997318 .42765809C.08898926 .42765809 .04899597 .4286499 .018997193 .43066407V.3996582C.066986087 .3996582 .085998538 .3996582 .099990848 .36468507L.25-.000091552738 .22499085-.059066774C.20298767-.11407471 .1749878-.18309021 .11099243-.18309021 .10598755-.18309021 .08299255-.18309021 .06399536-.16503906 .09498596-.16104126 .102996829-.13905335 .102996829-.123046878 .102996829-.0970459 .083999637-.08103943 .06098938-.08103943 .040985109-.08103943 .018997193-.09403992 .018997193-.124053958 .018997193-.16905213 .06098938-.20507813 .11099243-.20507813 .17399597-.20507813 .21499634-.14804077 .23899842-.091049198L.4149933 .33569337C.44099427 .39865113 .49198915 .3996582 .5079956 .3996582Z"/>
<path id="font_1_72" d="M.25498963 0V.0309906C.18798828 .0309906 .1769867 .0309906 .1769867 .07601929V.69433596L.032989503 .6826172V.6516113C.102996829 .6516113 .11099243 .64460757 .11099243 .5956421V.07595825C.11099243 .0309906 .099990848 .0309906 .032989503 .0309906V0L.14399719 .0029907227 .25498963 0Z"/>
<path id="font_2_1" d="M.6749878 .32421876C.68899539 .32421876 .70700076 .32421876 .70700076 .34220887 .70700076 .36120606 .6899872 .36120606 .6749878 .36120606H.085998538C.07199097 .36120606 .053985597 .36120606 .053985597 .34321595 .053985597 .32421876 .070999149 .32421876 .085998538 .32421876H.6749878M.6749878 .13780213C.68899539 .13780213 .70700076 .13780213 .70700076 .15579224 .70700076 .17480469 .6899872 .17480469 .6749878 .17480469H.085998538C.07199097 .17480469 .053985597 .17480469 .053985597 .15679932 .053985597 .13780213 .070999149 .13780213 .085998538 .13780213H.6749878Z"/>
<path id="font_3_1" d="M.6589966 .23046875C.6759949 .23046875 .69400027 .23046875 .69400027 .25045777 .69400027 .27046205 .6759949 .27046205 .6589966 .27046205H.117996219C.100997928 .27046205 .08299255 .27046205 .08299255 .25045777 .08299255 .23046875 .100997928 .23046875 .117996219 .23046875H.6589966Z"/>
<path id="font_1_105" d="M.33198548 .12385559V.18066406H.30699159V.12585449C.30699159 .052108766 .2769928 .014251709 .23999024 .014251709 .17298889 .014251709 .17298889 .10491943 .17298889 .12187195V.3996582H.31599427V.43066407H.17298889V.6142578H.147995C.14698792 .5324249 .116989139 .42565919 .018997193 .42166139V.3996582H.10398865V.12408447C.10398865 .0012512207 .19699097-.0107421879 .23298645-.0107421879 .3039856-.0107421879 .33198548 .060180665 .33198548 .12408447V.12385559Z"/>
<path id="font_1_114" d="M.7029877 .3996582V.43066407C.68099978 .4286499 .6519928 .42765809 .6299896 .42765809L.5369873 .43066407V.3996582C.57299807 .39866639 .59498599 .38075257 .59498599 .35176087 .59498599 .34576417 .59498599 .34376527 .58999636 .33078004L.49899293 .07513428 .3999939 .35375978C.3959961 .36575318 .394989 .36775209 .394989 .37275697 .394989 .3996582 .43399049 .3996582 .45399476 .3996582V.43066407L.34999085 .42765809C.31999208 .42765809 .29100038 .4286499 .26098634 .43066407V.3996582C.2979889 .3996582 .31399537 .39767457 .32398988 .38476563 .32899476 .37875367 .33999635 .34877015 .34700013 .3297882L.26098634 .08811951 .1659851 .3547516C.16099549 .36676026 .16099549 .36875917 .16099549 .37275697 .16099549 .3996582 .19999695 .3996582 .21998596 .3996582V.43066407L.11099243 .42765809 .017990113 .43066407V.3996582C.067993167 .3996582 .07998657 .39668275 .09199524 .36476136L.21798706 .01121521C.22299195-.0027618409 .22599793-.0107421879 .23899842-.0107421879 .2519989-.0107421879 .2539978-.004760742 .25898744 .009216309L.3600006 .2918396 .46199037 .008224487C.46598817-.0027618409 .46899415-.0107421879 .48199464-.0107421879 .49499513-.0107421879 .49798585-.0017547608 .5019989 .008224487L.61898806 .3357849C.6369934 .38575746 .66799929 .39866639 .7029877 .3996582Z"/>
<path id="font_1_81" d="M.47099305 .21424866C.47099305 .34223939 .37098695 .4482422 .25 .4482422 .125 .4482422 .027999878 .3392334 .027999878 .21424866 .027999878 .085250858 .13198853-.0107421879 .24899292-.0107421879 .36999513-.0107421879 .47099305 .087249759 .47099305 .21424866M.3880005 .22224427C.3880005 .18624878 .3880005 .13224793 .3659973 .08824158 .34399415 .04324341 .2999878 .014251709 .25 .014251709 .20698548 .014251709 .16299439 .035247804 .13598633 .08125305 .11099243 .12524414 .11099243 .18624878 .11099243 .22224427 .11099243 .26124574 .11099243 .31523133 .1349945 .35923768 .1619873 .40522767 .20899964 .426239 .24899292 .426239 .29299928 .426239 .33599855 .40423585 .3619995 .36123658 .3880005 .3182373 .3880005 .26023866 .3880005 .22224427Z"/>
</defs>
<path transform="matrix(1.00006,0,0,-1.00005,48.21398,90.868747)" stroke-width=".3985" stroke-linecap="butt" stroke-dasharray="2.98883,2.98883" stroke-miterlimit="10" stroke-linejoin="miter" fill="none" stroke="#7f807f" d="M-38.97707 0C-38.97707 6.02742-21.5267 10.91351 0 10.91351 21.5267 10.91351 38.97707 6.02742 38.97707 0"/>
<path transform="matrix(1.00006,0,0,-1.00005,48.21398,90.868747)" stroke-width=".3985" stroke-linecap="butt" stroke-dasharray="2.98883,2.98883" stroke-miterlimit="10" stroke-linejoin="miter" fill="none" stroke="#7f807f" d="M-38.97707 77.95415C-38.97707 83.98157-21.5267 88.86766 0 88.86766 21.5267 88.86766 38.97707 83.98157 38.97707 77.95415"/>
<path transform="matrix(1.00006,0,0,-1.00005,48.21398,90.868747)" stroke-width=".3985" stroke-linecap="butt" stroke-dasharray="2.98883,2.98883" stroke-miterlimit="10" stroke-linejoin="miter" fill="none" stroke="#7f807f" d="M-38.97707 0V77.95415"/>
<path transform="matrix(1.00006,0,0,-1.00005,48.21398,90.868747)" stroke-width=".3985" stroke-linecap="butt" stroke-dasharray="2.98883,2.98883" stroke-miterlimit="10" stroke-linejoin="miter" fill="none" stroke="#7f807f" d="M38.97707 0V77.95415"/>
<path transform="matrix(1.00006,0,0,-1.00005,48.21398,90.868747)" stroke-width=".3985" stroke-linecap="butt" stroke-dasharray="2.98883,2.98883" stroke-miterlimit="10" stroke-linejoin="miter" fill="none" stroke="#0000ff" d="M-38.97707 38.97707C-38.97707 45.00449-21.5267 49.89058 0 49.89058 21.5267 49.89058 38.97707 45.00449 38.97707 38.97707"/>
<path transform="matrix(1.00006,0,0,-1.00005,48.21398,90.868747)" d="M38.97707 38.97707C38.97707 60.50377 21.5267 77.95413 0 77.95413-21.5267 77.95413-38.97707 60.50377-38.97707 38.97707-38.97707 17.45035-21.5267 0 0 0 21.5267 0 38.97707 17.45035 38.97707 38.97707ZM0 38.97707" fill="#e6e6ff"/>
<path transform="matrix(1.00006,0,0,-1.00005,48.21398,90.868747)" stroke-width=".79701" stroke-linecap="butt" stroke-miterlimit="10" stroke-linejoin="miter" fill="none" stroke="#0000ff" d="M38.97707 38.97707C38.97707 60.50377 21.5267 77.95413 0 77.95413-21.5267 77.95413-38.97707 60.50377-38.97707 38.97707-38.97707 17.45035-21.5267 0 0 0 21.5267 0 38.97707 17.45035 38.97707 38.97707ZM0 38.97707"/>
<path transform="matrix(1.00006,0,0,-1.00005,48.21398,90.868747)" stroke-width=".3985" stroke-linecap="butt" stroke-dasharray="2.98883,2.98883" stroke-miterlimit="10" stroke-linejoin="miter" fill="none" stroke="#0000ff" d="M-38.97707 38.97707C-38.97707 45.00449-21.5267 49.89058 0 49.89058 21.5267 49.89058 38.97707 45.00449 38.97707 38.97707"/>
<path transform="matrix(1.00006,0,0,-1.00005,48.21398,90.868747)" stroke-width=".79701" stroke-linecap="butt" stroke-miterlimit="10" stroke-linejoin="miter" fill="none" stroke="#0000ff" d="M-38.97707 38.97707C-38.97707 32.94963-21.5267 28.06354 0 28.06354 21.5267 28.06354 38.97707 32.94963 38.97707 38.97707"/>
<path transform="matrix(1.00006,0,0,-1.00005,48.21398,90.868747)" stroke-width=".3985" stroke-linecap="butt" stroke-dasharray="2.98883,2.98883" stroke-miterlimit="10" stroke-linejoin="miter" fill="none" stroke="#7f807f" d="M-38.97707 0C-38.97707-6.02742-21.5267-10.91351 0-10.91351 21.5267-10.91351 38.97707-6.02742 38.97707 0"/>
<path transform="matrix(1.00006,0,0,-1.00005,48.21398,90.868747)" stroke-width=".3985" stroke-linecap="butt" stroke-dasharray="2.98883,2.98883" stroke-miterlimit="10" stroke-linejoin="miter" fill="none" stroke="#7f807f" d="M-38.97707 77.95415C-38.97707 71.92671-21.5267 67.04062 0 67.04062 21.5267 67.04062 38.97707 71.92671 38.97707 77.95415"/>
<use data-text="s" xlink:href="#font_1_98" transform="matrix(9.963197,0,0,-9.963098,1.2171631,113.776889)"/>
<use data-text="p" xlink:href="#font_1_84" transform="matrix(9.963197,0,0,-9.963098,5.1426699,113.776889)"/>
<use data-text="h" xlink:href="#font_1_63" transform="matrix(9.963197,0,0,-9.963098,10.682205,113.776889)"/>
<use data-text="e" xlink:href="#font_1_50" transform="matrix(9.963197,0,0,-9.963098,16.221726,113.776889)"/>
<use data-text="r" xlink:href="#font_1_96" transform="matrix(9.963197,0,0,-9.963098,20.645401,113.776889)"/>
<use data-text="e" xlink:href="#font_1_50" transform="matrix(9.963197,0,0,-9.963098,24.550965,113.776889)"/>
<use data-text="i" xlink:href="#font_1_66" transform="matrix(9.963197,0,0,-9.963098,32.282426,113.776889)"/>
<use data-text="n" xlink:href="#font_1_77" transform="matrix(9.963197,0,0,-9.963098,35.052186,113.776889)"/>
<use data-text="s" xlink:href="#font_1_98" transform="matrix(9.963197,0,0,-9.963098,40.59172,113.776889)"/>
<use data-text="i" xlink:href="#font_1_66" transform="matrix(9.963197,0,0,-9.963098,44.52719,113.776889)"/>
<use data-text="d" xlink:href="#font_1_47" transform="matrix(9.963197,0,0,-9.963098,47.296968,113.776889)"/>
<use data-text="e" xlink:href="#font_1_50" transform="matrix(9.963197,0,0,-9.963098,52.836488,113.776889)"/>
<use data-text="c" xlink:href="#font_1_43" transform="matrix(9.963197,0,0,-9.963098,60.57791,113.776889)"/>
<use data-text="y" xlink:href="#font_1_118" transform="matrix(9.963197,0,0,-9.963098,65.00157,113.776889)"/>
<use data-text="l" xlink:href="#font_1_72" transform="matrix(9.963197,0,0,-9.963098,70.262149,113.776889)"/>
<use data-text="i" xlink:href="#font_1_66" transform="matrix(9.963197,0,0,-9.963098,73.03192,113.776889)"/>
<use data-text="n" xlink:href="#font_1_77" transform="matrix(9.963197,0,0,-9.963098,75.8017,113.776889)"/>
<use data-text="d" xlink:href="#font_1_47" transform="matrix(9.963197,0,0,-9.963098,81.34122,113.776889)"/>
<use data-text="e" xlink:href="#font_1_50" transform="matrix(9.963197,0,0,-9.963098,86.88075,113.776889)"/>
<use data-text="r" xlink:href="#font_1_96" transform="matrix(9.963197,0,0,-9.963098,91.30441,113.776889)"/>
<use data-text="=" xlink:href="#font_2_1" transform="matrix(14.34706,0,0,-14.346916,128.5058,54.478929)"/>
<path transform="matrix(1.00006,0,0,-1.00005,48.21398,90.868747)" d="M109.1358 0V77.95415C109.1358 71.92671 126.58615 67.04062 148.11287 67.04062 169.63959 67.04062 187.08994 71.92671 187.08994 77.95415L187.08997 0C187.08997-6.02742 169.63962-10.91351 148.1129-10.91351 126.58618-10.91351 109.13583-6.02742 109.13583 0" fill="#ffe6e6"/>
<path transform="matrix(1.00006,0,0,-1.00005,48.21398,90.868747)" d="M187.08995 77.95415C187.08995 83.98157 169.6396 88.86766 148.11289 88.86766 126.58617 88.86766 109.13582 83.98157 109.13582 77.95415 109.13582 71.92671 126.58617 67.04062 148.11289 67.04062 169.6396 67.04062 187.08995 71.92671 187.08995 77.95415ZM148.11289 77.95415" fill="#ffd9d9"/>
<path transform="matrix(1.00006,0,0,-1.00005,48.21398,90.868747)" stroke-width=".79701" stroke-linecap="butt" stroke-miterlimit="10" stroke-linejoin="miter" fill="none" stroke="#b30000" d="M109.1358 0V77.95415"/>
<path transform="matrix(1.00006,0,0,-1.00005,48.21398,90.868747)" stroke-width=".79701" stroke-linecap="butt" stroke-miterlimit="10" stroke-linejoin="miter" fill="none" stroke="#b30000" d="M187.08997 0V77.95415"/>
<path transform="matrix(1.00006,0,0,-1.00005,48.21398,90.868747)" stroke-width=".79701" stroke-linecap="butt" stroke-miterlimit="10" stroke-linejoin="miter" fill="none" stroke="#b30000" d="M109.1358 0C109.1358-6.02742 126.58615-10.91351 148.11287-10.91351 169.63959-10.91351 187.08994-6.02742 187.08994 0"/>
<path transform="matrix(1.00006,0,0,-1.00005,48.21398,90.868747)" stroke-width=".3985" stroke-linecap="butt" stroke-dasharray="2.98883,2.98883" stroke-miterlimit="10" stroke-linejoin="miter" fill="none" stroke="#b30000" d="M109.1358 0C109.1358 6.02742 126.58615 10.91351 148.11287 10.91351 169.63959 10.91351 187.08994 6.02742 187.08994 0"/>
<path transform="matrix(1.00006,0,0,-1.00005,48.21398,90.868747)" stroke-width=".79701" stroke-linecap="butt" stroke-miterlimit="10" stroke-linejoin="miter" fill="none" stroke="#b30000" d="M109.1358 77.95415C109.1358 71.92671 126.58615 67.04062 148.11287 67.04062 169.63959 67.04062 187.08994 71.92671 187.08994 77.95415"/>
<path transform="matrix(1.00006,0,0,-1.00005,48.21398,90.868747)" stroke-width=".79701" stroke-linecap="butt" stroke-miterlimit="10" stroke-linejoin="miter" fill="none" stroke="#b30000" d="M109.1358 77.95415C109.1358 83.98157 126.58615 88.86766 148.11287 88.86766 169.63959 88.86766 187.08994 83.98157 187.08994 77.95415"/>
<use data-text="c" xlink:href="#font_1_43" transform="matrix(9.963197,0,0,-9.963098,179.01984,113.776889)"/>
<use data-text="y" xlink:href="#font_1_118" transform="matrix(9.963197,0,0,-9.963098,183.44351,113.776889)"/>
<use data-text="l" xlink:href="#font_1_72" transform="matrix(9.963197,0,0,-9.963098,188.70407,113.776889)"/>
<use data-text="i" xlink:href="#font_1_66" transform="matrix(9.963197,0,0,-9.963098,191.47385,113.776889)"/>
<use data-text="n" xlink:href="#font_1_77" transform="matrix(9.963197,0,0,-9.963098,194.24362,113.776889)"/>
<use data-text="d" xlink:href="#font_1_47" transform="matrix(9.963197,0,0,-9.963098,199.78314,113.776889)"/>
<use data-text="e" xlink:href="#font_1_50" transform="matrix(9.963197,0,0,-9.963098,205.3227,113.776889)"/>
<use data-text="r" xlink:href="#font_1_96" transform="matrix(9.963197,0,0,-9.963098,209.74634,113.776889)"/>
<use data-text="&#x2212;" xlink:href="#font_3_1" transform="matrix(14.34706,0,0,-14.346916,253.12326,55.47698)"/>
<path transform="matrix(1.00006,0,0,-1.00005,48.21398,90.868747)" stroke-width=".3985" stroke-linecap="butt" stroke-dasharray="2.98883,2.98883" stroke-miterlimit="10" stroke-linejoin="miter" fill="none" stroke="#7f807f" d="M233.86248 0V77.95415"/>
<path transform="matrix(1.00006,0,0,-1.00005,48.21398,90.868747)" stroke-width=".3985" stroke-linecap="butt" stroke-dasharray="2.98883,2.98883" stroke-miterlimit="10" stroke-linejoin="miter" fill="none" stroke="#7f807f" d="M311.81663 0V77.95415"/>
<path transform="matrix(1.00006,0,0,-1.00005,48.21398,90.868747)" stroke-width=".3985" stroke-linecap="butt" stroke-dasharray="2.98883,2.98883" stroke-miterlimit="10" stroke-linejoin="miter" fill="none" stroke="#7f807f" d="M233.86248 0C233.86248-6.02742 251.31282-10.91351 272.83955-10.91351 294.36628-10.91351 311.8166-6.02742 311.8166 0"/>
<path transform="matrix(1.00006,0,0,-1.00005,48.21398,90.868747)" stroke-width=".3985" stroke-linecap="butt" stroke-dasharray="2.98883,2.98883" stroke-miterlimit="10" stroke-linejoin="miter" fill="none" stroke="#7f807f" d="M233.86248 0C233.86248 6.02742 251.31282 10.91351 272.83955 10.91351 294.36628 10.91351 311.8166 6.02742 311.8166 0"/>
<path transform="matrix(1.00006,0,0,-1.00005,48.21398,90.868747)" stroke-width=".3985" stroke-linecap="butt" stroke-dasharray="2.98883,2.98883" stroke-miterlimit="10" stroke-linejoin="miter" fill="none" stroke="#7f807f" d="M233.86248 77.95415C233.86248 71.92671 251.31282 67.04062 272.83955 67.04062 294.36628 67.04062 311.8166 71.92671 311.8166 77.95415"/>
<path transform="matrix(1.00006,0,0,-1.00005,48.21398,90.868747)" stroke-width=".3985" stroke-linecap="butt" stroke-dasharray="2.98883,2.98883" stroke-miterlimit="10" stroke-linejoin="miter" fill="none" stroke="#7f807f" d="M233.86248 77.95415C233.86248 83.98157 251.31282 88.86766 272.83955 88.86766 294.36628 88.86766 311.8166 83.98157 311.8166 77.95415"/>
<path transform="matrix(1.00006,0,0,-1.00005,48.21398,90.868747)" d="M233.86248 0C233.86248-6.02742 251.31282-10.91351 272.83955-10.91351 294.36628-10.91351 311.8166-6.02742 311.8166 0L272.83955 38.97707Z" fill="#e6ffe6"/>
<path transform="matrix(1.00006,0,0,-1.00005,48.21398,90.868747)" d="M233.86248 77.95415C233.86248 71.92671 251.31282 67.04062 272.83955 67.04062 294.36628 67.04062 311.8166 71.92671 311.8166 77.95415L272.83955 38.97707Z" fill="#e6ffe6"/>
<path transform="matrix(1.00006,0,0,-1.00005,48.21398,90.868747)" stroke-width=".79701" stroke-linecap="butt" stroke-miterlimit="10" stroke-linejoin="miter" fill="none" stroke="#008000" d="M233.86248 0C233.86248-6.02742 251.31282-10.91351 272.83955-10.91351 294.36628-10.91351 311.8166-6.02742 311.8166 0"/>
<path transform="matrix(1.00006,0,0,-1.00005,48.21398,90.868747)" stroke-width=".3985" stroke-linecap="butt" stroke-dasharray="2.98883,2.98883" stroke-miterlimit="10" stroke-linejoin="miter" fill="none" stroke="#008000" d="M233.86248 0C233.86248 6.02742 251.31282 10.91351 272.83955 10.91351 294.36628 10.91351 311.8166 6.02742 311.8166 0"/>
<path transform="matrix(1.00006,0,0,-1.00005,48.21398,90.868747)" stroke-width=".79701" stroke-linecap="butt" stroke-miterlimit="10" stroke-linejoin="miter" fill="none" stroke="#008000" d="M233.86248 0 272.83955 38.97707"/>
<path transform="matrix(1.00006,0,0,-1.00005,48.21398,90.868747)" stroke-width=".79701" stroke-linecap="butt" stroke-miterlimit="10" stroke-linejoin="miter" fill="none" stroke="#008000" d="M311.81663 0 272.83955 38.97707"/>
<path transform="matrix(1.00006,0,0,-1.00005,48.21398,90.868747)" stroke-width=".79701" stroke-linecap="butt" stroke-miterlimit="10" stroke-linejoin="miter" fill="none" stroke="#008000" d="M233.86248 77.95415C233.86248 71.92671 251.31282 67.04062 272.83955 67.04062 294.36628 67.04062 311.8166 71.92671 311.8166 77.95415"/>
<path transform="matrix(1.00006,0,0,-1.00005,48.21398,90.868747)" stroke-width=".79701" stroke-linecap="butt" stroke-miterlimit="10" stroke-linejoin="miter" fill="none" stroke="#008000" d="M233.86248 77.95415C233.86248 83.98157 251.31282 88.86766 272.83955 88.86766 294.36628 88.86766 311.8166 83.98157 311.8166 77.95415"/>
<path transform="matrix(1.00006,0,0,-1.00005,48.21398,90.868747)" stroke-width=".79701" stroke-linecap="butt" stroke-miterlimit="10" stroke-linejoin="miter" fill="none" stroke="#008000" d="M233.86248 77.95415 272.83955 38.97707"/>
<path transform="matrix(1.00006,0,0,-1.00005,48.21398,90.868747)" stroke-width=".79701" stroke-linecap="butt" stroke-miterlimit="10" stroke-linejoin="miter" fill="none" stroke="#008000" d="M311.81663 77.95415 272.83955 38.97707"/>
<use data-text="t" xlink:href="#font_1_105" transform="matrix(9.963197,0,0,-9.963098,300.0171,112.98985)"/>
<use data-text="w" xlink:href="#font_1_114" transform="matrix(9.963197,0,0,-9.963098,303.61384,112.98985)"/>
<use data-text="o" xlink:href="#font_1_81" transform="matrix(9.963197,0,0,-9.963098,310.52827,112.98985)"/>
<use data-text="c" xlink:href="#font_1_43" transform="matrix(9.963197,0,0,-9.963098,318.81764,112.98985)"/>
<use data-text="o" xlink:href="#font_1_81" transform="matrix(9.963197,0,0,-9.963098,323.24134,112.98985)"/>
<use data-text="n" xlink:href="#font_1_77" transform="matrix(9.963197,0,0,-9.963098,328.2229,112.98985)"/>
<use data-text="e" xlink:href="#font_1_50" transform="matrix(9.963197,0,0,-9.963098,333.76246,112.98985)"/>
<use data-text="s" xlink:href="#font_1_98" transform="matrix(9.963197,0,0,-9.963098,338.1861,112.98985)"/>
</svg>
