<svg xmlns="http://www.w3.org/2000/svg" xmlns:xlink="http://www.w3.org/1999/xlink" xmlns:inkscape="http://www.inkscape.org/namespaces/inkscape" version="1.1" width="130" height="140" viewBox="0 0 130 140">
<defs>
<path id="font_1_1" d="M.08799744 .059265138C.084991458 .044265748 .07899475 .021255494 .07899475 .01625061 .07899475-.0017547608 .09298706-.0107421879 .10798645-.0107421879 .11999512-.0107421879 .13798523-.002746582 .14498902 .01725769 .14698792 .021255494 .18099976 .15730286 .18499756 .17530823 .19299317 .20831299 .21099854 .27833558 .21699524 .30534364 .22099304 .31835938 .24899292 .36535646 .272995 .38734437 .2809906 .39434815 .30999757 .42037965 .35299684 .42037965 .3789978 .42037965 .3939972 .4083557 .394989 .4083557 .36499024 .40335084 .34298707 .37934876 .34298707 .35334779 .34298707 .33735658 .35398866 .31835938 .3809967 .31835938 .4079895 .31835938 .43598939 .34135438 .43598939 .37734986 .43598939 .41235353 .4039917 .4423828 .35299684 .4423828 .28799439 .4423828 .24398804 .39335633 .22499085 .36535646 .21699524 .4103546 .18099976 .4423828 .13398743 .4423828 .08799744 .4423828 .068984989 .40335084 .05999756 .38534547 .041992189 .35134889 .0289917 .29133607 .0289917 .28834535 .0289917 .27833558 .038986207 .27833558 .040985109 .27833558 .050994874 .27833558 .051986696 .27934266 .057998659 .30134584 .07499695 .37234498 .09498596 .42037965 .1309967 .42037965 .147995 .42037965 .1619873 .41235353 .1619873 .37435914 .1619873 .35334779 .15899658 .3423462 .1459961 .29034425L.08799744 .059265138Z"/>
<path id="font_2_1" d="M.1269989 .07699585 .23298645 .18003845C.3889923 .31811524 .44898988 .3721466 .44898988 .47216798 .44898988 .5860901 .35899354 .6660156 .23699951 .6660156 .12399292 .6660156 .049987794 .57411196 .049987794 .48516847 .049987794 .4291687 .099990848 .4291687 .102996829 .4291687 .11999512 .4291687 .15499878 .44117738 .15499878 .48217774 .15499878 .5081787 .13699341 .5341797 .101989749 .5341797 .09399414 .5341797 .09199524 .5341797 .08898926 .5331726 .11199951 .59806826 .1659851 .63500979 .22399903 .63500979 .31498719 .63500979 .35798646 .5541382 .35798646 .47216798 .35798646 .39215089 .30799867 .31311036 .25299073 .25108338L.06098938 .036987306C.049987794 .025985718 .049987794 .023986817 .049987794 0H.42099L.44898988 .17404175H.42399598C.4189911 .14402771 .4119873 .1000061 .4019928 .084991458 .394989 .07699585 .32899476 .07699585 .30699159 .07699585H.1269989Z"/>
</defs>
<path transform="matrix(1.00003,0,0,-1.00002,51.903,124.817249)" stroke-width=".3985" stroke-linecap="butt" stroke-dasharray="2.98883,2.98883" stroke-miterlimit="10" stroke-linejoin="miter" fill="none" stroke="#7f807f" d="M-49.60667 0C-49.60667 7.67122-27.39735 13.8898 0 13.8898 27.39735 13.8898 49.60667 7.67122 49.60667 0"/>
<path transform="matrix(1.00003,0,0,-1.00002,51.903,124.817249)" stroke-width=".3985" stroke-linecap="butt" stroke-dasharray="2.98883,2.98883" stroke-miterlimit="10" stroke-linejoin="miter" fill="none" stroke="#7f807f" d="M-49.60667 99.2134C-49.60667 106.88461-27.39735 113.1032 0 113.1032 27.39735 113.1032 49.60667 106.88461 49.60667 99.2134"/>
<path transform="matrix(1.00003,0,0,-1.00002,51.903,124.817249)" stroke-width=".3985" stroke-linecap="butt" stroke-dasharray="2.98883,2.98883" stroke-miterlimit="10" stroke-linejoin="miter" fill="none" stroke="#7f807f" d="M-49.60667 0V99.2134"/>
<path transform="matrix(1.00003,0,0,-1.00002,51.903,124.817249)" stroke-width=".3985" stroke-linecap="butt" stroke-dasharray="2.98883,2.98883" stroke-miterlimit="10" stroke-linejoin="miter" fill="none" stroke="#7f807f" d="M49.60667 0V99.2134"/>
<path transform="matrix(1.00003,0,0,-1.00002,51.903,124.817249)" stroke-width=".3985" stroke-linecap="butt" stroke-dasharray="2.98883,2.98883" stroke-miterlimit="10" stroke-linejoin="miter" fill="none" stroke="#0000ff" d="M-49.60667 49.60667C-49.60667 57.2779-27.39735 63.49648 0 63.49648 27.39735 63.49648 49.60667 57.2779 49.60667 49.60667"/>
<path transform="matrix(1.00003,0,0,-1.00002,51.903,124.817249)" stroke-width=".79701" stroke-linecap="butt" stroke-miterlimit="10" stroke-linejoin="miter" fill="none" stroke="#0000ff" d="M49.60667 49.60667C49.60667 77.00403 27.39735 99.21336 0 99.21336-27.39735 99.21336-49.60667 77.00403-49.60667 49.60667-49.60667 22.20932-27.39735 0 0 0 27.39735 0 49.60667 22.20932 49.60667 49.60667ZM0 49.60667"/>
<path transform="matrix(1.00003,0,0,-1.00002,51.903,124.817249)" stroke-width=".79701" stroke-linecap="butt" stroke-miterlimit="10" stroke-linejoin="miter" fill="none" stroke="#0000ff" d="M-49.60667 49.60667C-49.60667 41.93546-27.39735 35.71687 0 35.71687 27.39735 35.71687 49.60667 41.93546 49.60667 49.60667"/>
<path transform="matrix(1.00003,0,0,-1.00002,51.903,124.817249)" stroke-width=".3985" stroke-linecap="butt" stroke-dasharray="2.98883,2.98883" stroke-miterlimit="10" stroke-linejoin="miter" fill="none" stroke="#7f807f" d="M-49.60667 0C-49.60667-7.67122-27.39735-13.8898 0-13.8898 27.39735-13.8898 49.60667-7.67122 49.60667 0"/>
<path transform="matrix(1.00003,0,0,-1.00002,51.903,124.817249)" stroke-width=".3985" stroke-linecap="butt" stroke-dasharray="2.98883,2.98883" stroke-miterlimit="10" stroke-linejoin="miter" fill="none" stroke="#7f807f" d="M-49.60667 99.2134C-49.60667 91.54218-27.39735 85.3236 0 85.3236 27.39735 85.3236 49.60667 91.54218 49.60667 99.2134"/>
<path transform="matrix(1.00003,0,0,-1.00002,51.903,124.817249)" stroke-width=".3985" stroke-linecap="butt" stroke-miterlimit="10" stroke-linejoin="miter" fill="none" stroke="#000000" d="M.3985 115.08759H49.20818"/>
<path transform="matrix(-1.00003,-0,0,1.00002,52.102258,9.727348)" stroke-width=".3985" stroke-linecap="round" stroke-linejoin="round" fill="none" stroke="#000000" d="M-2.07224 2.39104C-1.69365 .95639-.84999 .27895 0 0-.84999-.27895-1.69365-.95639-2.07224-2.39104"/>
<path transform="matrix(1.00003,0,0,-1.00002,101.311908,9.727348)" stroke-width=".3985" stroke-linecap="round" stroke-linejoin="round" fill="none" stroke="#000000" d="M-2.07224 2.39104C-1.69365 .95639-.84999 .27895 0 0-.84999-.27895-1.69365-.95639-2.07224-2.39104"/>
<use data-text="r" xlink:href="#font_1_1" transform="matrix(9.962899,0,0,-9.962799,74.32167,6.2078707)"/>
<path transform="matrix(1.00003,0,0,-1.00002,51.903,124.817249)" stroke-width=".3985" stroke-linecap="butt" stroke-miterlimit="10" stroke-linejoin="miter" fill="none" stroke="#000000" d="M63.49649 .3985V98.8149"/>
<path transform="matrix(0,1.00002,1.00003,0,115.4014,124.61799)" stroke-width=".3985" stroke-linecap="round" stroke-linejoin="round" fill="none" stroke="#000000" d="M-2.07224 2.39104C-1.69365 .95639-.84999 .27895 0 0-.84999-.27895-1.69365-.95639-2.07224-2.39104"/>
<path transform="matrix(0,-1.00002,-1.00003,-0,115.4014,25.801125)" stroke-width=".3985" stroke-linecap="round" stroke-linejoin="round" fill="none" stroke="#000000" d="M-2.07224 2.39104C-1.69365 .95639-.84999 .27895 0 0-.84999-.27895-1.69365-.95639-2.07224-2.39104"/>
<use data-text="2" xlink:href="#font_2_1" transform="matrix(9.962899,0,0,-9.962799,118.92101,78.42032)"/>
<use data-text="r" xlink:href="#font_1_1" transform="matrix(9.962899,0,0,-9.962799,123.903148,78.42032)"/>
</svg>
