<svg xmlns="http://www.w3.org/2000/svg" xmlns:xlink="http://www.w3.org/1999/xlink" xmlns:inkscape="http://www.inkscape.org/namespaces/inkscape" version="1.1" width="120" height="121" viewBox="0 0 120 121">
<defs>
<path id="font_1_1" d="M.33399964 .30233766C.33999635 .32835389 .36299134 .42037965 .43299867 .42037965 .43798829 .42037965 .46199037 .42037965 .48298646 .40734864 .45498658 .402359 .43499757 .37734986 .43499757 .35334779 .43499757 .33735658 .44599916 .31835938 .47299195 .31835938 .49499513 .31835938 .5269928 .3363495 .5269928 .37635804 .5269928 .42837525 .46798707 .4423828 .43399049 .4423828 .37599183 .4423828 .34098817 .38935853 .32899476 .36634828 .3039856 .43237306 .25 .4423828 .22099304 .4423828 .116989139 .4423828 .05999756 .3133545 .05999756 .28834535 .05999756 .27833558 .069992069 .27833558 .07199097 .27833558 .07998657 .27833558 .08299255 .28033448 .084991458 .28933717 .11898804 .39535523 .18499756 .42037965 .21899414 .42037965 .23799134 .42037965 .272995 .4113617 .272995 .35334779 .272995 .32235719 .2559967 .25532533 .21899414 .11528015 .20298767 .053268434 .16799927 .011245728 .12399292 .011245728 .117996219 .011245728 .09498596 .011245728 .07398987 .024276734 .09899902 .029266358 .12098694 .05027771 .12098694 .07827759 .12098694 .105270389 .09899902 .11328125 .083999637 .11328125 .053985597 .11328125 .0289917 .08728027 .0289917 .055267335 .0289917 .009246826 .07899475-.0107421879 .12298584-.0107421879 .18899536-.0107421879 .22499085 .059280397 .22799683 .0652771 .23999024 .028274537 .27598573-.0107421879 .33599855-.0107421879 .43899537-.0107421879 .49598695 .118270877 .49598695 .14328003 .49598695 .1532898 .4869995 .1532898 .48399354 .1532898 .47499085 .1532898 .47299195 .14929199 .47099305 .14228821 .43798829 .03527832 .36999513 .011245728 .33799745 .011245728 .29899598 .011245728 .2829895 .043273927 .2829895 .07727051 .2829895 .09927368 .2889862 .121276859 .2999878 .16529846L.33399964 .30233766Z"/>
<path id="font_1_2" d="M.48599244 .38136292C.48999024 .39537049 .48999024 .39736939 .48999024 .40437318 .48999024 .42237855 .47599793 .43138124 .46099855 .43138124 .45098878 .43138124 .43499757 .42536927 .42599488 .41036988 .42399598 .405365 .41600038 .37435914 .4119873 .35635377 .40499879 .33035279 .397995 .30334474 .3919983 .27633668L.34700013 .09628296C.34298707 .08126831 .2999878 .011245728 .23399353 .011245728 .18299866 .011245728 .17199707 .055267335 .17199707 .0922699 .17199707 .1382904 .18899536 .20030213 .22299195 .28833009 .23899842 .3293457 .24299622 .3403473 .24299622 .36035157 .24299622 .405365 .21099854 .4423828 .16099549 .4423828 .06599426 .4423828 .0289917 .29733277 .0289917 .28833009 .0289917 .27833558 .038986207 .27833558 .040985109 .27833558 .050994874 .27833558 .051986696 .28033448 .056991579 .29634095 .083999637 .3903656 .12399292 .42037965 .1579895 .42037965 .1659851 .42037965 .18299866 .42037965 .18299866 .3883667 .18299866 .36335755 .17298889 .3373413 .1659851 .31834413 .12599182 .21231079 .10798645 .1552887 .10798645 .10827637 .10798645 .019256592 .17098999-.0107421879 .22999573-.0107421879 .2689972-.0107421879 .30299378 .0062561037 .33099366 .03425598 .31799317-.017745972 .30599977-.06674194 .2659912-.11973572 .23999024-.15385437 .20199585-.18309021 .1559906-.18309021 .14199829-.18309021 .09700012-.18005371 .07998657-.14074707 .09599304-.14074707 .10899353-.14074707 .12298584-.1287384 .1329956-.11973572 .14299011-.10673523 .14299011-.08773804 .14299011-.056747438 .115997318-.052734376 .10598755-.052734376 .08299255-.052734376 .049987794-.068740848 .049987794-.11773682 .049987794-.16796875 .09399414-.20507813 .1559906-.20507813 .25898744-.20507813 .3619995-.11373901 .3899994-.00074768069L.48599244 .38136292Z"/>
<path id="font_2_64" d="M.27598573 .18710327V.24511719H.010986328V.18710327H.27598573Z"/>
<path id="font_2_51" d="M.45700074 .16764832C.45700074 .20367432 .44599916 .24871826 .4079895 .29074098 .3889923 .31176759 .37298585 .32176209 .30899049 .36180116 .3809967 .39881898 .42999269 .4508667 .42999269 .51690676 .42999269 .6089783 .34098817 .6660156 .25 .6660156 .1499939 .6660156 .068984989 .5919647 .068984989 .49890138 .068984989 .48088075 .070999149 .43585206 .11299133 .38882447 .12399292 .3768158 .16099549 .35179139 .18598938 .33477784 .12799073 .30575563 .041992189 .24971009 .041992189 .15063477 .041992189 .044555665 .14399719-.022460938 .24899292-.022460938 .3619995-.022460938 .45700074 .060577394 .45700074 .16764832M.38598634 .51690676C.38598634 .45986939 .34700013 .41183473 .2869873 .3768158L.16299439 .4568634C.116989139 .4868927 .11299133 .5209198 .11299133 .53793337 .11299133 .5989685 .17799378 .64100649 .24899292 .64100649 .32199098 .64100649 .38598634 .588974 .38598634 .51690676M.40699769 .13162232C.40699769 .05757141 .33198548 .0055389406 .25 .0055389406 .1639862 .0055389406 .09199524 .06758118 .09199524 .15063477 .09199524 .2086792 .12399292 .2727356 .20899964 .31976319L.33198548 .24171448C.3600006 .22268677 .40699769 .19267273 .40699769 .13162232Z"/>
<path id="font_2_101" d="M.45700074 .2036438C.45700074 .33070375 .36799623 .4267578 .25698854 .4267578 .18899536 .4267578 .1519928 .37573243 .13198853 .327713V.35173036C.13198853 .6047821 .2559967 .64100649 .30699159 .64100649 .33099366 .64100649 .37298585 .634964 .394989 .6007538 .37998963 .6007538 .33999635 .6007538 .33999635 .5557556 .33999635 .524765 .3639984 .5097656 .38598634 .5097656 .4019928 .5097656 .43199159 .51875308 .43199159 .5577545 .43199159 .6178589 .3880005 .6660156 .30499269 .6660156 .1769867 .6660156 .041992189 .5367584 .041992189 .31570436 .041992189 .048553468 .1579895-.022460938 .25099183-.022460938 .3619995-.022460938 .45700074 .07156372 .45700074 .2036438M.36698915 .20463562C.36698915 .15661621 .36698915 .10658264 .34999085 .0705719 .31999208 .010528564 .27398683 .0055389406 .25099183 .0055389406 .18798828 .0055389406 .1579895 .06556702 .1519928 .080566409 .13398743 .127594 .13398743 .2076416 .13398743 .22564698 .13398743 .30369569 .1659851 .40374757 .2559967 .40374757 .27198792 .40374757 .31799317 .40374757 .34899903 .34172059 .36698915 .30470277 .36698915 .2536621 .36698915 .20463562Z"/>
<path id="font_2_57" d="M.47099305 .16503906V.19602967H.37098695V.6507721C.37098695 .6707611 .37098695 .6767578 .35499574 .6767578 .34599305 .6767578 .34298707 .6767578 .33499146 .6647644L.027999878 .19602967V.16503906H.2939911V.07800293C.2939911 .041992189 .2919922 .0309906 .21798706 .0309906H.19699097V0C.23799134 .0029907227 .2899933 .0029907227 .33198548 .0029907227 .37399293 .0029907227 .4269867 .0029907227 .46798707 0V.0309906H.44699098C.37298585 .0309906 .37098695 .041992189 .37098695 .07800293V.16503906H.47099305M.2999878 .19602967H.055999757L.2999878 .56881716V.19602967Z"/>
<path id="font_2_107" d="M.44898988 .17396546H.42399598C.4189911 .14398194 .4119873 .099990848 .4019928 .084991458 .394989 .07699585 .32899476 .07699585 .30699159 .07699585H.1269989L.23298645 .17996216C.3889923 .31803895 .44898988 .37210084 .44898988 .47216798 .44898988 .5860901 .35899354 .6660156 .23699951 .6660156 .12399292 .6660156 .049987794 .57411196 .049987794 .48516847 .049987794 .4291687 .099990848 .4291687 .102996829 .4291687 .11999512 .4291687 .15499878 .44117738 .15499878 .48217774 .15499878 .5081787 .13699341 .5341797 .101989749 .5341797 .09399414 .5341797 .09199524 .5341797 .08898926 .5331726 .11199951 .59806826 .1659851 .63500979 .22399903 .63500979 .31498719 .63500979 .35798646 .5541382 .35798646 .47216798 .35798646 .39196778 .30799867 .31297303 .25299073 .25097657L.06098938 .036987306C.049987794 .025985718 .049987794 .023986817 .049987794 0H.42099L.44898988 .17396546Z"/>
<clipPath id="clip_3">
<path transform="matrix(1.00008,0,0,-1.00003,73.40567,48.236055)" d="M-68.03302-68.03302V34.0165H34.0165V-68.03302ZM34.0165 34.0165"/>
</clipPath>
</defs>
<path transform="matrix(1.00008,0,0,-1.00003,73.40567,48.236055)" stroke-width=".19925" stroke-linecap="butt" stroke-miterlimit="10" stroke-linejoin="miter" fill="none" stroke="#d9d9d9" d="M-68.03302-68.03302H34.0165M-68.03302-59.52888H34.0165M-68.03302-51.02477H34.0165M-68.03302-42.52063H34.0165M-68.03302-34.0165H34.0165M-68.03302-25.51237H34.0165M-68.03302-17.00824H34.0165M-68.03302-8.50412H34.0165M-68.03302 0H34.0165M-68.03302 8.50412H34.0165M-68.03302 17.00824H34.0165M-68.03302 25.51237H34.0165M-68.03302 34.01352H34.0165M-68.03302-68.03302V34.0165M-59.52888-68.03302V34.0165M-51.02477-68.03302V34.0165M-42.52063-68.03302V34.0165M-34.0165-68.03302V34.0165M-25.51237-68.03302V34.0165M-17.00824-68.03302V34.0165M-8.50412-68.03302V34.0165M0-68.03302V34.0165M8.50412-68.03302V34.0165M17.00824-68.03302V34.0165M25.51237-68.03302V34.0165M34.01352-68.03302V34.0165M34.0165 34.0165"/>
<path transform="matrix(1.00008,0,0,-1.00003,73.40567,48.236055)" stroke-width=".3985" stroke-linecap="butt" stroke-miterlimit="10" stroke-linejoin="miter" fill="none" stroke="#000000" d="M-68.03302 0H36.16925"/>
<path transform="matrix(1.00008,0,0,-1.00003,109.777088,48.236055)" stroke-width=".3985" stroke-linecap="round" stroke-linejoin="round" fill="none" stroke="#000000" d="M-2.07224 2.39104C-1.69365 .95639-.84999 .27895 0 0-.84999-.27895-1.69365-.95639-2.07224-2.39104"/>
<use data-text="x" xlink:href="#font_1_1" transform="matrix(9.963397,0,0,-9.962899,113.49688,50.38112)"/>
<path transform="matrix(1.00008,0,0,-1.00003,73.40567,48.236055)" stroke-width=".3985" stroke-linecap="butt" stroke-miterlimit="10" stroke-linejoin="miter" fill="none" stroke="#000000" d="M0-68.03302V36.16925"/>
<path transform="matrix(0,-1.00003,-1.00008,-0,73.40567,11.866463)" stroke-width=".3985" stroke-linecap="round" stroke-linejoin="round" fill="none" stroke="#000000" d="M-2.07224 2.39104C-1.69365 .95639-.84999 .27895 0 0-.84999-.27895-1.69365-.95639-2.07224-2.39104"/>
<use data-text="y" xlink:href="#font_1_2" transform="matrix(9.963397,0,0,-9.962899,70.78446,6.2097895)"/>
<use data-text="-" xlink:href="#font_2_64" transform="matrix(9.963397,0,0,-9.962899,1.2169037,58.391359)"/>
<use data-text="8" xlink:href="#font_2_51" transform="matrix(9.963397,0,0,-9.962899,4.534729,58.391359)"/>
<use data-text="-" xlink:href="#font_2_64" transform="matrix(9.963397,0,0,-9.962899,18.22725,58.391359)"/>
<use data-text="6" xlink:href="#font_2_101" transform="matrix(9.963397,0,0,-9.962899,21.545075,58.391359)"/>
<use data-text="-" xlink:href="#font_2_64" transform="matrix(9.963397,0,0,-9.962899,35.236619,58.50136)"/>
<use data-text="4" xlink:href="#font_2_57" transform="matrix(9.963397,0,0,-9.962899,38.554445,58.50136)"/>
<use data-text="-" xlink:href="#font_2_64" transform="matrix(9.963397,0,0,-9.962899,52.24598,58.391359)"/>
<use data-text="2" xlink:href="#font_2_107" transform="matrix(9.963397,0,0,-9.962899,55.563806,58.391359)"/>
<use data-text="2" xlink:href="#font_2_107" transform="matrix(9.963397,0,0,-9.962899,87.924839,58.391359)"/>
<use data-text="4" xlink:href="#font_2_57" transform="matrix(9.963397,0,0,-9.962899,104.93419,58.50136)"/>
<use data-text="-" xlink:href="#font_2_64" transform="matrix(9.963397,0,0,-9.962899,61.585725,119.4792)"/>
<use data-text="8" xlink:href="#font_2_51" transform="matrix(9.963397,0,0,-9.962899,64.90355,119.4792)"/>
<use data-text="-" xlink:href="#font_2_64" transform="matrix(9.963397,0,0,-9.962899,61.585725,102.47069)"/>
<use data-text="6" xlink:href="#font_2_101" transform="matrix(9.963397,0,0,-9.962899,64.90355,102.47069)"/>
<use data-text="-" xlink:href="#font_2_64" transform="matrix(9.963397,0,0,-9.962899,61.585725,85.626178)"/>
<use data-text="4" xlink:href="#font_2_57" transform="matrix(9.963397,0,0,-9.962899,64.90355,85.626178)"/>
<use data-text="-" xlink:href="#font_2_64" transform="matrix(9.963397,0,0,-9.962899,61.585725,68.56267)"/>
<use data-text="2" xlink:href="#font_2_107" transform="matrix(9.963397,0,0,-9.962899,64.90355,68.56267)"/>
<use data-text="2" xlink:href="#font_2_107" transform="matrix(9.963397,0,0,-9.962899,64.90399,34.544645)"/>
<use data-text="4" xlink:href="#font_2_57" transform="matrix(9.963397,0,0,-9.962899,64.90399,17.591134)"/>
<g clip-path="url(#clip_3)">
<path transform="matrix(1.00008,0,0,-1.00003,73.40567,48.236055)" stroke-width="1.19553" stroke-linecap="butt" stroke-miterlimit="10" stroke-linejoin="miter" fill="none" stroke="#0000ff" d="M-64.4658-83.51749-64.191-81.55325-63.75058-78.45062-63.31017-75.39368-62.86977-72.3824-62.42935-69.41669-61.98894-66.49663-61.54852-63.62213-61.1081-60.79318-60.66768-58.01001-60.22726-55.2723-59.78687-52.58035-59.34645-49.93398-58.90604-47.33313-58.46562-44.77798-58.02519-42.26836-57.58478-39.80444-57.14436-37.38617-56.70395-35.01346-56.26355-32.68643-55.82314-30.40495-55.38272-28.16914-54.94229-25.97887-54.50188-23.83427-54.06146-21.73523-53.62105-19.68187-53.18063-17.67406-52.74022-15.71191-52.2998-13.79546-51.8594-11.92453-51.41898-10.09915-50.97856-8.31946-50.53815-6.58545-50.09773-4.89696-49.65732-3.25418-49.2169-1.65694-48.77649-.10535-48.33607 1.40063-47.89566 2.861-47.45525 4.27565-47.01483 5.64479-46.57442 6.96837-46.134 8.24628-45.69359 9.4785-45.25316 10.66518-44.81276 11.80618-44.37234 12.90164-43.93193 13.95155-43.49152 14.95566-43.0511 15.91422-42.61069 16.82722-42.17027 17.69456-41.72984 18.51634-41.28944 19.29247-40.84903 20.02289-40.40862 20.70778-39.9682 21.3471-39.52779 21.94078-39.08737 22.48877-38.64694 22.99121-38.20654 23.44798-37.76613 23.85919-37.32571 24.22475-36.8853 24.54472-36.44489 24.81905-36.00447 25.04768-35.56404 25.23079-35.12363 25.36833-34.68323 25.4602-34.24281 25.50641-33.8024 25.50706-33.36198 25.46204-32.92157 25.37146-32.48114 25.2352-32.04073 25.0534-31.60031 24.82591-31.1599 24.5529-30.71948 24.2342-30.27908 23.86983-29.83867 23.46005-29.39825 23.00444-28.95782 22.5033-28.51741 21.95648-28.077 21.3641-27.63658 20.72606-27.19617 20.04248-26.75577 19.31334-26.31535 18.5384-25.87492 17.71791-25.43451 16.85187-24.9941 15.94017-24.55368 14.98291-24.11327 13.97998-23.67285 12.93135-23.23245 11.83719-22.79202 10.69737-22.35161 9.51198-21.9112 8.28104-21.47078 7.00432-21.03036 5.68216-20.58995 4.31421-20.14955 2.9007-19.70912 1.44164-19.2687-.06305-18.8283-1.61331-18.38788-3.20929-17.94746-4.85089-17.50705-6.53807-17.06664-8.27094-16.62624-10.04932-16.1858-11.87328-15.74539-13.74303-15.30498-15.65819-14.86456-17.61916-14.42415-19.62569-13.98373-21.67775-13.54332-23.77551-13.10289-25.9188-12.66248-28.10776-12.22208-30.34239-11.78166-32.62259-11.34125-34.94846-10.90083-37.31987-10.46042-39.73695-10.01999-42.19958-9.57957-44.70792-9.13916-47.26178-8.69876-49.86131-8.25835-52.5064-7.81793-55.19714-7.37752-57.93358-6.9371-60.71558-6.49667-63.54309-6.05626-66.4163-5.61584-69.33517-5.17545-72.2996-4.73503-75.30972-4.29462-78.36537-3.8542-81.4667-3.57945-83.42964"/>
<path transform="matrix(-.13854109,.9903597,.9904092,.13853416,8.851898,132.34806)" stroke-width="1.19553" stroke-linecap="round" stroke-linejoin="round" fill="none" stroke="#0000ff" d="M-3.02867 3.83081C-2.47534 1.53229-1.24231 .44691 0 0-1.24231-.44691-2.47534-1.53229-3.02867-3.83081"/>
<path transform="matrix(.13859108,.9903597,.9904092,-.13858415,69.90878,132.2602)" stroke-width="1.19553" stroke-linecap="round" stroke-linejoin="round" fill="none" stroke="#0000ff" d="M-3.02867 3.83081C-2.47534 1.53229-1.24231 .44691 0 0-1.24231-.44691-2.47534-1.53229-3.02867-3.83081"/>
</g>
</svg>
