<svg xmlns="http://www.w3.org/2000/svg" xmlns:xlink="http://www.w3.org/1999/xlink" xmlns:inkscape="http://www.inkscape.org/namespaces/inkscape" version="1.1" width="143" height="127" viewBox="0 0 143 127">
<defs>
<path id="font_1_1" d="M.2939911 .64004519C.2939911 .66400149 .2939911 .6660156 .2709961 .6660156 .20899964 .60227969 .12098694 .60227969 .08898926 .60227969V.57128909C.10899353 .57128909 .16799927 .57128909 .21998596 .5972748V.07902527C.21998596 .042999269 .21699524 .0309906 .1269989 .0309906H.09498596V0C.12998963 .0029907227 .21699524 .0029907227 .25698854 .0029907227 .29699708 .0029907227 .38398744 .0029907227 .4189911 0V.0309906H.3869934C.29699708 .0309906 .2939911 .041992189 .2939911 .07902527V.64004519Z"/>
<path id="font_2_105" d="M.33198548 .12385559V.18066406H.30699159V.12585449C.30699159 .052108766 .2769928 .014251709 .23999024 .014251709 .17298889 .014251709 .17298889 .10491943 .17298889 .12187195V.3996582H.31599427V.43066407H.17298889V.6142578H.147995C.14698792 .5324249 .116989139 .42565919 .018997193 .42166139V.3996582H.10398865V.12408447C.10398865 .0012512207 .19699097-.0107421879 .23298645-.0107421879 .3039856-.0107421879 .33198548 .060180665 .33198548 .12408447V.12385559Z"/>
<path id="font_2_109" d="M.5349884 0V.0309906C.46499635 .0309906 .45700074 .037994386 .45700074 .08705139V.4423828L.30999757 .43066407V.3996582C.37998963 .3996582 .3880005 .39266969 .3880005 .34373475V.16601563C.3880005 .07910156 .33999635 .011245728 .2669983 .011245728 .18299866 .011245728 .1789856 .058135988 .1789856 .11009216V.4423828L.03199768 .43066407V.3996582C.10998535 .3996582 .10998535 .39666749 .10998535 .3078003V.15802002C.10998535 .080093387 .10998535-.0107421879 .2619934-.0107421879 .31799317-.0107421879 .3619995 .017242432 .3909912 .07910156V-.0107421879L.5349884 0Z"/>
<path id="font_2_96" d="M.3639984 .38137818C.3639984 .41337586 .33299256 .4423828 .2899933 .4423828 .21699524 .4423828 .18099976 .37538148 .16699219 .3323822V.4423828L.027999878 .43066407V.3996582C.09799194 .3996582 .10598755 .39266969 .10598755 .34370423V.07595825C.10598755 .0309906 .09498596 .0309906 .027999878 .0309906V0L.14199829 .0029907227C.18199158 .0029907227 .22898865 .0029907227 .2689972 0V.0309906H.24798584C.17399597 .0309906 .17199707 .04197693 .17199707 .07795715V.23181153C.17199707 .33137513 .21398926 .42037965 .2899933 .42037965 .29699708 .42037965 .29899598 .42037965 .30099488 .41937257 .2979889 .41838075 .27799989 .40637208 .27799989 .3803711 .27799989 .35237123 .29899598 .33737184 .32099916 .33737184 .33898927 .33737184 .3639984 .3493805 .3639984 .38137818Z"/>
<path id="font_2_77" d="M.5349884 0V.0309906C.48298646 .0309906 .45799256 .0309906 .45700074 .061019899V.25221253C.45700074 .3383026 .45700074 .36932374 .42599488 .405365 .4119873 .42237855 .3789978 .4423828 .32099916 .4423828 .24798584 .4423828 .20098877 .39935304 .17298889 .33729554V.4423828L.03199768 .43066407V.3996582C.101989749 .3996582 .10998535 .39266969 .10998535 .34370423V.07595825C.10998535 .0309906 .09899902 .0309906 .03199768 .0309906V0L.14498902 .0029907227 .25698854 0V.0309906C.18998719 .0309906 .1789856 .0309906 .1789856 .07595825V.25978089C.1789856 .36431886 .25 .42037965 .31399537 .42037965 .3769989 .42037965 .3880005 .36631776 .3880005 .30926515V.076034549C.3880005 .0309906 .3769989 .0309906 .30999757 .0309906V0L.4229889 .0029907227 .5349884 0Z"/>
<path id="font_3_1" d="M.43899537 .71199038C.44400025 .72499087 .44400025 .72898867 .44400025 .7299957 .44400025 .7409973 .43499757 .75 .42399598 .75 .4169922 .75 .4099884 .746994 .40699769 .7409973L.05999756-.21200562C.054992677-.2250061 .054992677-.2290039 .054992677-.23001099 .054992677-.24101258 .06399536-.25 .07499695-.25 .08799744-.25 .09098816-.24301148 .09700012-.22601319L.43899537 .71199038Z"/>
<path id="font_1_4" d="M.2939911 .16503906V.07800293C.2939911 .041992189 .2919922 .0309906 .21798706 .0309906H.19699097V0C.23799134 .0029907227 .2899933 .0029907227 .33198548 .0029907227 .37399293 .0029907227 .4269867 .0029907227 .46798707 0V.0309906H.44699098C.37298585 .0309906 .37098695 .041992189 .37098695 .07800293V.16503906H.47099305V.19602967H.37098695V.65075686C.37098695 .67074587 .37098695 .6767578 .35499574 .6767578 .34599305 .6767578 .34298707 .6767578 .33499146 .66474917L.027999878 .19602967V.16503906H.2939911M.2999878 .19602967H.055999757L.2999878 .5688019V.19602967Z"/>
<path id="font_1_2" d="M.1269989 .07699585 .23298645 .18003845C.3889923 .31811524 .44898988 .3721466 .44898988 .47216798 .44898988 .5860901 .35899354 .6660156 .23699951 .6660156 .12399292 .6660156 .049987794 .57411196 .049987794 .48516847 .049987794 .4291687 .099990848 .4291687 .102996829 .4291687 .11999512 .4291687 .15499878 .44117738 .15499878 .48217774 .15499878 .5081787 .13699341 .5341797 .101989749 .5341797 .09399414 .5341797 .09199524 .5341797 .08898926 .5331726 .11199951 .59806826 .1659851 .63500979 .22399903 .63500979 .31498719 .63500979 .35798646 .5541382 .35798646 .47216798 .35798646 .39215089 .30799867 .31311036 .25299073 .25108338L.06098938 .036987306C.049987794 .025985718 .049987794 .023986817 .049987794 0H.42099L.44898988 .17404175H.42399598C.4189911 .14402771 .4119873 .1000061 .4019928 .084991458 .394989 .07699585 .32899476 .07699585 .30699159 .07699585H.1269989Z"/>
<path id="font_1_3" d="M.2899933 .35191346C.37199403 .37893678 .42999269 .4490509 .42999269 .52809146 .42999269 .6100464 .34199525 .6660156 .24598694 .6660156 .14498902 .6660156 .068984989 .60606387 .068984989 .53009036 .068984989 .49710084 .09098816 .47808839 .11999512 .47808839 .15098572 .47808839 .17098999 .50009158 .17098999 .5290985 .17098999 .57910159 .12399292 .57910159 .10899353 .57910159 .13999939 .62802127 .20599365 .64100649 .24198914 .64100649 .2829895 .64100649 .33799745 .6190338 .33799745 .5290985 .33799745 .51708987 .33599855 .45906068 .30999757 .4149933 .27999879 .36691285 .24598694 .36390687 .22099304 .36291505 .21299744 .36190797 .18899536 .35990907 .18199158 .35990907 .17399597 .35890199 .16699219 .35791017 .16699219 .3479004 .16699219 .33691407 .17399597 .33691407 .19099427 .33691407H.23498535C.31698609 .33691407 .35398866 .2686615 .35398866 .17037964 .35398866 .034469606 .2849884 .0055389406 .24099732 .0055389406 .19799805 .0055389406 .12298584 .022491456 .08799744 .08137512 .12298584 .07637024 .1539917 .09837341 .1539917 .1363678 .1539917 .17237854 .1269989 .19238281 .09799194 .19238281 .07398987 .19238281 .041992189 .17837525 .041992189 .1343689 .041992189 .043441774 .1349945-.022460938 .24398804-.022460938 .3659973-.022460938 .45700074 .06838989 .45700074 .17037964 .45700074 .252594 .3939972 .33088685 .2899933 .35191346Z"/>
</defs>
<path transform="matrix(1.00003,0,0,-1.0001,64.66753,63.885087)" stroke-width=".3985" stroke-linecap="round" stroke-miterlimit="10" stroke-linejoin="miter" fill="none" stroke="#000000" d="M42.52022 0C42.52022 23.48355 23.48355 42.52022 0 42.52022-23.48355 42.52022-42.52022 23.48355-42.52022 0-42.52022-23.48355-23.48355-42.52022 0-42.52022 23.48355-42.52022 42.52022-23.48355 42.52022 0ZM0 0"/>
<path transform="matrix(1.00003,0,0,-1.0001,64.66753,63.885087)" stroke-width=".19925" stroke-linecap="round" stroke-miterlimit="10" stroke-linejoin="miter" fill="none" stroke="#7f807f" d="M0 0H42.52022"/>
<path transform="matrix(1.00003,0,0,-1.0001,64.66753,63.885087)" stroke-width=".3985" stroke-linecap="round" stroke-miterlimit="10" stroke-linejoin="miter" fill="none" stroke="#7f807f" d="M42.52022 0H37.418"/>
<path transform="matrix(1.00003,0,0,-1.0001,64.66753,63.885087)" stroke-width=".19925" stroke-linecap="round" stroke-miterlimit="10" stroke-linejoin="miter" fill="none" stroke="#7f807f" d="M0 0V42.52022"/>
<path transform="matrix(1.00003,0,0,-1.0001,64.66753,63.885087)" stroke-width=".3985" stroke-linecap="round" stroke-miterlimit="10" stroke-linejoin="miter" fill="none" stroke="#7f807f" d="M0 42.52022V37.418"/>
<path transform="matrix(1.00003,0,0,-1.0001,64.66753,63.885087)" stroke-width=".19925" stroke-linecap="round" stroke-miterlimit="10" stroke-linejoin="miter" fill="none" stroke="#7f807f" d="M0 0H-42.52022"/>
<path transform="matrix(1.00003,0,0,-1.0001,64.66753,63.885087)" stroke-width=".3985" stroke-linecap="round" stroke-miterlimit="10" stroke-linejoin="miter" fill="none" stroke="#7f807f" d="M-42.52022 0H-37.418"/>
<path transform="matrix(1.00003,0,0,-1.0001,64.66753,63.885087)" stroke-width=".19925" stroke-linecap="round" stroke-miterlimit="10" stroke-linejoin="miter" fill="none" stroke="#7f807f" d="M0 0V-42.52022"/>
<path transform="matrix(1.00003,0,0,-1.0001,64.66753,63.885087)" stroke-width=".3985" stroke-linecap="round" stroke-miterlimit="10" stroke-linejoin="miter" fill="none" stroke="#7f807f" d="M0-42.52022V-37.418"/>
<use data-text="1" xlink:href="#font_1_1" transform="matrix(9.962899,0,0,-9.963596,114.87003,67.040409)"/>
<use data-text="t" xlink:href="#font_2_105" transform="matrix(9.962899,0,0,-9.963596,123.16927,67.040409)"/>
<use data-text="u" xlink:href="#font_2_109" transform="matrix(9.962899,0,0,-9.963596,127.04485,67.040409)"/>
<use data-text="r" xlink:href="#font_2_96" transform="matrix(9.962899,0,0,-9.963596,132.5842,67.040409)"/>
<use data-text="n" xlink:href="#font_2_77" transform="matrix(9.962899,0,0,-9.963596,136.48966,67.040409)"/>
<use data-text="1" xlink:href="#font_1_1" transform="matrix(9.962899,0,0,-9.963596,57.195306,9.393635)"/>
<use data-text="/" xlink:href="#font_3_1" transform="matrix(9.962899,0,0,-9.963596,62.177438,9.393635)"/>
<use data-text="4" xlink:href="#font_1_4" transform="matrix(9.962899,0,0,-9.963596,67.15859,9.393635)"/>
<use data-text="1" xlink:href="#font_1_1" transform="matrix(9.962899,0,0,-9.963596,.21658325,66.376338)"/>
<use data-text="/" xlink:href="#font_3_1" transform="matrix(9.962899,0,0,-9.963596,5.198715,66.376338)"/>
<use data-text="2" xlink:href="#font_1_2" transform="matrix(9.962899,0,0,-9.963596,10.179871,66.376338)"/>
<use data-text="3" xlink:href="#font_1_3" transform="matrix(9.962899,0,0,-9.963596,57.195306,123.35904)"/>
<use data-text="/" xlink:href="#font_3_1" transform="matrix(9.962899,0,0,-9.963596,62.177438,123.35904)"/>
<use data-text="4" xlink:href="#font_1_4" transform="matrix(9.962899,0,0,-9.963596,67.15859,123.35904)"/>
<path transform="matrix(1.00003,0,0,-1.0001,64.66753,63.885087)" stroke-width="1.59404" stroke-linecap="round" stroke-miterlimit="10" stroke-linejoin="miter" fill="none" stroke="#000000" d="M29.764 0C29.764 16.43842 16.43842 29.764 0 29.764-16.43842 29.764-29.764 16.43842-29.764 0-29.764-16.43842-16.43842-29.764 0-29.764 16.43842-29.764 29.764-16.43842 29.764-1.59404"/>
<path transform="matrix(0,-1.0001,-1.00003,-0,94.43242,64.682178)" stroke-width="1.59404" stroke-linecap="round" stroke-linejoin="round" fill="none" stroke="#000000" d="M-3.5069 4.55072C-2.8662 1.82025-1.43846 .5309 0 0-1.43846-.5309-2.8662-1.82025-3.5069-4.55072"/>
<path transform="matrix(1.00003,0,0,-1.0001,64.66753,63.885087)" d="M1.19553 0C1.19553 .66026 .66026 1.19553 0 1.19553-.66026 1.19553-1.19553 .66026-1.19553 0-1.19553-.66026-.66026-1.19553 0-1.19553 .66026-1.19553 1.19553-.66026 1.19553 0ZM0 0"/>
</svg>
